<svg width="125" height="109" viewBox="0 0 125 109" fill="none" xmlns="http://www.w3.org/2000/svg">
<g clip-path="url(#clip0_1136_8048)">
<path d="M116.669 90.291C116.765 90.6339 116.849 90.8026 116.669 90.291V90.291Z" fill="#FDBB04"/>
<path d="M116.669 90.291C116.765 90.6339 116.849 90.8026 116.669 90.291V90.291Z" fill="#FDBB04"/>
<path d="M115.36 76.5624C115.68 75.8997 116.023 75.3324 116.371 74.8438C115.529 76.5343 114.625 77.8149 114.681 76.8713C114.905 76.7702 115.136 76.6635 115.355 76.5624H115.36Z" fill="#FDBB04"/>
<path d="M122.942 83.0508C123.038 83.3937 123.122 83.5623 122.942 83.0508V83.0508Z" fill="#FDBB04"/>
<path d="M110.8 83.8085C111.12 83.1457 111.463 82.5785 111.811 82.0898C110.968 83.7804 110.064 85.061 110.12 84.1174C110.345 84.0163 110.575 83.9096 110.794 83.8085H110.8Z" fill="#FDBB04"/>
<path d="M115.36 76.5624C115.68 75.8997 116.023 75.3324 116.371 74.8438C115.529 76.5343 114.625 77.8149 114.681 76.8713C114.905 76.7702 115.136 76.6635 115.355 76.5624H115.36Z" fill="#FDBB04"/>
<path d="M110.8 83.8085C111.12 83.1457 111.463 82.5785 111.811 82.0898C110.968 83.7804 110.064 85.061 110.12 84.1174C110.345 84.0163 110.575 83.9096 110.794 83.8085H110.8Z" fill="#FDBB04"/>
<path d="M115.36 76.5624C115.68 75.8997 116.023 75.3324 116.371 74.8438C115.529 76.5343 114.625 77.8149 114.681 76.8713C114.905 76.7702 115.136 76.6635 115.355 76.5624H115.36Z" fill="#FDBB04"/>
<path d="M116.933 70.2329C116.838 70.2779 116.731 70.3341 116.613 70.4016C116.613 70.4016 116.675 70.3229 116.781 70.1992C116.832 70.2105 116.883 70.2217 116.933 70.2329Z" fill="#FDBB04"/>
<path d="M122.942 83.0508C123.038 83.3937 123.122 83.5623 122.942 83.0508V83.0508Z" fill="#FDBB04"/>
<path d="M42.4186 25.959C42.4186 25.959 41.6042 30.8341 42.8062 34.4511C44.0081 38.0682 37.4424 33.9176 42.4186 25.959Z" fill="#FDBB04"/>
<path d="M108.542 32.2773C108.542 32.2773 111.518 40.2696 110.665 46.7848C109.816 53.3055 119.578 44.1225 108.542 32.2773Z" fill="#7F364F"/>
<path d="M17.1892 55.9388C17.1892 55.9388 15.7514 50.3279 16.7961 45.9808C17.8407 41.6392 10.5786 47.1378 17.1892 55.9388Z" fill="#FDBB04"/>
<path d="M124.015 60.9497C123.869 61.4945 123.718 62.0281 123.561 62.5504C123.476 62.8369 123.386 63.1177 123.297 63.3985C123.145 63.8759 122.988 64.3365 122.842 64.7858C122.853 64.8419 122.87 64.8981 122.881 64.9543C122.892 65.0104 122.903 65.061 122.915 65.1115C122.915 65.1115 122.915 65.1172 122.915 65.1228H122.887L119.932 84.1796C119.5 84.056 119.062 83.9324 118.618 83.8089C117.961 83.6291 117.298 83.455 116.63 83.2809C115.636 83.0226 114.63 82.7754 113.608 82.5339C113.513 82.2531 113.271 82.1576 112.822 82.3486C112.726 82.3935 112.62 82.4497 112.502 82.5171C112.502 82.5171 112.563 82.4384 112.67 82.3093C113.473 81.3545 116.911 77.3611 117.697 76.4288C117.792 76.3165 117.849 76.2491 117.854 76.2378C117.843 76.2378 117.792 76.2659 117.714 76.3165C117.102 76.6534 114.597 78.0239 112.412 79.2258C110.53 80.2592 108.885 81.1579 108.879 81.1635C108.761 81.2309 108.649 81.3208 108.536 81.4219C108.132 81.3432 107.722 81.259 107.312 81.1803C105.296 80.7872 103.229 80.4165 101.111 80.0795C99.1175 79.7594 97.0843 79.4617 95.0118 79.1921C92.9506 78.9225 90.85 78.6754 88.7101 78.4563C85.7615 78.153 82.7454 77.9003 79.6676 77.7037C77.64 77.5689 75.5844 77.4678 73.5063 77.3836C70.3947 77.26 67.2326 77.187 64.0312 77.1758C63.6606 77.1758 63.2899 77.1758 62.9136 77.1758C61.0938 77.1758 59.2909 77.1926 57.4993 77.2319C56.1738 77.26 54.8595 77.2993 53.5509 77.3443C50.7482 77.4398 47.9849 77.5858 45.2665 77.7711C43.4243 77.8947 41.6102 78.0407 39.8129 78.2036C37.6786 78.3946 35.578 78.6136 33.5112 78.8607C32.3317 79.0011 31.1635 79.1472 30.0065 79.3044C28.0856 79.5628 26.2041 79.8436 24.3563 80.1413C22.2108 80.4895 20.1215 80.8658 18.0827 81.2702C15.9989 81.6858 13.9714 82.1239 12.0056 82.5957C10.916 82.8541 9.84886 83.1237 8.79858 83.3932C8.79858 83.3539 8.79858 83.3146 8.79858 83.2809V82.1295C8.76488 81.6072 8.74805 81.259 8.74805 81.0849C8.74805 79.1303 9.0401 77.3836 9.6186 75.8447C10.916 75.1707 11.7248 74.0305 11.5057 72.6208C11.4833 72.4635 11.444 72.295 11.3878 72.1265C11.0677 71.0875 10.9328 70.0484 10.9778 69.0094C11.0002 68.4421 11.0789 67.8805 11.2025 67.3244C12.0056 63.6569 14.8756 60.2364 18.6948 57.9337C19.4643 57.4675 20.1776 56.9901 20.8348 56.479C24.8 53.4011 26.4962 49.3011 25.4009 41.2133C25.2718 40.2698 25.3111 39.3599 25.474 38.4781C26.9511 30.6599 38.8188 25.5658 39.0154 25.4815C38.9536 25.6781 34.7468 39.7811 42.0707 39.4554C43.3625 39.3992 44.4746 39.27 45.4238 39.0341C49.8664 37.9221 50.6471 34.4174 49.5575 24.7233C49.0801 20.4772 50.4449 16.102 52.377 12.2434C55.8031 5.41938 61.0208 0.212891 61.0208 0.212891C64.0762 13.6419 70.771 13.8329 82.3803 19.2247C83.616 19.7976 84.9078 20.4323 86.2557 21.1512C88.7101 22.4486 91.3499 24.0156 94.1918 25.9926C113.271 39.2363 102.959 56.0858 112.26 56.1869C121.561 56.288 123.487 47.3465 123.487 47.3465C125.7 51.9408 125.128 56.8047 124.027 60.9609L124.015 60.9497Z" fill="#7F364F"/>
<path d="M122.561 63.5556V91.7897H116.017C114.097 91.7897 112.361 91.1439 110.985 89.9307L109.659 88.7512V88.3412C109.452 87.9986 109.249 87.6167 109.075 87.1898C108.834 87.51 108.576 87.8245 108.295 88.1222C106.132 90.4249 103.201 91.6606 99.5779 91.7897H99.5048H88.109C85.7051 91.7897 83.7506 91.1607 82.2959 89.9195C81.7623 89.4645 81.1838 88.8242 80.7177 87.9537C80.6784 87.9986 80.639 88.0435 80.5997 88.0885C78.4992 90.4081 75.573 91.6549 71.8998 91.7841H71.8324H63.8176C63.3852 91.7841 62.9527 91.7673 62.5258 91.7336C61.571 91.6943 60.6331 91.6044 59.7344 91.464H59.7176C58.0439 91.1888 56.505 90.7451 55.1233 90.1329C54.5616 90.38 53.9607 90.6047 53.3091 90.8125C51.3939 91.4584 49.4787 91.7841 47.6084 91.7841H41.3516C37.7065 91.6493 34.7803 90.4362 32.6517 88.1783C32.1799 87.6841 31.7643 87.1505 31.3936 86.5889C31.1745 86.8922 30.9442 87.1898 30.7027 87.4763L30.669 87.5156C28.2259 90.307 24.7998 91.7841 20.7616 91.7841C20.1494 91.7841 19.5428 91.7448 18.953 91.6606C18.5543 92.2615 18.1274 92.8063 17.6781 93.2894L17.3692 93.924L16.6278 94.2947C16.1448 94.6991 15.6225 95.0642 15.0777 95.3787C13.4489 96.3223 11.573 96.8053 9.52856 96.8053H9.34883L8.80963 96.7547C6.53495 96.6986 4.68713 96.0358 3.30547 94.7946C2.24395 93.8398 0.974609 92.0706 0.974609 89.1163V83.3482H4.93423C4.96793 83.2527 5.00166 83.1628 5.03536 83.0673C6.33277 82.3933 7.14154 81.2588 6.9225 79.8435C6.90003 79.6806 6.85509 79.5177 6.80454 79.3436C6.47878 78.3045 6.34961 77.2655 6.38892 76.2264C6.52372 72.9689 8.36594 69.8012 11.1742 67.3018C12.0616 66.5099 13.0445 65.7854 14.1004 65.1507C17.6725 62.994 19.9865 60.5395 20.8008 56.4564C21.2277 54.2996 21.2445 51.6879 20.8008 48.4304C20.2673 44.482 22.5757 41.0784 25.4401 38.4555C29.3492 34.8721 34.2917 32.7547 34.4209 32.6986C34.3591 32.9008 30.1523 46.9982 37.4762 46.6724C43.0534 46.4253 45.2326 44.8527 45.3899 39.0115C45.4404 37.13 45.2832 34.8104 44.963 31.9459C44.1486 24.667 48.7317 17.0061 52.3487 12.2264C54.5729 9.28338 56.4263 7.43555 56.4263 7.43555C60.3972 24.8972 70.5181 19.9716 89.603 33.2153C101.021 41.1402 101.914 50.3512 102.779 56.5013H103.307C103.442 56.5013 103.577 56.5013 103.706 56.5069H103.728C105.604 56.5743 107.211 57.1135 108.452 58.0514V56.5013H115.225C116.776 56.5013 118.286 57.0012 119.589 57.9391C119.713 58.029 119.848 58.1357 119.999 58.2536L120.112 58.3491C121.258 59.3601 122.038 60.6182 122.364 61.9998C122.482 62.5053 122.544 63.022 122.544 63.5444L122.561 63.5556Z" fill="#FDBB04"/>
<path d="M80.1561 69.953C81.0996 68.9589 81.5995 67.7233 81.5995 66.3865C81.5995 65.0498 81.0884 63.8029 80.1224 62.8369C80.1111 62.8257 80.0943 62.8088 80.083 62.7976C79.0889 61.854 77.8701 61.3542 76.5615 61.3542C75.2528 61.3542 73.9779 61.8653 73.0062 62.8313C72.0402 63.7973 71.5291 65.0273 71.5291 66.3865C71.5291 67.7457 72.0402 69.0207 73.0119 69.9923C73.0287 70.0092 73.0456 70.0204 73.0624 70.0373C72.2143 70.2395 71.5797 70.9977 71.5797 71.9132V79.6302C71.5797 80.0346 71.5122 80.2031 71.4898 80.2424C71.4617 80.2537 71.3831 80.2874 71.2202 80.3042H64.1883C64.2108 80.2761 64.2333 80.2481 64.2558 80.22C64.6714 79.6696 65.0645 79.1079 65.4296 78.5575C65.4745 78.4957 65.5138 78.4283 65.5588 78.3665L65.643 78.243C66.6989 76.6479 67.5077 75.1764 68.0413 73.8733C68.3951 73.0084 68.075 72.0199 67.2886 71.52L66.3058 70.8966L65.3454 70.2451C64.6601 69.7564 64.0648 69.3689 63.5256 69.0656C62.7842 68.6163 62.0597 68.2231 61.3745 67.8918C61.3633 67.8861 61.352 67.8805 61.3408 67.8749C59.3526 66.9707 57.3812 66.5157 55.4772 66.5157C54.0787 66.5157 52.5453 66.8527 50.9278 67.5211C50.3212 67.757 49.6753 68.049 48.9564 68.4085C48.479 68.6444 47.9005 68.9645 47.1928 69.3857C47.1254 69.4251 47.0636 69.4644 47.0075 69.5093L45.4742 70.3574C44.862 70.6888 44.3284 70.9584 43.8847 71.1549C43.1826 71.4639 42.7333 72.1547 42.7333 72.9185C42.7333 73.0477 42.7333 73.3678 42.694 74.0868L42.6547 74.727L42.621 74.9686C42.6098 75.0584 42.5985 75.1539 42.5985 75.2438V75.4853C42.5368 76.221 42.5087 76.9119 42.5087 77.5297C42.5087 78.4227 43.1209 79.1978 43.9914 79.4056C44.2329 79.4617 44.4632 79.5291 44.6766 79.6022C45.2102 79.7763 45.7325 80.0122 46.238 80.3098H42.0144C41.8796 80.293 41.801 80.2705 41.7673 80.2537C41.7673 80.2481 41.7617 80.2368 41.7561 80.22V63.6064C41.7561 62.1685 41.1495 60.8768 40.0037 59.8714C39.9868 59.8602 39.9756 59.8433 39.9588 59.8321C38.9029 58.9671 37.7234 58.5234 36.4485 58.5234H33.5223C32.4551 58.5234 31.5958 59.3884 31.5958 60.4499V74.3451C31.1465 72.6826 30.3602 71.183 29.22 69.8688C27.1419 67.493 24.4235 66.2854 21.1491 66.2854C17.8747 66.2854 15.0496 67.42 13.022 69.661C12.9378 69.7508 12.8592 69.8463 12.7749 69.9418C11.9942 70.8629 11.3596 71.9076 10.899 73.0477C10.2644 74.6147 9.94421 76.3951 9.94421 78.3441C9.94421 78.5294 9.95542 78.8102 9.98912 79.3213V80.2649C9.98912 80.3042 9.98912 80.3435 9.98912 80.3829C10.0621 81.596 10.079 82.2532 10.079 82.5958V82.6126C10.079 85.3703 9.20282 85.3703 8.62993 85.3703H4.93427C3.86713 85.3703 3.00781 86.2352 3.00781 87.2968V89.1221C3.00781 92.5763 5.22633 94.6768 8.94446 94.7499L9.37132 94.7892C9.42748 94.7892 9.48926 94.7948 9.54542 94.7948C11.2304 94.7948 12.7637 94.4016 14.0892 93.6378C14.6845 93.2952 15.2462 92.8796 15.746 92.4022C15.746 92.4022 15.7573 92.3909 15.7629 92.3853C16.3526 91.8293 16.9143 91.1441 17.4254 90.3465C17.4366 90.3297 17.4478 90.3128 17.4535 90.296C17.6107 90.032 17.7736 89.7399 17.9477 89.4142C18.8632 89.6557 19.8068 89.7793 20.7784 89.7793C24.2663 89.7793 27.0914 88.5717 29.1695 86.1959C29.1695 86.1903 29.1807 86.1847 29.1863 86.1791C30.3939 84.7637 31.2195 83.09 31.652 81.1804C31.8766 83.427 32.7023 85.3141 34.1289 86.8025C35.8812 88.6672 38.3412 89.6669 41.4415 89.7793C41.464 89.7793 41.4865 89.7793 41.5089 89.7793H47.6253C49.2821 89.7793 50.9896 89.4872 52.7026 88.9087C53.6125 88.6223 54.4269 88.2853 55.1402 87.909C56.5667 88.656 58.218 89.1839 60.0715 89.4872C60.9083 89.6164 61.7845 89.7006 62.6719 89.7343C63.0538 89.768 63.447 89.7849 63.8401 89.7849H71.7875C71.7875 89.7849 71.8324 89.7849 71.8549 89.7849C74.9664 89.6725 77.4152 88.6503 79.1395 86.7407C80.7795 84.9828 81.6107 82.6856 81.6107 79.9111V75.9851C81.6107 73.5644 80.6952 71.7728 79.0665 70.8067C79.4315 70.5989 79.7741 70.3406 80.0999 70.0316C80.1223 70.0092 80.1504 69.9867 80.1729 69.9586L80.1561 69.953ZM19.7899 80.3716C19.7899 80.3716 19.7787 80.3548 19.7787 80.3492C19.5709 79.9616 19.3181 79.1978 19.3181 77.7543C19.3181 75.0696 20.1887 75.0696 20.7672 75.0696C21.4468 75.0696 22.5813 75.0696 22.5813 78.3441C22.5813 78.8776 22.542 79.3494 22.4578 79.7482C22.4578 79.7482 22.4578 79.7538 22.4578 79.7594C22.4409 79.8549 22.4128 79.9504 22.3847 80.0515C22.3847 80.0571 22.3848 80.0627 22.3791 80.0683C22.1601 80.8153 21.8793 81.0287 21.1323 81.0287C20.2617 81.0287 20.0033 80.7198 19.8236 80.4278C19.818 80.4166 19.8068 80.4053 19.8012 80.3885L19.7843 80.3604L19.7899 80.3716ZM56.4825 75.4628C56.3365 75.6313 56.2017 75.7886 56.0613 75.9402C55.8759 76.148 55.6906 76.3446 55.5165 76.5299C55.3031 76.3446 55.1008 76.1592 54.8987 75.9627C54.865 75.929 54.8313 75.8953 54.7976 75.8672L54.7245 75.7998C54.6796 75.7549 54.6347 75.7099 54.5841 75.6706L54.5167 75.6144C54.9885 75.4965 55.4715 75.4403 55.9658 75.4403C56.1287 75.4403 56.3028 75.4459 56.4769 75.4628H56.4825Z" fill="white"/>
<path d="M103.667 58.5285C103.667 58.5285 103.661 58.5285 103.656 58.5285C103.549 58.5285 103.431 58.5229 103.319 58.5229H101.128C100.061 58.5229 99.2019 59.3878 99.2019 60.4493V79.6746C99.2019 79.7589 99.2019 79.8263 99.1907 79.8824C99.1907 79.9161 99.1851 79.9498 99.1851 79.9835C99.1851 79.9947 99.1851 80.006 99.1851 80.0172C99.1682 80.152 99.1401 80.2306 99.1233 80.2643C99.0896 80.2756 99.0222 80.2924 98.9098 80.3037H96.9385V63.5553C96.9385 62.5836 96.6296 61.1682 95.1973 59.9158C95.759 59.7585 96.2533 59.4552 96.6464 59.0284C97.2249 58.4274 97.5338 57.686 97.5338 56.8885V55.7427C97.5338 55.153 97.2698 54.625 96.8486 54.2712C96.9722 53.878 97.0283 53.5073 97.0283 53.1423C97.0283 53.0019 97.0115 52.8671 96.9834 52.7323C96.4835 50.4351 94.7143 49.1152 92.1307 49.1152C90.5469 49.1152 89.1989 49.6994 88.2273 50.8114C87.4747 51.6483 87.0366 52.6873 86.913 53.9117C86.1492 54.1645 85.5931 54.889 85.5931 55.7427V56.8885C85.5931 57.6916 85.902 58.433 86.4862 59.034C86.6546 59.2137 86.8344 59.371 87.031 59.5058C86.8737 59.7866 86.7838 60.1067 86.7838 60.4493V80.3037H83.779C82.7119 80.3037 81.8525 81.1686 81.8525 82.2301V84.151C81.8525 86.4144 82.8073 87.7062 83.6105 88.3914C84.6889 89.3125 86.2053 89.7787 88.1149 89.7787H99.4378C99.4378 89.7787 99.4827 89.7787 99.5052 89.7787C102.577 89.6664 105.037 88.6498 106.824 86.7458C108.155 85.3248 108.963 83.5331 109.222 81.4213C109.222 81.4045 109.222 81.382 109.227 81.3652C109.284 80.8934 109.306 80.3991 109.306 79.9049V64.4707C109.306 63.9765 109.267 63.5047 109.194 63.0891C108.727 60.3033 106.711 58.6408 103.661 58.5341L103.667 58.5285Z" fill="white"/>
<path d="M120.421 62.4718C120.185 61.4833 119.64 60.6072 118.798 59.8658C118.781 59.8489 118.764 59.8321 118.742 59.8208C118.624 59.7254 118.523 59.6467 118.427 59.5793C117.455 58.8773 116.383 58.5234 115.243 58.5234H112.412C111.345 58.5234 110.485 59.3884 110.485 60.4499V83.8707C110.485 85.6736 111.041 87.1451 112.142 88.246C112.159 88.2628 112.182 88.2853 112.198 88.3021C112.226 88.3246 112.249 88.3471 112.271 88.3695C112.288 88.3864 112.305 88.4032 112.328 88.4201C113.339 89.3187 114.58 89.7736 116.023 89.7736H118.624C119.691 89.7736 120.55 88.9087 120.55 87.8472V63.5558C120.55 63.1907 120.511 62.8257 120.427 62.4775L120.421 62.4718Z" fill="white"/>
<path d="M21.1379 68.2129C18.3241 68.2129 16.0887 69.1284 14.4374 70.9594C14.37 71.0324 14.3082 71.1054 14.2465 71.184C13.5893 71.9535 13.067 72.8184 12.6851 73.7732C12.1459 75.1156 11.8707 76.6432 11.8707 78.3507C11.8707 78.5023 11.8876 78.8112 11.9156 79.2662V80.2715C11.9774 81.3049 12.0055 82.08 12.0055 82.5967V82.6248C12.0055 85.7476 10.8766 87.309 8.62434 87.309H4.92871V89.1343C4.92871 91.5719 6.29914 92.8019 9.03999 92.8356L9.53983 92.8806C10.8878 92.8806 12.0841 92.5773 13.1288 91.9763C13.5893 91.7123 14.0162 91.3922 14.415 91.0159C14.415 91.0159 14.4206 91.0159 14.4262 91.0046C14.9148 90.5497 15.3698 89.9881 15.7966 89.3141C16.0718 88.8535 16.3751 88.2806 16.7121 87.5786L16.9873 87.0338C18.178 87.5786 19.4361 87.8538 20.7785 87.8538C23.7047 87.8538 26.0131 86.8765 27.7149 84.9276C28.8606 83.5852 29.5907 81.9621 29.9053 80.0581C29.9502 79.811 29.9839 79.5582 30.0064 79.2999C30.0625 78.8056 30.085 78.2889 30.085 77.7553C30.085 75.138 29.3099 72.9307 27.7541 71.1391C26.0523 69.1902 23.8395 68.2129 21.1379 68.2129ZM24.3562 80.1367C24.3225 80.2996 24.2832 80.4625 24.2382 80.6141C23.7777 82.1811 22.7442 82.9618 21.1379 82.9618C19.79 82.9618 18.8071 82.4563 18.1893 81.4454C18.1499 81.3892 18.1162 81.3274 18.0882 81.2656C17.6276 80.4175 17.3973 79.2493 17.3973 77.7553C17.3973 74.6831 18.5206 73.1442 20.7785 73.1442C23.2722 73.1442 24.5247 74.8797 24.5247 78.3507C24.5247 79.019 24.4685 79.6144 24.3674 80.1367H24.3562Z" fill="#7F364F"/>
<path d="M76.5669 63.2812C75.7132 63.2812 74.983 63.5902 74.3764 64.1967C73.7642 64.8089 73.4609 65.5391 73.4609 66.3872C73.4609 67.2353 73.7642 68.016 74.3764 68.6225C74.9886 69.2291 75.7132 69.538 76.5669 69.538C77.4206 69.538 78.117 69.2291 78.7573 68.6225C79.3639 67.9823 79.6728 67.2353 79.6728 66.3872C79.6728 65.5391 79.3639 64.8033 78.7573 64.1967C78.117 63.5902 77.3869 63.2812 76.5669 63.2812Z" fill="#7F364F"/>
<path d="M75.7414 71.9088H73.5061V79.6259C73.5061 81.2435 72.7759 82.1084 71.3156 82.232H61.8181L60.9532 82.187C60.6443 82.187 60.3578 82.1421 60.0883 82.0522C60.9757 81.2041 61.8519 80.2044 62.7112 79.0642C63.0875 78.5644 63.4582 78.042 63.8289 77.486C63.9019 77.3849 63.9693 77.2782 64.0367 77.1771C65.0252 75.6887 65.7666 74.3408 66.2552 73.1445L65.2498 72.5042L64.2445 71.819C63.6042 71.3584 63.0425 70.9933 62.5539 70.7237C61.8575 70.2969 61.1835 69.9318 60.5488 69.6285C58.8133 68.8422 57.1228 68.4434 55.4771 68.4434C54.3201 68.4434 53.0396 68.7355 51.6411 69.3084C51.0906 69.5218 50.4841 69.797 49.8157 70.134C49.3888 70.3474 48.8384 70.6507 48.1701 71.0495H48.215L47.3051 71.5494L46.3896 72.0549C45.7157 72.4199 45.1428 72.7064 44.6541 72.9198C44.6541 73.1613 44.6429 73.5882 44.6092 74.2004L44.5643 74.9305L44.5193 75.2507V75.5708C44.4576 76.3009 44.4295 76.9581 44.4295 77.5309C44.7159 77.5983 44.9967 77.677 45.2719 77.7668C46.2436 78.087 47.1703 78.5588 48.0465 79.1878C49.0799 79.9292 50.0516 80.884 50.9614 82.0522C50.6862 82.1702 49.9673 82.232 48.8159 82.232H41.9245C40.7338 82.1421 40.0318 81.5467 39.824 80.4515V63.602C39.824 62.7202 39.4589 61.9564 38.7287 61.3161C38.0267 60.7376 37.2684 60.4512 36.4428 60.4512H33.5166V79.9011C33.5166 82.2151 34.185 84.0742 35.5273 85.4727C36.9258 86.9667 38.9197 87.7586 41.5089 87.8485H47.6252C49.0855 87.8485 50.5795 87.5901 52.1016 87.0734C53.3485 86.6802 54.3538 86.2084 55.1177 85.658C56.5443 86.6016 58.2966 87.2419 60.3691 87.5789C61.1273 87.6968 61.9361 87.7754 62.7898 87.8091C63.1212 87.8372 63.475 87.8541 63.8401 87.8541H71.7874C74.371 87.7642 76.348 86.9554 77.7185 85.4334C79.0271 84.0348 79.6842 82.1926 79.6842 79.9067V75.9808C79.6842 73.2736 78.3756 71.9144 75.7583 71.9144L75.7414 71.9088ZM57.4991 77.222C56.8138 77.9859 56.2017 78.5981 55.6512 79.0755C54.8986 78.5475 54.1966 77.969 53.5451 77.3344C53.4833 77.2726 53.4271 77.2164 53.3653 77.1603L52.0847 76.11C51.568 75.7168 51.158 75.3911 50.8547 75.1495L51.2648 74.8743L51.7646 74.5991C52.1578 74.4194 52.5566 74.2509 52.9497 74.0993C53.927 73.7061 54.9267 73.5039 55.9658 73.5039C57.1228 73.5039 58.4145 73.796 59.8468 74.3689C58.993 75.4753 58.2067 76.4245 57.4934 77.2164L57.4991 77.222Z" fill="#7F364F"/>
<path d="M103.599 60.4551C103.51 60.4551 103.414 60.4551 103.319 60.4551H101.128V79.6804C101.128 79.8208 101.128 79.9556 101.111 80.0847C101.111 80.1409 101.106 80.1915 101.1 80.242C100.943 81.4889 100.235 82.1516 98.9827 82.2359H95.0118V63.561C95.0118 62.7129 94.6299 61.9603 93.8717 61.3256C93.1696 60.7471 92.4058 60.4607 91.5858 60.4607H88.7101V82.2415H83.7788V84.1623C83.7788 86.628 85.2223 87.858 88.1148 87.858H99.4376C101.993 87.7681 103.987 86.9593 105.419 85.4373C106.475 84.314 107.104 82.8986 107.306 81.2024C107.357 80.7868 107.379 80.36 107.379 79.9162V64.4821C107.379 64.1002 107.351 63.7463 107.295 63.415C106.981 61.5278 105.745 60.5449 103.594 60.4663L103.599 60.4551Z" fill="#7F364F"/>
<path d="M88.8052 58.12H94.2363C94.6632 58.12 95.0002 57.9796 95.2417 57.71C95.4832 57.4685 95.6068 57.1933 95.6068 56.89V55.7442H91.5011C91.3158 55.5645 91.2259 55.1489 91.2259 54.5142C91.2259 53.5987 91.4843 53.1438 92.001 53.1438H92.411C92.5963 53.2056 92.7761 53.2786 92.9614 53.3741C93.4164 53.711 93.7983 54.3626 94.1016 55.3398C94.7699 54.4243 95.1069 53.6942 95.1069 53.1494C94.798 51.7509 93.8151 51.0488 92.1358 51.0488C91.1023 51.0488 90.2823 51.397 89.6757 52.0991C89.0972 52.7394 88.8108 53.5931 88.8108 54.6546V54.9748C88.8108 55.3679 88.8221 55.6319 88.8558 55.7498H87.5303V56.8956C87.5303 57.1989 87.6538 57.4741 87.8953 57.7156C88.1368 57.9908 88.4457 58.1256 88.8108 58.1256L88.8052 58.12Z" fill="#7F364F"/>
<path d="M118.545 62.9168C118.405 62.3215 118.062 61.7879 117.523 61.3161C117.45 61.2543 117.371 61.1982 117.298 61.142C116.658 60.6815 115.973 60.4512 115.237 60.4512H112.406V83.872C112.406 85.1525 112.771 86.1579 113.501 86.888C113.535 86.9217 113.569 86.9498 113.603 86.9779C114.254 87.5564 115.057 87.8485 116.018 87.8485H118.618V63.5571C118.618 63.3381 118.596 63.1246 118.545 62.9224V62.9168Z" fill="#7F364F"/>
<path d="M24.8222 102.001C25.558 102.001 25.9286 102.372 25.9286 103.108V104.175C25.9286 104.793 25.7489 105.298 25.3839 105.686C24.9963 106.101 24.4515 106.315 23.7438 106.332H20.0201C19.0091 106.332 18.3071 105.967 17.9083 105.242C17.7566 104.978 17.6611 104.669 17.6106 104.326C17.5881 104.192 17.5713 104.057 17.5601 103.916C17.5545 103.81 17.5488 103.697 17.5488 103.579C17.5488 102.175 18.0262 101.468 18.9754 101.468H19.8572C19.5371 101.749 19.2899 102.086 19.1271 102.473C18.9754 102.793 18.9024 103.096 18.9024 103.377V103.551C18.908 103.636 18.9193 103.709 18.9249 103.776C18.9417 103.956 18.981 104.113 19.0372 104.248C19.1889 104.619 19.4641 104.804 19.8684 104.804H23.6259C24.0134 104.781 24.21 104.546 24.21 104.096V102.001H24.8166H24.8222ZM20.5031 101.108C20.329 100.934 20.2447 100.732 20.2447 100.502C20.2447 100.271 20.329 100.069 20.5031 99.8951C20.666 99.721 20.8682 99.6367 21.0985 99.6367C21.3287 99.6367 21.5197 99.721 21.6938 99.8951C21.8567 100.069 21.9409 100.271 21.9409 100.502C21.9409 100.732 21.8567 100.934 21.6938 101.108C21.5197 101.271 21.3231 101.355 21.0985 101.355C20.8738 101.355 20.666 101.271 20.5031 101.108ZM22.3902 101.108C22.2161 100.934 22.1319 100.732 22.1319 100.502C22.1319 100.271 22.2161 100.069 22.3902 99.8951C22.5531 99.721 22.7497 99.6367 22.9744 99.6367C23.199 99.6367 23.4068 99.721 23.5809 99.8951C23.7551 100.069 23.8393 100.271 23.8393 100.502C23.8393 100.732 23.7551 100.934 23.5809 101.108C23.4068 101.271 23.2047 101.355 22.9744 101.355C22.7441 101.355 22.5587 101.271 22.3902 101.108Z" fill="#7F364F"/>
<path d="M28.6303 104.322C28.6864 104.619 28.8774 104.782 29.2031 104.805H29.512V106.332H29.0908C28.3887 106.31 27.844 106.091 27.4677 105.687C27.1026 105.305 26.9229 104.799 26.9229 104.176V98.8906H27.7148C27.9395 98.8906 28.1473 98.9693 28.3326 99.1265C28.5292 99.3006 28.6303 99.5084 28.6303 99.7443V104.322Z" fill="#7F364F"/>
<path d="M31.6405 102C32.3594 102 32.7188 102.371 32.7188 103.106V104.174C32.7188 104.791 32.5391 105.297 32.1852 105.673C31.8033 106.089 31.2698 106.308 30.5733 106.33H29.1973V104.803H30.4385C30.8373 104.769 31.0339 104.533 31.0339 104.095V102H31.6405ZM29.6691 108.392C29.5062 108.217 29.4219 108.015 29.4219 107.785C29.4219 107.555 29.5062 107.353 29.6691 107.19C29.8319 107.027 30.0398 106.943 30.2757 106.943C30.5116 106.943 30.7081 107.027 30.871 107.19C31.0339 107.353 31.1181 107.555 31.1181 107.785C31.1181 108.015 31.0339 108.217 30.871 108.392C30.7081 108.554 30.5059 108.639 30.2757 108.639C30.0454 108.639 29.8432 108.554 29.6691 108.392ZM31.5787 108.392C31.4158 108.217 31.3315 108.015 31.3315 107.785C31.3315 107.555 31.4158 107.353 31.5787 107.19C31.7415 107.027 31.9437 106.943 32.174 106.943C32.4043 106.943 32.6065 107.027 32.7694 107.19C32.9435 107.353 33.0277 107.555 33.0277 107.785C33.0277 108.015 32.9435 108.217 32.7694 108.392C32.6065 108.554 32.4043 108.639 32.174 108.639C31.9437 108.639 31.7415 108.554 31.5787 108.392Z" fill="#7F364F"/>
<path d="M38.6051 102.299C38.8522 102.777 38.9758 103.338 38.9758 103.973L38.9645 104.804H40.2058V106.332H38.8803C38.7398 106.877 38.4422 107.326 37.9873 107.685C37.4088 108.146 36.6449 108.382 35.707 108.382C35.4093 108.382 35.1678 108.309 34.988 108.168C34.8083 108.028 34.7128 107.854 34.7128 107.646V107.039C35.8642 107.017 36.673 106.775 37.1448 106.321C36.2293 106.27 35.516 106.096 35.0105 105.787C34.3141 105.366 33.9658 104.686 33.9658 103.754C33.9658 102.962 34.1793 102.31 34.6117 101.805C35.0723 101.266 35.7013 100.996 36.4989 100.996C36.8022 100.996 37.1111 101.052 37.4144 101.159C37.9367 101.372 38.3298 101.754 38.6051 102.299ZM35.9372 104.619C36.1506 104.742 36.4764 104.804 36.9145 104.804H37.4368V104.529L37.4256 104.147L37.4144 103.765C37.3919 103.484 37.347 103.248 37.2908 103.057C37.1392 102.58 36.8415 102.338 36.3978 102.338C36.1001 102.338 35.8698 102.456 35.7182 102.698C35.5609 102.923 35.4823 103.22 35.4823 103.591C35.4823 104.085 35.6339 104.428 35.9428 104.619H35.9372Z" fill="#7F364F"/>
<path d="M39.8687 104.805H41.7446V106.332H39.8687V104.805Z" fill="#7F364F"/>
<path d="M41.2954 104.805H43.1713V106.332H41.2954V104.805Z" fill="#7F364F"/>
<path d="M42.7222 104.805H44.5981V106.332H42.7222V104.805Z" fill="#7F364F"/>
<path d="M44.1484 104.805H46.0244V106.332H44.1484V104.805Z" fill="#7F364F"/>
<path d="M56.0834 104.803V106.331H55.4656C54.9096 106.331 54.4603 106.179 54.112 105.882C53.9323 106.039 53.6964 106.157 53.4044 106.23C53.1628 106.286 52.8988 106.32 52.6124 106.331H52.3148C52.1743 106.326 52.0339 106.309 51.8935 106.281C51.4723 106.224 51.124 106.118 50.8488 105.96C50.5287 106.208 49.9502 106.331 49.1246 106.331H45.603V104.803H46.8667V101.366H47.6474C47.8609 101.366 48.063 101.445 48.254 101.602C48.4618 101.776 48.5629 101.978 48.5629 102.209V104.803H49.3829C49.7873 104.77 49.9895 104.539 49.9895 104.107V101.366H50.5849C51.315 101.366 51.6745 101.731 51.6745 102.456V103.422C51.6745 103.652 51.6689 103.882 51.652 104.107C51.6464 104.287 51.6295 104.461 51.6014 104.629C51.7025 104.747 51.944 104.803 52.3316 104.803C52.8258 104.77 53.0786 104.539 53.0786 104.107V101.366H53.6852C54.4153 101.366 54.7748 101.731 54.7748 102.456C54.7748 102.647 54.7748 102.843 54.786 103.051V104.231C54.8085 104.612 55.0051 104.803 55.3701 104.803H56.0778H56.0834ZM49.2987 100.237C49.1246 100.063 49.0403 99.8609 49.0403 99.6306C49.0403 99.4004 49.1246 99.1982 49.2987 99.0241C49.4616 98.85 49.6638 98.7657 49.894 98.7657C50.1243 98.7657 50.3153 98.85 50.4894 99.0241C50.6523 99.1982 50.7365 99.4004 50.7365 99.6306C50.7365 99.8609 50.6523 100.063 50.4894 100.237C50.3153 100.4 50.1187 100.484 49.894 100.484C49.6694 100.484 49.4616 100.4 49.2987 100.237ZM50.2647 98.659C50.1131 98.5017 50.0401 98.322 50.0401 98.1142C50.0401 97.9064 50.1131 97.7154 50.2647 97.5582C50.422 97.4009 50.6073 97.3223 50.8207 97.3223C51.0342 97.3223 51.2083 97.4009 51.3656 97.5582C51.5228 97.7154 51.6014 97.9008 51.6014 98.1142C51.6014 98.3276 51.5228 98.5017 51.3656 98.659C51.2083 98.8163 51.0286 98.8949 50.8207 98.8949C50.6129 98.8949 50.422 98.8163 50.2647 98.659ZM51.1802 100.237C51.0061 100.063 50.9218 99.8609 50.9218 99.6306C50.9218 99.4004 51.0061 99.1982 51.1802 99.0241C51.3431 98.85 51.5396 98.7657 51.7643 98.7657C51.989 98.7657 52.1968 98.85 52.3709 99.0241C52.545 99.1982 52.6293 99.4004 52.6293 99.6306C52.6293 99.8609 52.545 100.063 52.3709 100.237C52.1968 100.4 51.9946 100.484 51.7643 100.484C51.534 100.484 51.3487 100.4 51.1802 100.237Z" fill="#7F364F"/>
<path d="M56.067 104.805C56.5275 104.805 56.8477 104.709 57.0218 104.518C57.179 104.344 57.2633 104.024 57.2689 103.563C57.2689 102.867 57.4879 102.272 57.926 101.777C58.381 101.266 58.9707 101.008 59.7008 101.008C60.4928 101.008 61.1218 101.277 61.588 101.817C62.0205 102.322 62.2339 102.968 62.2339 103.754C62.2339 104.468 62.0205 105.063 61.588 105.54C61.1331 106.063 60.5377 106.321 59.8019 106.321C59.1673 106.321 58.6 106.119 58.117 105.714C57.6677 106.13 57.0498 106.332 56.2579 106.332H55.7749V104.805H56.0726H56.067ZM60.7062 103.591C60.7062 103.221 60.6332 102.923 60.4815 102.698C60.3187 102.468 60.0884 102.35 59.8019 102.35C59.1223 102.35 58.7853 102.816 58.7853 103.754C58.7853 104.125 58.864 104.423 59.0213 104.647C59.1785 104.878 59.4032 104.996 59.7008 104.996C60.3692 104.996 60.7062 104.529 60.7062 103.591Z" fill="#7F364F"/>
<path d="M68.1757 103.973L68.1532 105.809C68.1532 106.068 68.097 106.326 67.9903 106.59C67.8724 106.904 67.6983 107.18 67.468 107.421C66.8783 108.056 66.0246 108.376 64.9013 108.376C64.6036 108.376 64.3621 108.303 64.1824 108.162C64.0026 108.022 63.9071 107.848 63.9071 107.64V107.034C65.0585 107.011 65.8673 106.77 66.3391 106.315C65.4236 106.264 64.7103 106.09 64.2048 105.781C63.5084 105.36 63.1602 104.68 63.1602 103.748C63.1602 102.956 63.3736 102.304 63.806 101.799C64.2666 101.26 64.8957 100.99 65.6932 100.99C65.9965 100.99 66.3054 101.046 66.6087 101.153C67.4119 101.473 67.8948 102.091 68.0577 103.001C68.1307 103.355 68.1701 103.681 68.1701 103.967L68.1757 103.973ZM65.1371 104.618C65.3506 104.742 65.6764 104.804 66.1144 104.804H66.6368V104.529L66.6255 104.147L66.6143 103.765C66.5918 103.484 66.5469 103.248 66.4907 103.057C66.3391 102.58 66.0414 102.338 65.5977 102.338C65.3 102.338 65.0698 102.456 64.9181 102.698C64.7609 102.922 64.6822 103.22 64.6822 103.591C64.6822 104.085 64.8339 104.428 65.1428 104.618H65.1371Z" fill="#7F364F"/>
<path d="M80.1953 104.804V106.332H79.7348C79.1226 106.332 78.6508 106.163 78.3195 105.821C77.8308 106.158 77.3085 106.332 76.7412 106.332C76.3705 106.332 76.0279 106.264 75.7246 106.135L75.6853 106.197L75.6741 106.219L75.6629 106.242L75.6123 106.354L75.5505 106.467L75.4157 106.714C75.2978 106.893 75.1742 107.051 75.045 107.185C74.6912 107.522 74.2363 107.697 73.6915 107.697L73.5567 107.685C72.8097 107.68 72.439 107.343 72.439 106.68V106.186H73.4443C74.0565 106.186 74.3598 105.759 74.3598 104.911C74.3598 104.63 74.3598 104.417 74.3486 104.276C74.3317 104.063 74.3261 103.889 74.3261 103.754C74.3261 102.962 74.5395 102.31 74.972 101.805C75.4269 101.266 76.0504 100.996 76.8479 100.996C77.5837 100.996 78.1847 101.26 78.6452 101.788C79.0665 102.277 79.2799 102.878 79.2799 103.585C79.2799 104.04 79.2181 104.422 79.0945 104.725C79.1788 104.776 79.3585 104.798 79.6393 104.798H80.1953V104.804ZM77.7634 103.748C77.7634 102.805 77.4264 102.333 76.7468 102.333C76.1346 102.333 75.8314 102.748 75.8314 103.585C75.8314 104.529 76.1683 105.001 76.8479 105.001C77.4601 105.001 77.7634 104.585 77.7634 103.748Z" fill="#7F364F"/>
<path d="M79.9258 104.805H81.8017V106.332H79.9258V104.805Z" fill="#7F364F"/>
<path d="M81.3521 104.805H83.2279V106.332H81.3521V104.805Z" fill="#7F364F"/>
<path d="M89.85 106.331H88.7604C88.6593 106.331 88.5638 106.331 88.4739 106.32C88.2437 106.314 88.0246 106.291 87.8168 106.258C87.2551 106.168 86.7777 105.994 86.3902 105.735C86.1824 105.881 85.9128 106.011 85.5702 106.117C85.1546 106.258 84.7502 106.331 84.357 106.331H82.8687V104.803H84.6772C84.9917 104.803 85.1883 104.786 85.2613 104.753C84.7502 104.09 84.1549 103.68 83.4865 103.523C83.4865 103.365 83.4921 103.186 83.5089 102.989V102.905L83.5202 102.82L83.5314 102.624C83.537 102.461 83.5426 102.343 83.5426 102.276C83.6774 102.22 83.8347 102.141 84.0144 102.04L84.2616 101.905L84.5087 101.77H84.4975C84.6772 101.663 84.8288 101.579 84.9468 101.523C85.1265 101.433 85.295 101.36 85.441 101.298C85.8229 101.141 86.1712 101.062 86.4857 101.062C86.935 101.062 87.3899 101.169 87.8617 101.383C88.0358 101.467 88.2156 101.562 88.4065 101.68C88.5413 101.753 88.693 101.854 88.8671 101.978L89.1423 102.163L89.4175 102.337C89.2771 102.686 89.058 103.079 88.7604 103.517C88.429 104.011 88.092 104.427 87.7438 104.758C87.8168 104.781 87.8954 104.797 87.9797 104.797L88.2156 104.809H89.8556V106.336L89.85 106.331ZM85.8061 102.596C85.6994 102.635 85.5927 102.68 85.486 102.731L85.3512 102.804L85.2388 102.877C85.3231 102.944 85.4354 103.028 85.5758 103.135L85.924 103.421C86.115 103.612 86.3228 103.787 86.5419 103.944C86.8452 103.68 87.2271 103.253 87.682 102.663C87.2945 102.506 86.9406 102.427 86.6261 102.427C86.3453 102.427 86.0701 102.483 85.8061 102.59V102.596Z" fill="#7F364F"/>
<path d="M89.7266 104.803H91.0296C91.024 104.415 91.0184 103.37 91.0184 101.663V98.8828H91.4508C91.8384 98.8828 92.1136 98.9614 92.2821 99.1187C92.4449 99.2816 92.5292 99.5512 92.5292 99.9275V102.758C93.3548 101.601 94.2928 101.023 95.3431 101.023C96.2698 101.023 96.9887 101.438 97.4998 102.264C97.921 102.944 98.1344 103.735 98.1344 104.645V104.73C98.1288 104.769 98.1232 104.797 98.1232 104.803H98.9938V106.33H89.7266V104.803ZM96.6236 104.803V104.578C96.6236 104.056 96.5225 103.646 96.3147 103.337C96.0563 102.938 95.6351 102.719 95.0342 102.68C94.5118 102.702 94.0288 102.96 93.5851 103.449C93.22 103.848 92.9504 104.297 92.7763 104.803H96.6236Z" fill="#7F364F"/>
<path d="M99.044 104.805C99.5046 104.805 99.8247 104.709 99.9988 104.518C100.156 104.344 100.24 104.024 100.246 103.563C100.246 102.867 100.465 102.272 100.903 101.777C101.358 101.266 101.948 101.008 102.678 101.008C103.47 101.008 104.099 101.277 104.565 101.817C104.997 102.322 105.211 102.968 105.211 103.754C105.211 104.468 104.997 105.063 104.565 105.54C104.11 106.063 103.515 106.321 102.779 106.321C102.144 106.321 101.577 106.119 101.094 105.714C100.645 106.13 100.027 106.332 99.235 106.332H98.752V104.805H99.0496H99.044ZM103.683 103.591C103.683 103.221 103.61 102.923 103.459 102.698C103.296 102.468 103.065 102.35 102.779 102.35C102.099 102.35 101.762 102.816 101.762 103.754C101.762 104.125 101.841 104.423 101.998 104.647C102.156 104.878 102.38 104.996 102.678 104.996C103.346 104.996 103.683 104.529 103.683 103.591Z" fill="#7F364F"/>
<path d="M24.8222 102.001C25.558 102.001 25.9286 102.372 25.9286 103.108V104.175C25.9286 104.793 25.7489 105.298 25.3839 105.686C24.9963 106.101 24.4515 106.315 23.7438 106.332H20.0201C19.0091 106.332 18.3071 105.967 17.9083 105.242C17.7566 104.978 17.6611 104.669 17.6106 104.326C17.5881 104.192 17.5713 104.057 17.5601 103.916C17.5545 103.81 17.5488 103.697 17.5488 103.579C17.5488 102.175 18.0262 101.468 18.9754 101.468H19.8572C19.5371 101.749 19.2899 102.086 19.1271 102.473C18.9754 102.793 18.9024 103.096 18.9024 103.377V103.551C18.908 103.636 18.9193 103.709 18.9249 103.776C18.9417 103.956 18.981 104.113 19.0372 104.248C19.1889 104.619 19.4641 104.804 19.8684 104.804H23.6259C24.0134 104.781 24.21 104.546 24.21 104.096V102.001H24.8166H24.8222ZM20.5031 101.108C20.329 100.934 20.2447 100.732 20.2447 100.502C20.2447 100.271 20.329 100.069 20.5031 99.8951C20.666 99.721 20.8682 99.6367 21.0985 99.6367C21.3287 99.6367 21.5197 99.721 21.6938 99.8951C21.8567 100.069 21.9409 100.271 21.9409 100.502C21.9409 100.732 21.8567 100.934 21.6938 101.108C21.5197 101.271 21.3231 101.355 21.0985 101.355C20.8738 101.355 20.666 101.271 20.5031 101.108ZM22.3902 101.108C22.2161 100.934 22.1319 100.732 22.1319 100.502C22.1319 100.271 22.2161 100.069 22.3902 99.8951C22.5531 99.721 22.7497 99.6367 22.9744 99.6367C23.199 99.6367 23.4068 99.721 23.5809 99.8951C23.7551 100.069 23.8393 100.271 23.8393 100.502C23.8393 100.732 23.7551 100.934 23.5809 101.108C23.4068 101.271 23.2047 101.355 22.9744 101.355C22.7441 101.355 22.5587 101.271 22.3902 101.108Z" fill="#7F364F"/>
<path d="M28.6303 104.322C28.6864 104.619 28.8774 104.782 29.2031 104.805H29.512V106.332H29.0908C28.3887 106.31 27.844 106.091 27.4677 105.687C27.1026 105.305 26.9229 104.799 26.9229 104.176V98.8906H27.7148C27.9395 98.8906 28.1473 98.9693 28.3326 99.1265C28.5292 99.3006 28.6303 99.5084 28.6303 99.7443V104.322Z" fill="#7F364F"/>
<path d="M31.6405 102C32.3594 102 32.7188 102.371 32.7188 103.106V104.174C32.7188 104.791 32.5391 105.297 32.1852 105.673C31.8033 106.089 31.2698 106.308 30.5733 106.33H29.1973V104.803H30.4385C30.8373 104.769 31.0339 104.533 31.0339 104.095V102H31.6405ZM29.6691 108.392C29.5062 108.217 29.4219 108.015 29.4219 107.785C29.4219 107.555 29.5062 107.353 29.6691 107.19C29.8319 107.027 30.0398 106.943 30.2757 106.943C30.5116 106.943 30.7081 107.027 30.871 107.19C31.0339 107.353 31.1181 107.555 31.1181 107.785C31.1181 108.015 31.0339 108.217 30.871 108.392C30.7081 108.554 30.5059 108.639 30.2757 108.639C30.0454 108.639 29.8432 108.554 29.6691 108.392ZM31.5787 108.392C31.4158 108.217 31.3315 108.015 31.3315 107.785C31.3315 107.555 31.4158 107.353 31.5787 107.19C31.7415 107.027 31.9437 106.943 32.174 106.943C32.4043 106.943 32.6065 107.027 32.7694 107.19C32.9435 107.353 33.0277 107.555 33.0277 107.785C33.0277 108.015 32.9435 108.217 32.7694 108.392C32.6065 108.554 32.4043 108.639 32.174 108.639C31.9437 108.639 31.7415 108.554 31.5787 108.392Z" fill="#7F364F"/>
<path d="M38.6051 102.299C38.8522 102.777 38.9758 103.338 38.9758 103.973L38.9645 104.804H40.2058V106.332H38.8803C38.7398 106.877 38.4422 107.326 37.9873 107.685C37.4088 108.146 36.6449 108.382 35.707 108.382C35.4093 108.382 35.1678 108.309 34.988 108.168C34.8083 108.028 34.7128 107.854 34.7128 107.646V107.039C35.8642 107.017 36.673 106.775 37.1448 106.321C36.2293 106.27 35.516 106.096 35.0105 105.787C34.3141 105.366 33.9658 104.686 33.9658 103.754C33.9658 102.962 34.1793 102.31 34.6117 101.805C35.0723 101.266 35.7013 100.996 36.4989 100.996C36.8022 100.996 37.1111 101.052 37.4144 101.159C37.9367 101.372 38.3298 101.754 38.6051 102.299ZM35.9372 104.619C36.1506 104.742 36.4764 104.804 36.9145 104.804H37.4368V104.529L37.4256 104.147L37.4144 103.765C37.3919 103.484 37.347 103.248 37.2908 103.057C37.1392 102.58 36.8415 102.338 36.3978 102.338C36.1001 102.338 35.8698 102.456 35.7182 102.698C35.5609 102.923 35.4823 103.22 35.4823 103.591C35.4823 104.085 35.6339 104.428 35.9428 104.619H35.9372Z" fill="#7F364F"/>
<path d="M39.8687 104.805H41.7446V106.332H39.8687V104.805Z" fill="#7F364F"/>
<path d="M41.2954 104.805H43.1713V106.332H41.2954V104.805Z" fill="#7F364F"/>
<path d="M42.7222 104.805H44.5981V106.332H42.7222V104.805Z" fill="#7F364F"/>
<path d="M44.1484 104.805H46.0244V106.332H44.1484V104.805Z" fill="#7F364F"/>
<path d="M56.0834 104.803V106.331H55.4656C54.9096 106.331 54.4603 106.179 54.112 105.882C53.9323 106.039 53.6964 106.157 53.4044 106.23C53.1628 106.286 52.8988 106.32 52.6124 106.331H52.3148C52.1743 106.326 52.0339 106.309 51.8935 106.281C51.4723 106.224 51.124 106.118 50.8488 105.96C50.5287 106.208 49.9502 106.331 49.1246 106.331H45.603V104.803H46.8667V101.366H47.6474C47.8609 101.366 48.063 101.445 48.254 101.602C48.4618 101.776 48.5629 101.978 48.5629 102.209V104.803H49.3829C49.7873 104.77 49.9895 104.539 49.9895 104.107V101.366H50.5849C51.315 101.366 51.6745 101.731 51.6745 102.456V103.422C51.6745 103.652 51.6689 103.882 51.652 104.107C51.6464 104.287 51.6295 104.461 51.6014 104.629C51.7025 104.747 51.944 104.803 52.3316 104.803C52.8258 104.77 53.0786 104.539 53.0786 104.107V101.366H53.6852C54.4153 101.366 54.7748 101.731 54.7748 102.456C54.7748 102.647 54.7748 102.843 54.786 103.051V104.231C54.8085 104.612 55.0051 104.803 55.3701 104.803H56.0778H56.0834ZM49.2987 100.237C49.1246 100.063 49.0403 99.8609 49.0403 99.6306C49.0403 99.4004 49.1246 99.1982 49.2987 99.0241C49.4616 98.85 49.6638 98.7657 49.894 98.7657C50.1243 98.7657 50.3153 98.85 50.4894 99.0241C50.6523 99.1982 50.7365 99.4004 50.7365 99.6306C50.7365 99.8609 50.6523 100.063 50.4894 100.237C50.3153 100.4 50.1187 100.484 49.894 100.484C49.6694 100.484 49.4616 100.4 49.2987 100.237ZM50.2647 98.659C50.1131 98.5017 50.0401 98.322 50.0401 98.1142C50.0401 97.9064 50.1131 97.7154 50.2647 97.5582C50.422 97.4009 50.6073 97.3223 50.8207 97.3223C51.0342 97.3223 51.2083 97.4009 51.3656 97.5582C51.5228 97.7154 51.6014 97.9008 51.6014 98.1142C51.6014 98.3276 51.5228 98.5017 51.3656 98.659C51.2083 98.8163 51.0286 98.8949 50.8207 98.8949C50.6129 98.8949 50.422 98.8163 50.2647 98.659ZM51.1802 100.237C51.0061 100.063 50.9218 99.8609 50.9218 99.6306C50.9218 99.4004 51.0061 99.1982 51.1802 99.0241C51.3431 98.85 51.5396 98.7657 51.7643 98.7657C51.989 98.7657 52.1968 98.85 52.3709 99.0241C52.545 99.1982 52.6293 99.4004 52.6293 99.6306C52.6293 99.8609 52.545 100.063 52.3709 100.237C52.1968 100.4 51.9946 100.484 51.7643 100.484C51.534 100.484 51.3487 100.4 51.1802 100.237Z" fill="#7F364F"/>
<path d="M56.067 104.805C56.5275 104.805 56.8477 104.709 57.0218 104.518C57.179 104.344 57.2633 104.024 57.2689 103.563C57.2689 102.867 57.4879 102.272 57.926 101.777C58.381 101.266 58.9707 101.008 59.7008 101.008C60.4928 101.008 61.1218 101.277 61.588 101.817C62.0205 102.322 62.2339 102.968 62.2339 103.754C62.2339 104.468 62.0205 105.063 61.588 105.54C61.1331 106.063 60.5377 106.321 59.8019 106.321C59.1673 106.321 58.6 106.119 58.117 105.714C57.6677 106.13 57.0498 106.332 56.2579 106.332H55.7749V104.805H56.0726H56.067ZM60.7062 103.591C60.7062 103.221 60.6332 102.923 60.4815 102.698C60.3187 102.468 60.0884 102.35 59.8019 102.35C59.1223 102.35 58.7853 102.816 58.7853 103.754C58.7853 104.125 58.864 104.423 59.0213 104.647C59.1785 104.878 59.4032 104.996 59.7008 104.996C60.3692 104.996 60.7062 104.529 60.7062 103.591Z" fill="#7F364F"/>
<path d="M68.1757 103.973L68.1532 105.809C68.1532 106.068 68.097 106.326 67.9903 106.59C67.8724 106.904 67.6983 107.18 67.468 107.421C66.8783 108.056 66.0246 108.376 64.9013 108.376C64.6036 108.376 64.3621 108.303 64.1824 108.162C64.0026 108.022 63.9071 107.848 63.9071 107.64V107.034C65.0585 107.011 65.8673 106.77 66.3391 106.315C65.4236 106.264 64.7103 106.09 64.2048 105.781C63.5084 105.36 63.1602 104.68 63.1602 103.748C63.1602 102.956 63.3736 102.304 63.806 101.799C64.2666 101.26 64.8957 100.99 65.6932 100.99C65.9965 100.99 66.3054 101.046 66.6087 101.153C67.4119 101.473 67.8948 102.091 68.0577 103.001C68.1307 103.355 68.1701 103.681 68.1701 103.967L68.1757 103.973ZM65.1371 104.618C65.3506 104.742 65.6764 104.804 66.1144 104.804H66.6368V104.529L66.6255 104.147L66.6143 103.765C66.5918 103.484 66.5469 103.248 66.4907 103.057C66.3391 102.58 66.0414 102.338 65.5977 102.338C65.3 102.338 65.0698 102.456 64.9181 102.698C64.7609 102.922 64.6822 103.22 64.6822 103.591C64.6822 104.085 64.8339 104.428 65.1428 104.618H65.1371Z" fill="#7F364F"/>
<path d="M80.1953 104.804V106.332H79.7348C79.1226 106.332 78.6508 106.163 78.3195 105.821C77.8308 106.158 77.3085 106.332 76.7412 106.332C76.3705 106.332 76.0279 106.264 75.7246 106.135L75.6853 106.197L75.6741 106.219L75.6629 106.242L75.6123 106.354L75.5505 106.467L75.4157 106.714C75.2978 106.893 75.1742 107.051 75.045 107.185C74.6912 107.522 74.2363 107.697 73.6915 107.697L73.5567 107.685C72.8097 107.68 72.439 107.343 72.439 106.68V106.186H73.4443C74.0565 106.186 74.3598 105.759 74.3598 104.911C74.3598 104.63 74.3598 104.417 74.3486 104.276C74.3317 104.063 74.3261 103.889 74.3261 103.754C74.3261 102.962 74.5395 102.31 74.972 101.805C75.4269 101.266 76.0504 100.996 76.8479 100.996C77.5837 100.996 78.1847 101.26 78.6452 101.788C79.0665 102.277 79.2799 102.878 79.2799 103.585C79.2799 104.04 79.2181 104.422 79.0945 104.725C79.1788 104.776 79.3585 104.798 79.6393 104.798H80.1953V104.804ZM77.7634 103.748C77.7634 102.805 77.4264 102.333 76.7468 102.333C76.1346 102.333 75.8314 102.748 75.8314 103.585C75.8314 104.529 76.1683 105.001 76.8479 105.001C77.4601 105.001 77.7634 104.585 77.7634 103.748Z" fill="#7F364F"/>
<path d="M79.9258 104.805H81.8017V106.332H79.9258V104.805Z" fill="#7F364F"/>
<path d="M81.3521 104.805H83.2279V106.332H81.3521V104.805Z" fill="#7F364F"/>
<path d="M89.85 106.331H88.7604C88.6593 106.331 88.5638 106.331 88.4739 106.32C88.2437 106.314 88.0246 106.291 87.8168 106.258C87.2551 106.168 86.7777 105.994 86.3902 105.735C86.1824 105.881 85.9128 106.011 85.5702 106.117C85.1546 106.258 84.7502 106.331 84.357 106.331H82.8687V104.803H84.6772C84.9917 104.803 85.1883 104.786 85.2613 104.753C84.7502 104.09 84.1549 103.68 83.4865 103.523C83.4865 103.365 83.4921 103.186 83.5089 102.989V102.905L83.5202 102.82L83.5314 102.624C83.537 102.461 83.5426 102.343 83.5426 102.276C83.6774 102.22 83.8347 102.141 84.0144 102.04L84.2616 101.905L84.5087 101.77H84.4975C84.6772 101.663 84.8288 101.579 84.9468 101.523C85.1265 101.433 85.295 101.36 85.441 101.298C85.8229 101.141 86.1712 101.062 86.4857 101.062C86.935 101.062 87.3899 101.169 87.8617 101.383C88.0358 101.467 88.2156 101.562 88.4065 101.68C88.5413 101.753 88.693 101.854 88.8671 101.978L89.1423 102.163L89.4175 102.337C89.2771 102.686 89.058 103.079 88.7604 103.517C88.429 104.011 88.092 104.427 87.7438 104.758C87.8168 104.781 87.8954 104.797 87.9797 104.797L88.2156 104.809H89.8556V106.336L89.85 106.331ZM85.8061 102.596C85.6994 102.635 85.5927 102.68 85.486 102.731L85.3512 102.804L85.2388 102.877C85.3231 102.944 85.4354 103.028 85.5758 103.135L85.924 103.421C86.115 103.612 86.3228 103.787 86.5419 103.944C86.8452 103.68 87.2271 103.253 87.682 102.663C87.2945 102.506 86.9406 102.427 86.6261 102.427C86.3453 102.427 86.0701 102.483 85.8061 102.59V102.596Z" fill="#7F364F"/>
<path d="M89.7266 104.803H91.0296C91.024 104.415 91.0184 103.37 91.0184 101.663V98.8828H91.4508C91.8384 98.8828 92.1136 98.9614 92.2821 99.1187C92.4449 99.2816 92.5292 99.5512 92.5292 99.9275V102.758C93.3548 101.601 94.2928 101.023 95.3431 101.023C96.2698 101.023 96.9887 101.438 97.4998 102.264C97.921 102.944 98.1344 103.735 98.1344 104.645V104.73C98.1288 104.769 98.1232 104.797 98.1232 104.803H98.9938V106.33H89.7266V104.803ZM96.6236 104.803V104.578C96.6236 104.056 96.5225 103.646 96.3147 103.337C96.0563 102.938 95.6351 102.719 95.0342 102.68C94.5118 102.702 94.0288 102.96 93.5851 103.449C93.22 103.848 92.9504 104.297 92.7763 104.803H96.6236Z" fill="#7F364F"/>
<path d="M99.044 104.805C99.5046 104.805 99.8247 104.709 99.9988 104.518C100.156 104.344 100.24 104.024 100.246 103.563C100.246 102.867 100.465 102.272 100.903 101.777C101.358 101.266 101.948 101.008 102.678 101.008C103.47 101.008 104.099 101.277 104.565 101.817C104.997 102.322 105.211 102.968 105.211 103.754C105.211 104.468 104.997 105.063 104.565 105.54C104.11 106.063 103.515 106.321 102.779 106.321C102.144 106.321 101.577 106.119 101.094 105.714C100.645 106.13 100.027 106.332 99.235 106.332H98.752V104.805H99.0496H99.044ZM103.683 103.591C103.683 103.221 103.61 102.923 103.459 102.698C103.296 102.468 103.065 102.35 102.779 102.35C102.099 102.35 101.762 102.816 101.762 103.754C101.762 104.125 101.841 104.423 101.998 104.647C102.156 104.878 102.38 104.996 102.678 104.996C103.346 104.996 103.683 104.529 103.683 103.591Z" fill="#7F364F"/>
<path d="M80.7065 27.8735L78.0442 31.1086C78.0442 31.1086 81.5883 34.8661 78.2577 38.4719C74.9608 42.0496 57.4036 60.8255 57.1284 61.1176L74.2306 35.8602C74.7529 35.0907 74.4047 34.1696 73.4443 33.7821C72.5008 33.4002 71.2876 33.6641 70.6754 34.3774L49.6416 59.0339C49.8269 58.7306 61.5879 39.3986 65.5475 33.6417C69.5352 27.8398 74.8541 29.7551 74.8541 29.7551L77.359 26.2447L82.3745 19.2129C83.6102 19.7858 84.902 20.4204 86.2499 21.1394L80.7121 27.8735H80.7065Z" fill="#7F364F"/>
</g>
<defs>
<clipPath id="clip0_1136_8048">
<rect width="124.025" height="108.426" fill="white" transform="translate(0.974609 0.212891)"/>
</clipPath>
</defs>
</svg>
