<svg width="84" height="113" viewBox="0 0 84 113" fill="none" xmlns="http://www.w3.org/2000/svg">
<g clip-path="url(#clip0_1136_8139)">
<path d="M42.9287 80.8807C33.0242 80.8807 23.7935 74.5556 20.563 64.6162C16.5546 52.2688 23.3179 38.9533 35.6353 34.9368C47.9578 30.9154 61.2464 37.6923 65.2548 50.0396C67.2813 56.2853 66.8106 62.7594 63.9319 68.2802C61.1077 73.6868 56.2272 77.748 50.1825 79.719C47.7745 80.5034 45.3318 80.8758 42.9287 80.8758V80.8807ZM42.9337 36.2277C40.7437 36.2277 38.5438 36.5752 36.3984 37.2752C25.3592 40.8747 19.3045 52.8 22.8967 63.8615C26.4889 74.923 38.3902 80.9899 49.4293 77.3905C54.8597 75.6181 59.2397 71.9839 61.7666 67.1482C64.3382 62.2182 64.7544 56.4144 62.931 50.8042C61.1919 45.4472 57.4709 41.0882 52.4616 38.5313C49.4591 37.0022 46.2088 36.2277 42.9337 36.2277Z" fill="#2E5D7D"/>
<path d="M46.1043 35.01C41.5955 35.01 37.2254 33.1979 33.9553 29.8119L35.7142 28.104C39.6037 32.1354 45.3264 33.5603 50.6478 31.8276C54.3342 30.6261 57.3318 28.0594 59.0907 24.594C60.8496 21.1335 61.1568 17.1915 59.9578 13.4977C57.4804 5.87184 49.2754 1.68655 41.6649 4.16893C36.2642 5.93142 32.3648 10.7224 31.7306 16.3773L29.2979 16.1042C30.0411 9.49612 34.5994 3.89587 40.9118 1.83549C49.8055 -1.06393 59.3979 3.82636 62.2915 12.7381C63.6937 17.0574 63.332 21.6598 61.2807 25.7061C59.2245 29.7523 55.7215 32.756 51.4109 34.161C49.6618 34.732 47.8732 35.01 46.1093 35.01H46.1043Z" fill="#2E5D7D"/>
<path d="M40.6442 81.5397C33.8413 81.5397 27.1128 79.802 21.0085 76.3863C11.5796 71.1137 4.76193 62.48 1.81881 52.0689C-1.12926 41.6627 0.14411 30.7254 5.40604 21.2774C10.668 11.8295 19.2843 4.99799 29.6694 2.04892C37.3641 -0.14054 45.4403 -0.00649118 53.0261 2.43617L52.2779 4.77457C45.153 2.48085 37.5673 2.35673 30.3383 4.41214C10.1973 10.1365 -1.5405 31.2169 4.17231 51.3986C6.94201 61.1742 13.3435 69.2867 22.2026 74.2415C31.0617 79.1914 41.313 80.3928 51.0689 77.6175C61.5086 74.6486 70.1992 67.3256 74.9161 57.5251L77.121 58.5926C72.1018 69.0235 62.8463 76.8232 51.7378 79.9808C48.0763 81.0234 44.3503 81.5347 40.6442 81.5347V81.5397Z" fill="#2E5D7D"/>
<path d="M29.996 17.767C31.813 17.767 33.2859 16.2911 33.2859 14.4704C33.2859 12.6498 31.813 11.1738 29.996 11.1738C28.179 11.1738 26.7061 12.6498 26.7061 14.4704C26.7061 16.2911 28.179 17.767 29.996 17.767Z" fill="#2E5D7D"/>
<path d="M35.7196 32.4037C37.5366 32.4037 39.0096 30.9278 39.0096 29.1071C39.0096 27.2865 37.5366 25.8105 35.7196 25.8105C33.9026 25.8105 32.4297 27.2865 32.4297 29.1071C32.4297 30.9278 33.9026 32.4037 35.7196 32.4037Z" fill="#2E5D7D"/>
<path d="M75.7384 65.0919C79.9799 65.0919 83.4183 61.6466 83.4183 57.3965C83.4183 53.1465 79.9799 49.7012 75.7384 49.7012C71.497 49.7012 68.0586 53.1465 68.0586 57.3965C68.0586 61.6466 71.497 65.0919 75.7384 65.0919Z" fill="#2E5D7D"/>
<path d="M75.739 62.1673C78.3688 62.1673 80.5006 60.0312 80.5006 57.3961C80.5006 54.7611 78.3688 52.625 75.739 52.625C73.1093 52.625 70.9775 54.7611 70.9775 57.3961C70.9775 60.0312 73.1093 62.1673 75.739 62.1673Z" fill="#0FC2E9"/>
<path d="M2.17085 88.6543V92.929H6.69452V88.6543H8.64174V99.3285H6.69452V94.6219H2.17085V99.3285H0.223633V88.6543H2.17085Z" fill="#0FC2E9"/>
<path d="M17.1786 94.5863H13.1504V97.724H17.6543V99.3227H11.1982V88.6484H17.4164V90.2471H13.1504V93.0025H17.1786V94.5863Z" fill="#0FC2E9"/>
<path d="M21.8317 96.2952L20.9101 99.3188H18.8936L22.3173 88.6445H24.8095L28.2877 99.3188H26.177L25.2059 96.2952H21.8268H21.8317ZM24.8937 94.8207L24.0514 92.1894C23.8433 91.539 23.6699 90.8092 23.5114 90.1935H23.4816C23.3231 90.8092 23.1497 91.5539 22.9763 92.1894L22.1538 94.8207H24.8987H24.8937Z" fill="#0FC2E9"/>
<path d="M30.0957 88.6387H32.0479V97.6845H36.4427V99.3129H30.0957V88.6387Z" fill="#0FC2E9"/>
<path d="M38.7415 90.2671H35.6943V88.6387H43.7706V90.2671H40.6937V99.3129H38.7415V90.2671Z" fill="#0FC2E9"/>
<path d="M47.2939 88.6348V92.9094H51.8176V88.6348H53.7648V99.309H51.8176V94.6024H47.2939V99.309H45.3467V88.6348H47.2939Z" fill="#0FC2E9"/>
<path d="M59.3981 97.293C59.7945 97.5314 60.7606 97.9285 61.7466 97.9236C63.238 97.9236 63.8227 97.0845 63.8227 96.2753C63.8227 95.0539 62.6632 94.5326 61.4741 94.5326H60.5872V93.1077H61.4741C62.361 93.1077 63.5056 92.6957 63.5056 91.6829C63.5056 90.9679 62.9952 90.3821 61.8556 90.3821C61.0133 90.3821 60.176 90.7495 59.7449 91.0325L59.299 89.6225C59.8836 89.2253 61.0431 88.8281 62.2669 88.8281C64.4073 88.8281 65.4874 89.9998 65.4874 91.3453C65.4874 92.4226 64.8532 93.3113 63.5848 93.7532V93.783C64.8384 94.0213 65.8392 94.9546 65.8541 96.3497C65.8541 98.0924 64.3974 99.4726 61.8408 99.4726C60.5872 99.4726 59.5071 99.125 58.9521 98.7626L59.3981 97.2881V97.293Z" fill="#0FC2E9"/>
<path d="M73.7723 90.3968C73.4849 90.3819 73.1678 90.3968 72.7863 90.4464C70.6112 90.6996 69.5806 92.0153 69.3279 93.4402H69.3774C69.8828 92.8543 70.6607 92.4423 71.6913 92.4423C73.47 92.4423 74.8475 93.7083 74.8475 95.7984C74.8475 97.7645 73.4056 99.4724 71.2156 99.4724C68.7085 99.4724 67.3262 97.5709 67.3262 95.0239C67.3262 93.043 68.0397 91.4443 69.1148 90.4315C70.0513 89.5279 71.3048 89.0215 72.7813 88.9074C73.2074 88.8428 73.5295 88.8428 73.7673 88.8577V90.3918L73.7723 90.3968ZM72.8705 95.9077C72.8705 94.7062 72.2215 93.8622 71.0769 93.8671C70.3486 93.8671 69.6945 94.309 69.3972 94.9296C69.318 95.0885 69.2684 95.2771 69.2684 95.5452C69.3031 96.9056 69.9373 98.0177 71.2206 98.0177C72.2215 98.0177 72.8705 97.1439 72.8705 95.9126V95.9077Z" fill="#0FC2E9"/>
<path d="M83.2943 94.0709C83.2943 97.3973 81.9962 99.4726 79.5188 99.4726C77.1554 99.4726 75.887 97.3179 75.8672 94.1851C75.8672 90.9679 77.2297 88.8331 79.6427 88.8281C82.1349 88.8281 83.2943 91.0424 83.2943 94.0709ZM77.8392 94.1702C77.8392 96.6873 78.5229 97.9881 79.5882 97.9881C80.7476 97.9881 81.3323 96.593 81.3323 94.1206C81.3323 91.7275 80.7773 90.3176 79.6031 90.3176C78.5725 90.3176 77.8441 91.6034 77.8441 94.1652L77.8392 94.1702Z" fill="#0FC2E9"/>
<path d="M4.20207 109.312C4.17235 108.751 4.14262 108.071 4.14757 107.485H4.12775C3.97911 108.016 3.79083 108.602 3.58769 109.148L2.9188 111.035H2.28459L1.67516 109.178C1.49679 108.622 1.33823 108.031 1.21437 107.49H1.1995C1.17968 108.056 1.15491 108.746 1.12023 109.342L1.02113 111.089H0.238281L0.54052 106.74H1.63552L2.23009 108.488C2.39359 108.999 2.53233 109.516 2.65124 109.997H2.67106C2.78997 109.525 2.94852 108.989 3.12194 108.483L3.75119 106.74H4.83133L5.09888 111.089H4.2863L4.19712 109.317L4.20207 109.312Z" fill="#2E5D7D"/>
<path d="M8.55207 110.33C8.55207 110.613 8.56693 110.891 8.60657 111.085H7.85841L7.79895 110.738H7.77913C7.58094 110.981 7.23906 111.16 6.808 111.16C6.14407 111.16 5.77246 110.703 5.77246 110.226C5.77246 109.437 6.51072 109.035 7.72463 109.04V108.99C7.72463 108.781 7.63544 108.444 7.05574 108.444C6.73368 108.444 6.3918 108.543 6.16884 108.677L6.00533 108.161C6.24812 108.017 6.67422 107.883 7.19447 107.883C8.24983 107.883 8.55207 108.523 8.55207 109.213V110.34V110.33ZM7.73949 109.551C7.14988 109.546 6.58999 109.66 6.58999 110.137C6.58999 110.445 6.79809 110.589 7.06565 110.589C7.40257 110.589 7.6404 110.38 7.71967 110.157C7.73949 110.097 7.73949 110.042 7.73949 109.983V109.551Z" fill="#2E5D7D"/>
<path d="M12.5256 106.502V110.201C12.5256 110.523 12.5404 110.871 12.5553 111.084H11.8171L11.7774 110.588H11.7626C11.5693 110.935 11.168 111.154 10.6973 111.154C9.90453 111.154 9.28518 110.513 9.28518 109.55C9.28023 108.498 9.96894 107.872 10.7567 107.872C11.2076 107.872 11.5346 108.046 11.6833 108.279H11.6981V106.507H12.5305L12.5256 106.502ZM11.6932 109.252C11.6932 109.188 11.6882 109.103 11.6734 109.039C11.599 108.736 11.3364 108.483 10.9549 108.483C10.4198 108.483 10.1225 108.935 10.1225 109.516C10.1225 110.096 10.4198 110.513 10.945 110.513C11.2819 110.513 11.5792 110.295 11.6635 109.952C11.6833 109.883 11.6882 109.804 11.6882 109.719V109.247L11.6932 109.252Z" fill="#2E5D7D"/>
<path d="M14.0672 109.735C14.087 110.301 14.5478 110.549 15.0829 110.549C15.4694 110.549 15.7369 110.49 15.9946 110.405L16.1184 110.946C15.836 111.061 15.4446 111.145 14.9689 111.145C13.8987 111.145 13.2744 110.519 13.2744 109.556C13.2744 108.687 13.8293 107.863 14.8797 107.863C15.95 107.863 16.3018 108.702 16.3018 109.392C16.3018 109.541 16.2869 109.656 16.277 109.73H14.0721L14.0672 109.735ZM15.514 109.179C15.5189 108.891 15.3851 108.409 14.8302 108.409C14.3149 108.409 14.1019 108.856 14.0672 109.179H15.514Z" fill="#2E5D7D"/>
<path d="M18.4866 106.502H19.319V108.374H19.3339C19.537 108.071 19.8938 107.872 20.3892 107.872C21.1919 107.872 21.7667 108.513 21.7617 109.466C21.7617 110.593 21.0135 111.159 20.2703 111.159C19.8442 111.159 19.4677 111.005 19.2298 110.618H19.215L19.1753 111.089H18.4668C18.4817 110.876 18.4916 110.528 18.4916 110.206V106.507L18.4866 106.502ZM19.319 109.784C19.319 109.848 19.324 109.913 19.3388 109.972C19.428 110.295 19.7154 110.528 20.0771 110.528C20.5973 110.528 20.9144 110.136 20.9144 109.496C20.9144 108.94 20.637 108.488 20.082 108.488C19.7451 108.488 19.433 108.721 19.3438 109.069C19.3289 109.128 19.319 109.198 19.319 109.277V109.789V109.784Z" fill="#2E5D7D"/>
<path d="M22.9702 107.938L23.5598 109.621C23.6292 109.814 23.7035 110.052 23.7481 110.226H23.7679C23.8125 110.052 23.8769 109.814 23.9413 109.616L24.4566 107.938H25.3435L24.521 110.082C24.0701 111.259 23.763 111.78 23.3814 112.103C23.0495 112.376 22.7125 112.475 22.5094 112.505L22.3211 111.84C22.4648 111.805 22.6333 111.736 22.8017 111.621C22.9652 111.522 23.1486 111.338 23.2625 111.125C23.2972 111.065 23.3121 111.021 23.3121 110.981C23.3121 110.951 23.3071 110.901 23.2724 110.827L22.0635 107.942H22.9851L22.9702 107.938Z" fill="#2E5D7D"/>
<path d="M30.3781 106.498V110.197C30.3781 110.52 30.393 110.867 30.4078 111.081H29.6696L29.63 110.584H29.6151C29.4219 110.932 29.0205 111.15 28.5498 111.15C27.7571 111.15 27.1377 110.51 27.1377 109.546C27.1328 108.494 27.8215 107.868 28.6093 107.868C29.0602 107.868 29.3872 108.042 29.5358 108.275H29.5507V106.503H30.3831L30.3781 106.498ZM29.5457 109.249C29.5457 109.184 29.5408 109.1 29.5259 109.035C29.4516 108.732 29.189 108.479 28.8075 108.479C28.2724 108.479 27.9751 108.931 27.9751 109.512C27.9751 110.093 28.2724 110.51 28.7976 110.51C29.1345 110.51 29.4318 110.291 29.516 109.949C29.5358 109.879 29.5408 109.8 29.5408 109.715V109.244L29.5457 109.249Z" fill="#2E5D7D"/>
<path d="M34.4606 109.476C34.4606 110.633 33.6084 111.149 32.771 111.149C31.8445 111.149 31.1211 110.543 31.1211 109.53C31.1211 108.498 31.8296 107.867 32.8255 107.867C33.8066 107.867 34.4606 108.523 34.4606 109.481V109.476ZM31.9783 109.511C31.9783 110.116 32.2954 110.573 32.7958 110.573C33.2665 110.573 33.5985 110.136 33.5985 109.496C33.5985 109.004 33.3705 108.438 32.8008 108.438C32.2111 108.438 31.9783 108.989 31.9783 109.511Z" fill="#2E5D7D"/>
<path d="M37.627 110.98C37.4536 111.06 37.1067 111.144 36.6955 111.144C35.6699 111.144 35.001 110.513 35.001 109.54C35.001 108.597 35.6748 107.867 36.8293 107.867C37.1315 107.867 37.4437 107.932 37.6319 108.011L37.4833 108.612C37.3495 108.547 37.1513 108.488 36.8541 108.488C36.2198 108.488 35.8383 108.935 35.8482 109.506C35.8482 110.151 36.2892 110.518 36.8541 110.518C37.1365 110.518 37.3495 110.459 37.5081 110.394L37.622 110.98H37.627Z" fill="#2E5D7D"/>
<path d="M39.3507 107.129V107.933H40.1434V108.529H39.3507V109.914C39.3507 110.301 39.4597 110.495 39.7768 110.495C39.9254 110.495 40.0047 110.49 40.0988 110.465L40.1137 111.066C39.9898 111.111 39.7669 111.15 39.5142 111.15C39.202 111.15 38.9543 111.056 38.7957 110.892C38.6124 110.713 38.5331 110.421 38.5331 110.008V108.529H38.0674V107.933H38.5331V107.347L39.3507 107.129Z" fill="#2E5D7D"/>
<path d="M43.9245 109.472C43.9245 110.629 43.0722 111.145 42.2349 111.145C41.3084 111.145 40.585 110.539 40.585 109.526C40.585 108.494 41.2935 107.863 42.2894 107.863C43.2704 107.863 43.9245 108.519 43.9245 109.477V109.472ZM41.4421 109.507C41.4421 110.112 41.7592 110.569 42.2597 110.569C42.7304 110.569 43.0623 110.132 43.0623 109.492C43.0623 109 42.8344 108.434 42.2646 108.434C41.675 108.434 41.4421 108.985 41.4421 109.507Z" fill="#2E5D7D"/>
<path d="M44.6673 108.945C44.6673 108.518 44.6624 108.21 44.6426 107.932H45.361L45.3957 108.523H45.4155C45.579 108.086 45.9605 107.857 46.3222 107.857C46.4015 107.857 46.4511 107.862 46.5204 107.877V108.617C46.4461 108.602 46.3718 108.597 46.2727 108.597C45.8813 108.597 45.6038 108.835 45.5295 109.198C45.5146 109.267 45.5097 109.352 45.5097 109.436V111.07H44.6773V108.94L44.6673 108.945Z" fill="#2E5D7D"/>
<path d="M47.1002 110.336C47.2836 110.445 47.6403 110.569 47.9376 110.569C48.3042 110.569 48.4628 110.42 48.4628 110.212C48.4628 109.998 48.329 109.894 47.9227 109.755C47.2786 109.546 47.016 109.214 47.016 108.837C47.016 108.28 47.4966 107.854 48.2597 107.854C48.6263 107.854 48.9434 107.938 49.1366 108.042L48.9682 108.598C48.8344 108.519 48.5619 108.419 48.2696 108.419C47.9723 108.419 47.8088 108.563 47.8088 108.757C47.8088 108.951 47.9624 109.045 48.3835 109.194C48.983 109.393 49.2556 109.686 49.2605 110.147C49.2605 110.723 48.7948 111.135 47.9227 111.135C47.5264 111.135 47.1647 111.046 46.9219 110.917L47.0903 110.336H47.1002Z" fill="#2E5D7D"/>
<path d="M51.5641 111.07V108.523H51.1182V107.927H51.5641V107.793C51.5641 107.386 51.678 106.979 51.9605 106.721C52.2033 106.502 52.5303 106.418 52.8176 106.418C53.0406 106.418 53.214 106.458 53.3428 106.497L53.2883 107.108C53.1942 107.073 53.0852 107.048 52.9316 107.048C52.5204 107.048 52.3866 107.376 52.3866 107.763V107.922H53.105V108.518H52.3965V111.065H51.5641V111.07Z" fill="#2E5D7D"/>
<path d="M56.7418 109.466C56.7418 110.623 55.8896 111.139 55.0523 111.139C54.1257 111.139 53.4023 110.533 53.4023 109.521C53.4023 108.488 54.1109 107.857 55.1068 107.857C56.0878 107.857 56.7418 108.513 56.7418 109.471V109.466ZM54.2595 109.501C54.2595 110.106 54.5766 110.563 55.077 110.563C55.5477 110.563 55.8797 110.126 55.8797 109.486C55.8797 108.994 55.6518 108.428 55.082 108.428C54.4924 108.428 54.2595 108.979 54.2595 109.501Z" fill="#2E5D7D"/>
<path d="M57.4857 108.941C57.4857 108.514 57.4808 108.206 57.4609 107.928H58.1794L58.2141 108.519H58.2339C58.3974 108.082 58.7789 107.854 59.1406 107.854C59.2199 107.854 59.2694 107.858 59.3388 107.873V108.613C59.2645 108.598 59.1901 108.593 59.091 108.593C58.6996 108.593 58.4222 108.832 58.3478 109.194C58.333 109.264 58.328 109.348 58.328 109.432V111.066H57.4956V108.936L57.4857 108.941Z" fill="#2E5D7D"/>
<path d="M64.4416 106.482V110.181C64.4416 110.504 64.4565 110.851 64.4713 111.065H63.7331L63.6934 110.568H63.6786C63.4853 110.916 63.084 111.134 62.6133 111.134C61.8205 111.134 61.2012 110.494 61.2012 109.531C61.1962 108.478 61.885 107.853 62.6728 107.853C63.1236 107.853 63.4506 108.026 63.5993 108.26H63.6142V106.487H64.4466L64.4416 106.482ZM63.6092 109.233C63.6092 109.168 63.6042 109.084 63.5894 109.019C63.5151 108.717 63.2525 108.463 62.8709 108.463C62.3358 108.463 62.0385 108.915 62.0385 109.496C62.0385 110.077 62.3358 110.494 62.861 110.494C63.198 110.494 63.4952 110.275 63.5795 109.933C63.5993 109.863 63.6042 109.784 63.6042 109.7V109.228L63.6092 109.233Z" fill="#2E5D7D"/>
<path d="M68.5241 109.462C68.5241 110.619 67.6719 111.135 66.8345 111.135C65.908 111.135 65.1846 110.53 65.1846 109.517C65.1846 108.484 65.8931 107.854 66.889 107.854C67.87 107.854 68.5241 108.509 68.5241 109.467V109.462ZM66.0417 109.497C66.0417 110.103 66.3588 110.559 66.8593 110.559C67.33 110.559 67.6619 110.122 67.6619 109.482C67.6619 108.99 67.434 108.424 66.8642 108.424C66.2746 108.424 66.0417 108.976 66.0417 109.497Z" fill="#2E5D7D"/>
<path d="M71.6905 110.966C71.5171 111.046 71.1702 111.13 70.759 111.13C69.7333 111.13 69.0645 110.5 69.0645 109.527C69.0645 108.583 69.7383 107.854 70.8928 107.854C71.195 107.854 71.5071 107.918 71.6954 107.997L71.5468 108.598C71.413 108.534 71.2148 108.474 70.9175 108.474C70.2833 108.474 69.9018 108.921 69.9117 109.492C69.9117 110.137 70.3527 110.505 70.9175 110.505C71.1999 110.505 71.413 110.445 71.5716 110.381L71.6855 110.966H71.6905Z" fill="#2E5D7D"/>
<path d="M73.42 107.113V107.918H74.2128V108.513H73.42V109.899C73.42 110.286 73.529 110.479 73.8461 110.479C73.9948 110.479 74.074 110.474 74.1682 110.45L74.183 111.05C74.0592 111.095 73.8362 111.135 73.5835 111.135C73.2714 111.135 73.0236 111.04 72.8651 110.877C72.6817 110.698 72.6025 110.405 72.6025 109.993V108.513H72.1367V107.918H72.6025V107.332L73.42 107.113Z" fill="#2E5D7D"/>
<path d="M77.9879 109.462C77.9879 110.619 77.1357 111.135 76.2984 111.135C75.3718 111.135 74.6484 110.53 74.6484 109.517C74.6484 108.484 75.357 107.854 76.3529 107.854C77.3339 107.854 77.9879 108.509 77.9879 109.467V109.462ZM75.5056 109.497C75.5056 110.103 75.8227 110.559 76.3231 110.559C76.7938 110.559 77.1258 110.122 77.1258 109.482C77.1258 108.99 76.8979 108.424 76.3281 108.424C75.7385 108.424 75.5056 108.976 75.5056 109.497Z" fill="#2E5D7D"/>
<path d="M78.7308 108.931C78.7308 108.504 78.7259 108.196 78.7061 107.918H79.4245L79.4592 108.509H79.479C79.6425 108.072 80.024 107.844 80.3857 107.844C80.465 107.844 80.5145 107.849 80.5839 107.864V108.603C80.5096 108.588 80.4353 108.583 80.3362 108.583C79.9447 108.583 79.6673 108.822 79.5929 109.184C79.5781 109.254 79.5731 109.338 79.5731 109.423V111.056H78.7407V108.926L78.7308 108.931Z" fill="#2E5D7D"/>
<path d="M81.1637 110.326C81.347 110.435 81.7038 110.559 82.0011 110.559C82.3677 110.559 82.5263 110.411 82.5263 110.202C82.5263 109.989 82.3925 109.884 81.9862 109.745C81.3421 109.537 81.0795 109.204 81.0795 108.827C81.0795 108.271 81.5601 107.844 82.3231 107.844C82.6898 107.844 83.0069 107.928 83.2001 108.032L83.0317 108.588C82.8979 108.509 82.6254 108.41 82.333 108.41C82.0358 108.41 81.8723 108.554 81.8723 108.747C81.8723 108.941 82.0259 109.035 82.447 109.184C83.0465 109.383 83.319 109.676 83.324 110.137C83.324 110.713 82.8582 111.125 81.9862 111.125C81.5849 111.125 81.2281 111.036 80.9854 110.907L81.1538 110.326H81.1637Z" fill="#2E5D7D"/>
<path d="M80.5547 87.3039C80.416 87.3039 80.2822 87.289 80.1435 87.2642C79.5737 87.155 79.0832 86.8323 78.7562 86.3507C78.4292 85.8691 78.3103 85.2932 78.4193 84.7223C78.5283 84.1513 78.8503 83.6598 79.3309 83.3321C79.8115 83.0045 80.3863 82.8853 80.9561 82.9945C81.5259 83.1038 82.0164 83.4265 82.3434 83.908C82.6704 84.3896 82.7893 84.9655 82.6803 85.5365C82.5713 86.1074 82.2493 86.5989 81.7687 86.9266C81.407 87.1749 80.9858 87.3039 80.5547 87.3039ZM80.5498 83.6052C79.8363 83.6052 79.1971 84.1116 79.0584 84.8414C78.8999 85.6656 79.4449 86.4649 80.2674 86.6238C81.0948 86.7826 81.8876 86.2365 82.0461 85.4124C82.1204 85.0102 82.0412 84.6081 81.8083 84.2705C81.5804 83.9329 81.2336 83.7045 80.8372 83.63C80.743 83.6102 80.6439 83.6052 80.5498 83.6052Z" fill="#2E5D7D"/>
</g>
<defs>
<clipPath id="clip0_1136_8139">
<rect width="83.2" height="112" fill="white" transform="translate(0.21875 0.5)"/>
</clipPath>
</defs>
</svg>
