<svg width="159" height="79" viewBox="0 0 159 79" fill="none" xmlns="http://www.w3.org/2000/svg">
<g clip-path="url(#clip0_1136_7595)">
<path d="M17.9264 0.658203V15.2066C17.9264 16.1573 17.1528 16.9309 16.2021 16.9309C15.2514 16.9309 14.4778 16.1573 14.4778 15.2066V0.658203C7.20033 1.51052 1.54883 7.6931 1.54883 15.2C1.54883 23.2905 8.11165 29.8533 16.2021 29.8533C24.2926 29.8533 30.8554 23.2905 30.8554 15.2C30.8554 7.6931 25.2039 1.51708 17.9264 0.658203Z" fill="#037B73"/>
<path d="M73.3143 16.9772H58.7659C57.8152 16.9772 57.0416 16.2036 57.0416 15.2529C57.0416 14.3022 57.8152 13.5286 58.7659 13.5286H73.3143C72.4619 6.25113 66.2794 0.599609 58.7724 0.599609C50.682 0.599609 44.1191 7.16245 44.1191 15.2529C44.1191 23.3434 50.682 29.9062 58.7724 29.9062C66.2794 29.9062 72.4554 24.2547 73.3143 16.9772Z" fill="#037B73"/>
<path d="M99.513 29.8475V15.2991C99.513 14.3484 100.287 13.5748 101.237 13.5748C102.188 13.5748 102.962 14.3484 102.962 15.2991V29.8475C110.239 28.9952 115.891 22.8126 115.891 15.3056C115.891 7.21518 109.328 0.652344 101.237 0.652344C93.1468 0.652344 86.584 7.21518 86.584 15.3056C86.584 22.8126 92.2356 28.9886 99.513 29.8475Z" fill="#037B73"/>
<path d="M145.472 0.658203V15.2066C145.472 16.1573 144.699 16.9309 143.748 16.9309C142.797 16.9309 142.024 16.1573 142.024 15.2066V0.658203C134.746 1.51052 129.095 7.6931 129.095 15.2C129.095 23.2905 135.651 29.8533 143.748 29.8533C151.845 29.8533 158.401 23.2905 158.401 15.2C158.401 7.6931 152.75 1.51708 145.472 0.658203Z" fill="#037B73"/>
<path d="M27.4987 71.1977L27.3544 72.7975L27.2299 74.1415H0.703125L0.991603 71.1977L1.29321 67.6573L1.562 64.7136H18.2281L18.982 56.2035L19.1066 54.8595H28.9673L28.823 56.4592L27.82 67.6639L27.4987 71.2043V71.1977ZM24.5549 71.1977L25.7613 57.8033H21.7947L20.9162 67.6639H4.2501L3.92885 71.2043H24.5615L24.5549 71.1977ZM8.64282 59.8095C8.26911 59.8095 7.92161 59.7439 7.60035 59.6062C7.27909 59.4685 6.99719 59.2784 6.7546 59.0424C6.51202 58.8064 6.32841 58.5244 6.19073 58.1966C6.05305 57.8754 5.98749 57.5279 5.98749 57.1542C5.98749 56.7805 6.05305 56.433 6.19073 56.1117C6.32841 55.7905 6.51858 55.5085 6.7546 55.266C6.99063 55.0299 7.27254 54.8333 7.60035 54.689C7.92161 54.5448 8.26911 54.4727 8.64282 54.4727C9.14765 54.4727 9.60657 54.5972 10.0196 54.8529C10.4327 55.1021 10.7539 55.4364 10.9834 55.8429C11.2194 55.4364 11.5472 55.1086 11.9537 54.8529C12.3602 54.6038 12.8126 54.4727 13.3175 54.4727C13.6912 54.4727 14.0386 54.5448 14.3599 54.689C14.6811 54.8333 14.963 55.0234 15.2056 55.266C15.4482 55.5085 15.6383 55.7905 15.7826 56.1117C15.9268 56.433 15.9989 56.7805 15.9989 57.1542C15.9989 57.5279 15.9268 57.8754 15.7826 58.1966C15.6383 58.5179 15.4482 58.7998 15.2056 59.0424C14.963 59.285 14.6877 59.4685 14.3599 59.6062C14.0386 59.7439 13.6912 59.8095 13.3175 59.8095C12.8126 59.8095 12.3602 59.6849 11.9537 59.4423C11.5472 59.1997 11.226 58.8654 10.9834 58.4458C10.7539 58.8654 10.4327 59.1997 10.0196 59.4423C9.60657 59.6849 9.14765 59.8095 8.64282 59.8095Z" fill="#037B73"/>
<path d="M33.2812 51.4965H29.3147L27.5183 71.1981H34.4351L34.1663 74.1419H25.9054H24.3057L26.6397 48.5527H27.9706H34.881H36.5004L36.3365 50.1525L34.7564 67.6578H31.8257L33.2812 51.4965Z" fill="#037B73"/>
<path d="M46.8597 63.6193L47.3055 58.7873C47.4039 57.7318 47.3776 56.7614 47.2334 55.8698C47.0892 54.9781 46.8269 54.2045 46.4532 53.5554C46.0729 52.8998 45.5943 52.3884 44.9977 52.0212C44.4076 51.6541 43.7061 51.4639 42.9062 51.4639C41.9949 51.4639 41.1229 51.6475 40.2837 52.0212C39.4445 52.3949 38.6971 52.8932 38.0415 53.5226C37.3859 54.152 36.8351 54.8863 36.409 55.719C35.9763 56.5582 35.7206 57.4498 35.6353 58.3939C35.5042 59.6659 35.5698 60.7083 35.8255 61.5278C36.0812 62.3474 36.5073 62.9964 37.0908 63.4685C37.6743 63.9406 38.4283 64.2684 39.3331 64.4454C40.2444 64.6224 41.2934 64.7142 42.4735 64.7142H42.8341L42.6702 66.3336L42.526 67.6645H31.8393L32.1277 64.7207H34.4421C34.0618 64.3864 33.7406 63.9864 33.4783 63.5144C33.2226 63.0489 33.0194 62.5506 32.8751 62.0261C32.7309 61.5016 32.6391 60.9509 32.6063 60.3739C32.5736 59.797 32.5735 59.2331 32.626 58.6693C32.7112 57.758 32.8948 56.8729 33.1767 56.014C33.4587 55.1551 33.8258 54.3421 34.2716 53.5882C34.7174 52.8342 35.2485 52.1458 35.8582 51.5229C36.468 50.9001 37.1367 50.3625 37.8579 49.9035C38.5791 49.4512 39.3593 49.0971 40.192 48.8545C41.0246 48.612 41.8966 48.4874 42.8079 48.4874C44.3159 48.4874 45.5747 48.7627 46.5909 49.3135C47.6006 49.8642 48.4004 50.6182 48.9774 51.5688C49.5609 52.5195 49.9411 53.6341 50.1247 54.9191C50.3083 56.1976 50.3411 57.5744 50.2034 59.0496L49.7903 63.6258L48.9315 72.8046L48.8069 74.1487H31.2295L31.518 71.2049H46.1516L46.8531 63.6258L46.8597 63.6193ZM40.4476 47.458C40.0739 47.458 39.7265 47.3925 39.4052 47.2548C39.0839 47.1171 38.7955 46.927 38.5529 46.6778C38.3103 46.4353 38.1136 46.1468 37.9759 45.8255C37.8383 45.5043 37.7661 45.1568 37.7661 44.7831C37.7661 44.4094 37.8317 44.0619 37.9759 43.7406C38.1136 43.4194 38.3038 43.1375 38.5529 42.8949C38.7955 42.6588 39.0839 42.4622 39.4052 42.3179C39.7265 42.1737 40.0739 42.1016 40.4476 42.1016C40.9525 42.1016 41.4114 42.2261 41.8245 42.4818C42.2375 42.731 42.5588 43.0653 42.7882 43.4718C43.0177 43.0653 43.339 42.7375 43.752 42.4818C44.1651 42.2327 44.624 42.1016 45.1288 42.1016C45.5025 42.1016 45.85 42.1737 46.1713 42.3179C46.4926 42.4622 46.7745 42.6523 47.017 42.8949C47.2596 43.1375 47.4432 43.4194 47.5809 43.7406C47.7186 44.0619 47.7841 44.4094 47.7841 44.7831C47.7841 45.1568 47.7186 45.5043 47.5809 45.8255C47.4432 46.1468 47.2531 46.4353 47.017 46.6778C46.7745 46.9204 46.4991 47.1171 46.1713 47.2548C45.85 47.3925 45.5025 47.458 45.1288 47.458C44.624 47.458 44.1651 47.3335 43.752 47.0843C43.339 46.8352 43.0177 46.4943 42.7882 46.0812C42.5588 46.5008 42.2375 46.8352 41.8245 47.0843C41.4114 47.3335 40.9525 47.458 40.4476 47.458ZM41.8113 61.1935C41.3655 61.1935 40.9853 61.1279 40.664 60.9968C40.3427 60.8657 40.0674 60.6493 39.8379 60.3477C39.6674 60.1117 39.5691 59.8429 39.5429 59.5609C39.5101 59.2725 39.5232 58.9774 39.5691 58.6627C39.615 58.2694 39.733 57.8694 39.91 57.4564C40.0871 57.0499 40.3099 56.6827 40.5722 56.3615C40.8345 56.0402 41.136 55.778 41.477 55.5813C41.8179 55.3846 42.1851 55.2994 42.585 55.319C42.9325 55.3453 43.175 55.4633 43.3193 55.6796C43.4635 55.896 43.5422 56.1976 43.5553 56.5844C43.5685 56.9712 43.5422 57.4367 43.4767 57.9678C43.4111 58.4988 43.3455 59.0889 43.2865 59.738L43.1619 61.1935H41.8179H41.8113Z" fill="#037B73"/>
<path d="M67.9252 71.2185L67.3876 76.8569L67.263 78.201H57.4023L57.5662 76.5816L57.8023 74.1557H57.422C55.6256 74.1557 54.0521 73.9656 52.6884 73.5788C51.3312 73.1985 50.1839 72.5888 49.2529 71.7496C48.2957 70.8907 47.6138 69.7958 47.2073 68.478C46.8008 67.1602 46.6828 65.5735 46.8467 63.7181C47.0499 61.5283 47.4761 59.4893 48.1252 57.5946C48.7743 55.6998 49.6725 54.0607 50.8395 52.6773C51.9082 51.3989 53.1866 50.3892 54.6815 49.6483C56.1763 48.914 57.9006 48.5469 59.8543 48.5469C60.9296 48.5469 61.8999 48.6518 62.7522 48.8616C63.6111 49.0714 64.3651 49.373 65.0141 49.7663C65.6698 50.1597 66.2271 50.6449 66.6926 51.2087C67.1581 51.7791 67.5515 52.4216 67.8596 53.1363C68.4235 54.4279 68.7447 55.9227 68.8168 57.6142C68.8955 59.3057 68.8431 61.1284 68.666 63.0822L68.253 67.6585L67.9317 71.1923L67.9252 71.2185ZM65.3027 67.6847L65.7354 62.8527C65.8206 61.9873 65.8731 61.1546 65.9059 60.3482C65.9386 59.5418 65.9321 58.7747 65.8993 58.0601C65.8665 57.3389 65.7878 56.6701 65.6763 56.0407C65.5649 55.4113 65.3879 54.8409 65.165 54.323C64.7847 53.451 64.1684 52.7626 63.3226 52.2577C62.4769 51.7529 61.323 51.5038 59.8479 51.5038C58.3727 51.5038 57.0614 51.7791 55.9534 52.3233C54.8388 52.8675 53.8816 53.6214 53.0817 54.5787C52.1245 55.726 51.3705 57.1094 50.8264 58.7288C50.2822 60.3416 49.9282 62.0987 49.7577 63.9935C49.6266 65.3572 49.6856 66.498 49.9347 67.4159C50.1839 68.3337 50.61 69.0615 51.2132 69.5991C51.8492 70.1761 52.6883 70.5891 53.7242 70.8448C54.7667 71.1005 55.9993 71.2316 57.422 71.2316H61.0345L60.8706 72.8314L60.6346 75.2769H64.6012L64.9748 71.2185L65.2961 67.6978L65.3027 67.6847ZM60.0052 67.6847H57.835C57.0942 67.6847 56.4517 67.5798 55.9075 67.3634C55.3633 67.1471 54.9044 66.7865 54.5307 66.2882C53.8751 65.4293 53.6521 64.1443 53.8685 62.4462C53.9996 61.4759 54.2029 60.5842 54.4717 59.7778C54.7405 58.9714 55.0486 58.2633 55.3961 57.647C55.8747 56.8209 56.4189 56.1915 57.0286 55.7522C57.6384 55.313 58.2547 55.0966 58.8775 55.0966C59.284 55.0966 59.6446 55.1163 59.9658 55.1491C60.2871 55.1818 60.5625 55.2605 60.7985 55.3851C61.0411 55.5031 61.2508 55.6867 61.4279 55.9227C61.6049 56.1587 61.7557 56.4865 61.8803 56.893C62.0245 57.3454 62.0835 57.9617 62.0704 58.7419C62.0507 59.5221 61.9852 60.5711 61.8672 61.902L61.4738 66.3406L61.3492 67.6847H60.0183H60.0052ZM57.835 64.7409H58.6611L58.9496 61.6529C58.9955 61.1153 59.0348 60.6367 59.0676 60.2171C59.1004 59.7975 59.1201 59.4303 59.1332 59.1222C59.1594 58.6698 59.166 58.3354 59.1594 58.1256C59.1594 57.9158 59.0873 57.8109 58.9562 57.8109C58.7136 57.8109 58.4776 57.9683 58.2481 58.2895C58.0121 58.6042 57.7957 59.0107 57.599 59.5024C57.4023 59.9942 57.2318 60.5318 57.0876 61.1218C56.9434 61.7119 56.845 62.2692 56.7795 62.8068C56.6746 63.7181 56.7073 64.2951 56.8844 64.5508C56.9827 64.6819 57.2974 64.7475 57.835 64.7475" fill="#037B73"/>
<path d="M67.6361 74.1419H64.6924L67.0265 48.5527H83.8171L83.6729 50.1525L81.7715 71.1981L81.4831 74.1419H67.6361ZM72.8616 60.6032L73.668 51.4965H69.7014L67.905 71.1981H78.8409L80.6045 51.4965H76.638L75.1628 67.6578H72.2387L72.8681 60.6032H72.8616Z" fill="#037B73"/>
<path d="M88.4134 74.1419H78.5527L78.697 72.5422L80.7622 49.8968L80.8868 48.5527H90.7278L90.5835 50.1525L88.6822 71.1981L88.4134 74.1419ZM87.5349 51.4965H83.5683L81.7719 71.1981H85.7581L87.5349 51.4965Z" fill="#037B73"/>
<path d="M112.874 71.1981L112.586 74.1418H102.371C100.575 74.1418 99.0012 73.9517 97.6375 73.578C96.2804 73.2043 95.133 72.5946 94.202 71.7553C93.2448 70.8834 92.563 69.7819 92.1565 68.4641C91.75 67.1463 91.632 65.5597 91.7959 63.7042C91.8943 62.6159 92.045 61.5603 92.2548 60.531C92.4646 59.5082 92.74 58.5248 93.0744 57.5938C93.4087 56.6562 93.8022 55.7777 94.2545 54.9516C94.7004 54.1255 95.2117 53.365 95.7887 52.67C96.9295 51.2801 98.2473 50.2442 99.7553 49.5492C101.263 48.8608 103.053 48.5199 105.125 48.533L114.946 48.5526L114.677 51.4964L113.202 67.6773H110.258L111.734 51.4964H104.804C103.269 51.4964 101.958 51.7652 100.87 52.3028C99.7815 52.8405 98.8374 53.5944 98.031 54.5648C97.0737 55.7121 96.3197 57.0955 95.7756 58.7149C95.2314 60.3277 94.8773 62.0848 94.7069 63.9796C94.5758 65.3433 94.6348 66.4841 94.8839 67.402C95.1331 68.3199 95.5592 69.0476 96.1624 69.5852C96.7983 70.1622 97.6376 70.5752 98.6735 70.8244C99.7159 71.0735 100.949 71.2046 102.371 71.2046H103.02L103.342 67.6839H102.784C102.043 67.6839 101.401 67.579 100.857 67.3626C100.313 67.1463 99.8536 66.7857 99.4799 66.2874C98.8242 65.422 98.6013 64.1369 98.8177 62.4257C98.9488 61.4554 99.1521 60.5703 99.4209 59.7573C99.6897 58.9509 99.9978 58.2494 100.345 57.6462C100.824 56.8201 101.414 56.1776 102.102 55.7252C102.797 55.2728 103.591 55.0434 104.489 55.0434H107.42L106.81 61.8881L106.561 64.7401L106.292 67.6839L105.971 71.2046H112.887L112.874 71.1981ZM104.325 47.1889C103.951 47.1889 103.604 47.1234 103.283 46.9857C102.961 46.848 102.673 46.6579 102.43 46.4153C102.188 46.1727 101.991 45.8908 101.853 45.563C101.716 45.2417 101.65 44.8942 101.65 44.5271C101.65 44.1599 101.716 43.8124 101.853 43.4912C101.991 43.1699 102.181 42.888 102.43 42.652C102.673 42.416 102.961 42.2193 103.283 42.0816C103.604 41.9374 103.951 41.8652 104.325 41.8652C104.83 41.8652 105.282 41.9898 105.702 42.2389C106.115 42.4881 106.436 42.8159 106.659 43.2224C106.888 42.8159 107.21 42.4881 107.616 42.2389C108.029 41.9898 108.488 41.8652 108.993 41.8652C109.367 41.8652 109.714 41.9374 110.035 42.0816C110.357 42.2258 110.639 42.416 110.881 42.652C111.117 42.888 111.307 43.1699 111.445 43.4912C111.583 43.8124 111.648 44.1599 111.648 44.5271C111.648 44.8942 111.583 45.2417 111.445 45.563C111.307 45.8842 111.117 46.1662 110.881 46.4153C110.639 46.6579 110.357 46.848 110.035 46.9857C109.714 47.1234 109.367 47.1889 108.993 47.1889C108.488 47.1889 108.036 47.0644 107.616 46.8152C107.203 46.5661 106.882 46.2317 106.659 45.8121C106.43 46.2317 106.108 46.5661 105.702 46.8152C105.289 47.0644 104.83 47.1889 104.325 47.1889ZM104.233 57.8036C103.912 57.8036 103.61 57.9609 103.328 58.2822C103.046 58.5969 102.797 59.0034 102.581 59.4951C102.365 59.9868 102.181 60.5244 102.03 61.1145C101.879 61.7046 101.775 62.2618 101.716 62.7995C101.611 63.6977 101.643 64.2746 101.82 64.5238C101.919 64.668 102.234 64.7401 102.771 64.7401H103.597L103.866 61.6324L104.227 57.8101L104.233 57.8036Z" fill="#037B73"/>
<path d="M113.445 64.2675H120.972C121.522 64.2675 121.981 64.3134 122.355 64.3986C122.722 64.4904 123.017 64.6543 123.227 64.9034C123.437 65.146 123.568 65.4935 123.634 65.9393C123.693 66.3851 123.693 66.9555 123.634 67.6636H110.252L110.842 60.7533L111.091 58.275L120.808 48.5586H134.13L124.669 58.0062C125.378 58.1504 126.007 58.3602 126.558 58.6356C127.108 58.911 127.6 59.2388 128.033 59.6256C128.466 60.0124 128.839 60.4451 129.167 60.9434C129.488 61.4417 129.777 61.9793 130.026 62.5497C130.373 63.3365 130.57 64.1363 130.616 64.9362C130.662 65.7361 130.642 66.6474 130.544 67.6636L130.223 71.204L129.954 74.1478H109.662L109.911 71.204H127.279L127.587 67.6636C127.633 67.1588 127.672 66.7261 127.692 66.3524C127.718 65.9852 127.725 65.6443 127.712 65.3492C127.698 65.0477 127.666 64.7723 127.613 64.5166C127.561 64.2609 127.469 63.9921 127.351 63.7167C127.161 63.2709 126.905 62.871 126.597 62.5038C126.289 62.1367 125.909 61.822 125.463 61.5597C125.023 61.2975 124.506 61.0942 123.922 60.95C123.332 60.8057 122.676 60.7336 121.949 60.7336L117.785 60.7533L120.729 57.8095L127.03 51.4893H122.04L113.904 59.5732L113.452 64.2806L113.445 64.2675Z" fill="#037B73"/>
<path d="M133.448 75.2376C133.592 75.1064 133.71 74.9622 133.796 74.818C133.888 74.6672 133.94 74.4443 133.966 74.1427L134.235 71.1989H137.146L136.877 74.1427C136.759 75.4474 136.346 76.4505 135.645 77.152C134.943 77.8535 134.038 78.1945 132.924 78.1879H124.519L124.787 75.2441C125.423 75.2113 125.954 75.0212 126.374 74.6803C126.8 74.3394 127.036 73.9198 127.082 73.4149L128.623 56.2112L128.747 54.8672H138.608L138.444 56.4669L137.454 67.6716H134.53L135.389 57.811H131.422L129.947 74.1558C129.921 74.3459 129.875 74.5229 129.796 74.6868C129.718 74.8508 129.593 75.0343 129.429 75.2507H133.435L133.448 75.2376Z" fill="#037B73"/>
<path d="M134.779 64.7332H154.442L154.278 66.3329L153.701 72.8171L153.576 74.148H133.934L134.202 71.2043H150.901L151.223 67.6835H134.524L134.773 64.7398L134.779 64.7332ZM143.093 59.8094C142.745 59.8094 142.417 59.7439 142.103 59.6128C141.788 59.4816 141.519 59.2981 141.283 59.062C141.054 58.826 140.87 58.5572 140.739 58.2425C140.608 57.9343 140.542 57.6 140.542 57.2525C140.542 56.905 140.608 56.5575 140.739 56.2494C140.87 55.9412 141.054 55.6659 141.283 55.4298C141.519 55.1938 141.788 55.0168 142.103 54.8791C142.417 54.748 142.745 54.6824 143.093 54.6824C143.571 54.6824 144.011 54.807 144.404 55.0496C144.797 55.2922 145.106 55.6069 145.322 55.9937C145.538 55.6134 145.846 55.2987 146.24 55.0496C146.633 54.807 147.072 54.6824 147.551 54.6824C147.912 54.6824 148.239 54.748 148.547 54.8791C148.856 55.0102 149.124 55.1938 149.354 55.4298C149.583 55.6659 149.767 55.9347 149.905 56.2494C150.036 56.5641 150.101 56.8984 150.101 57.2525C150.101 57.6065 150.036 57.9278 149.905 58.2425C149.774 58.5572 149.59 58.826 149.354 59.062C149.118 59.2981 148.849 59.4816 148.547 59.6128C148.246 59.7439 147.912 59.8094 147.551 59.8094C147.072 59.8094 146.633 59.6849 146.24 59.4423C145.846 59.1997 145.538 58.8785 145.322 58.4785C145.106 58.8719 144.804 59.1932 144.404 59.4423C144.004 59.6914 143.571 59.8094 143.093 59.8094ZM145.735 49.8242C146.082 49.8242 146.41 49.8898 146.725 50.0209C147.04 50.152 147.308 50.3356 147.531 50.5585C147.761 50.788 147.938 51.0568 148.069 51.3649C148.2 51.6731 148.266 52.0075 148.266 52.3549C148.266 52.7024 148.2 53.0499 148.069 53.3581C147.938 53.6662 147.754 53.9416 147.531 54.1776C147.302 54.4136 147.033 54.5906 146.725 54.7283C146.417 54.8594 146.082 54.925 145.735 54.925C145.387 54.925 145.06 54.8594 144.745 54.7283C144.43 54.5972 144.161 54.4136 143.925 54.1776C143.689 53.9416 143.512 53.6728 143.375 53.3581C143.243 53.0499 143.178 52.709 143.178 52.3549C143.178 52.0009 143.243 51.6796 143.375 51.3649C143.506 51.0502 143.689 50.7814 143.925 50.5585C144.155 50.3291 144.43 50.152 144.745 50.0209C145.053 49.8898 145.387 49.8242 145.735 49.8242Z" fill="#037B73"/>
</g>
<defs>
<clipPath id="clip0_1136_7595">
<rect width="157.698" height="77.6005" fill="white" transform="translate(0.703125 0.599609)"/>
</clipPath>
</defs>
</svg>
