<svg width="279" height="83" viewBox="0 0 279 83" fill="none" xmlns="http://www.w3.org/2000/svg">
<g clip-path="url(#clip0_1136_7782)">
<path d="M14.7897 71.8391H0V50.1562H14.4062C15.5157 50.1562 16.5191 50.246 17.4246 50.4173C18.3301 50.5886 19.0806 50.8252 19.6761 51.1352C20.2798 51.4452 20.7937 51.7878 21.2179 52.163C21.6503 52.5383 21.9765 52.9625 22.2131 53.4356C22.4497 53.9087 22.621 54.3574 22.7189 54.7898C22.8168 55.2221 22.8738 55.6789 22.8738 56.1521C22.8738 57.2289 22.5475 58.1752 21.8868 58.9909C21.226 59.7985 20.345 60.3532 19.2519 60.6306C20.5897 60.9651 21.6421 61.5361 22.4007 62.3437C23.1594 63.1513 23.5346 64.1955 23.5346 65.468C23.5346 66.137 23.453 66.757 23.298 67.3443C23.143 67.9316 22.8576 68.5027 22.4415 69.0655C22.0255 69.6284 21.5034 70.1097 20.8589 70.5095C20.2226 70.9092 19.3824 71.2273 18.3464 71.4802C17.3104 71.7249 16.1276 71.8473 14.7816 71.8473L14.7897 71.8391ZM5.71848 58.8522H14.2186C16.0867 58.8522 17.0167 58.1507 17.0167 56.7476C17.0167 55.426 16.0867 54.7653 14.235 54.7653H5.71848V58.8522ZM5.71848 67.2301H14.3492C15.5076 67.2301 16.3478 67.0506 16.878 66.6917C17.4083 66.3327 17.6611 65.778 17.6611 65.0194C17.6611 64.2607 17.4001 63.706 16.878 63.3471C16.3559 62.9882 15.5157 62.8087 14.3655 62.8087H5.71848V67.2219V67.2301Z" fill="#002A3A"/>
<path d="M46.1069 71.8391L43.9695 68.0295H32.2227L30.1016 71.8391H24.0977L35.9997 50.1562H40.2007L52.1027 71.8391H46.0988H46.1069ZM38.1043 57.4736L34.8086 63.3879H41.3836L38.1043 57.4736Z" fill="#002A3A"/>
<path d="M57.6004 59.008C57.4046 59.6361 57.3149 60.2969 57.3149 61.0066C57.3149 61.7163 57.4128 62.3771 57.6004 63.0052C57.7962 63.6333 58.1143 64.2207 58.563 64.7917C59.0116 65.3546 59.5664 65.8359 60.2353 66.2356C60.9042 66.6353 61.7363 66.9535 62.7478 67.19C63.7594 67.4266 64.8933 67.549 66.1496 67.549C67.4058 67.549 68.4092 67.4674 69.2902 67.2961C70.1794 67.1329 70.8239 66.9371 71.2399 66.7169V63.4375H65.6927V58.9346H76.3955V69.5965C75.7673 70.1431 75.074 70.5999 74.3153 70.9751C73.5567 71.3504 72.7164 71.6359 71.8109 71.8398C70.9054 72.0438 70.0162 72.1906 69.1678 72.2804C68.3113 72.3701 67.2998 72.4354 66.1414 72.4762C63.7512 72.4762 61.6139 72.1743 59.7214 71.587C57.8288 70.9915 56.287 70.1757 55.096 69.1315C53.905 68.0874 52.9914 66.8801 52.3714 65.5096C51.7514 64.1391 51.4414 62.6462 51.4414 61.031C51.4414 59.4158 51.7514 57.923 52.3714 56.5525C52.9914 55.1821 53.8968 53.9747 55.096 52.9306C56.287 51.8864 57.8288 51.0706 59.7214 50.4751C61.6139 49.8796 63.7512 49.5859 66.1414 49.5859C67.4221 49.5859 68.6458 49.6757 69.8123 49.847C70.9789 50.0265 71.9496 50.2386 72.7083 50.4996C73.467 50.7607 74.1358 51.0135 74.7069 51.2746C75.2779 51.5356 75.694 51.7477 75.955 51.919L76.3302 52.1882L73.5648 56.1773C73.4832 56.1283 73.3691 56.0631 73.2222 55.9978C73.0754 55.9326 72.7572 55.7939 72.2514 55.5981C71.7457 55.4023 71.2317 55.231 70.6933 55.0842C70.1549 54.9373 69.4697 54.8068 68.6377 54.6844C67.8056 54.5621 66.9735 54.505 66.1332 54.505C64.8688 54.505 63.7349 54.6273 62.7315 54.8639C61.7199 55.1005 60.8879 55.4186 60.219 55.8184C59.5501 56.2181 58.9954 56.6994 58.5467 57.2622C58.0981 57.8251 57.7799 58.4206 57.5841 59.0487L57.6004 59.008Z" fill="#002A3A"/>
<path d="M97.9728 58.4786V50.166H103.691V71.8489H97.9728V63.3976H85.5896V71.8489H79.8711V50.166H85.5896V58.4786H97.9728Z" fill="#002A3A"/>
<path d="M132.512 60.9977C132.512 63.0453 132.079 64.8807 131.215 66.5122C130.35 68.1437 129.085 69.4326 127.405 70.3952C125.724 71.3578 123.775 71.8391 121.548 71.8391H107.468V50.1562H121.548C123.261 50.1562 124.811 50.4336 126.206 50.9965C127.601 51.5594 128.751 52.3262 129.665 53.2969C130.578 54.2677 131.28 55.4179 131.769 56.7313C132.267 58.0446 132.512 59.4722 132.512 61.0058V60.9977ZM112.844 54.7653V67.2219H121.629C122.551 67.2219 123.367 67.0588 124.068 66.7406C124.77 66.4143 125.333 65.9657 125.749 65.3865C126.165 64.8073 126.475 64.1547 126.679 63.4123C126.883 62.6782 126.989 61.8706 126.989 60.9895C126.989 60.1085 126.883 59.3009 126.679 58.5667C126.475 57.8325 126.165 57.1718 125.749 56.5926C125.333 56.0134 124.778 55.5647 124.068 55.2384C123.367 54.9121 122.551 54.7571 121.629 54.7571H112.844V54.7653Z" fill="#002A3A"/>
<path d="M153.844 71.8391L151.707 68.0295H139.96L137.839 71.8391H131.835L143.737 50.1562H147.938L159.84 71.8391H153.836H153.844ZM145.841 57.4736L142.546 63.3879H149.121L145.841 57.4736Z" fill="#002A3A"/>
<path d="M186.686 60.9977C186.686 63.0453 186.254 64.8807 185.389 66.5122C184.525 68.1437 183.26 69.4326 181.58 70.3952C179.899 71.3578 177.95 71.8391 175.723 71.8391H161.643V50.1562H175.723C177.436 50.1562 178.986 50.4336 180.381 50.9965C181.776 51.5594 182.926 52.3262 183.839 53.2969C184.753 54.2677 185.455 55.4179 185.944 56.7313C186.442 58.0446 186.686 59.4722 186.686 61.0058V60.9977ZM167.361 55.0671V66.9201H175.723C176.595 66.9201 177.37 66.7651 178.039 66.4633C178.708 66.1533 179.239 65.7291 179.638 65.1744C180.03 64.6278 180.323 63.9997 180.519 63.2981C180.715 62.5966 180.813 61.8298 180.813 60.9895C180.813 60.1493 180.715 59.3825 180.519 58.6809C180.323 57.9794 180.03 57.3594 179.638 56.8047C179.247 56.2581 178.708 55.8258 178.039 55.5158C177.37 55.2058 176.595 55.059 175.723 55.059H167.361V55.0671Z" fill="#002A3A"/>
<path d="M7.48009 19.6797C5.04098 19.6797 2.8629 20.3812 0.954021 21.7925L0.0078125 22.5104L3.25452 25.9855L4.01312 25.4553C4.99203 24.7782 6.15042 24.4356 7.48826 24.4356C9.22583 24.4356 10.7024 25.0474 11.926 26.2628C13.1497 27.4865 13.7533 28.963 13.7533 30.7006V34.1757H0.162759L1.48428 39.005H15.1891C16.0946 39.005 16.8777 38.6869 17.5303 38.0424C18.1829 37.398 18.5092 36.6148 18.5092 35.6849V30.7006C18.5092 27.6578 17.4324 25.0555 15.2788 22.9101C13.1252 20.7565 10.531 19.6797 7.48826 19.6797H7.48009Z" fill="#002A3A"/>
<path d="M26.2674 11.8652H21.4707V39.0055H26.2674V11.8652Z" fill="#002A3A"/>
<path d="M151.314 16.9648C152.073 16.9648 152.717 16.6956 153.256 16.1572C153.794 15.6188 154.063 14.9662 154.063 14.2157C154.063 13.4652 153.794 12.7718 153.256 12.2334C152.717 11.695 152.065 11.4258 151.314 11.4258C150.564 11.4258 149.87 11.695 149.332 12.2334C148.794 12.7718 148.524 13.4326 148.524 14.2157C148.524 14.9988 148.794 15.6188 149.332 16.1572C149.87 16.6956 150.531 16.9648 151.314 16.9648Z" fill="#002A3A"/>
<path d="M181.351 41.1836C180.543 41.1836 179.866 41.4691 179.312 42.032C178.757 42.5949 178.479 43.2719 178.479 44.0469C178.479 44.8219 178.757 45.4908 179.312 46.0455C179.866 46.6002 180.543 46.8776 181.351 46.8776C182.159 46.8776 182.795 46.6002 183.35 46.0455C183.904 45.4908 184.182 44.8219 184.182 44.0469C184.182 43.2719 183.904 42.5949 183.35 42.032C182.795 41.4691 182.126 41.1836 181.351 41.1836Z" fill="#002A3A"/>
<path d="M180.821 20.2851V34.1775H159.44C161.145 31.9586 162.026 29.8213 162.026 27.7575C162.026 26.697 161.814 25.6854 161.381 24.6984C160.076 22.0064 157.694 20.2688 154.252 19.4857C153.346 19.3062 152.416 19.2246 151.462 19.2246C148.541 19.2246 145.409 20.1138 142.064 21.9085L141.085 22.3979L139.69 29.9845L144.405 34.1775H49.2308V30.6289C49.2308 27.5617 48.1459 24.9431 45.9841 22.7813C43.8223 20.6196 41.2118 19.5346 38.1691 19.5346C35.7055 19.5346 33.5029 20.2525 31.5614 21.6882L30.6559 22.3653L33.9027 25.8731L34.6614 25.3428C35.6647 24.6413 36.8394 24.2823 38.1691 24.2823C39.9066 24.2823 41.3914 24.9023 42.6232 26.1341C43.855 27.3659 44.475 28.8669 44.475 30.6289V34.1775H29.3018L30.6641 39.0068H145.923C147.938 39.0068 149.936 38.4521 151.927 37.3426L151.584 37.5711V39.0068H181.735C182.819 39.0068 183.741 38.6234 184.508 37.8566C185.275 37.0898 185.658 36.1679 185.658 35.083V20.2851H180.829H180.821ZM156.364 29.1198C155.41 31.0042 153.819 32.7336 151.609 34.2917L144.397 27.8391L144.854 25.457C146.991 24.3721 149.047 23.8337 151.005 23.8337C151.633 23.8337 152.253 23.8989 152.857 24.0213C154.766 24.4536 156.03 25.2694 156.634 26.4767C156.789 26.803 156.862 27.1293 156.862 27.4556C156.862 27.9859 156.699 28.5406 156.373 29.1198H156.364Z" fill="#002A3A"/>
<path d="M226.936 9.67101C217.041 12.8769 208.777 20.953 205.367 30.7502L205.286 30.9705C205.245 31.0765 205.204 31.1826 205.163 31.305C204.951 31.9984 204.29 32.4796 203.564 32.4796C202.642 32.4796 201.884 31.7291 201.884 30.7992C201.884 30.6279 201.908 30.4647 201.957 30.3097C202.642 28.2051 203.54 26.1412 204.608 24.1752C204.763 23.8815 204.927 23.5879 205.09 23.3023L205.359 22.8292L200.562 20.0638L200.293 20.5369C198.906 22.9271 197.748 25.4723 196.851 28.1072C196.818 28.2051 196.785 28.303 196.736 28.4416C196.524 29.1432 196.41 29.8611 196.41 30.5871C196.41 34.568 199.649 37.8066 203.63 37.8066C203.874 37.8066 204.127 37.7902 204.396 37.7658C207.105 37.4802 209.47 35.6366 210.409 33.0507C210.621 32.4225 210.849 31.8026 211.094 31.1989C212.986 26.5817 216.062 22.5437 219.994 19.5091C221.935 18.0081 224.056 16.7681 226.283 15.8218C228.339 14.9408 231.031 14.174 232.972 13.913L233.446 13.8477V8.25977L232.834 8.34132C230.819 8.61052 228.828 9.0592 226.911 9.67918L226.936 9.67101Z" fill="#002A3A"/>
<path d="M246.269 14.9815C246.897 15.1936 247.525 15.422 248.121 15.6668C252.738 17.5593 256.776 20.6347 259.811 24.5667C261.312 26.5082 262.552 28.6292 263.498 30.8562C264.379 32.9119 265.146 35.6039 265.407 37.5454L265.472 38.0186H271.06L270.978 37.4067C270.709 35.3918 270.26 33.4014 269.64 31.4844C266.434 21.5892 258.358 13.3256 248.561 9.91568L248.349 9.84224C248.235 9.80145 248.129 9.76067 248.007 9.71988C247.313 9.50778 246.832 8.84702 246.832 8.121C246.832 7.19919 247.582 6.44053 248.512 6.44053C248.675 6.44053 248.847 6.465 249.002 6.51395C251.106 7.19919 253.17 8.09652 255.136 9.16517C255.43 9.32016 255.724 9.48331 256.009 9.64646L256.482 9.92382L259.248 5.12715L258.775 4.84979C256.393 3.47116 253.839 2.30462 251.204 1.40729C251.098 1.3665 250.984 1.33388 250.87 1.2931C250.168 1.081 249.45 0.966797 248.724 0.966797C244.743 0.966797 241.505 4.20534 241.505 8.18625C241.505 8.43097 241.521 8.67571 241.546 8.96123C241.831 11.6695 243.675 14.0352 246.261 14.9734L246.269 14.9815Z" fill="#002A3A"/>
<path d="M271.117 46.0703C270.872 46.0703 270.619 46.0866 270.342 46.1111C267.634 46.3966 265.268 48.2402 264.33 50.8262C264.118 51.4625 263.89 52.0825 263.645 52.678C261.752 57.2952 258.677 61.3332 254.745 64.3678C252.803 65.8688 250.682 67.1088 248.455 68.0632C246.4 68.9442 243.708 69.711 241.766 69.9721L241.293 70.0373V75.6253L241.905 75.5437C243.92 75.2745 245.91 74.8258 247.827 74.2059C257.722 70.9999 265.986 62.9239 269.396 53.1267L269.469 52.9227C269.51 52.8085 269.551 52.7024 269.592 52.5801C269.804 51.8867 270.465 51.4054 271.191 51.4054C272.112 51.4054 272.871 52.1559 272.871 53.0858C272.871 53.2572 272.847 53.4203 272.798 53.5753C272.112 55.68 271.215 57.7438 270.146 59.7098C269.991 60.0035 269.828 60.2972 269.665 60.5827L269.396 61.0558L274.193 63.8294L274.47 63.3563C275.857 60.9742 277.015 58.4209 277.912 55.786C277.953 55.6718 277.986 55.5658 278.027 55.4515C278.247 54.75 278.353 54.0321 278.353 53.3061C278.353 49.3252 275.114 46.0866 271.134 46.0866L271.117 46.0703Z" fill="#002A3A"/>
<path d="M228.494 68.8789C227.866 68.6668 227.238 68.4383 226.642 68.1936C222.025 66.3011 217.987 63.2256 214.961 59.2937C213.46 57.3522 212.22 55.2312 211.265 53.0042C210.384 50.9484 209.617 48.2565 209.356 46.315L209.291 45.8418H203.703L203.785 46.4536C204.054 48.4685 204.503 50.459 205.123 52.376C208.328 62.2712 216.404 70.5348 226.202 73.9447L226.414 74.0263C226.52 74.0671 226.634 74.1079 226.748 74.1487C227.442 74.3608 227.923 75.0215 227.923 75.7475C227.923 76.6693 227.173 77.428 226.243 77.428C226.079 77.428 225.908 77.4035 225.753 77.3546C223.648 76.6693 221.585 75.772 219.619 74.7034C219.325 74.5484 219.031 74.3852 218.746 74.2221L218.273 73.9447L215.499 78.7414L215.972 79.0187C218.354 80.4055 220.907 81.5639 223.542 82.4612C223.648 82.502 223.763 82.5346 223.877 82.5754C224.578 82.7875 225.296 82.9018 226.022 82.9018C230.003 82.9018 233.242 79.6632 233.242 75.6823C233.242 75.4376 233.225 75.1928 233.201 74.9073C232.915 72.199 231.072 69.8333 228.486 68.8952L228.494 68.8789Z" fill="#002A3A"/>
<path d="M237.377 39.9023C236.79 40.661 236.104 41.3462 235.346 41.9254C236.104 42.5128 236.79 43.198 237.377 43.9567C237.964 43.198 238.65 42.5128 239.4 41.9254C238.641 41.3381 237.956 40.6528 237.369 39.9023H237.377Z" fill="#002A3A"/>
<path d="M255.797 49.904C255.357 48.7946 254.565 47.8402 253.578 47.1631C252.42 46.3636 250.894 45.9558 249.589 46.4697C248.308 46.9755 247.468 48.2643 247.207 49.6103C246.946 50.9727 247.248 52.49 248.243 53.4526C249.238 54.4152 250.976 54.611 252.004 53.681C251.147 55.9407 248.545 57.3764 246.179 56.9032C244.597 56.5851 243.226 55.5165 242.345 54.1705C241.66 53.1181 241.244 51.8782 241.277 50.6219C241.326 48.7864 242.321 47.0897 243.585 45.7681C245.616 43.639 248.423 42.2359 251.351 41.9341C248.423 41.6241 245.616 40.2291 243.585 38.0918C242.321 36.7621 241.326 35.0654 241.277 33.2381C241.244 31.9818 241.66 30.7419 242.345 29.6895C243.226 28.3435 244.597 27.2667 246.179 26.9567C248.545 26.4836 251.147 27.9193 252.004 30.179C250.976 29.249 249.238 29.4448 248.243 30.4074C247.248 31.37 246.946 32.8873 247.207 34.2496C247.468 35.5956 248.317 36.8927 249.589 37.3903C250.903 37.9042 252.428 37.4963 253.578 36.6969C254.565 36.0198 255.357 35.0654 255.797 33.956C255.895 33.7112 255.977 33.4665 256.034 33.2136C256.287 32.1613 256.254 31.0518 256.034 29.9913C255.43 27.2586 253.431 24.8765 250.862 23.7671C248.292 22.6495 245.217 22.8045 242.745 24.1097C240.967 25.056 239.506 26.5815 238.593 28.3761C237.818 29.9016 237.394 31.5658 237.394 33.2381H237.385C237.385 31.5658 236.961 29.9016 236.186 28.3761C235.273 26.5815 233.821 25.056 232.034 24.1097C229.554 22.7964 226.487 22.6495 223.917 23.7671C221.348 24.8847 219.349 27.2586 218.745 29.9913C218.517 31.0518 218.484 32.1613 218.745 33.2136C218.802 33.4665 218.884 33.7112 218.982 33.956C219.422 35.0654 220.214 36.028 221.201 36.6969C222.359 37.4963 223.885 37.9042 225.19 37.3903C226.471 36.8927 227.311 35.5956 227.572 34.2496C227.833 32.8873 227.531 31.37 226.536 30.4074C225.541 29.4448 223.803 29.249 222.775 30.179C223.632 27.9193 226.234 26.4836 228.6 26.9567C230.182 27.2667 231.553 28.3435 232.434 29.6895C233.119 30.7419 233.535 31.9818 233.502 33.2381C233.453 35.0735 232.458 36.7703 231.194 38.0918C229.163 40.221 226.356 41.6241 223.428 41.9341C226.356 42.2359 229.163 43.639 231.194 45.7681C232.458 47.0978 233.453 48.7946 233.502 50.6219C233.535 51.8782 233.119 53.1181 232.434 54.1705C231.553 55.5246 230.182 56.5933 228.6 56.9032C226.234 57.3764 223.632 55.9325 222.775 53.681C223.803 54.611 225.541 54.4152 226.536 53.4526C227.531 52.49 227.833 50.9727 227.572 49.6103C227.311 48.2643 226.462 46.9673 225.19 46.4697C223.876 45.9558 222.351 46.3636 221.201 47.1631C220.214 47.8402 219.422 48.7946 218.982 49.904C218.884 50.1488 218.802 50.3935 218.745 50.6464C218.492 51.6905 218.525 52.8081 218.745 53.8686C219.349 56.6014 221.348 58.9834 223.917 60.0929C226.487 61.2104 229.562 61.0555 232.034 59.7503C233.812 58.804 235.273 57.2785 236.186 55.4838C236.969 53.942 237.394 52.2453 237.385 50.5566H237.394C237.385 52.2534 237.81 53.942 238.593 55.4838C239.506 57.2785 240.958 58.804 242.745 59.7503C245.225 61.0636 248.292 61.2104 250.862 60.0929C253.431 58.9753 255.43 56.6014 256.034 53.8686C256.262 52.8081 256.295 51.6987 256.034 50.6464C255.977 50.3935 255.895 50.1406 255.797 49.904ZM238.16 46.2494L237.377 47.5465L236.594 46.2576C235.721 44.8137 234.489 43.5901 233.054 42.7172L231.765 41.9341L233.054 41.1509C234.498 40.2781 235.721 39.0544 236.594 37.6105L237.377 36.3216L238.16 37.6105C239.041 39.0544 240.265 40.2781 241.701 41.1509L242.99 41.9341L241.701 42.7172C240.265 43.5901 239.041 44.8137 238.169 46.2576L238.16 46.2494Z" fill="#004A98"/>
</g>
<defs>
<clipPath id="clip0_1136_7782">
<rect width="278.354" height="81.9358" fill="white" transform="translate(0 0.966797)"/>
</clipPath>
</defs>
</svg>
