<svg width="331" height="72" viewBox="0 0 331 72" fill="none" xmlns="http://www.w3.org/2000/svg">
<g clip-path="url(#clip0_1136_7373)">
<path d="M3.81958 63.598L1.09961 59.668H3.69958L5.15961 61.828L6.59961 59.668H9.11957L6.3996 63.548L9.45959 67.958H6.85956L5.12958 65.348L3.3996 67.958H0.849609L3.82959 63.598H3.81958Z" fill="#EA3624"/>
<path d="M20.2297 63.0577H12.1396V61.3477H20.2297V63.0577ZM20.2297 66.4877H12.1396V64.7777H20.2297V66.4877Z" fill="black"/>
<path d="M26.4304 58.3995H24.1504V56.5195H26.4304V58.3995ZM24.1504 59.6795H26.4304V67.9595H24.1504V59.6795Z" fill="black"/>
<path d="M27.9104 59.6792H30.0704V60.8292H30.1204C30.7004 59.8992 31.6904 59.4492 32.6504 59.4492C35.0704 59.4492 35.6804 60.8092 35.6804 62.8592V67.9592H33.4004V63.2792C33.4004 61.9192 33.0004 61.2392 31.9404 61.2392C30.7104 61.2392 30.1804 61.9292 30.1804 63.6092V67.9492H27.9004V59.6692L27.9104 59.6792Z" fill="black"/>
<path d="M43.0004 66.9095H42.9705C42.4405 67.8095 41.5104 68.1895 40.4504 68.1895C37.9504 68.1895 36.7305 66.0395 36.7305 63.7495C36.7305 61.4595 37.9605 59.4595 40.4005 59.4595C41.3805 59.4595 42.3404 59.8795 42.8704 60.6895H42.8904V56.5195H45.1705V67.9595H43.0104V66.8995L43.0004 66.9095ZM41.0104 61.1695C39.5204 61.1695 39.0104 62.4495 39.0104 63.8095C39.0104 65.1695 39.6004 66.4695 41.0104 66.4695C42.5204 66.4695 42.9705 65.1595 42.9705 63.7895C42.9705 62.4195 42.4904 61.1595 41.0104 61.1595V61.1695Z" fill="black"/>
<path d="M48.4304 64.369C48.4904 65.809 49.2004 66.469 50.4704 66.469C51.3804 66.469 52.1204 65.909 52.2604 65.399H54.2604C53.6204 67.349 52.2604 68.189 50.3804 68.189C47.7704 68.189 46.1504 66.399 46.1504 63.829C46.1504 61.259 47.8604 59.459 50.3804 59.459C53.2004 59.459 54.5604 61.829 54.4004 64.379H48.4204L48.4304 64.369ZM52.1304 62.929C51.9204 61.779 51.4204 61.169 50.3204 61.169C48.8804 61.169 48.4604 62.289 48.4304 62.929H52.1304Z" fill="black"/>
<path d="M55.4404 59.679H57.6005V60.739H57.6304C58.1704 59.859 59.0705 59.459 60.1005 59.459C62.7005 59.459 63.8704 61.559 63.8704 63.909C63.8704 66.119 62.6505 68.189 60.2305 68.189C59.2405 68.189 58.2904 67.759 57.7504 66.939H57.7205V70.879H55.4404V59.679ZM61.5905 63.849C61.5905 62.539 61.0605 61.169 59.6005 61.169C58.1405 61.169 57.6304 62.499 57.6304 63.849C57.6304 65.199 58.1404 66.479 59.6204 66.479C61.1004 66.479 61.5905 65.199 61.5905 63.849Z" fill="black"/>
<path d="M66.78 64.369C66.84 65.809 67.55 66.469 68.82 66.469C69.73 66.469 70.47 65.909 70.61 65.399H72.61C71.97 67.349 70.61 68.189 68.73 68.189C66.12 68.189 64.5 66.399 64.5 63.829C64.5 61.259 66.21 59.459 68.73 59.459C71.55 59.459 72.91 61.829 72.75 64.379H66.77L66.78 64.369ZM70.48 62.929C70.27 61.779 69.77 61.169 68.67 61.169C67.23 61.169 66.81 62.289 66.78 62.929H70.48Z" fill="black"/>
<path d="M73.7805 59.6792H75.9405V60.8292H75.9905C76.5705 59.8992 77.5605 59.4492 78.5205 59.4492C80.9405 59.4492 81.5505 60.8092 81.5505 62.8592V67.9592H79.2705V63.2792C79.2705 61.9192 78.8705 61.2392 77.8105 61.2392C76.5805 61.2392 76.0505 61.9292 76.0505 63.6092V67.9492H73.7705V59.6692L73.7805 59.6792Z" fill="black"/>
<path d="M88.8804 66.9095H88.8504C88.3204 67.8095 87.3904 68.1895 86.3304 68.1895C83.8304 68.1895 82.6104 66.0395 82.6104 63.7495C82.6104 61.4595 83.8404 59.4595 86.2804 59.4595C87.2604 59.4595 88.2204 59.8795 88.7504 60.6895H88.7704V56.5195H91.0504V67.9595H88.8904V66.8995L88.8804 66.9095ZM86.8904 61.1695C85.4004 61.1695 84.8904 62.4495 84.8904 63.8095C84.8904 65.1695 85.4804 66.4695 86.8904 66.4695C88.4004 66.4695 88.8504 65.1595 88.8504 63.7895C88.8504 62.4195 88.3704 61.1595 86.8904 61.1595V61.1695Z" fill="black"/>
<path d="M94.3102 64.369C94.3702 65.809 95.0803 66.469 96.3503 66.469C97.2603 66.469 98.0003 65.909 98.1403 65.399H100.14C99.5003 67.349 98.1403 68.189 96.2603 68.189C93.6503 68.189 92.0303 66.399 92.0303 63.829C92.0303 61.259 93.7403 59.459 96.2603 59.459C99.0803 59.459 100.44 61.829 100.28 64.379H94.3002L94.3102 64.369ZM98.0103 62.929C97.8003 61.779 97.3003 61.169 96.2003 61.169C94.7603 61.169 94.3402 62.289 94.3102 62.929H98.0103Z" fill="black"/>
<path d="M101.31 59.6792H103.47V60.8292H103.52C104.1 59.8992 105.09 59.4492 106.05 59.4492C108.47 59.4492 109.08 60.8092 109.08 62.8592V67.9592H106.8V63.2792C106.8 61.9192 106.4 61.2392 105.34 61.2392C104.11 61.2392 103.58 61.9292 103.58 63.6092V67.9492H101.3V59.6692L101.31 59.6792Z" fill="black"/>
<path d="M113.38 59.6792H115.05V61.1992H113.38V65.2992C113.38 66.0692 113.57 66.2592 114.34 66.2592C114.58 66.2592 114.8 66.2392 115.05 66.1992V67.9792C114.67 68.0392 114.17 68.0592 113.72 68.0592C112.33 68.0592 111.11 67.7392 111.11 66.0892V61.1992H109.73V59.6792H111.11V57.1992H113.39V59.6792H113.38Z" fill="black"/>
<path d="M115.88 56.5195H118.16V67.9595H115.88V56.5195Z" fill="black"/>
<path d="M123.71 68.9977C123.21 70.3277 122.43 70.8777 120.86 70.8777C120.4 70.8777 119.93 70.8477 119.47 70.7977V68.9177C119.9 68.9477 120.35 69.0177 120.8 68.9977C121.59 68.9177 121.84 68.0977 121.59 67.4477L118.67 59.6777H121.11L122.98 65.3477H123.01L124.82 59.6777H127.18L123.72 69.0077L123.71 68.9977Z" fill="black"/>
<path d="M135.78 59.4492C138.39 59.4492 140.07 61.1792 140.07 63.8192C140.07 66.4592 138.39 68.1792 135.78 68.1792C133.17 68.1792 131.5 66.4492 131.5 63.8192C131.5 61.1892 133.18 59.4492 135.78 59.4492ZM135.78 66.4692C137.33 66.4692 137.8 65.1392 137.8 63.8292C137.8 62.5192 137.34 61.1692 135.78 61.1692C134.22 61.1692 133.78 62.4992 133.78 63.8292C133.78 65.1592 134.24 66.4692 135.78 66.4692Z" fill="black"/>
<path d="M140.9 59.679H143.06V61.219H143.09C143.51 60.179 144.63 59.459 145.73 59.459C145.89 59.459 146.08 59.489 146.23 59.539V61.659C146.02 61.609 145.69 61.579 145.41 61.579C143.74 61.579 143.17 62.779 143.17 64.239V67.969H140.89V59.689L140.9 59.679Z" fill="black"/>
<path d="M154.78 67.4292C154.78 68.7892 154.3 71.0992 150.49 71.0992C148.86 71.0992 146.95 70.3292 146.84 68.4392H149.1C149.31 69.2892 150 69.5792 150.8 69.5792C152.07 69.5792 152.64 68.7092 152.63 67.5292V66.4392H152.6C152.1 67.3092 151.11 67.7192 150.12 67.7192C147.64 67.7192 146.58 65.8292 146.58 63.5492C146.58 61.3992 147.81 59.4492 150.14 59.4492C151.23 59.4492 152.06 59.8192 152.61 60.7792H152.64V59.6692H154.8V67.4292H154.78ZM152.62 63.7092C152.62 62.3592 152.16 61.1592 150.68 61.1592C149.4 61.1592 148.84 62.2792 148.84 63.5192C148.84 64.7592 149.29 65.9992 150.68 65.9992C151.98 65.9992 152.62 64.8892 152.62 63.7092Z" fill="black"/>
<path d="M155.87 62.229C156 60.099 157.91 59.459 159.76 59.459C161.41 59.459 163.4 59.829 163.4 61.819V66.129C163.4 66.879 163.48 67.639 163.69 67.969H161.38C161.3 67.709 161.24 67.439 161.22 67.169C160.5 67.919 159.44 68.199 158.43 68.199C156.86 68.199 155.61 67.409 155.61 65.719C155.61 63.839 157.02 63.399 158.43 63.199C159.82 62.989 161.12 63.039 161.12 62.109C161.12 61.129 160.45 60.989 159.65 60.989C158.78 60.989 158.22 61.339 158.14 62.239H155.86L155.87 62.229ZM161.13 63.909C160.75 64.249 159.94 64.259 159.24 64.389C158.53 64.529 157.89 64.769 157.89 65.609C157.89 66.449 158.55 66.669 159.28 66.669C161.06 66.669 161.12 65.259 161.12 64.759V63.909H161.13Z" fill="black"/>
<path d="M164.84 59.6792H167V60.8292H167.05C167.63 59.8992 168.62 59.4492 169.58 59.4492C172 59.4492 172.61 60.8092 172.61 62.8592V67.9592H170.33V63.2792C170.33 61.9192 169.93 61.2392 168.87 61.2392C167.64 61.2392 167.11 61.9292 167.11 63.6092V67.9492H164.83V59.6692L164.84 59.6792Z" fill="black"/>
<path d="M176.04 58.3995H173.76V56.5195H176.04V58.3995ZM173.76 59.6795H176.04V67.9595H173.76V59.6795Z" fill="black"/>
<path d="M177.01 66.2477L181.32 61.3877H177.33V59.6777H184.32V61.3877L180.01 66.2477H184.62V67.9577H177.01V66.2477Z" fill="black"/>
<path d="M187.39 64.369C187.45 65.809 188.16 66.469 189.42 66.469C190.33 66.469 191.07 65.909 191.21 65.399H193.21C192.57 67.349 191.21 68.189 189.33 68.189C186.72 68.189 185.1 66.399 185.1 63.829C185.1 61.259 186.81 59.459 189.33 59.459C192.15 59.459 193.51 61.829 193.35 64.379H187.37L187.39 64.369ZM191.09 62.929C190.88 61.779 190.39 61.169 189.28 61.169C187.84 61.169 187.42 62.289 187.39 62.929H191.09Z" fill="black"/>
<path d="M200.3 66.9095H200.27C199.74 67.8095 198.81 68.1895 197.75 68.1895C195.25 68.1895 194.03 66.0395 194.03 63.7495C194.03 61.4595 195.26 59.4595 197.7 59.4595C198.68 59.4595 199.64 59.8795 200.17 60.6895H200.19V56.5195H202.47V67.9595H200.31V66.8995L200.3 66.9095ZM198.31 61.1695C196.82 61.1695 196.31 62.4495 196.31 63.8095C196.31 65.1695 196.9 66.4695 198.31 66.4695C199.82 66.4695 200.26 65.1595 200.26 63.7895C200.26 62.4195 199.78 61.1595 198.31 61.1595V61.1695Z" fill="black"/>
<path d="M210.77 58.6395H207.34V56.5195H216.71V58.6395H213.28V67.9695H210.76V58.6395H210.77Z" fill="black"/>
<path d="M217.71 56.5195H226.27V58.6395H220.23V61.0895H225.77V63.0495H220.23V65.8495H226.4V67.9695H217.71V56.5295V56.5195Z" fill="black"/>
<path d="M227.45 56.5195H232.39C235.35 56.5195 237.58 58.3795 237.58 62.1795C237.58 65.4995 235.88 67.9695 232.39 67.9695H227.45V56.5295V56.5195ZM229.97 65.8495H232.21C233.67 65.8495 235.06 64.9495 235.06 62.4195C235.06 60.1095 234.26 58.6395 231.76 58.6395H229.97V65.8495Z" fill="black"/>
<path d="M244.77 64.369C244.83 65.809 245.54 66.469 246.8 66.469C247.71 66.469 248.45 65.909 248.59 65.399H250.59C249.95 67.349 248.59 68.189 246.71 68.189C244.1 68.189 242.48 66.399 242.48 63.829C242.48 61.259 244.19 59.459 246.71 59.459C249.53 59.459 250.89 61.829 250.73 64.379H244.75L244.77 64.369ZM248.47 62.929C248.26 61.779 247.77 61.169 246.66 61.169C245.22 61.169 244.8 62.289 244.77 62.929H248.47Z" fill="black"/>
<path d="M256.03 67.9577H253.5L250.66 59.6777H253.05L254.8 65.3377H254.83L256.58 59.6777H258.84L256.04 67.9577H256.03Z" fill="black"/>
<path d="M261.02 64.369C261.08 65.809 261.79 66.469 263.06 66.469C263.97 66.469 264.71 65.909 264.85 65.399H266.85C266.21 67.349 264.85 68.189 262.97 68.189C260.36 68.189 258.74 66.399 258.74 63.829C258.74 61.259 260.45 59.459 262.97 59.459C265.79 59.459 267.15 61.829 266.99 64.379H261.01L261.02 64.369ZM264.72 62.929C264.51 61.779 264.02 61.169 262.91 61.169C261.47 61.169 261.05 62.289 261.02 62.929H264.72Z" fill="black"/>
<path d="M10.68 10.3889H0V0.628906H33.08V10.3889H22.41V38.7189H10.68V10.3889Z" fill="#EA3624"/>
<path d="M34.9102 0.619141H67.0201V10.3791H46.6501V15.1291H67.0201V24.1991H46.6501V28.9491H67.0302V38.7091H34.9102V0.619141Z" fill="#EA3624"/>
<path d="M68.9904 0.619141H88.2504C100.95 0.619141 105.43 10.0091 105.43 19.6091C105.43 31.2991 99.2404 38.7091 85.9504 38.7091H68.9805V0.619141H68.9904ZM80.7305 28.9491H85.3204C92.6304 28.9491 93.7004 23.0291 93.7004 19.4491C93.7004 17.0491 92.9504 10.3791 84.4604 10.3791H80.7205V28.9491H80.7305Z" fill="#EA3624"/>
<path d="M122.31 24.0388L118.73 18.0988L115.24 24.0388H106.64L114.8 12.0288L106.94 0.548828H115.54L118.73 6.22883L122.01 0.548828H130.61L122.75 12.0288L130.91 24.0388H122.31Z" fill="#EA3624"/>
<path d="M139.96 3.47828C141.97 3.05828 145.14 2.73828 148.37 2.73828C152.97 2.73828 155.93 3.52828 158.15 5.32828C160 6.70828 161.11 8.81828 161.11 11.6183C161.11 15.0583 158.84 18.0683 155.08 19.4483V19.5583C158.47 20.4083 162.43 23.2083 162.43 28.4983C162.43 31.5683 161.21 33.8883 159.42 35.6383C156.93 37.9083 152.91 38.9683 147.1 38.9683C143.93 38.9683 141.49 38.7583 139.96 38.5483V3.47828ZM144.56 18.0783H148.74C153.61 18.0783 156.46 15.5383 156.46 12.0983C156.46 7.91829 153.29 6.27829 148.63 6.27829C146.51 6.27829 145.3 6.43829 144.56 6.59829V18.0783ZM144.56 35.1583C145.46 35.3183 146.78 35.3683 148.42 35.3683C153.18 35.3683 157.57 33.6183 157.57 28.4383C157.57 23.5683 153.39 21.5583 148.37 21.5583H144.56V35.1483V35.1583Z" fill="black"/>
<path d="M182.64 38.6585L182.27 35.4285H182.11C180.68 37.4385 177.93 39.2385 174.28 39.2385C169.1 39.2385 166.45 35.5885 166.45 31.8885C166.45 25.6985 171.95 22.3185 181.84 22.3685V21.8385C181.84 19.7185 181.26 15.9185 176.02 15.9185C173.64 15.9185 171.15 16.6585 169.36 17.8185L168.3 14.7485C170.42 13.3685 173.48 12.4785 176.71 12.4785C184.54 12.4785 186.44 17.8185 186.44 22.9485V32.5185C186.44 34.7385 186.55 36.9085 186.86 38.6585H182.63H182.64ZM181.95 25.5985C176.87 25.4885 171.11 26.3885 171.11 31.3685C171.11 34.3785 173.12 35.8085 175.5 35.8085C178.83 35.8085 180.95 33.6885 181.69 31.5285C181.85 31.0485 181.95 30.5185 181.95 30.0485V25.6085V25.5985Z" fill="black"/>
<path d="M216.01 13.0568C215.9 14.9068 215.8 16.9668 215.8 20.0868V34.9468C215.8 40.8168 214.64 44.4168 212.15 46.6368C209.66 48.9668 206.07 49.7068 202.84 49.7068C199.61 49.7068 196.39 48.9668 194.32 47.5868L195.48 44.0468C197.17 45.1068 199.82 46.0568 202.99 46.0568C207.75 46.0568 211.24 43.5668 211.24 37.1168V34.2568H211.13C209.7 36.6368 206.95 38.5368 202.98 38.5368C196.63 38.5368 192.08 33.1468 192.08 26.0568C192.08 17.3868 197.74 12.4668 203.61 12.4668C208.05 12.4668 210.49 14.7968 211.6 16.9068H211.71L211.92 13.0468H215.99L216.01 13.0568ZM211.2 23.1568C211.2 22.3668 211.15 21.6768 210.94 21.0368C210.09 18.3368 207.82 16.1168 204.43 16.1168C199.99 16.1168 196.81 19.8768 196.81 25.7968C196.81 30.8168 199.35 34.9968 204.37 34.9968C207.23 34.9968 209.82 33.1968 210.82 30.2368C211.08 29.4468 211.19 28.5468 211.19 27.7468V23.1468L211.2 23.1568Z" fill="black"/>
<path d="M223.52 1.09766H228.17V17.0677H228.28C229.02 15.7477 230.179 14.5777 231.609 13.7877C232.989 12.9977 234.62 12.4677 236.37 12.4677C239.81 12.4677 245.31 14.5877 245.31 23.4177V38.6477H240.66V23.9477C240.66 19.8177 239.13 16.3277 234.74 16.3277C231.73 16.3277 229.34 18.4477 228.5 20.9777C228.24 21.6077 228.18 22.2977 228.18 23.1977V38.6377H223.53V1.09766H223.52Z" fill="black"/>
<path d="M274.98 1.09789V32.0379C274.98 34.3079 275.03 36.9079 275.19 38.6479H271.01L270.8 34.2079H270.69C269.26 37.0679 266.14 39.2279 261.96 39.2279C255.77 39.2279 251.01 33.9879 251.01 26.2179C250.96 17.6979 256.25 12.4679 262.49 12.4679C266.4 12.4679 269.05 14.3179 270.21 16.3779H270.32V1.08789H274.97L274.98 1.09789ZM270.33 23.4679C270.33 22.8879 270.28 22.0879 270.12 21.5079C269.43 18.5479 266.89 16.1179 263.4 16.1179C258.59 16.1179 255.73 20.3479 255.73 26.0079C255.73 31.1879 258.27 35.4779 263.29 35.4779C266.41 35.4779 269.27 33.4179 270.11 29.9279C270.27 29.2979 270.32 28.6579 270.32 27.9179V23.4779L270.33 23.4679Z" fill="black"/>
<path d="M296.879 38.6585L296.509 35.4285H296.349C294.919 37.4385 292.169 39.2385 288.519 39.2385C283.339 39.2385 280.689 35.5885 280.689 31.8885C280.689 25.6985 286.189 22.3185 296.079 22.3685V21.8385C296.079 19.7185 295.499 15.9185 290.259 15.9185C287.879 15.9185 285.389 16.6585 283.599 17.8185L282.539 14.7485C284.659 13.3685 287.719 12.4785 290.949 12.4785C298.779 12.4785 300.679 17.8185 300.679 22.9485V32.5185C300.679 34.7385 300.789 36.9085 301.099 38.6585H296.869H296.879ZM296.189 25.5985C291.109 25.4885 285.349 26.3885 285.349 31.3685C285.349 34.3785 287.359 35.8085 289.739 35.8085C293.069 35.8085 295.189 33.6885 295.929 31.5285C296.089 31.0485 296.189 30.5185 296.189 30.0485V25.6085V25.5985Z" fill="black"/>
<path d="M330.3 1.09789V32.0379C330.3 34.3079 330.35 36.9079 330.51 38.6479H326.33L326.12 34.2079H326.01C324.58 37.0679 321.46 39.2279 317.28 39.2279C311.09 39.2279 306.33 33.9879 306.33 26.2179C306.28 17.6979 311.57 12.4679 317.81 12.4679C321.72 12.4679 324.37 14.3179 325.53 16.3779H325.64V1.08789H330.29L330.3 1.09789ZM325.65 23.4679C325.65 22.8879 325.6 22.0879 325.44 21.5079C324.75 18.5479 322.21 16.1179 318.72 16.1179C313.91 16.1179 311.05 20.3479 311.05 26.0079C311.05 31.1879 313.59 35.4779 318.61 35.4779C321.73 35.4779 324.59 33.4179 325.43 29.9279C325.59 29.2979 325.64 28.6579 325.64 27.9179V23.4779L325.65 23.4679Z" fill="black"/>
</g>
<defs>
<clipPath id="clip0_1136_7373">
<rect width="330.51" height="70.5497" fill="white" transform="translate(0 0.548828)"/>
</clipPath>
</defs>
</svg>
