<svg width="160" height="73" viewBox="0 0 160 73" fill="none" xmlns="http://www.w3.org/2000/svg">
<g clip-path="url(#clip0_1136_7613)">
<path d="M151.323 72.1206H8.71673C4.31835 72.1206 0.751953 68.5542 0.751953 64.1558V8.54096C0.751953 4.14258 4.31835 0.576172 8.71673 0.576172H151.323C155.721 0.576172 159.288 4.14258 159.288 8.54096V64.1614C159.288 68.5597 155.721 72.1262 151.323 72.1262" fill="#FF5A00"/>
<path d="M59.2956 40.5267L59.29 40.5378C59.29 40.5323 59.3011 40.5267 59.3011 40.5156C59.3011 40.5156 59.2956 40.5212 59.29 40.5267" fill="white"/>
<path d="M121.028 41.7474C115.054 41.7363 108.898 40.7712 103.945 37.2215C102.58 36.2397 101.366 35.0861 100.079 34.01C98.8364 32.9784 97.594 32.2629 95.9356 32.2074C93.2899 32.1131 90.6387 33.5774 88.9193 35.5353C88.1594 36.4006 87.5825 37.5154 87.0778 38.5415C87.0001 38.6968 86.928 38.8577 86.8504 39.013C86.7505 39.2127 86.6729 39.4234 86.6175 39.6453C86.6729 39.8616 86.7894 39.6675 86.917 39.5177C86.9392 39.4955 86.9668 39.4678 86.989 39.4456C87.2109 39.2238 87.4494 39.013 87.6879 38.8133C88.4311 38.2032 89.2465 37.6874 90.1228 37.2936C91.9476 36.5337 94.1385 36.3507 95.9079 37.338C96.9451 37.9148 97.8214 38.7468 98.7088 39.5233C99.5741 40.2887 100.462 41.0264 101.399 41.7031C100.822 41.7031 100.251 41.7031 99.674 41.7031C96.7121 41.6975 93.7447 41.692 90.7829 41.6809C87.871 41.6753 84.9535 41.6698 82.0416 41.6642C79.4125 41.6587 76.7835 41.6531 74.1545 41.6476C72.1688 41.6476 70.1832 41.6365 68.1975 41.6365C68.2363 41.4257 68.264 41.2094 68.2862 40.9931C68.4082 39.8062 68.4415 38.6303 68.2696 37.4433C68.1254 36.4727 67.8314 35.4577 67.1658 34.7145C66.5779 34.0544 65.5241 33.5719 64.6255 33.7826C63.8268 33.9712 63.1169 34.598 62.5456 35.1471C61.4252 36.2231 60.5322 37.4933 59.7224 38.8078C59.0125 39.9615 58.3414 41.1595 57.8477 42.4186C57.6647 42.8789 57.5038 43.3726 57.4761 43.8773C57.4262 44.7481 57.8145 45.4525 58.6298 45.7908C59.4063 46.1125 60.2604 46.0793 61.0869 46.0848C61.9466 46.0848 62.8063 46.0848 63.666 46.0904C64.2983 46.0904 64.9306 46.0904 65.5574 46.0904C65.5296 46.229 65.5019 46.3677 65.4686 46.5063C65.452 46.5729 65.4354 46.645 65.4187 46.7116C65.1969 46.9223 64.9583 47.1275 64.7143 47.3106C64.1652 47.7321 63.5606 48.076 62.9283 48.3533C59.667 49.7289 55.9231 49.3461 52.5619 48.5696C52.4121 48.5364 52.035 49.1187 52.0294 49.1298C51.6745 49.6179 51.3528 50.1448 51.0532 50.6718C50.9589 50.8326 49.8274 52.9958 49.9883 53.029C54.7139 54.1217 60.3214 54.2881 63.7769 50.3168C64.8307 49.1077 65.6683 47.6822 66.4281 46.2789C66.4614 46.2124 66.5003 46.1458 66.5336 46.0848C68.8354 46.0848 71.1371 46.0959 73.4334 46.1014C77.9039 46.1125 82.3744 46.1236 86.8393 46.1292C91.4818 46.1403 96.1242 46.1514 100.772 46.1625C104.588 46.1735 108.41 46.1791 112.226 46.1902C114.211 46.1902 116.197 46.2013 118.177 46.2013C118.266 46.2013 118.355 46.2013 118.443 46.2013C118.621 46.2013 118.931 45.7021 118.976 45.6411C119.331 45.153 119.652 44.6261 119.952 44.0991C120.251 43.5722 120.557 43.0398 120.795 42.4851C120.823 42.4186 121.106 41.7419 121.017 41.7419M60.2161 38.9298C60.2438 38.8632 60.266 38.8022 60.2826 38.7357C60.2826 38.7301 60.2826 38.7246 60.2826 38.7246C60.2327 38.9797 60.1994 38.9964 60.2105 38.9298M60.2826 38.7246C60.2826 38.7246 60.2826 38.7246 60.2826 38.7357C60.2826 38.7246 60.2882 38.7079 60.2937 38.6968C60.2937 38.7079 60.2937 38.719 60.2882 38.7246M59.2676 40.5383C59.2676 40.5383 59.2676 40.5438 59.262 40.5494C59.2565 40.5494 59.251 40.5605 59.2454 40.5605C59.251 40.5549 59.262 40.5438 59.2676 40.5383ZM59.251 40.5605C59.0569 40.8489 59.1678 40.6825 59.251 40.5605V40.5605ZM59.2787 40.5327C59.2454 40.5882 59.251 40.5771 59.2787 40.5327C59.2787 40.5327 59.2731 40.5383 59.2676 40.5438C59.2676 40.5438 59.2676 40.5383 59.2731 40.5327C59.2731 40.5327 59.2787 40.5272 59.2842 40.5217C59.2842 40.5161 59.2954 40.505 59.3009 40.4939C59.3009 40.4939 59.3065 40.4828 59.312 40.4773C59.3065 40.4884 59.3009 40.4995 59.2953 40.505C59.3064 40.4884 59.323 40.4717 59.3341 40.4551C59.4284 40.3553 59.5061 40.3442 59.2842 40.5272M60.7818 41.0874C60.3991 40.8212 60.1661 40.4329 60.0885 39.9781C60.0774 39.8505 60.0774 39.7285 60.0885 39.6009C60.2549 39.4401 60.4213 39.2737 60.6043 39.1239C60.9704 38.8078 61.3698 38.5138 61.8135 38.3086C62.7397 37.9536 63.8989 38.414 64.5479 39.1073C65.1802 39.784 65.4908 40.6991 65.6516 41.6088C65.0914 41.6088 64.5257 41.6088 63.9655 41.6088C62.9061 41.6088 61.6914 41.7142 60.7873 41.0874M65.9401 46.1625C65.9401 46.1625 65.9401 46.1625 65.9456 46.1569C65.929 46.1846 65.9068 46.2124 65.8902 46.2401C65.9068 46.2124 65.9234 46.1902 65.9345 46.168" fill="white"/>
<path d="M53.3163 45.659C53.4938 45.659 53.8044 45.1598 53.8488 45.0988C54.1372 44.6995 54.3979 44.2779 54.6475 43.8509C54.9248 43.3794 55.2022 42.9024 55.4407 42.4143C55.6015 42.0815 55.8622 41.6822 55.901 41.3106C56.0008 40.2512 55.9121 39.153 55.7401 38.1102C55.4295 36.2411 54.6585 34.3386 53.0889 33.1794C51.9629 32.3529 50.5874 32.0423 49.2063 32.0312C49.0288 32.0312 48.7183 32.5304 48.6739 32.5914C48.3189 33.0795 47.9972 33.6065 47.6977 34.1334C47.3982 34.6603 47.0931 35.1928 46.8546 35.7474C46.8269 35.814 46.5441 36.4906 46.6328 36.4906C48.208 36.5017 49.7665 36.9177 50.9535 37.9993C51.8853 38.8479 52.4843 39.996 52.8504 41.1941H40.4706C40.2931 41.1941 39.9825 41.6933 39.9381 41.7543C39.5832 42.2424 39.2614 42.7693 38.9619 43.2962C38.6624 43.8231 38.3574 44.3556 38.1189 44.9102C38.0911 44.9768 37.8083 45.6535 37.8971 45.6535H53.3163V45.659Z" fill="white"/>
<path d="M102.608 50.4005C101.416 49.7904 100.223 49.1803 99.031 48.5757C98.7536 48.4315 97.6444 50.4615 97.5223 50.6778C97.417 50.8608 96.2133 52.9131 96.4574 53.0351C97.6499 53.6452 98.8424 54.2553 100.035 54.8599C100.312 55.0041 101.422 52.9741 101.544 52.7578C101.649 52.5747 102.852 50.5225 102.608 50.4005Z" fill="white"/>
<path d="M63.0227 20.2383C60.6599 20.3215 57.992 20.2827 55.6292 20.2827C39.8605 20.2827 36.0556 20.2771 20.2869 20.2438C19.4937 20.2438 19.3217 20.4768 19.3273 21.2311C19.3495 31.3646 19.355 34.6315 19.3273 44.765C19.3273 45.6025 19.5991 45.7522 20.359 45.7467C25.484 45.719 29.5107 45.73 34.6301 45.73C34.9685 45.0312 35.2735 44.3212 35.4677 43.578C30.8086 43.6113 27.2477 43.578 22.5942 43.6113C21.7511 43.6168 21.4572 43.4615 21.4627 42.5297C21.5071 33.9714 21.4904 32.2853 21.4904 23.727C21.4904 22.8544 21.9175 22.4162 22.7717 22.4125C40.0047 22.4125 45.5678 22.4125 62.7953 22.4513C63.9489 22.4513 64.8198 22.1185 65.5963 21.2921C64.8531 20.6598 64.1043 20.205 63.0283 20.2438" fill="white"/>
<path d="M140.712 20.9982C140.712 20.438 140.585 20.2549 139.986 20.2549C121.993 20.266 114.971 20.2716 96.9779 20.2383C95.852 20.2383 94.9202 20.4768 94.0938 21.2921C94.9146 22.2073 95.9297 22.4292 97.1499 22.4292C114.294 22.3959 120.473 22.4125 137.617 22.3848C138.41 22.3848 138.577 22.6233 138.571 23.3721C138.543 32.0745 138.543 34.5871 138.571 43.2896C138.571 44.0661 138.366 44.2713 137.595 44.2658C134.245 44.2436 128.299 44.2491 123.368 44.2436C122.963 44.7927 122.57 45.3473 122.187 45.9131C122.081 46.0739 121.97 46.2348 121.865 46.3956C127.717 46.3845 135.487 46.3956 139.93 46.4067C140.54 46.4067 140.712 46.257 140.712 45.6358C140.69 35.3525 140.696 31.2703 140.712 20.9871" fill="white"/>
<path d="M64.6203 26.4785C59.1348 26.4785 53.6493 26.4785 48.1583 26.4785C42.645 26.4785 37.1262 26.4785 31.613 26.4785C31.4078 26.4785 31.2026 26.4896 31.0029 26.4785C30.6867 26.4619 30.5148 26.5451 30.5259 26.9112C30.537 27.2828 30.7477 27.3327 31.0472 27.3216C31.2247 27.3105 31.3967 27.3216 31.5742 27.3216C42.6062 27.3216 53.6382 27.3216 64.6702 27.3216C64.9031 27.3216 65.1416 27.3327 65.369 27.2994C65.6464 27.2662 65.6187 27.0277 65.6298 26.828C65.6409 26.6172 65.5466 26.5007 65.3302 26.4952C65.0973 26.4896 64.8643 26.4896 64.6314 26.4896" fill="white"/>
<path d="M94.7101 27.3107C94.9153 27.3107 95.1205 27.3162 95.3202 27.3162C106.38 27.3162 117.445 27.3162 128.505 27.3162C128.71 27.3162 128.915 27.3051 129.115 27.3162C129.448 27.3273 129.476 27.1165 129.481 26.8559C129.481 26.6007 129.387 26.4731 129.126 26.4787C128.893 26.4787 128.66 26.4787 128.427 26.4787C122.942 26.4787 117.451 26.4787 111.965 26.4787C106.447 26.4787 100.933 26.4787 95.4145 26.4787C95.1816 26.4787 94.9486 26.4842 94.7157 26.4787C94.4328 26.4787 94.3884 26.6562 94.394 26.8836C94.3995 27.0999 94.405 27.3051 94.7046 27.3051" fill="white"/>
<path d="M45.8892 61.4054V61.7659C45.8892 61.8491 45.8226 61.9156 45.7394 61.9156C45.3013 61.9156 44.9075 61.838 44.6412 61.6605C44.3639 61.7936 43.9923 61.9156 43.5264 61.9156H43.4598C42.3173 61.9156 41.7793 61.3443 41.7793 60.3238V60.1352C41.7793 59.0758 42.3395 58.5156 43.4931 58.5156C44.1587 58.5156 44.7411 58.6987 45.1627 58.9039V60.9727C45.1627 61.2112 45.4289 61.2501 45.734 61.2501C45.8172 61.2501 45.8837 61.3166 45.8837 61.3998M44.3085 59.3587C44.2142 59.3032 43.9258 59.2089 43.5375 59.2089C42.8996 59.2089 42.6113 59.4974 42.6113 60.0742V60.3903C42.6113 60.9505 42.8775 61.2501 43.4987 61.2501L43.7206 61.239C43.9757 61.2223 44.1975 61.1502 44.314 61.0947V59.3587H44.3085Z" fill="white"/>
<path d="M47.6584 56.6348V61.9206H45.7338C45.6506 61.9206 45.584 61.854 45.584 61.7653V61.4048C45.584 61.3216 45.6506 61.255 45.7338 61.255H46.8208V56.6403H47.6584V56.6348Z" fill="white"/>
<path d="M52.6285 61.4054V61.7659C52.6285 61.8546 52.562 61.9212 52.4732 61.9212H51.902V62.0709C51.902 63.1581 51.3972 63.7571 50.1825 63.7571H49.2951V63.0804H50.1825C50.8481 63.0804 51.0589 62.7254 51.0589 62.1153V61.9156H50.1992C49.0566 61.9156 48.5186 61.3443 48.5186 60.3238V60.1352C48.5186 59.0758 49.0733 58.5156 50.238 58.5156C50.9036 58.5156 51.4804 58.6987 51.8964 58.8983V61.2556H52.4677C52.5564 61.2556 52.623 61.3222 52.623 61.4054M51.0589 61.2556V59.3698C50.9646 59.3143 50.6762 59.2145 50.2879 59.2145C49.6501 59.2145 49.3505 59.5029 49.3505 60.0797V60.3959C49.3505 60.9561 49.6279 61.2556 50.2491 61.2556H51.0589Z" fill="white"/>
<path d="M59.5504 60.0797V61.9212H52.4786C52.3898 61.9212 52.3232 61.8546 52.3232 61.7659V61.4054C52.3232 61.3222 52.3898 61.2556 52.4786 61.2556H55.1853V58.6432H56.0228V59.0314C56.4332 58.8318 57.2985 58.5156 57.9308 58.5156C59.0457 58.5156 59.5504 59.0758 59.5504 60.0797ZM58.7017 60.0298C58.7017 59.4752 58.4244 59.1978 57.8254 59.2089C57.243 59.2089 56.6884 59.4641 56.0228 59.6859V61.2501H58.7017V60.0298Z" fill="white"/>
<path d="M61.6473 55.7595V56.1034H60.2939V55.7595H60.5324C60.4825 55.6819 60.4659 55.5876 60.4659 55.4545V55.4434C60.4659 54.8166 61.026 54.7001 61.5696 54.9164L61.4643 55.2492C61.1315 55.0773 60.8652 55.1438 60.8652 55.4101V55.5654C60.8652 55.6985 60.9484 55.754 61.1037 55.754H61.6473V55.7595ZM60.5491 56.6359H61.3866V61.9217H60.5491V56.6359Z" fill="white"/>
<path d="M71.5089 61.406V61.7665C71.5089 61.8552 71.4424 61.9218 71.3592 61.9218H69.9448V60.0637C69.9448 59.4924 69.6675 59.204 69.0574 59.1985C68.6857 59.1985 68.4084 59.3039 68.3142 59.3482V61.9218H65.319C64.2319 61.9218 63.7383 61.3505 63.7383 60.3854V59.021H64.5758V60.452C64.5758 61.0122 64.8421 61.2507 65.4244 61.2507H67.4766V58.9156C67.8871 58.7159 68.4473 58.5329 69.0962 58.5273C70.2388 58.544 70.7934 59.1264 70.7934 60.1747V61.2507H71.3536C71.4368 61.2507 71.5034 61.3172 71.5034 61.4004" fill="white"/>
<path d="M74.0103 61.4051V61.7656C74.0103 61.8543 73.9437 61.9209 73.8605 61.9209C73.5444 61.9209 73.2393 61.8544 73.023 61.6824C72.7956 61.8821 72.4129 61.9209 71.8804 61.9209H71.3646C71.2814 61.9209 71.2148 61.8543 71.2148 61.7656V61.4051C71.2148 61.3219 71.2814 61.2553 71.3646 61.2553H71.8804C72.3463 61.2553 72.4517 61.2165 72.4517 60.8948V56.6406H73.2892V60.978C73.2892 61.2165 73.5555 61.2553 73.8605 61.2553C73.9437 61.2553 74.0103 61.3219 74.0103 61.4051Z" fill="white"/>
<path d="M78.0976 61.2502V61.9158H73.8545C73.7658 61.9158 73.6992 61.8492 73.6992 61.7605V61.4C73.6992 61.3168 73.7658 61.2502 73.8545 61.2502H75.0858C74.8751 61.0228 74.7697 60.6956 74.7697 60.2685V60.1187C74.7697 59.0704 75.3299 58.5047 76.5058 58.5158C77.2102 58.5158 77.6595 58.6489 77.9534 58.7709V59.4476C77.5818 59.3145 77.0493 59.2202 76.5889 59.2091C75.9899 59.2091 75.6183 59.4476 75.6183 60.0744V60.446C75.6183 60.9396 75.9345 61.2447 76.5169 61.2447H78.0976V61.2502Z" fill="white"/>
<path d="M87.7882 61.406V61.7665C87.7882 61.8552 87.7217 61.9218 87.6385 61.9218H86.2242V60.0637C86.2242 59.4924 85.9468 59.204 85.3367 59.1985C84.965 59.1985 84.6877 59.3039 84.5934 59.3482V61.9218H81.5983C80.5112 61.9218 80.0176 61.3505 80.0176 60.3854V59.021H80.8551V60.452C80.8551 61.0122 81.1214 61.2507 81.7037 61.2507H83.7559V58.9156C84.1664 58.7159 84.7266 58.5329 85.3755 58.5273C86.5181 58.544 87.0727 59.1264 87.0727 60.1747V61.2507H87.6329C87.7161 61.2507 87.7827 61.3172 87.7827 61.4004M82.4247 62.9756C82.4247 63.2252 82.214 63.436 81.9755 63.436C81.7204 63.436 81.5151 63.2252 81.5151 62.9756C81.5151 62.726 81.7148 62.5264 81.9755 62.5264C82.214 62.5264 82.4247 62.726 82.4247 62.9756ZM83.473 62.9756C83.473 63.2252 83.2734 63.436 83.0238 63.436C82.7742 63.436 82.5634 63.2252 82.5634 62.9756C82.5634 62.726 82.7631 62.5264 83.0238 62.5264C83.2845 62.5264 83.473 62.726 83.473 62.9756Z" fill="white"/>
<path d="M91.9588 58.9136V61.9198H87.638C87.5549 61.9198 87.4883 61.8533 87.4883 61.7645V61.404C87.4883 61.3153 87.5549 61.2543 87.638 61.2543H88.886C88.6752 61.0268 88.5699 60.6996 88.5699 60.2836V60.1006C88.581 59.08 89.1245 58.5198 90.256 58.5198C90.9438 58.5198 91.5262 58.7084 91.9532 58.9192M89.2743 57.5547C89.2743 57.3051 89.4851 57.1055 89.7346 57.1055C89.9842 57.1055 90.1839 57.3051 90.1839 57.5547C90.1839 57.8043 89.9842 58.0151 89.7346 58.0151C89.4851 58.0151 89.2743 57.8043 89.2743 57.5547ZM91.1157 61.2543V59.3684C90.9826 59.3185 90.6942 59.2131 90.306 59.2131C89.6958 59.2131 89.4185 59.5016 89.4185 60.0618V60.4556C89.4185 60.9603 89.7346 61.2543 90.317 61.2543H91.1157ZM90.3336 57.5547C90.3336 57.3051 90.5334 57.1055 90.794 57.1055C91.0325 57.1055 91.2433 57.3051 91.2433 57.5547C91.2433 57.8043 91.0325 58.0151 90.794 58.0151C90.5389 58.0151 90.3336 57.8043 90.3336 57.5547Z" fill="white"/>
<path d="M94.8101 61.4044V61.765C94.8101 61.8537 94.7436 61.9203 94.6604 61.9203H94.089V62.07C94.089 63.2237 93.5067 63.8227 92.1533 63.7561V63.0906C93.0019 63.146 93.2515 62.7855 93.2515 62.1199V58.6367H94.089V61.2491H94.6604C94.7436 61.2491 94.8101 61.3157 94.8101 61.3989" fill="white"/>
<path d="M104.654 61.4041V61.7646C104.654 61.8534 104.588 61.9199 104.499 61.9199C104.089 61.9199 103.756 61.7868 103.478 61.5871C103.24 61.8145 102.924 61.9199 102.574 61.9199C102.153 61.9199 101.753 61.7646 101.487 61.5095C101.26 61.7646 100.894 61.9199 100.384 61.9199H94.6595C94.5763 61.9199 94.5098 61.8534 94.5098 61.7646V61.4041C94.5098 61.3209 94.5763 61.2543 94.6595 61.2543H98.9248V59.0025H99.7623V61.2543H100.278C100.766 61.2543 100.977 61.0048 100.977 60.5111V59.0025H101.815V60.4335C101.815 60.6165 101.798 60.7884 101.759 60.9493C101.942 61.1323 102.147 61.2433 102.447 61.2433C102.835 61.2433 103.085 61.0214 103.096 60.6054V58.6419H103.933V60.3392C103.933 60.6276 103.894 60.8661 103.817 61.0658C104 61.1878 104.255 61.2543 104.505 61.2543C104.593 61.2543 104.66 61.3209 104.66 61.4041M100.367 57.5493C100.367 57.2941 100.567 57.0889 100.827 57.0889C101.088 57.0889 101.276 57.2886 101.276 57.5493C101.276 57.81 101.077 57.9985 100.827 57.9985C100.578 57.9985 100.367 57.7989 100.367 57.5493ZM100.899 56.5287C100.899 56.2736 101.11 56.0684 101.36 56.0684C101.609 56.0684 101.809 56.268 101.809 56.5287C101.809 56.7894 101.609 56.978 101.36 56.978C101.11 56.978 100.899 56.7783 100.899 56.5287ZM101.931 57.0889C102.169 57.0889 102.38 57.2886 102.38 57.5493C102.38 57.81 102.169 57.9985 101.931 57.9985C101.676 57.9985 101.471 57.7989 101.471 57.5493C101.471 57.2997 101.67 57.0889 101.931 57.0889Z" fill="white"/>
<path d="M106.424 56.6348V61.9206H104.499C104.416 61.9206 104.35 61.854 104.35 61.7653V61.4048C104.35 61.3216 104.416 61.255 104.499 61.255H105.586V56.6403H106.424V56.6348Z" fill="white"/>
<path d="M108.41 56.6348H107.572V61.9206H108.41V56.6348Z" fill="white"/>
<path fill-rule="evenodd" clip-rule="evenodd" d="M91.0655 16.0234V21.8417C91.0655 25.3027 88.2368 28.1314 84.7757 28.1314H75.2524C71.7914 28.1314 68.9626 25.3027 68.9626 21.8417V16.0234H91.0655ZM70.9206 16.6113V20.4328C70.9206 23.8939 73.7493 26.7226 77.2104 26.7226H78.3086C74.8475 26.7226 72.0188 23.8939 72.0188 20.4328V16.6113H70.9206ZM68.9626 15.5519H68.2638C67.8367 15.5519 67.4873 15.2025 67.4873 14.7754C67.4873 14.3483 67.8367 13.9989 68.2638 13.9989H91.7644C92.1915 13.9989 92.5408 14.3483 92.5408 14.7754C92.5408 15.2025 92.1915 15.5519 91.7644 15.5519H68.9626ZM69.8224 13.5274C71.1924 11.8968 74.0765 10.6654 77.5986 10.2716C77.5875 10.2273 77.5819 10.1829 77.5819 10.1385C77.5819 9.46739 78.669 8.92383 80.0113 8.92383C81.3536 8.92383 82.4407 9.46739 82.4407 10.1385C82.4407 10.1829 82.4407 10.2273 82.424 10.2716C85.9461 10.6654 88.8302 11.8968 90.2002 13.5274H69.8168H69.8224Z" fill="white"/>
</g>
<defs>
<clipPath id="clip0_1136_7613">
<rect width="158.536" height="71.55" fill="white" transform="translate(0.751953 0.576172)"/>
</clipPath>
</defs>
</svg>
