<svg width="77" height="112" viewBox="0 0 77 112" fill="none" xmlns="http://www.w3.org/2000/svg">
<g clip-path="url(#clip0_1136_8120)">
<path d="M5.82444 105.229C5.82444 106.65 5.61101 107.711 5.18978 108.413C4.76854 109.115 3.95415 109.464 2.76345 109.464C2.5781 109.464 2.37591 109.464 2.16248 109.447C1.94344 109.435 1.73563 109.413 1.52782 109.368L0.814524 109.244C0.775208 109.638 0.719043 110.031 0.657262 110.435C0.59548 110.84 0.544932 111.255 0.5 111.688C0.72466 111.727 1.0448 111.772 1.44357 111.811C1.84796 111.851 2.28605 111.873 2.75783 111.873C3.64524 111.873 4.43155 111.705 5.12238 111.379C5.81321 111.047 6.39732 110.592 6.86911 110.02C7.34651 109.441 7.70035 108.767 7.93624 107.992C8.17214 107.217 8.29008 106.386 8.29008 105.504V93.625H5.81321V105.229H5.82444Z" fill="#3E4045"/>
<path d="M25.4991 89.1369C25.8923 89.1369 26.2236 88.9965 26.5045 88.7212C26.7853 88.4404 26.9201 88.1091 26.9201 87.7159C26.9201 87.3227 26.7797 86.9914 26.5045 86.7105C26.2236 86.4297 25.8923 86.2949 25.4991 86.2949C25.1059 86.2949 24.7746 86.4353 24.4937 86.7105C24.2129 86.9914 24.0781 87.3227 24.0781 87.7159C24.0781 88.1091 24.2185 88.4404 24.4937 88.7212C24.7746 89.0021 25.1059 89.1369 25.4991 89.1369Z" fill="#3E4045"/>
<path d="M21.3819 89.1369C21.7751 89.1369 22.1064 88.9965 22.3873 88.7212C22.6681 88.4404 22.8029 88.1091 22.8029 87.7159C22.8029 87.3227 22.6625 86.9914 22.3873 86.7105C22.1064 86.4297 21.7751 86.2949 21.3819 86.2949C20.9888 86.2949 20.6574 86.4353 20.3766 86.7105C20.0957 86.9914 19.9609 87.3227 19.9609 87.7159C19.9609 88.1091 20.1013 88.4404 20.3766 88.7212C20.6574 89.0021 20.9888 89.1369 21.3819 89.1369Z" fill="#3E4045"/>
<path d="M34.6261 89.1369C35.0192 89.1369 35.3506 88.9965 35.6314 88.7212C35.9122 88.4404 36.047 88.1091 36.047 87.7159C36.047 87.3227 35.9066 86.9914 35.6314 86.7105C35.3506 86.4297 35.0192 86.2949 34.6261 86.2949C34.2329 86.2949 33.9015 86.4353 33.6207 86.7105C33.3399 86.9914 33.2051 87.3227 33.2051 87.7159C33.2051 88.1091 33.3455 88.4404 33.6207 88.7212C33.9015 89.0021 34.2329 89.1369 34.6261 89.1369Z" fill="#3E4045"/>
<path d="M59.5739 104.808C59.9558 105.027 60.3602 105.173 60.7927 105.257C61.2252 105.341 61.6576 105.38 62.0901 105.38H68.9591V83.1953H66.4822V102.904H63.2022C63.1179 102.887 63.0281 102.87 62.927 102.87H62.1856C61.3824 102.87 60.7478 102.746 60.2816 102.499C59.8154 102.252 59.4672 101.96 59.2313 101.617C58.9954 101.275 58.8381 100.915 58.7651 100.533C58.6921 100.152 58.6584 99.837 58.6584 99.5899C58.6584 97.3433 58.1417 95.5965 57.1139 94.3609C56.0804 93.1253 54.6258 92.5018 52.7499 92.5018C51.8624 92.5018 51.0424 92.6647 50.2898 92.9961C49.5372 93.3275 48.8913 93.788 48.3578 94.389C47.8242 94.99 47.3973 95.692 47.0884 96.5064C46.7795 97.3208 46.6223 98.2026 46.6223 99.1518C46.6223 99.9156 46.5436 100.539 46.392 101.022C46.2347 101.505 46.0381 101.881 45.791 102.151C45.5439 102.421 45.2631 102.606 44.9542 102.707C44.6453 102.808 44.3251 102.864 43.9937 102.864H43.1906C43.14 102.864 43.1007 102.881 43.0558 102.887C42.5278 102.859 42.0785 102.735 41.7191 102.494C41.3147 102.224 40.9945 101.865 40.7474 101.41C40.5003 100.955 40.3093 100.415 40.1745 99.7977C40.0397 99.1743 39.9442 98.5227 39.8825 97.8431C39.8431 97.2253 39.7252 96.585 39.5399 95.9335C39.3545 95.282 39.0625 94.6923 38.6581 94.1643C38.2537 93.6364 37.7313 93.2039 37.0967 92.8613C36.4564 92.5187 35.6645 92.3502 34.7153 92.3502C34.3221 92.3502 33.9121 92.3839 33.4797 92.4457C33.0472 92.5075 32.6316 92.5805 32.2272 92.6647C31.8228 92.749 31.4465 92.8388 31.0814 92.9456C30.722 93.0523 30.4187 93.1421 30.1659 93.2264L30.7837 95.6415C31.3173 95.4168 31.8958 95.2371 32.5024 95.1023C33.109 94.9675 33.6088 94.9001 34.002 94.9001C34.9512 94.9001 35.7094 95.1697 36.2767 95.7089C36.8439 96.2481 37.209 97.1804 37.3719 98.5059C37.5348 99.7247 37.7201 100.663 37.9279 101.314C38.1357 101.966 38.3829 102.499 38.6693 102.915H28.2114C27.5486 102.915 26.9926 102.819 26.5377 102.634C26.0827 102.449 25.7177 102.19 25.4368 101.859C25.156 101.528 24.965 101.14 24.8471 100.696C24.7348 100.253 24.6786 99.7696 24.6786 99.2529V93.6364H22.2017V100.562C22.2017 101.286 22.0725 101.859 21.8142 102.286C21.5558 102.713 21.056 102.92 20.3146 102.92H15.7034V83.2122H13.2266V105.397H20.4943C20.9043 105.397 21.2975 105.369 21.6682 105.307C22.0388 105.246 22.3871 105.133 22.7128 104.97C23.0386 104.808 23.3363 104.566 23.6059 104.252C23.8754 103.937 24.1282 103.521 24.3585 103.016C24.6056 103.87 25.0605 104.482 25.7233 104.847C26.3804 105.212 27.1779 105.397 28.1047 105.397H36.5182C36.9338 105.397 37.3382 105.285 37.7426 105.06C38.147 104.836 38.5738 104.341 39.0288 103.572C39.523 104.223 40.0959 104.69 40.7474 104.97C41.3989 105.251 42.1571 105.397 43.0221 105.397H44.1959C44.8531 105.397 45.499 105.178 46.128 104.746C46.7571 104.313 47.2176 103.662 47.5041 102.797C48.0826 103.746 48.7734 104.443 49.5765 104.886C50.3797 105.33 51.3682 105.555 52.5477 105.555C53.0419 105.555 53.5249 105.521 53.9855 105.459C54.4517 105.397 54.901 105.263 55.3447 105.055C55.7884 104.847 56.2209 104.549 56.6421 104.156C57.0633 103.763 57.4846 103.241 57.8946 102.578C58.0406 103.134 58.254 103.594 58.5461 103.954C58.8325 104.313 59.1695 104.605 59.5514 104.819M56.1647 100.702C56.0187 101.168 55.7996 101.573 55.5019 101.926C55.2043 102.275 54.8223 102.555 54.3562 102.763C53.89 102.971 53.3396 103.072 52.6993 103.072C52.059 103.072 51.5086 102.971 51.0424 102.763C50.5763 102.555 50.1943 102.28 49.8798 101.926C49.5709 101.578 49.3463 101.168 49.2002 100.702C49.0542 100.236 48.9812 99.7359 48.9812 99.2023C48.9812 98.5227 49.0767 97.9105 49.2732 97.377C49.4698 96.8378 49.7394 96.3829 50.0764 96.0009C50.419 95.619 50.8122 95.327 51.2671 95.1191C51.722 94.9113 52.1938 94.8102 52.6881 94.8102C53.1823 94.8102 53.6204 94.9113 54.0641 95.1191C54.5078 95.327 54.901 95.619 55.238 96.0009C55.5806 96.3829 55.8502 96.8434 56.058 97.377C56.2658 97.9105 56.3669 98.5227 56.3669 99.2023C56.3669 99.7359 56.2939 100.236 56.1478 100.702" fill="#3E4045"/>
<path d="M76.2662 83.2031H73.8848V105.388H76.2662V83.2031Z" fill="#3E4045"/>
<path d="M49.2288 88.5867C49.5827 88.5867 49.959 88.5249 50.3634 88.3958C50.7678 88.2722 51.1385 88.0812 51.4811 87.8285C51.8237 87.5758 52.1101 87.2725 52.3348 86.9074C52.5594 86.5479 52.6774 86.1379 52.6774 85.6886C52.6774 85.0989 52.5257 84.672 52.2224 84.4024C51.9191 84.1328 51.5316 83.998 51.0654 83.998C50.5993 83.998 50.2117 84.1665 49.8691 84.5035C49.5265 84.8405 49.3524 85.2561 49.3524 85.7616C49.3524 86.0481 49.4367 86.3514 49.6052 86.6659C49.7736 86.986 50.0095 87.2612 50.3128 87.4971C49.9084 87.6319 49.5658 87.6993 49.2794 87.6993C48.7908 87.6993 48.3639 87.6656 47.9932 87.5982C47.6225 87.5308 47.2575 87.441 46.8868 87.323L46.6621 88.1767C47.0496 88.2947 47.454 88.3902 47.8809 88.4688C48.3077 88.5418 48.7571 88.5811 49.2288 88.5811M50.1837 85.7336C50.1837 85.464 50.2735 85.2505 50.4476 85.0933C50.6217 84.936 50.8295 84.8518 51.0654 84.8518C51.2845 84.8518 51.4698 84.9248 51.6327 85.0764C51.79 85.2281 51.8742 85.4471 51.8742 85.7336C51.8742 86.0368 51.79 86.3064 51.6215 86.5367C51.453 86.7726 51.2452 86.9748 50.9924 87.1433C50.6723 86.8905 50.4589 86.6547 50.3521 86.4244C50.2398 86.1997 50.1893 85.9694 50.1893 85.7336" fill="#3E4045"/>
<path d="M39.3554 17.0379L54.3177 32.0003L64.2028 22.1152V12.4942H54.5817L48.7518 18.3241L47.8475 17.4198L54.0481 11.2192H65.4721V22.6432L54.3121 33.8032L38.4511 17.9422L22.2138 1.70487L22.0734 1.56445H1.77539V21.8625L17.2545 37.3416L32.2168 22.3792L22.3318 12.4942H12.7051V22.1152L18.535 27.9452L17.6308 28.8494L11.4302 22.6488V11.2192H22.8541L34.0141 22.3792L18.1531 38.2402L1.77539 54.6179V74.9159H22.0734L37.5469 59.4425L22.5901 44.4801L12.7051 54.3652V63.9862H22.3262L28.1561 58.1563L29.0603 59.0606L22.8597 65.2612H11.4302V53.8372L22.5901 42.6772L38.4511 58.5382L54.8288 74.9159H75.1269V54.6179L59.6478 39.1388L44.6854 54.1012L54.5705 63.9862H64.1915V54.3652L58.3616 48.5352L59.2603 47.631L65.4609 53.8316V65.2556H54.0369L42.8769 54.0956L58.7379 38.2346L75.1156 21.8569V1.56445H54.8176L39.3385 17.0379H39.3554ZM38.4511 49.6642L27.0272 38.2402L38.4511 26.8162L49.8751 38.2402L38.4511 49.6642Z" fill="#41BDAC"/>
<path d="M75.1266 52.8176V23.668L60.5518 38.2428L75.1266 52.8176Z" fill="#FCDE00"/>
<path d="M23.876 74.9186H53.0256L38.4508 60.3438L23.876 74.9186Z" fill="#FCDE00"/>
<path d="M38.4539 28.6193L28.8311 38.2422L38.4539 47.865L48.0768 38.2422L38.4539 28.6193Z" fill="#FCDE00"/>
<path d="M1.77539 52.8176L16.3502 38.2428L1.77539 23.668V52.8176Z" fill="#FCDE00"/>
<path d="M53.0256 1.56445H23.876L38.4508 16.1393L53.0256 1.56445Z" fill="#FCDE00"/>
<path d="M38.4503 26.8164L27.0264 38.2404L38.4503 49.6643L49.8743 38.2404L38.4503 26.8164ZM28.8293 38.2404L38.4503 28.6193L48.0714 38.2404L38.4503 47.8614L28.8293 38.2404Z" fill="#3E4045"/>
<path d="M0.5 76.1924H76.4014V0.291016H0.5V76.1924ZM53.0255 1.56596L38.4507 16.1408L23.8759 1.56596H53.0255ZM1.77495 23.6669L16.3498 38.2417L1.77495 52.8165V23.6669ZM23.8759 74.9174L38.4507 60.3426L53.0255 74.9174H23.8759ZM54.8284 74.9174L38.4507 58.5397L22.5897 42.6787L11.4297 53.8387V65.2627H22.8537L29.0543 59.0621L28.15 58.1578L22.3201 63.9877H12.7047V54.3667L22.5897 44.4816L37.552 59.444L22.073 74.9231H1.77495V54.625L18.1527 38.2473L34.0136 22.3863L22.8537 11.2263H11.4297V22.6503L17.6303 28.8509L18.5346 27.9467L12.7047 22.1167V12.4957H22.3257L32.2108 22.3807L17.2484 37.3431L1.77495 21.864V1.56596H22.073L22.2134 1.70637L38.4507 17.9437L54.3117 33.8047L65.4717 22.6447V11.2207H54.0477L47.8471 17.4213L48.7457 18.3256L54.5756 12.4957H64.1967V22.1167L54.3117 32.0018L39.3493 17.0394L54.8284 1.56596H75.1264V21.864L58.7487 38.2417L42.8877 54.1027L54.0477 65.2627H65.4717V53.8387L59.271 47.6381L58.3724 48.5424L64.2023 54.3723V63.9933H54.5813L44.6962 54.1083L59.653 39.146L75.132 54.625V74.9231H54.834L54.8284 74.9174ZM60.5516 38.2417L75.1264 23.6669V52.8165L60.5516 38.2417Z" fill="#3E4045"/>
</g>
<defs>
<clipPath id="clip0_1136_8120">
<rect width="75.9014" height="111.583" fill="white" transform="translate(0.5 0.291016)"/>
</clipPath>
</defs>
</svg>
