<svg width="148" height="73" viewBox="0 0 148 73" fill="none" xmlns="http://www.w3.org/2000/svg">
<g clip-path="url(#clip0_1136_7585)">
<path d="M117.121 5.34671C117.161 5.34671 117.187 5.32059 117.187 5.28142C117.187 5.2553 117.167 5.22918 117.141 5.22265C106.142 2.44098 96.0238 1.22645 85.8732 0.573477C49.429 -1.59439 18.7944 6.06498 6.92047 15.4547C-1.45459 21.7037 0.040254 27.9657 0.67997 29.7026C0.699553 29.7549 0.751775 29.7875 0.810525 29.7875C0.869274 29.7875 0.928023 29.7483 0.941079 29.7026C1.31316 27.7111 3.91119 19.8493 22.0974 13.215C30.4725 10.5183 46.2826 4.63497 75.8531 3.23761C96.5134 2.66952 112.102 4.92881 117.128 5.35324" fill="#ED1C24"/>
<path d="M145.765 21.2521C145.726 21.226 145.68 21.2129 145.634 21.2129C145.491 21.2129 145.38 21.3239 145.38 21.461C145.262 22.989 144.185 27.3508 136.515 33.319C121.214 45.399 94.1763 59.8559 86.9566 63.6366C86.6106 63.7933 86.4083 63.7672 86.2386 63.6627C85.9905 63.4603 86.2516 63.0685 86.2647 63.0489L93.8368 52.7384C93.8368 52.7384 96.9571 49.1471 95.534 47.6387C94.6463 46.7768 90.3184 47.5342 90.3184 47.5342C90.3184 47.5342 54.553 52.5034 27.1301 46.6462C27.0844 46.6462 27.0518 46.6789 27.0518 46.7246C27.0518 46.7572 27.0713 46.7833 27.104 46.7899C33.0899 48.5659 54.6444 54.1032 85.7294 52.4185C85.9905 52.4381 86.1929 52.6601 86.1929 52.9278C86.1929 53.0323 86.1668 53.1302 86.1145 53.2086C84.5348 55.2328 80.109 60.6982 73.046 68.1486C71.3358 70.0879 70.1804 71.1654 71.623 72.5301C72.909 73.5814 75.2132 72.5301 75.2132 72.5301L94.7246 63.1599C94.7246 63.1599 123.27 49.2189 135.614 40.3124C151.366 29.4273 147.201 22.8388 145.765 21.239" fill="#ED1C24"/>
<path d="M50.1145 17.016C49.1615 17.016 48.3651 16.6569 47.869 16.0169C47.3598 15.3574 47.2227 14.4433 47.4838 13.4573C47.9865 11.5571 49.886 10.0684 51.8182 10.0684C52.7582 10.0684 53.5611 10.4275 54.0638 11.087C54.5729 11.7465 54.7165 12.6345 54.462 13.5879C53.9528 15.5468 52.0794 17.0225 50.121 17.0225" fill="#ED1C24"/>
<path d="M80.7033 43.2641C79.6001 43.2641 78.6079 43.1465 77.7593 42.8984C75.8989 42.3434 74.6194 41.1746 73.9536 39.4311C72.7329 36.225 73.934 31.9154 75.5725 29.2578C75.6051 29.186 80.2333 20.3382 91.3957 18.7384C91.709 18.7123 92.0027 18.6992 92.2769 18.6992C94.1438 18.6992 95.482 19.2151 96.2588 20.2272C97.4077 21.7225 96.892 23.7271 96.8724 23.812C96.8137 24.0797 95.2274 30.6943 83.1381 33.1495C81.8456 33.3454 80.9383 33.3846 80.403 33.3846C80.1615 33.3846 79.9787 33.3781 79.8612 33.3715C79.6458 33.8809 79.0517 35.5525 79.6001 36.9694C79.9134 37.7791 80.5596 38.3929 81.5192 38.7847C82.2177 39.0263 82.988 39.1438 83.7909 39.1438C88.5887 39.1438 93.3344 34.782 93.3801 34.7362C93.3801 34.7362 93.6738 34.4685 94.4115 33.7829L94.4441 33.7568L94.4833 33.7372C94.529 33.7111 94.5551 33.698 94.5746 33.6915C94.6791 33.6523 94.764 33.6393 94.8553 33.6393C95.0577 33.6393 95.2535 33.7176 95.4037 33.8613C95.5603 34.0114 95.6583 34.2988 95.6191 34.5338C95.6191 34.6514 95.606 34.7885 95.5603 34.9517C95.3449 35.5394 94.3397 37.5963 90.1228 40.4432C88.171 41.6643 86.1735 42.4805 84.1629 42.9049C83.0141 43.1465 81.8195 43.2706 80.7033 43.2706M89.4243 22.8652C89.2741 22.8652 89.111 22.8717 88.9347 22.8913C87.5051 22.9827 86.0951 23.5443 84.757 24.576C82.185 26.4892 80.8534 29.3296 80.8403 29.3557C80.7751 29.4994 80.7228 29.7084 80.8403 29.8912C80.9709 30.0936 81.2908 30.2177 81.7085 30.2177C81.7673 30.2177 81.8391 30.2177 81.9044 30.2111H82.0023C83.1773 30.2111 85.0377 30.0675 87.6683 28.8399C89.0326 28.1282 90.0379 27.214 90.6319 26.1235C91.0954 25.242 91.1672 24.5368 91.1672 24.5303C91.1672 24.5172 91.2586 23.8447 90.8473 23.3745C90.5601 23.0415 90.0771 22.8717 89.4308 22.8717" fill="#ED1C24"/>
<path d="M100.039 41.7168C98.8768 41.6319 97.9629 40.6655 97.9629 39.5032C97.9629 39.1833 98.0347 38.8698 98.1783 38.5695C98.348 38.2365 99.5361 36.0294 112.467 12.4244C112.526 12.3134 112.605 12.1959 112.676 12.0914L112.781 11.9347C113.551 10.8703 114.746 10.1782 116.051 10.0411C116.156 10.0215 116.469 10.0215 116.56 10.0215C117.742 10.1064 118.649 11.0728 118.649 12.2351C118.649 12.555 118.577 12.8684 118.44 13.1753H118.434C118.264 13.5084 117.076 15.7089 104.145 39.3204C104.086 39.4314 104.008 39.5489 103.936 39.6534L103.831 39.8036C103.061 40.8679 101.866 41.5601 100.561 41.6972C100.45 41.7168 100.143 41.7233 100.045 41.7233H100.026L100.039 41.7168Z" fill="#ED1C24"/>
<path d="M58.5552 43.2648C56.4859 43.2648 54.5472 42.1613 53.4962 40.3787C53.3657 40.1567 53.2482 39.9216 53.1372 39.6735C52.6411 38.0214 52.9283 36.3368 53.1764 35.5989C53.32 34.9329 53.3722 34.8415 55.9833 30.016C56.7601 28.5795 57.5173 27.1364 58.8163 24.7138H54.273C54.1686 24.7138 54.0641 24.6877 53.9597 24.642C53.8226 24.5833 53.7312 24.5245 53.6594 24.4461C53.6072 24.3939 53.5615 24.3351 53.5223 24.2764C53.3657 24.0086 53.3591 23.6756 53.5093 23.4079L54.1359 22.2391C54.3905 21.7689 54.7365 21.351 55.1608 20.9723C55.7809 20.3585 56.5904 19.9537 57.4259 19.8492L57.6022 19.8296C57.7066 19.8296 57.8111 19.8165 57.909 19.8165H61.4927L64.8022 13.8092C64.861 13.6982 64.9393 13.5807 65.0177 13.4762L65.1221 13.326C65.8924 12.2616 67.0869 11.5695 68.3925 11.4324C68.4969 11.4128 68.8103 11.4062 68.9016 11.4062C70.0832 11.4911 70.9905 12.4641 70.9905 13.6198C70.9905 13.9398 70.9187 14.2532 70.7816 14.5536C70.6837 14.7429 67.8898 19.8165 67.8898 19.8165H73.7191C73.9476 19.8165 74.1695 19.908 74.3392 20.0712C74.3915 20.1234 74.4371 20.1822 74.4763 20.2475C74.633 20.5152 74.6395 20.8482 74.4894 21.116C74.4894 21.116 73.4645 22.8855 73.3927 22.9769C72.753 23.9042 71.7412 24.5245 70.638 24.6616C70.638 24.6616 70.2986 24.7008 70.1419 24.7008H65.22L59.5996 34.9982C59.5866 35.0243 58.4442 37.0812 58.8881 38.3022C59.0122 38.6483 59.2602 38.8834 59.6388 39.027C60.0631 39.1772 60.5266 39.249 61.0227 39.249C62.8439 39.249 65.1482 38.1912 67.5047 36.2715L67.57 36.2127C67.8637 35.9776 68.1771 35.7752 68.4316 35.6512L68.5035 35.6185C68.5753 35.5924 68.6732 35.5597 68.7907 35.5597C69.228 35.5597 69.5871 35.9189 69.5871 36.3564C69.5871 36.4608 69.5675 36.5588 69.5283 36.6567C69.5152 36.6894 69.1236 37.3815 69.0844 37.4403C68.0922 39.1772 66.6692 40.6268 64.972 41.6324C63.3988 42.5661 61.6493 43.095 59.7628 43.1995C59.6845 43.1995 59.6062 43.2126 59.5278 43.2191C59.3908 43.2256 59.2471 43.2452 59.1035 43.2452H58.5552V43.2648Z" fill="#ED1C24"/>
<path d="M36.3349 41.7163C35.173 41.6315 34.2656 40.6651 34.2656 39.5028C34.2656 39.1828 34.3374 38.8694 34.4745 38.569C34.5659 38.3992 43.6394 21.8202 43.6394 21.8202C43.6982 21.7092 43.77 21.5917 43.8483 21.4872L43.9528 21.337C44.723 20.2727 45.9176 19.5805 47.2231 19.4434C47.3341 19.4238 47.6409 19.4238 47.7388 19.4238C48.9204 19.5022 49.8277 20.4751 49.8277 21.6374C49.8277 21.9574 49.7559 22.2708 49.6188 22.5777C49.5274 22.7475 40.4539 39.3265 40.4539 39.3265C40.3952 39.4375 40.3168 39.555 40.245 39.6595L40.1406 39.8097C39.3703 40.874 38.1757 41.5662 36.8702 41.7033C36.7592 41.7229 36.4524 41.7294 36.3545 41.7294H36.3349V41.7163Z" fill="#ED1C24"/>
</g>
<defs>
<clipPath id="clip0_1136_7585">
<rect width="147.2" height="72.8" fill="white" transform="translate(0.151367 0.201172)"/>
</clipPath>
</defs>
</svg>
