<svg width="176" height="58" viewBox="0 0 176 58" fill="none" xmlns="http://www.w3.org/2000/svg">
<g clip-path="url(#clip0_1136_7677)">
<path d="M68.2109 46.6322C67.8009 46.6322 67.4133 46.548 67.0539 46.3795C66.6944 46.211 66.3799 45.9807 66.1159 45.6943C65.8519 45.4078 65.6385 45.0764 65.4869 44.7001C65.3296 44.3238 65.251 43.9363 65.251 43.5375C65.251 43.1668 65.3071 42.8186 65.4251 42.4816C65.543 42.1502 65.7115 41.8582 65.9362 41.6054C66.1608 41.3527 66.4361 41.1505 66.7674 41.0045C67.0988 40.8585 67.4695 40.7798 67.8907 40.7686L67.374 41.5774C67.1493 41.6054 66.9528 41.6785 66.7899 41.802C66.627 41.9256 66.4922 42.0716 66.3855 42.2513C66.2788 42.4311 66.2002 42.622 66.144 42.8298C66.0878 43.0377 66.0598 43.2455 66.0598 43.4477C66.0598 43.7509 66.1103 44.043 66.2114 44.3238C66.3125 44.6047 66.4585 44.8574 66.6439 45.0764C66.8348 45.2955 67.0651 45.4696 67.3403 45.5988C67.6155 45.728 67.9188 45.7954 68.2502 45.7954C68.5142 45.7954 68.7669 45.7448 69.0028 45.6493C69.2443 45.5538 69.4577 45.4191 69.6431 45.2449C69.8284 45.0708 69.9744 44.8686 70.0868 44.6271C70.1935 44.3912 70.2497 44.1329 70.2497 43.852V41.5043L71.0585 40.8079V43.6105C71.0585 44.2115 70.9573 44.7057 70.7608 45.0877C70.5642 45.4752 70.3171 45.7841 70.0306 46.0088C69.7442 46.2334 69.4296 46.3963 69.1039 46.4918C68.7781 46.5873 68.4804 46.6322 68.2165 46.6322H68.2109ZM69.1601 38.4434L69.7273 39.0275L69.1601 39.5947L68.604 39.0275L69.1601 38.4434Z" fill="#192E4E"/>
<path d="M73.8048 44.8974C73.5015 44.8974 73.2431 44.8469 73.041 44.7458C72.8331 44.6447 72.6703 44.5099 72.5467 44.3358C72.4231 44.1617 72.3333 43.9651 72.2827 43.7348C72.2322 43.5046 72.2041 43.2743 72.2041 43.0271V39.1124L72.9736 38.4609V43.0665C72.9736 43.3304 73.0466 43.5607 73.187 43.7573C73.333 43.9539 73.5464 44.055 73.8385 44.055H74.3552V44.8974H73.7992H73.8048Z" fill="#192E4E"/>
<path d="M75.5123 40.8023L76.2818 40.1732V43.3522C76.2818 43.5712 76.3267 43.7397 76.4053 43.8633C76.4896 43.9868 76.6412 44.0486 76.8603 44.0486H77.4275V44.8911H76.776C76.7086 44.8911 76.6244 44.8855 76.5401 44.8742C76.4503 44.863 76.366 44.8349 76.2762 44.7956C76.1863 44.7563 76.1077 44.7058 76.0403 44.6384C75.9729 44.571 75.9223 44.4867 75.8942 44.3856C75.8269 44.5878 75.7033 44.7226 75.5179 44.79C75.3326 44.8574 75.1529 44.8911 74.9731 44.8911H74.3665C74.2149 44.8911 74.1026 44.8462 74.0296 44.7563C73.9566 44.6664 73.9229 44.571 73.9229 44.4586C73.9229 44.3463 73.9566 44.2564 74.0296 44.1722C74.1026 44.0879 74.2149 44.043 74.3665 44.043H74.9338C75.1697 44.043 75.3214 43.9812 75.4 43.8633C75.473 43.7453 75.5123 43.5825 75.5123 43.3803V40.7911V40.8023ZM75.8156 38.4434L76.3604 39.0275L75.8156 39.5947L75.2483 39.0275L75.8156 38.4434Z" fill="#192E4E"/>
<path d="M77.4329 44.8969C77.2813 44.8969 77.169 44.852 77.096 44.7621C77.023 44.6723 76.9893 44.5768 76.9893 44.4644C76.9893 44.3521 77.023 44.2623 77.096 44.178C77.169 44.0938 77.2813 44.0488 77.4329 44.0488H80.5894V44.8913H77.4329V44.8969Z" fill="#192E4E"/>
<path d="M84.386 44.8961H82.9481C82.8864 44.8961 82.8133 44.8905 82.7291 44.8736C82.6448 44.8568 82.5606 44.8287 82.4763 44.7894C82.3921 44.7501 82.3191 44.6995 82.2517 44.6377C82.1843 44.5759 82.1394 44.4917 82.1113 44.3906C82.0383 44.5928 81.9035 44.7276 81.7125 44.795C81.5215 44.8624 81.3362 44.8961 81.1565 44.8961H80.5892C80.4376 44.8961 80.3252 44.8512 80.2522 44.7613C80.1792 44.6714 80.1455 44.5759 80.1455 44.4636C80.1455 44.3513 80.1792 44.2614 80.2522 44.1772C80.3252 44.0929 80.4376 44.048 80.5892 44.048H80.8644C80.9823 44.048 81.0891 44.048 81.1902 44.0368C81.2913 44.0311 81.3811 44.0031 81.4541 43.9581C81.5271 43.9132 81.5889 43.8514 81.6282 43.7672C81.6732 43.6829 81.6956 43.565 81.6956 43.4133V40.9028L82.4763 40.2569V43.4133C82.4763 43.5987 82.5213 43.7503 82.5999 43.8683C82.6842 43.9862 82.8358 44.048 83.0548 44.048H84.3411C84.5657 44.048 84.7173 43.9918 84.796 43.8739C84.869 43.7616 84.9083 43.6043 84.9083 43.4133V40.7848L85.689 40.1445V43.4133C85.689 43.5987 85.7283 43.7503 85.8069 43.8683C85.8856 43.9862 86.0372 44.048 86.2562 44.048H87.0369C87.183 44.048 87.2897 43.9862 87.3627 43.8627C87.4357 43.7391 87.4694 43.6155 87.4694 43.492C87.4694 43.4863 87.4694 43.4583 87.4638 43.419C87.4638 43.3796 87.4582 43.3403 87.4525 43.301C87.4525 43.2617 87.4413 43.2224 87.4357 43.1831C87.4301 43.1437 87.4245 43.1157 87.4245 43.0988L87.1212 40.7511L87.8345 40.1614L88.2389 43.3066C88.2445 43.3459 88.2557 43.4021 88.2557 43.4751C88.2557 43.5481 88.2614 43.6043 88.2614 43.6436C88.2614 43.7953 88.2389 43.9469 88.1883 44.0929C88.1378 44.239 88.0704 44.3737 87.9749 44.4917C87.8794 44.6096 87.7558 44.7051 87.6042 44.7838C87.4526 44.8624 87.2672 44.8961 87.0482 44.8961H86.1552C86.0091 44.8961 85.8463 44.8624 85.6609 44.7894C85.4756 44.7164 85.3576 44.5872 85.2958 44.3906C85.2172 44.5928 85.088 44.7276 84.9027 44.795C84.7174 44.8624 84.5432 44.8961 84.3747 44.8961H84.386Z" fill="#192E4E"/>
<path d="M88.9409 38.5833C89.0701 38.7012 89.2442 38.8922 89.4689 39.1618C89.6936 39.4257 89.9294 39.7066 90.1765 40.0042C90.4237 40.3019 90.6484 40.5883 90.8618 40.8692C91.0752 41.15 91.2381 41.3578 91.3504 41.4982C91.5245 41.1219 91.6425 40.7344 91.6986 40.3356C91.7548 39.9368 91.7829 39.5324 91.7829 39.1112V38.5833H92.6254C92.631 38.7124 92.6366 38.8135 92.6366 38.8866V39.1618C92.6366 39.7178 92.5916 40.2401 92.5018 40.74C92.4119 41.2399 92.2154 41.7285 91.9008 42.2171L92.4905 42.9754C92.6028 43.1214 92.6759 43.2618 92.7208 43.4078C92.7601 43.5539 92.7826 43.6943 92.7826 43.8291C92.7826 44.1099 92.6815 44.357 92.485 44.5704C92.2884 44.7839 92.0019 44.8906 91.6369 44.8906H88.2501V44.0481C88.4523 44.0481 88.6769 43.992 88.9297 43.874C89.1824 43.7617 89.4296 43.6156 89.6711 43.4471C89.9126 43.2786 90.126 43.0989 90.3226 42.9023C90.5135 42.7114 90.6596 42.5373 90.755 42.3856L91.2044 42.9697C91.1314 43.0877 91.0359 43.1944 90.9179 43.3011C90.8 43.4078 90.6764 43.5089 90.5416 43.6044C90.4068 43.6999 90.2664 43.7841 90.1204 43.8515C89.9743 43.9189 89.8452 43.9807 89.7216 44.0369H91.5639C91.7099 44.0369 91.8109 44.0088 91.8783 43.947C91.9457 43.8852 91.9795 43.8122 91.9795 43.7224C91.9795 43.6718 91.9682 43.61 91.9401 43.5482C91.9176 43.4865 91.884 43.4303 91.8391 43.3741C91.1988 42.5429 90.5585 41.7285 89.9238 40.9253C89.2891 40.1222 88.6264 39.3359 87.9355 38.5664H88.9353L88.9409 38.5833Z" fill="#192E4E"/>
<path d="M93.9795 39.1183L94.7489 38.4668V44.9033H93.9795V39.1183Z" fill="#192E4E"/>
<path d="M100.45 44.0539H106.095C106.213 44.0539 106.308 44.0426 106.375 44.0145C106.443 43.9865 106.482 43.9247 106.482 43.8292C106.482 43.8123 106.482 43.7899 106.476 43.7506C106.476 43.7169 106.465 43.6776 106.46 43.6382L106.072 40.8075L106.78 40.2403L107.179 43.2001C107.212 43.4248 107.285 43.627 107.392 43.7955C107.504 43.9696 107.69 44.0539 107.959 44.0539H108.487V44.8963H107.869C107.662 44.8963 107.465 44.8626 107.28 44.8009C107.094 44.7391 106.937 44.5987 106.797 44.3796C106.712 44.5874 106.583 44.7278 106.409 44.7952C106.235 44.8626 106.061 44.8963 105.876 44.8963H100.461C100.119 44.8963 99.8041 44.8345 99.5288 44.711C99.2536 44.5874 99.0177 44.4133 98.8212 44.1943C98.6246 43.9752 98.473 43.7225 98.3663 43.4304C98.2595 43.1384 98.209 42.8295 98.209 42.5037C98.209 42.133 98.282 41.8016 98.428 41.5096C98.5741 41.2175 98.7762 40.9704 99.029 40.7682C99.2817 40.566 99.5738 40.4144 99.8996 40.3077C100.225 40.2009 100.568 40.1504 100.933 40.1504H101.023L100.708 40.7907C100.472 40.8188 100.242 40.8805 100.029 40.9704C99.8153 41.0659 99.63 41.1838 99.4671 41.3299C99.3042 41.4759 99.1806 41.6444 99.0907 41.841C98.9953 42.0319 98.9503 42.251 98.9503 42.4869C98.9503 42.6385 98.9784 42.807 99.0402 42.9923C99.102 43.1777 99.1918 43.3462 99.3098 43.5034C99.4277 43.6607 99.585 43.7899 99.7704 43.8966C99.9557 44.0033 100.175 44.0539 100.433 44.0539H100.45ZM103.208 45.5422L103.775 46.1263L103.208 46.6824L102.663 46.1263L103.208 45.5422Z" fill="#192E4E"/>
<path d="M108.487 44.8974C108.335 44.8974 108.223 44.8525 108.15 44.7627C108.077 44.6728 108.043 44.5773 108.043 44.465C108.043 44.3526 108.077 44.2628 108.15 44.1785C108.223 44.0943 108.335 44.0494 108.487 44.0494H109.559L109.722 43.7854V39.1124L110.481 38.4609V42.7126C110.728 42.3869 110.992 42.0611 111.272 41.7522C111.553 41.4377 111.845 41.1625 112.154 40.9266C112.458 40.6907 112.783 40.4941 113.131 40.3481C113.474 40.2021 113.834 40.129 114.204 40.129C114.575 40.129 114.878 40.1964 115.159 40.3312C115.44 40.466 115.681 40.6401 115.878 40.8592C116.075 41.0782 116.226 41.3254 116.322 41.5949C116.423 41.8645 116.473 42.1397 116.473 42.4149C116.473 42.6565 116.44 42.8867 116.378 43.1002C116.316 43.3136 116.204 43.5383 116.041 43.7685C116.091 43.8752 116.17 43.9483 116.271 43.9932C116.372 44.0381 116.473 44.0606 116.569 44.0606H117.119V44.9031H116.412C116.209 44.9031 116.018 44.8694 115.839 44.7963C115.659 44.7233 115.519 44.5829 115.423 44.3751C115.17 44.5436 114.867 44.6728 114.502 44.7683C114.142 44.8637 113.693 44.9087 113.16 44.9087H108.481L108.487 44.8974ZM113.244 44.055C113.688 44.055 114.064 44.0044 114.373 43.8977C114.682 43.791 114.929 43.6618 115.114 43.4989C115.299 43.3361 115.434 43.1676 115.513 42.9822C115.592 42.7969 115.631 42.6228 115.631 42.4543C115.631 42.2689 115.597 42.0892 115.524 41.9095C115.451 41.7297 115.356 41.5725 115.232 41.4321C115.109 41.2916 114.968 41.1849 114.8 41.1007C114.631 41.0221 114.446 40.9827 114.244 40.9827C114.03 40.9827 113.794 41.0221 113.542 41.0951C113.289 41.1681 113.008 41.3197 112.699 41.5444C112.39 41.7691 112.048 42.078 111.671 42.4767C111.295 42.8755 110.891 43.3978 110.452 44.0494H113.244V44.055Z" fill="#192E4E"/>
<path d="M117.12 44.8953C116.968 44.8953 116.855 44.8503 116.782 44.7605C116.709 44.6706 116.676 44.5751 116.676 44.4628C116.676 44.3504 116.709 44.2606 116.782 44.1763C116.855 44.0921 116.968 44.0472 117.12 44.0472H117.664C117.945 44.0472 118.164 43.9517 118.316 43.7551C118.467 43.5641 118.546 43.3282 118.546 43.0587V39.1046L119.304 38.4531V43.0193C119.304 43.5641 119.181 44.0135 118.928 44.3617C118.675 44.7099 118.265 44.884 117.692 44.884H117.125L117.12 44.8953Z" fill="#192E4E"/>
<path d="M126.14 44.8974C126.078 45.2737 125.943 45.5827 125.741 45.8185C125.539 46.0544 125.292 46.2398 125.016 46.369C124.741 46.4981 124.444 46.5824 124.135 46.6273C123.82 46.6723 123.534 46.6947 123.264 46.6947H122.528L122.882 45.9477C123.197 45.9477 123.5 45.9253 123.792 45.8747C124.084 45.8298 124.348 45.7512 124.573 45.6388C124.803 45.5321 124.983 45.3805 125.118 45.2007C125.252 45.021 125.32 44.7739 125.32 44.4818C125.32 44.4088 125.32 44.3358 125.314 44.2684C125.314 44.201 125.308 44.1392 125.308 44.0831L124.876 40.7244L125.657 40.1683L126.14 44.0606H127.549C127.774 44.0606 127.926 43.9988 128.01 43.8809C128.089 43.7629 128.128 43.6 128.128 43.3978V40.8086L128.897 40.1796V43.3585C128.897 43.5776 128.942 43.7461 129.021 43.8696C129.105 43.9932 129.257 44.055 129.476 44.055H130.043V44.8974H129.392C129.33 44.8974 129.257 44.8918 129.167 44.8806C129.077 44.8694 128.993 44.8413 128.903 44.802C128.813 44.7626 128.735 44.7121 128.667 44.6447C128.6 44.5773 128.549 44.4931 128.521 44.392C128.448 44.5942 128.319 44.729 128.134 44.7963C127.948 44.8637 127.769 44.8974 127.589 44.8974H126.14ZM127.842 38.4609L128.409 39.0394L127.842 39.5955L127.263 39.0394L127.842 38.4609ZM128.987 38.4609L129.543 39.0394L128.987 39.5955L128.431 39.0394L128.987 38.4609Z" fill="#192E4E"/>
<path d="M133.845 44.8961H132.407C132.345 44.8961 132.272 44.8905 132.188 44.8736C132.104 44.8568 132.02 44.8287 131.935 44.7894C131.851 44.7501 131.778 44.6995 131.711 44.6377C131.643 44.5759 131.598 44.4917 131.57 44.3906C131.497 44.5928 131.362 44.7276 131.172 44.795C130.981 44.8624 130.795 44.8961 130.615 44.8961H130.048C129.897 44.8961 129.784 44.8512 129.711 44.7613C129.638 44.6714 129.604 44.5759 129.604 44.4636C129.604 44.3513 129.638 44.2614 129.711 44.1772C129.784 44.0929 129.897 44.048 130.048 44.048H130.323C130.441 44.048 130.548 44.048 130.649 44.0368C130.75 44.0311 130.84 44.0031 130.913 43.9581C130.986 43.9132 131.048 43.8514 131.087 43.7672C131.132 43.6829 131.155 43.565 131.155 43.4133V40.9028L131.935 40.2569V43.4133C131.935 43.5987 131.98 43.7503 132.059 43.8683C132.143 43.9862 132.295 44.048 132.514 44.048H133.8C134.025 44.048 134.176 43.9918 134.255 43.8739C134.328 43.7616 134.367 43.6043 134.367 43.4133V40.7848L135.148 40.1445V43.4133C135.148 43.5987 135.187 43.7503 135.266 43.8683C135.345 43.9862 135.496 44.048 135.715 44.048H136.496C136.642 44.048 136.749 43.9862 136.822 43.8627C136.895 43.7391 136.928 43.6155 136.928 43.492C136.928 43.4863 136.928 43.4583 136.923 43.419C136.923 43.3796 136.917 43.3403 136.912 43.301C136.912 43.2617 136.9 43.2224 136.895 43.1831C136.889 43.1437 136.883 43.1157 136.883 43.0988L136.58 40.7511L137.293 40.1614L137.698 43.3066C137.704 43.3459 137.715 43.4021 137.715 43.4751C137.715 43.5481 137.72 43.6043 137.72 43.6436C137.72 43.7953 137.698 43.9469 137.647 44.0929C137.597 44.239 137.529 44.3737 137.434 44.4917C137.338 44.6096 137.215 44.7051 137.063 44.7838C136.912 44.8624 136.726 44.8961 136.507 44.8961H135.614C135.468 44.8961 135.305 44.8624 135.12 44.7894C134.935 44.7164 134.817 44.5872 134.755 44.3906C134.676 44.5928 134.547 44.7276 134.362 44.795C134.176 44.8624 134.002 44.8961 133.834 44.8961H133.845Z" fill="#192E4E"/>
<path d="M140.287 44.8974C139.984 44.8974 139.726 44.8469 139.523 44.7458C139.316 44.6447 139.153 44.5099 139.029 44.3358C138.906 44.1617 138.816 43.9651 138.765 43.7348C138.715 43.5046 138.687 43.2743 138.687 43.0271V39.1124L139.456 38.4609V43.0665C139.456 43.3304 139.529 43.5607 139.669 43.7573C139.815 43.9539 140.029 44.055 140.321 44.055H140.838V44.8974H140.282H140.287Z" fill="#192E4E"/>
<path d="M140.849 44.8961C140.697 44.8961 140.585 44.8512 140.512 44.7613C140.439 44.6714 140.405 44.5759 140.405 44.4636C140.405 44.3513 140.439 44.2614 140.512 44.1772C140.585 44.0929 140.697 44.048 140.849 44.048H141.09C141.332 44.048 141.534 43.9862 141.703 43.8683C141.866 43.7503 142.006 43.5762 142.13 43.3515L143.073 41.4813C143.152 41.3296 143.242 41.1723 143.343 41.0151C143.444 40.8522 143.567 40.7118 143.708 40.5882C143.848 40.4647 144.017 40.358 144.213 40.2737C144.41 40.1895 144.634 40.1445 144.893 40.1445C145.269 40.1445 145.601 40.2175 145.887 40.358C146.173 40.504 146.415 40.6893 146.606 40.9196C146.802 41.1499 146.948 41.4082 147.044 41.7003C147.139 41.9924 147.19 42.2844 147.19 42.5765C147.19 42.8124 147.162 43.0539 147.1 43.2842C147.038 43.52 146.948 43.7391 146.831 43.9469C146.713 44.1547 146.555 44.34 146.37 44.5085C146.185 44.677 145.971 44.8118 145.724 44.9073L143.275 43.4695L143.601 42.8236L145.623 43.9076C145.876 43.7616 146.061 43.5762 146.179 43.3459C146.297 43.1157 146.359 42.8741 146.359 42.6214C146.359 42.4585 146.331 42.2844 146.274 42.0991C146.218 41.9081 146.134 41.734 146.016 41.5711C145.898 41.4082 145.752 41.2678 145.572 41.1611C145.393 41.0544 145.168 40.9982 144.904 40.9982C144.584 40.9982 144.342 41.0993 144.174 41.3015C144.011 41.5037 143.859 41.7565 143.719 42.0541L142.843 43.8233C142.742 44.0424 142.635 44.2221 142.511 44.3625C142.388 44.5029 142.259 44.6096 142.118 44.6883C141.978 44.7613 141.832 44.8175 141.663 44.8455C141.5 44.8736 141.326 44.8905 141.141 44.8905H140.849V44.8961Z" fill="#192E4E"/>
<path d="M154.648 42.5104C154.648 42.8306 154.603 43.1339 154.514 43.4203C154.424 43.7067 154.295 43.9595 154.115 44.1785C153.935 44.3976 153.722 44.5717 153.458 44.7009C153.194 44.83 152.896 44.8974 152.559 44.8974C152.222 44.8974 151.924 44.8357 151.66 44.7121C151.402 44.5885 151.177 44.4144 150.998 44.201C150.818 43.9876 150.678 43.7348 150.588 43.4428C150.492 43.1507 150.447 42.8418 150.447 42.5161C150.447 42.2128 150.492 41.9151 150.582 41.623C150.672 41.331 150.801 41.0726 150.981 40.8479C151.161 40.6233 151.38 40.4379 151.644 40.2975C151.908 40.1571 152.216 40.0897 152.57 40.0897C152.896 40.0897 153.194 40.1571 153.446 40.2975C153.705 40.4379 153.918 40.6177 154.098 40.8479C154.278 41.0782 154.407 41.3366 154.502 41.623C154.592 41.9151 154.643 42.2071 154.643 42.5161L154.648 42.5104ZM151.166 42.5329C151.166 42.7407 151.194 42.9485 151.25 43.1507C151.307 43.3529 151.396 43.5326 151.509 43.6899C151.621 43.8415 151.767 43.9651 151.941 44.0606C152.115 44.1561 152.318 44.201 152.553 44.201C152.789 44.201 152.98 44.1504 153.16 44.055C153.334 43.9595 153.48 43.8303 153.598 43.6787C153.71 43.5214 153.8 43.3417 153.856 43.1395C153.913 42.9373 153.941 42.7295 153.941 42.5104C153.941 42.3082 153.913 42.106 153.856 41.9038C153.8 41.7017 153.71 41.5163 153.598 41.3534C153.48 41.1906 153.34 41.0558 153.16 40.949C152.98 40.8423 152.784 40.7862 152.553 40.7862C152.323 40.7862 152.127 40.8423 151.947 40.949C151.767 41.0558 151.621 41.1962 151.509 41.3647C151.391 41.5332 151.307 41.7185 151.25 41.9263C151.194 42.1341 151.166 42.3363 151.166 42.5385V42.5329ZM151.986 38.4609L152.553 39.0394L151.986 39.5955L151.43 39.0394L151.986 38.4609ZM153.132 38.4609L153.699 39.0394L153.132 39.5955L152.576 39.0394L153.132 38.4609Z" fill="#192E4E"/>
<path d="M158.401 44.8966H157.159C156.828 44.8966 156.553 44.846 156.323 44.7449C156.092 44.6438 155.901 44.5034 155.755 44.3237C155.609 44.144 155.497 43.9305 155.418 43.6778C155.34 43.4307 155.289 43.1555 155.267 42.8634H155.986C156.002 43.0094 156.03 43.1499 156.081 43.2959C156.126 43.4419 156.193 43.5655 156.278 43.6834C156.362 43.7957 156.469 43.8856 156.598 43.953C156.727 44.0204 156.879 44.0541 157.053 44.0541H158.221C158.389 44.0541 158.535 43.9979 158.659 43.88C158.783 43.7677 158.844 43.6385 158.844 43.4981C158.844 43.4531 158.844 43.3914 158.839 43.3127C158.839 43.2341 158.822 43.1667 158.799 43.1049L158.485 40.746L159.266 40.1562L159.67 43.2622C159.687 43.3633 159.698 43.4475 159.709 43.5318C159.721 43.616 159.721 43.6722 159.721 43.7115C159.721 44.071 159.614 44.3574 159.395 44.5764C159.181 44.7955 158.844 44.9022 158.395 44.9022L158.401 44.8966Z" fill="#192E4E"/>
<path d="M162.271 44.8974C161.967 44.8974 161.709 44.8469 161.507 44.7458C161.299 44.6447 161.136 44.5099 161.013 44.3358C160.889 44.1617 160.799 43.9651 160.749 43.7348C160.698 43.5046 160.67 43.2743 160.67 43.0271V39.1124L161.439 38.4609V43.0665C161.439 43.3304 161.512 43.5607 161.653 43.7573C161.799 43.9539 162.012 44.055 162.304 44.055H162.821V44.8974H162.265H162.271Z" fill="#192E4E"/>
<path d="M163.978 40.8009L164.748 40.1719V43.3508C164.748 43.5699 164.793 43.7384 164.871 43.8619C164.955 43.9855 165.107 44.0473 165.326 44.0473H165.893V44.8897H165.242C165.174 44.8897 165.09 44.8841 165.006 44.8729C164.916 44.8617 164.832 44.8336 164.742 44.7943C164.652 44.7549 164.574 44.7044 164.506 44.637C164.439 44.5696 164.388 44.4853 164.36 44.3842C164.293 44.5864 164.169 44.7212 163.984 44.7886C163.798 44.856 163.619 44.8897 163.439 44.8897H162.832C162.681 44.8897 162.568 44.8448 162.495 44.7549C162.422 44.6651 162.389 44.5696 162.389 44.4573C162.389 44.3449 162.422 44.2551 162.495 44.1708C162.568 44.0866 162.681 44.0416 162.832 44.0416H163.4C163.635 44.0416 163.787 43.9799 163.866 43.8619C163.939 43.744 163.978 43.5811 163.978 43.3789V40.7897V40.8009ZM163.579 45.5356L164.147 46.1198L163.579 46.6758L163.001 46.1198L163.579 45.5356ZM164.731 45.5356L165.287 46.1198L164.731 46.6758L164.169 46.1198L164.731 45.5356Z" fill="#192E4E"/>
<path d="M165.893 44.8969C165.741 44.8969 165.629 44.852 165.556 44.7621C165.483 44.6723 165.449 44.5768 165.449 44.4644C165.449 44.3521 165.483 44.2623 165.556 44.178C165.629 44.0938 165.741 44.0488 165.893 44.0488H169.049V44.8913H165.893V44.8969Z" fill="#192E4E"/>
<path d="M171.044 44.0538C170.774 43.773 170.566 43.4809 170.42 43.1664C170.274 42.8575 170.201 42.5318 170.201 42.1948C170.201 41.9252 170.252 41.6724 170.347 41.4422C170.443 41.2119 170.589 41.0097 170.774 40.8356C170.965 40.6615 171.195 40.5267 171.476 40.4312C171.751 40.3357 172.077 40.2852 172.453 40.2852C172.83 40.2852 173.161 40.3189 173.492 40.3862C173.824 40.4536 174.11 40.5267 174.357 40.6053L173.987 41.3523C173.784 41.2737 173.565 41.2119 173.329 41.1613C173.094 41.1108 172.818 41.0883 172.515 41.0883C171.998 41.0883 171.622 41.2006 171.386 41.4253C171.145 41.65 171.027 41.9476 171.027 42.3183C171.044 42.5542 171.111 42.7789 171.229 42.9923C171.347 43.2001 171.498 43.3855 171.684 43.5427C171.869 43.7 172.077 43.8235 172.313 43.9134C172.549 44.0089 172.79 44.0538 173.049 44.0538H175.649L175.194 44.8963H169.061C168.909 44.8963 168.797 44.8514 168.724 44.7615C168.651 44.6716 168.617 44.5762 168.617 44.4638C168.617 44.3515 168.651 44.2616 168.724 44.1774C168.797 44.0931 168.909 44.0482 169.061 44.0482H171.055L171.044 44.0538Z" fill="#192E4E"/>
<path d="M74.6131 28.0661C74.6131 27.2798 74.3323 26.6114 73.7818 26.0554C73.2258 25.4993 72.5574 25.2241 71.7711 25.2241C70.9848 25.2241 70.3164 25.5049 69.7604 26.0554C69.2044 26.6114 68.9292 27.2798 68.9292 28.0661V33.0479H66.7949V28.0661C66.7949 26.69 67.278 25.5106 68.2496 24.5445C69.2213 23.5729 70.3951 23.0898 71.7768 23.0898C73.1584 23.0898 74.3323 23.5729 75.2983 24.5445C75.4387 24.6849 75.5679 24.831 75.6858 24.977C75.8038 24.831 75.933 24.6849 76.0734 24.5445C77.045 23.5729 78.2189 23.0898 79.6005 23.0898C80.9822 23.0898 82.156 23.5729 83.1221 24.5445C84.0937 25.5162 84.5767 26.69 84.5767 28.0661V33.0479H82.4425V28.0661C82.4425 27.2798 82.1617 26.6114 81.6112 26.0554C81.0552 25.4993 80.3868 25.2241 79.6005 25.2241C78.8142 25.2241 78.1458 25.5049 77.5898 26.0554C77.0338 26.6114 76.7586 27.2798 76.7586 28.0661V33.0479H74.6243V28.0661H74.6131Z" fill="#2A90B8"/>
<path d="M95.9561 28.0661C95.9561 29.4477 95.4731 30.6216 94.5014 31.5932C93.5298 32.5649 92.3559 33.0479 90.9799 33.0479C89.6038 33.0479 88.4244 32.5649 87.4527 31.5932C86.481 30.6216 85.998 29.4477 85.998 28.0661C85.998 26.6844 86.481 25.5106 87.4527 24.5445C88.4244 23.5729 89.5982 23.0898 90.9799 23.0898C92.0526 23.0898 93.0018 23.3819 93.8274 23.966V23.0898H95.9617V28.0717L95.9561 28.0661ZM92.9849 30.0768C93.541 29.5207 93.8162 28.8524 93.8162 28.0661C93.8162 27.2798 93.5354 26.6114 92.9849 26.0554C92.4289 25.4993 91.7606 25.2241 90.9743 25.2241C90.1879 25.2241 89.5196 25.5049 88.9636 26.0554C88.4075 26.6114 88.1323 27.2798 88.1323 28.0661C88.1323 28.8524 88.4132 29.5207 88.9636 30.0768C89.5196 30.6328 90.1879 30.908 90.9743 30.908C91.7606 30.908 92.4289 30.6272 92.9849 30.0768Z" fill="#2A90B8"/>
<path d="M100.224 23.0898H104.493V25.2241H100.544C99.786 25.2297 99.4208 25.3814 99.4433 25.6678C99.4433 26.1003 100.235 26.5103 101.814 26.9034C102.971 27.1899 103.774 27.5493 104.229 27.9818C104.684 28.4143 104.914 29.0321 104.914 29.8409C104.914 30.9024 104.605 31.6999 103.993 32.2447C103.375 32.7839 102.476 33.0591 101.291 33.0591H97.3765L97.3652 30.9249H101.235C102.167 30.8855 102.656 30.644 102.69 30.1891C102.69 29.8016 102.386 29.532 101.78 29.3803C99.7242 28.8692 98.4773 28.3581 98.0392 27.8526C97.5955 27.3471 97.3765 26.7293 97.3765 26.0104C97.3765 24.0559 98.3256 23.0842 100.224 23.0955V23.0898Z" fill="#2A90B8"/>
<path d="M108.054 25.2238V28.0713C108.054 28.8577 108.335 29.526 108.885 30.0821C109.441 30.6381 110.11 30.9133 110.896 30.9133V33.0476C109.514 33.0476 108.34 32.5645 107.369 31.5929C106.397 30.6212 105.914 29.4474 105.914 28.0657V20.2363H108.048V23.0839H110.896V25.2182H108.048L108.054 25.2238Z" fill="#2A90B8"/>
<path d="M115.288 30.0824C115.844 30.6384 116.512 30.9136 117.298 30.9136C118.085 30.9136 118.753 30.6328 119.309 30.0824L119.32 30.0712L120.831 31.582L120.82 31.5932C119.848 32.5649 118.674 33.0479 117.298 33.0479C115.922 33.0479 114.743 32.5649 113.771 31.5932C112.799 30.6216 112.316 29.4477 112.316 28.0661C112.316 26.6844 112.799 25.5106 113.771 24.5445C114.743 23.5729 115.917 23.0898 117.298 23.0898C118.68 23.0898 119.854 23.5729 120.82 24.5445C121.791 25.5162 122.274 26.69 122.274 28.0661C122.274 28.302 122.252 28.5378 122.207 28.7794H114.535C114.653 29.268 114.9 29.7005 115.282 30.0824H115.288ZM119.315 26.0554C118.759 25.4993 118.09 25.2241 117.304 25.2241C116.518 25.2241 115.849 25.5049 115.293 26.0554C115.108 26.2407 114.956 26.4373 114.838 26.6451H119.775C119.657 26.4373 119.506 26.2407 119.32 26.0554H119.315Z" fill="#2A90B8"/>
<path d="M123.707 28.0661C123.707 26.69 124.19 25.5106 125.162 24.5445C126.133 23.5729 127.307 23.0898 128.689 23.0898V25.2241C127.903 25.2241 127.234 25.5049 126.678 26.0554C126.122 26.6114 125.847 27.2798 125.847 28.0661V33.0479H123.713V28.0661H123.707Z" fill="#2A90B8"/>
<path d="M142.887 31.5932C141.916 32.5649 140.742 33.0479 139.366 33.0479C137.99 33.0479 136.81 32.5649 135.838 31.5932C134.867 30.6216 134.384 29.4477 134.384 28.0661C134.384 26.6844 134.867 25.5106 135.838 24.5445C136.81 23.5729 137.984 23.0898 139.366 23.0898C140.747 23.0898 141.921 23.5729 142.887 24.5445L142.898 24.5558L141.388 26.0666L141.376 26.0554C140.82 25.4993 140.152 25.2241 139.366 25.2241C138.579 25.2241 137.911 25.5049 137.355 26.0554C136.799 26.6114 136.524 27.2798 136.524 28.0661C136.524 28.8524 136.804 29.5207 137.355 30.0768C137.911 30.6328 138.579 30.908 139.366 30.908C140.152 30.908 140.82 30.6272 141.376 30.0768L141.388 30.0655L142.898 31.5764L142.887 31.5876V31.5932Z" fill="#2A90B8"/>
<path d="M146.476 20.2422V33.0478H144.342V20.2422H146.476Z" fill="#2A90B8"/>
<path d="M148.965 22.3765C148.667 22.3765 148.414 22.2754 148.206 22.0675C147.999 21.8597 147.897 21.607 147.897 21.3093C147.897 21.0116 147.999 20.7589 148.206 20.5511C148.414 20.3433 148.667 20.2422 148.965 20.2422C149.262 20.2422 149.515 20.3489 149.723 20.5511C149.931 20.7533 150.032 21.0116 150.032 21.3093C150.032 21.607 149.925 21.8597 149.723 22.0675C149.515 22.2754 149.262 22.3765 148.965 22.3765ZM150.032 23.0898V33.0534H147.897V23.0898H150.032Z" fill="#2A90B8"/>
<path d="M153.592 33.0479H151.458V28.0661C151.458 26.69 151.941 25.5106 152.913 24.5445C153.884 23.5729 155.058 23.0898 156.44 23.0898C157.821 23.0898 158.995 23.5729 159.961 24.5445C160.933 25.5162 161.416 26.69 161.416 28.0661V33.0479H159.282V28.0661C159.282 27.2798 159.001 26.6114 158.451 26.0554C157.894 25.4993 157.226 25.2241 156.44 25.2241C155.654 25.2241 154.985 25.5049 154.429 26.0554C153.873 26.6114 153.598 27.2798 153.598 28.0661V33.0479H153.592Z" fill="#2A90B8"/>
<path d="M163.91 22.3765C163.612 22.3765 163.36 22.2754 163.152 22.0675C162.944 21.8597 162.843 21.607 162.843 21.3093C162.843 21.0116 162.944 20.7589 163.152 20.5511C163.36 20.3433 163.612 20.2422 163.91 20.2422C164.208 20.2422 164.46 20.3489 164.668 20.5511C164.876 20.7533 164.977 21.0116 164.977 21.3093C164.977 21.607 164.87 21.8597 164.668 22.0675C164.46 22.2754 164.208 22.3765 163.91 22.3765ZM164.977 23.0898V33.0534H162.843V23.0898H164.977Z" fill="#2A90B8"/>
<path d="M174.902 31.5932C173.93 32.5649 172.756 33.0479 171.38 33.0479C170.004 33.0479 168.825 32.5649 167.853 31.5932C166.881 30.6216 166.398 29.4477 166.398 28.0661C166.398 26.6844 166.881 25.5106 167.853 24.5445C168.825 23.5729 169.999 23.0898 171.38 23.0898C172.762 23.0898 173.936 23.5729 174.902 24.5445L174.913 24.5558L173.402 26.0666L173.391 26.0554C172.835 25.4993 172.167 25.2241 171.38 25.2241C170.594 25.2241 169.926 25.5049 169.37 26.0554C168.813 26.6114 168.538 27.2798 168.538 28.0661C168.538 28.8524 168.819 29.5207 169.37 30.0768C169.926 30.6328 170.594 30.908 171.38 30.908C172.167 30.908 172.835 30.6272 173.391 30.0768L173.402 30.0655L174.913 31.5764L174.902 31.5876V31.5932Z" fill="#2A90B8"/>
<path d="M14.2359 6.69356C12.2028 4.7334 9.05751 3.78421 6.71543 4.95806C6.04707 5.28943 5.46297 5.7893 4.97996 6.40712C3.43542 8.37289 3.07035 11.3328 2.98048 13.9332C2.87939 16.9942 3.19954 20.0608 3.66009 23.0207C4.06448 25.6549 4.61487 28.2441 5.24391 30.7603C3.53088 27.1376 1.8347 23.3521 0.857431 19.2745C0.116053 16.1574 -0.187215 12.838 0.284571 9.65345C0.745124 6.53068 2.16046 3.80668 4.36774 1.95323C8.0297 -1.11337 13.298 0.706371 16.7971 3.93586C18.9426 5.91848 20.6612 8.48523 22.9247 10.1309C24.9803 11.6305 27.4123 12.2932 29.7993 12.3213C32.1919 12.355 34.5676 11.7765 36.8704 10.9396C34.7755 13.5232 31.7313 14.8768 28.7321 14.933C23.0089 15.0453 18.5887 10.8947 14.2359 6.69356ZM58.9489 13.3603C58.8309 11.6698 58.6007 9.96798 58.039 8.28303C57.7582 7.44617 57.3987 6.60931 56.882 5.823C56.618 5.43546 56.3316 5.05354 55.989 4.71656C55.9048 4.63231 55.8205 4.54244 55.7306 4.46381L55.4498 4.22792L55.3094 4.10997L55.169 4.01449L54.8882 3.82915C54.1524 3.31243 53.3212 2.95297 52.4843 2.66091C52.0575 2.54297 51.6362 2.40256 51.2037 2.34077C50.9903 2.30708 50.7769 2.25653 50.5579 2.22845L49.9119 2.16666C49.6985 2.13858 49.4851 2.13858 49.266 2.13296C49.0526 2.13296 48.8392 2.12173 48.6258 2.12735C48.1989 2.15543 47.7777 2.15543 47.3564 2.21159L46.7274 2.28461L46.1096 2.39132C45.6939 2.4531 45.2952 2.55982 44.8852 2.64968C43.2732 3.04284 41.7287 3.62134 40.2347 4.28408C38.7464 4.95245 37.3085 5.72191 35.9212 6.55877C34.534 7.39562 33.186 8.29426 31.9055 9.28277C33.259 8.40659 34.6744 7.6259 36.1122 6.9126C37.55 6.19931 39.0272 5.56465 40.5324 5.0367C42.0376 4.51436 43.5709 4.08189 45.1211 3.84038C45.5086 3.78983 45.8961 3.72243 46.2837 3.69435L46.8622 3.6438L47.4407 3.62695C47.8282 3.60449 48.2102 3.63819 48.5921 3.6438C48.783 3.65503 48.9684 3.68312 49.1593 3.69997C49.3503 3.71682 49.5356 3.73367 49.721 3.77298L50.2714 3.87408C50.4568 3.90778 50.6308 3.96956 50.8106 4.01449C51.1756 4.09312 51.507 4.24477 51.8496 4.36833C52.5124 4.67162 53.1527 5.00861 53.6975 5.46916L53.9053 5.63204L54.012 5.71629L54.0962 5.80054L54.2647 5.96903C54.3209 6.03081 54.3714 6.0926 54.422 6.15438C54.6354 6.39589 54.8095 6.68794 54.978 6.97439C55.3038 7.57535 55.5341 8.24933 55.7082 8.95701C56.0508 10.3724 56.1406 11.9057 56.1182 13.4334C56.0901 14.9667 55.9385 16.5168 55.7138 18.0557C55.2476 21.1392 54.495 24.2002 53.5627 27.1994C52.6247 30.1986 51.5014 33.136 50.204 35.978C48.9066 38.8143 47.435 41.5608 45.7501 44.077C44.9076 45.3295 44.0034 46.5202 43.043 47.5817C42.1949 48.5084 41.2906 49.3509 40.4032 49.9518C40.1673 49.8732 39.9764 49.6766 39.8135 49.4744C38.0948 47.3121 37.404 44.4083 36.5784 41.6843C36.1234 40.1791 35.7078 38.6346 35.3259 37.0732C35.1349 36.2869 34.9496 35.495 34.7699 34.6918C34.7699 34.6918 34.7699 34.6806 34.7699 34.675C34.607 33.9673 33.6185 33.9055 33.3601 34.5851L28.5356 47.0313C28.221 47.8344 27.0809 47.84 26.7663 47.0313L23.0875 37.6012C22.7393 36.7081 21.4363 36.8429 21.2734 37.7865C20.3636 43.1727 19.2346 48.3511 16.9206 52.7432C16.578 53.3891 15.6681 53.4172 15.2806 52.7994L11.6074 46.9245C12.3376 50.081 13.1014 53.2712 14.9324 55.8267C15.4379 56.5288 16.1737 57.2421 16.9993 57.141C17.5441 57.0736 17.9653 56.6692 18.3135 56.2592C20.1276 54.1249 21.0431 51.3503 21.6778 48.4354C21.88 47.5087 23.1606 47.4132 23.4919 48.3062L26.2272 55.6863C26.5249 56.4894 27.6482 56.5175 27.9851 55.7312L32.2705 45.7338C32.6356 44.8801 33.8824 45.0093 34.0678 45.9192C34.7081 49.07 35.4775 52.1198 36.8086 54.8719C37.3366 55.9671 38.0555 57.0904 39.2069 57.433C40.1561 57.7138 41.2064 57.3937 42.105 56.9163C43.6664 56.0851 44.9189 54.827 46.0365 53.4172C46.6431 52.7713 47.1935 52.1086 47.7159 51.4346C48.7999 50.0024 49.7322 48.5252 50.5691 47.0313C52.2372 44.032 53.5627 40.943 54.6916 37.809C55.8149 34.6693 56.736 31.4792 57.4605 28.2497C58.1794 25.0146 58.7018 21.7345 58.9208 18.404C59.0219 16.7359 59.05 15.0621 58.9377 13.3716L58.9489 13.3603Z" fill="#2A90B8"/>
</g>
<defs>
<clipPath id="clip0_1136_7677">
<rect width="175.59" height="57.1591" fill="white" transform="translate(0.0585938 0.378906)"/>
</clipPath>
</defs>
</svg>
