<svg width="119" height="99" viewBox="0 0 119 99" fill="none" xmlns="http://www.w3.org/2000/svg">
<g clip-path="url(#clip0_1136_7917)">
<path d="M30.3298 0.259766C30.3298 0.259766 26.6243 0.935018 25.3854 0.935018C23.9512 0.935018 19.6597 0.259766 19.6597 0.259766L20.5247 8.75902L0.90332 6.22543C0.90332 6.22543 2.02502 9.14966 0.90332 12.978L20.6977 10.4723L21.4288 17.6489L0.90332 15.2437C0.90332 15.2437 2.02502 18.1679 0.90332 21.9962L21.6297 19.6133L22.3719 26.9295L0.90332 24.4182C0.90332 24.4182 2.02502 27.3424 0.90332 31.1707L22.5505 28.6818L23.315 36.2156L0.90332 33.5983C0.90332 33.5983 2.02502 36.5225 0.90332 40.3508L23.4713 37.7558L24.9948 53.7833L30.3298 0.259766Z" fill="#2AD2C9"/>
<path d="M117.543 27.1476L117.069 27.209L84.1821 31.3442L84.8238 25.027C84.8238 25.027 83.0102 25.3562 82.4019 25.3562C81.7043 25.3562 79.6004 25.027 79.6004 25.027L80.2924 31.8353L78.8861 32.0139L79.5948 25.0326C79.5948 25.0326 77.7811 25.3618 77.1784 25.3618C76.4753 25.3618 74.377 25.0326 74.377 25.0326L75.1359 32.4883L72.859 32.7729L73.6459 25.0326C73.6459 25.0326 71.8322 25.3618 71.2295 25.3618C70.5264 25.3618 68.428 25.0326 68.428 25.0326L69.2596 33.2249L67.697 33.4202L50.3581 10.4226C50.3581 10.4226 49.0522 12.1749 48.5276 12.6604C47.9193 13.224 45.8322 14.6359 45.8322 14.6359L67.2394 33.476L58.422 34.5866L48.4104 21.3103C48.4104 21.3103 47.1046 23.0626 46.58 23.5481C46.5019 23.6207 46.4014 23.7044 46.2786 23.7993C45.8713 24.1285 45.2686 24.5582 44.7719 24.9098L44.8612 24.0057L46.5353 7.58203C46.5353 7.58203 44.2975 7.98942 43.5553 7.98942C42.6903 7.98942 40.1009 7.58203 40.1009 7.58203L41.5798 22.1307C33.7446 22.6106 29.2969 17.828 29.2969 17.828V28.9725C33.4767 24.3462 39.3364 23.9165 41.7639 23.9555L41.9369 25.6632L42.9582 35.725L43.0363 36.5175L42.0597 36.6402C42.0597 36.6402 43.3321 39.9495 43.5553 41.088C43.6055 41.3558 43.6558 41.7465 43.6948 42.1985C43.8567 43.9229 43.9404 46.5067 43.9404 46.5067L56.6307 43.1919L69.9125 39.7207L70.2194 42.7454L71.0286 51.2112L71.8936 42.1929L72.2061 39.118L75.7107 38.2028L75.9786 40.848L76.9831 51.2112L78.0546 40.1672L78.3225 37.5275L80.7947 36.8802L81.029 39.1906L82.201 51.2168L83.4566 38.3925L83.6854 36.1268L88.6521 34.8265L115.964 27.6834L118.313 27.0695L117.532 27.1699L117.543 27.1476ZM43.6055 36.4449L43.6781 35.6915L44.6491 26.1878L54.7109 35.0442L52.1941 35.3623H52.1885L43.6055 36.4393V36.4449Z" fill="#2AD2C9"/>
<path d="M63.0548 0.494141C63.0548 0.494141 62.441 3.9876 62.0392 5.07581C61.5704 6.33703 59.5781 9.90862 59.5781 9.90862L117.767 26.7899L63.0548 0.494141Z" fill="#2AD2C9"/>
<path d="M1.54495 93.1702C2.04163 92.7015 2.63317 92.4727 3.31959 92.4727C4.006 92.4727 4.59754 92.707 5.0998 93.1702C5.55741 93.5776 5.80853 94.0799 5.85876 94.6658V96.5911H6.55075V97.2497H3.31959C2.62759 97.2497 2.03605 97.0208 1.54495 96.5688C1.04828 96.1056 0.802734 95.542 0.802734 94.8723C0.802734 94.2026 1.04828 93.6334 1.54495 93.1702ZM3.31959 93.1591C2.82849 93.1591 2.40995 93.3265 2.05837 93.6613C1.70679 93.9906 1.53379 94.3924 1.53379 94.8723C1.54495 95.3578 1.72353 95.7596 2.05837 96.0721C2.43785 96.4181 2.86198 96.5911 3.31959 96.5911H5.15002V94.8723C5.15002 94.4091 4.96028 94.0073 4.58638 93.6613C4.22364 93.3265 3.79952 93.1591 3.314 93.1591H3.31959Z" fill="#00263E"/>
<path d="M9.29115 93.8457C9.98314 93.8457 10.5747 94.0745 11.0714 94.5377C11.5736 95.0065 11.8247 95.5701 11.8247 96.2342C11.8247 96.8983 11.5736 97.4675 11.0714 97.9307C10.5747 98.3939 9.98314 98.6227 9.29115 98.6227C8.59916 98.6227 8.02435 98.3939 7.52768 97.9307C7.31004 97.7298 7.13704 97.5066 7.01985 97.2555H6.20508V96.5969H6.80778C6.79104 96.4798 6.77988 96.3626 6.77988 96.2454C6.77988 95.5757 7.02543 95.0065 7.5221 94.5433C8.01877 94.0801 8.60474 93.8513 9.28557 93.8513L9.29115 93.8457ZM9.29115 94.5377C8.80006 94.5377 8.38151 94.6995 8.02993 95.0288C7.67836 95.3581 7.50536 95.7599 7.50536 96.2398C7.51652 96.7197 7.6951 97.1159 8.0411 97.434C8.39267 97.7521 8.81122 97.9084 9.29673 97.9084C9.78224 97.9084 10.2064 97.7521 10.5579 97.434C10.9039 97.1159 11.0825 96.7197 11.0937 96.2398C11.0993 95.7654 10.9263 95.3636 10.5691 95.0288C10.2119 94.6995 9.78782 94.5377 9.29673 94.5377H9.29115Z" fill="#00263E"/>
<path d="M13.2253 97.2506H12.5166V90.1855H13.2253V97.2506Z" fill="#00263E"/>
<path d="M14.676 92.7299H16.4283C17.07 92.7299 17.6114 92.9476 18.0634 93.3773C18.5266 93.807 18.7554 94.3427 18.7554 94.9845C18.7554 95.6263 18.5266 96.1564 18.0745 96.5917H19.2074V97.2502H13.917V96.5917H16.0432C16.7743 96.5917 17.2709 96.4689 17.5388 96.2178C17.8513 95.922 18.0076 95.5314 18.0132 95.0403C18.0187 94.5771 17.8736 94.1809 17.5834 93.846C17.2877 93.5335 16.9361 93.3773 16.5176 93.3773H14.676V92.7188V92.7299Z" fill="#00263E"/>
<path d="M20.8927 92.7144V95.7502C20.8927 96.0181 20.9708 96.2246 21.1271 96.3752C21.2777 96.5259 21.5456 96.5985 21.9418 96.5985H22.8347V97.257H21.9418C21.3112 97.257 20.8424 97.0672 20.5299 96.6933C20.2342 97.0672 19.7375 97.257 19.0343 97.257H18.8613V96.5985H19.0343C19.4975 96.5985 19.7989 96.5259 19.944 96.3808C20.1002 96.2134 20.1784 96.0013 20.1784 95.7502V92.7144H20.8982H20.8927ZM19.9663 90.9062C20.0835 90.9062 20.1783 90.9509 20.2621 91.0346C20.3513 91.1072 20.3904 91.2076 20.3904 91.3304C20.3904 91.4532 20.3458 91.548 20.2621 91.6317C20.1839 91.7099 20.0835 91.7545 19.9663 91.7545C19.8435 91.7545 19.7431 91.7154 19.6649 91.6317C19.5868 91.5424 19.5422 91.4364 19.5422 91.3304C19.5422 91.2132 19.5812 91.1183 19.6649 91.0346C19.7375 90.9509 19.8379 90.9062 19.9663 90.9062ZM21.1326 90.9062C21.2554 90.9062 21.3503 90.9509 21.4284 91.0346C21.5121 91.1072 21.5568 91.2076 21.5568 91.3304C21.5568 91.4532 21.5121 91.548 21.4284 91.6317C21.3503 91.7099 21.2498 91.7545 21.1326 91.7545C21.0099 91.7545 20.9094 91.7154 20.8313 91.6317C20.7532 91.5424 20.7085 91.4364 20.7085 91.3304C20.7085 91.2132 20.7476 91.1183 20.8313 91.0346C20.9094 90.9509 21.0154 90.9062 21.1326 90.9062Z" fill="#00263E"/>
<path d="M28.8401 92.625V95.739C28.8401 95.9678 28.9127 96.1687 29.0634 96.3361C29.2196 96.5091 29.3982 96.5928 29.6103 96.5928H29.8335L29.8223 97.2513H29.6047C29.175 97.2513 28.7955 97.0616 28.483 96.6821L28.3881 96.7881C28.0979 97.1006 27.7296 97.2569 27.2831 97.2569C26.7697 97.2569 26.3623 97.056 26.0666 96.6598C25.7541 97.056 25.3467 97.2569 24.85 97.2569C24.4315 97.2569 24.0631 97.1006 23.7506 96.7881L23.6558 96.6933C23.3432 97.0672 22.9749 97.2569 22.5396 97.2569H22.3164L22.3276 96.5984H22.5452C22.7517 96.5984 22.9359 96.5147 23.0921 96.3417C23.2428 96.1743 23.3153 95.9845 23.3153 95.778V92.6306H24.0352V95.2088C24.0352 95.6329 24.0687 95.9455 24.1413 96.1352C24.264 96.4477 24.504 96.604 24.8667 96.604C25.1067 96.604 25.3132 96.5203 25.4694 96.3473C25.6313 96.1687 25.7094 95.9566 25.7094 95.7167V92.6417H26.4461V95.7167C26.4461 95.9622 26.5242 96.1743 26.6804 96.3473C26.8367 96.5203 27.0376 96.604 27.2776 96.604C27.5175 96.604 27.7352 96.5203 27.8803 96.3528C28.0309 96.1854 28.1035 95.9734 28.1035 95.7111V92.6362H28.8457L28.8401 92.625Z" fill="#00263E"/>
<path d="M32.5617 93.8457C33.2537 93.8457 33.8452 94.0745 34.3419 94.5377C34.8385 95.0009 35.0841 95.5645 35.0841 96.2398C35.0841 96.3626 35.0729 96.4797 35.0562 96.5914H35.6421V97.2499H34.8497C34.7269 97.4954 34.5595 97.7242 34.3419 97.9251C33.834 98.3883 33.2425 98.6171 32.5617 98.6171C31.8808 98.6171 31.2949 98.3883 30.7982 97.9251C30.5805 97.7242 30.4075 97.501 30.2904 97.2499H29.4756V96.5914H30.0783C30.0615 96.4742 30.0504 96.357 30.0504 96.2398C30.0504 95.5701 30.2959 95.0009 30.7926 94.5377C31.2893 94.0745 31.8752 93.8457 32.5561 93.8457H32.5617ZM32.5617 94.5377C32.0706 94.5377 31.652 94.6995 31.3004 95.0288C30.9489 95.3581 30.7759 95.7599 30.7759 96.2398C30.787 96.7197 30.9656 97.1159 31.3116 97.434C31.6632 97.7521 32.0817 97.9084 32.5672 97.9084C33.0528 97.9084 33.4769 97.7521 33.8285 97.434C34.1745 97.1159 34.353 96.7197 34.3642 96.2398C34.3698 95.7654 34.1968 95.3636 33.8396 95.0288C33.4825 94.6995 33.0583 94.5377 32.5672 94.5377H32.5617Z" fill="#00263E"/>
<path d="M37.7237 90.1914V95.8892C37.7237 96.2129 37.6344 96.4975 37.4559 96.7542C37.2773 97.0276 37.0373 97.1839 36.736 97.2285C36.6299 97.2453 36.1556 97.2565 35.3018 97.2565V96.5979C35.7315 96.5979 36.0161 96.5979 36.1388 96.5812C36.4793 96.5366 36.7137 96.4305 36.8364 96.2631C36.9536 96.1068 37.0094 95.9506 37.0094 95.7887V90.197H37.7182L37.7237 90.1914Z" fill="#00263E"/>
<path d="M39.1248 97.2506H38.416V90.1855H39.1248V97.2506Z" fill="#00263E"/>
<path d="M42.166 93.1702C42.6627 92.7015 43.2543 92.4727 43.9407 92.4727C44.6271 92.4727 45.2186 92.707 45.7209 93.1702C46.1785 93.5776 46.4296 94.0799 46.4799 94.6658V96.5911H47.1718V97.2497H43.9407C43.2487 97.2497 42.6571 97.0208 42.166 96.5688C41.6694 96.1056 41.4238 95.542 41.4238 94.8723C41.4238 94.2026 41.6694 93.6334 42.166 93.1702ZM43.9407 93.1591C43.4496 93.1591 43.031 93.3265 42.6795 93.6613C42.3279 93.9906 42.1493 94.3924 42.1493 94.8723C42.1605 95.3578 42.339 95.7596 42.6795 96.0721C43.0589 96.4181 43.4831 96.5911 43.9407 96.5911H45.7711V94.8723C45.7711 94.4091 45.5814 94.0073 45.2075 93.6613C44.8447 93.3265 44.4206 93.1591 43.9351 93.1591H43.9407Z" fill="#00263E"/>
<path d="M48.8578 92.7129V95.7487C48.8578 96.0166 48.9359 96.2231 49.0922 96.3738C49.2429 96.5244 49.5107 96.597 49.9069 96.597H50.7998V97.2555H49.9069C49.2763 97.2555 48.8076 97.0658 48.5006 96.6919C48.2049 97.0658 47.7082 97.2555 47.005 97.2555H46.832V96.597H47.005C47.4682 96.597 47.7696 96.5244 47.9147 96.3793C48.0709 96.2119 48.1491 95.9999 48.1491 95.7487V92.7129H48.869H48.8578ZM47.7696 97.9196C47.8923 97.9196 47.9872 97.9642 48.0653 98.0479C48.1491 98.1261 48.1937 98.2265 48.1937 98.3437C48.1937 98.4609 48.1491 98.5614 48.0653 98.6451C47.9872 98.7232 47.8868 98.7678 47.7696 98.7678C47.6468 98.7678 47.5463 98.7288 47.4682 98.6451C47.3901 98.5502 47.3454 98.4497 47.3454 98.3437C47.3454 98.2265 47.3845 98.1317 47.4682 98.0479C47.5463 97.9642 47.6524 97.9196 47.7696 97.9196ZM48.9359 97.9196C49.0531 97.9196 49.148 97.9642 49.2317 98.0479C49.321 98.1261 49.36 98.2265 49.36 98.3437C49.36 98.4609 49.3154 98.5614 49.2317 98.6451C49.1536 98.7232 49.0531 98.7678 48.9359 98.7678C48.8131 98.7678 48.7127 98.7288 48.6346 98.6451C48.5564 98.5502 48.5118 98.4497 48.5118 98.3437C48.5118 98.2265 48.5509 98.1317 48.6346 98.0479C48.7071 97.9642 48.8076 97.9196 48.9359 97.9196Z" fill="#00263E"/>
<path d="M53.5333 93.8457C54.2253 93.8457 54.8169 94.0745 55.3135 94.5377C55.8102 95.0009 56.0558 95.5645 56.0558 96.2398C56.0558 96.3626 56.0446 96.4797 56.0279 96.5914H56.6138V97.2499H55.8214C55.6986 97.4954 55.5312 97.7242 55.3135 97.9251C54.8057 98.3883 54.2142 98.6171 53.5333 98.6171C52.8525 98.6171 52.2665 98.3883 51.7699 97.9251C51.5522 97.7242 51.3792 97.501 51.262 97.2499H50.4473V96.5914H51.05C51.0332 96.4742 51.0221 96.357 51.0221 96.2398C51.0221 95.5701 51.2676 95.0009 51.7643 94.5377C52.261 94.0745 52.8469 93.8457 53.5278 93.8457H53.5333ZM53.5333 94.5377C53.0422 94.5377 52.6237 94.6995 52.2721 95.0288C51.9205 95.3581 51.7475 95.7599 51.7475 96.2398C51.7587 96.7197 51.9373 97.1159 52.2833 97.434C52.6349 97.7521 53.0534 97.9084 53.5389 97.9084C54.0244 97.9084 54.4486 97.7521 54.8001 97.434C55.1461 97.1159 55.3247 96.7197 55.3359 96.2398C55.3414 95.7654 55.1685 95.3636 54.8113 95.0288C54.4541 94.6995 54.03 94.5377 53.5389 94.5377H53.5333Z" fill="#00263E"/>
<path d="M58.3058 92.7144V95.7502C58.3058 96.0181 58.3839 96.2246 58.5401 96.3752C58.6908 96.5259 58.9587 96.5985 59.3549 96.5985H59.5279V97.257H59.3549C58.7243 97.257 58.2555 97.0672 57.943 96.6933C57.6472 97.0672 57.1506 97.257 56.4474 97.257H56.2744V96.5985H56.4474C56.9106 96.5985 57.212 96.5259 57.3571 96.3808C57.5133 96.2134 57.5914 96.0013 57.5914 95.7502V92.7144H58.3113H58.3058ZM57.9263 90.9062C58.049 90.9062 58.1439 90.9509 58.222 91.0346C58.3113 91.1072 58.3504 91.2076 58.3504 91.3304C58.3504 91.4532 58.3058 91.548 58.222 91.6317C58.1439 91.7099 58.0435 91.7545 57.9263 91.7545C57.8035 91.7545 57.7031 91.7154 57.6249 91.6317C57.5468 91.5424 57.5021 91.4364 57.5021 91.3304C57.5021 91.2132 57.5412 91.1183 57.6249 91.0346C57.7031 90.9509 57.8091 90.9062 57.9263 90.9062Z" fill="#00263E"/>
<path d="M61.2013 92.7144V95.7502C61.2013 96.0181 61.2794 96.2246 61.4356 96.3752C61.5863 96.5259 61.8542 96.5985 62.2504 96.5985H63.1433V97.257H62.2504C61.6198 97.257 61.151 97.0672 60.8385 96.6933C60.5427 97.0672 60.0461 97.257 59.3429 97.257H59.1699V96.5985H59.3429C59.8061 96.5985 60.1075 96.5259 60.2526 96.3808C60.4088 96.2134 60.4869 96.0013 60.4869 95.7502V92.7144H61.2068H61.2013ZM60.2749 90.9062C60.3921 90.9062 60.4869 90.9509 60.5707 91.0346C60.6599 91.1072 60.699 91.2076 60.699 91.3304C60.699 91.4532 60.6544 91.548 60.5707 91.6317C60.4925 91.7099 60.3921 91.7545 60.2749 91.7545C60.1521 91.7545 60.0517 91.7154 59.9735 91.6317C59.8954 91.5424 59.8508 91.4364 59.8508 91.3304C59.8508 91.2132 59.8898 91.1183 59.9735 91.0346C60.0461 90.9509 60.1465 90.9062 60.2749 90.9062ZM61.4412 90.9062C61.564 90.9062 61.6589 90.9509 61.737 91.0346C61.8207 91.1072 61.8654 91.2076 61.8654 91.3304C61.8654 91.4532 61.8207 91.548 61.737 91.6317C61.6589 91.7099 61.5584 91.7545 61.4412 91.7545C61.3185 91.7545 61.218 91.7154 61.1399 91.6317C61.0617 91.5424 61.0171 91.4364 61.0171 91.3304C61.0171 91.2132 61.0562 91.1183 61.1399 91.0346C61.218 90.9509 61.324 90.9062 61.4412 90.9062Z" fill="#00263E"/>
<path d="M64.567 90.2129V95.8158C64.567 96.3348 64.8684 96.5915 65.4767 96.5915H65.6497V97.25H65.4767C64.9242 97.25 64.5001 97.0882 64.2155 96.7589C63.9476 97.0882 63.5681 97.25 63.0659 97.25H62.625V96.5915H62.798C63.1831 96.5915 63.4621 96.5301 63.6407 96.4018C63.8137 96.2734 63.8918 96.0781 63.8583 95.8158V90.2129H64.567Z" fill="#00263E"/>
<path d="M67.7198 90.1914V95.8892C67.7198 96.2129 67.6305 96.4975 67.452 96.7542C67.2734 97.0276 67.0334 97.1839 66.7321 97.2285C66.626 97.2453 66.1517 97.2565 65.2979 97.2565V96.5979C65.7276 96.5979 66.0122 96.5979 66.1349 96.5812C66.4754 96.5366 66.7097 96.4305 66.8325 96.2631C66.9497 96.1068 67.0055 95.9506 67.0055 95.7887V90.197H67.7142L67.7198 90.1914Z" fill="#00263E"/>
<path d="M75.0694 90.2087V96.3641C75.0694 96.7938 74.9634 97.2012 74.7513 97.5807C74.662 97.7258 74.5392 97.8876 74.3774 98.0718C73.9254 98.5517 73.3617 98.7861 72.6753 98.7694C72.0112 98.7638 71.4588 98.5238 71.0179 98.0494C70.5714 97.5863 70.3594 97.0226 70.3705 96.3474C70.3817 95.5214 70.7054 94.8908 71.3471 94.4444L71.7266 95.0248C71.2746 95.4266 71.0514 95.8842 71.0458 96.392C71.0402 96.8385 71.1965 97.2235 71.5201 97.5584C71.8382 97.882 72.2289 98.0495 72.6865 98.0606C73.1329 98.0662 73.518 97.9099 73.8528 97.5863C74.1653 97.2737 74.3272 96.8943 74.3439 96.4367V96.0572C74.3383 95.9344 74.3328 95.8061 74.3328 95.6665V90.2031H75.0694V90.2087Z" fill="#00263E"/>
<path d="M76.4705 96.5921H77.1625V97.2506H75.7617V90.1855H76.4705V96.5921Z" fill="#00263E"/>
<path d="M79.7627 92.5916C80.5886 92.5916 81.2248 92.9097 81.6713 93.5403L81.102 93.9309C80.7449 93.5347 80.3319 93.3115 79.8631 93.2724C79.372 93.2222 78.9423 93.384 78.5684 93.7579C78.0606 94.2769 77.9434 94.8741 78.2224 95.5493C78.5126 96.2469 79.0149 96.5929 79.7348 96.5929H82.207V97.2514H76.8105V96.5929H78.055C77.5974 96.1353 77.3742 95.5828 77.3742 94.9354C77.3742 94.2881 77.6086 93.7189 78.0718 93.2613C78.5349 92.8148 79.093 92.5972 79.7571 92.5972L79.7627 92.5916ZM79.7292 90.9062C79.852 90.9062 79.9468 90.9509 80.025 91.0346C80.1143 91.1072 80.1533 91.2076 80.1533 91.3304C80.1533 91.4532 80.1087 91.548 80.025 91.6317C79.9468 91.7099 79.8464 91.7545 79.7292 91.7545C79.6064 91.7545 79.506 91.7154 79.4279 91.6317C79.3497 91.5424 79.3051 91.4364 79.3051 91.3304C79.3051 91.2132 79.3441 91.1183 79.4279 91.0346C79.506 90.9509 79.612 90.9062 79.7292 90.9062Z" fill="#00263E"/>
<path d="M87.057 96.5914H87.749V97.2499H87.057V97.3281C87.057 97.6461 86.9733 97.9363 86.8058 98.2098C86.6161 98.5 86.365 98.6674 86.0636 98.712C85.7399 98.7567 85.26 98.779 84.6294 98.779V98.1205C85.1875 98.1205 85.5837 98.1093 85.8125 98.087C86.125 98.0535 86.3036 97.8415 86.3482 97.4452V97.2555H85.2488C84.6015 97.2555 84.049 97.0323 83.5914 96.5803C83.1282 96.1171 82.8994 95.5646 82.8994 94.9228C82.8994 94.3759 83.0724 93.8904 83.424 93.4719C83.7588 93.0645 84.1941 92.7854 84.7299 92.6348H87.057V96.5914ZM86.3482 93.3435H85.1093C84.7243 93.3435 84.3783 93.5109 84.0713 93.8458C83.7923 94.1471 83.6584 94.5043 83.6584 94.9284C83.6584 95.3972 83.8258 95.7934 84.1606 96.1226C84.4787 96.4407 84.8749 96.597 85.3437 96.597H86.3482V93.3491V93.3435Z" fill="#00263E"/>
<path d="M89.8243 90.1914V95.8892C89.8243 96.2129 89.735 96.4975 89.5565 96.7542C89.3779 97.0276 89.1379 97.1839 88.8366 97.2285C88.7305 97.2453 88.2562 97.2565 87.4023 97.2565V96.5979C87.8321 96.5979 88.1167 96.5979 88.2394 96.5812C88.5799 96.5366 88.8142 96.4305 88.937 96.2631C89.0542 96.1068 89.11 95.9506 89.11 95.7887V90.197H89.8187L89.8243 90.1914Z" fill="#00263E"/>
<path d="M92.8662 93.172C93.3629 92.7032 93.9545 92.4744 94.6409 92.4744C95.3273 92.4744 95.9188 92.7088 96.4211 93.172C96.8787 93.5794 97.1298 94.0816 97.18 94.6676V96.5929H97.872V97.2514H94.6409C93.9489 97.2514 93.3573 97.0226 92.8662 96.5706C92.3696 96.1074 92.124 95.5437 92.124 94.8741C92.124 94.2044 92.3696 93.6352 92.8662 93.172ZM94.6409 93.1608C94.1498 93.1608 93.7312 93.3282 93.3797 93.6631C93.0281 93.9923 92.8551 94.3941 92.8551 94.8741C92.8662 95.3596 93.0448 95.7614 93.3797 96.0739C93.7591 96.4199 94.1833 96.5929 94.6409 96.5929H96.4713V94.8741C96.4713 94.4109 96.2816 94.0091 95.9077 93.6631C95.5449 93.3282 95.1208 93.1608 94.6353 93.1608H94.6409ZM94.0214 90.9062C94.1442 90.9062 94.2391 90.9509 94.3172 91.0346C94.4009 91.1072 94.4456 91.2076 94.4456 91.3304C94.4456 91.4532 94.4009 91.548 94.3172 91.6317C94.2391 91.7099 94.1386 91.7545 94.0214 91.7545C93.8987 91.7545 93.7982 91.7154 93.7201 91.6317C93.6419 91.5424 93.5973 91.4364 93.5973 91.3304C93.5973 91.2132 93.6364 91.1183 93.7201 91.0346C93.7982 90.9509 93.9042 90.9062 94.0214 90.9062ZM95.1878 90.9062C95.305 90.9062 95.3998 90.9509 95.4835 91.0346C95.5728 91.1072 95.6119 91.2076 95.6119 91.3304C95.6119 91.4532 95.5673 91.548 95.4835 91.6317C95.4054 91.7099 95.305 91.7545 95.1878 91.7545C95.065 91.7545 94.9645 91.7154 94.8864 91.6317C94.8083 91.5424 94.7636 91.4364 94.7636 91.3304C94.7636 91.2132 94.8027 91.1183 94.8864 91.0346C94.959 90.9509 95.0594 90.9062 95.1878 90.9062Z" fill="#00263E"/>
<path d="M100.612 93.8457C101.304 93.8457 101.896 94.0745 102.392 94.5377C102.889 95.0009 103.135 95.5645 103.135 96.2398C103.135 96.3626 103.123 96.4797 103.107 96.5914H103.693V97.2499H102.895C102.772 97.4954 102.604 97.7242 102.387 97.9251C101.879 98.3883 101.287 98.6171 100.607 98.6171C99.9257 98.6171 99.3398 98.3883 98.8431 97.9251C98.6255 97.7242 98.4525 97.501 98.3353 97.2499H97.5205V96.5914H98.1232C98.1065 96.4742 98.0953 96.357 98.0953 96.2398C98.0953 95.5701 98.3409 95.0009 98.8375 94.5377C99.3342 94.0745 99.9202 93.8457 100.601 93.8457H100.612ZM100.612 94.5377C100.121 94.5377 99.7025 94.6995 99.3509 95.0288C98.9994 95.3581 98.8208 95.7599 98.8208 96.2398C98.8319 96.7197 99.0105 97.1159 99.3565 97.434C99.7081 97.7521 100.127 97.9084 100.612 97.9084C101.098 97.9084 101.522 97.7521 101.873 97.434C102.219 97.1159 102.398 96.7197 102.409 96.2398C102.409 95.7654 102.236 95.3636 101.879 95.0288C101.522 94.6995 101.098 94.5377 100.607 94.5377H100.612Z" fill="#00263E"/>
<path d="M104.719 90.1797V93.3774C105.065 93.0202 105.506 92.7858 106.041 92.6798C106.56 92.5626 107.074 92.5793 107.587 92.73C108.117 92.8807 108.542 93.143 108.865 93.5169C109.222 93.941 109.401 94.4544 109.401 95.046V96.5918H110.093V97.2503H103.352V96.5918H103.977V90.1797H104.719ZM106.706 93.3551C106.175 93.3551 105.723 93.5001 105.355 93.7959C104.948 94.1252 104.741 94.5605 104.741 95.1074V96.5918H108.664V95.0795C108.664 94.5326 108.458 94.0973 108.05 93.7736C107.671 93.4834 107.219 93.3439 106.7 93.3495L106.706 93.3551ZM106.717 90.9107C106.839 90.9107 106.934 90.9554 107.012 91.0391C107.102 91.1116 107.141 91.2121 107.141 91.3349C107.141 91.4576 107.096 91.5525 107.012 91.6362C106.934 91.7144 106.834 91.759 106.717 91.759C106.594 91.759 106.493 91.7199 106.415 91.6362C106.332 91.5469 106.293 91.4409 106.293 91.3349C106.293 91.2177 106.332 91.1228 106.415 91.0391C106.493 90.9554 106.599 90.9107 106.717 90.9107Z" fill="#00263E"/>
<path d="M111.778 92.7144V95.7502C111.778 96.0181 111.857 96.2246 112.013 96.3752C112.163 96.5259 112.431 96.5985 112.828 96.5985H113.001V97.257H112.828C112.197 97.257 111.728 97.0672 111.416 96.6933C111.12 97.0672 110.623 97.257 109.92 97.257H109.747V96.5985H109.92C110.383 96.5985 110.685 96.5259 110.83 96.3808C110.986 96.2134 111.064 96.0013 111.064 95.7502V92.7144H111.784H111.778ZM111.399 90.9062C111.522 90.9062 111.617 90.9509 111.695 91.0346C111.784 91.1072 111.823 91.2076 111.823 91.3304C111.823 91.4532 111.778 91.548 111.695 91.6317C111.617 91.7099 111.516 91.7545 111.399 91.7545C111.276 91.7545 111.176 91.7154 111.098 91.6317C111.019 91.5424 110.975 91.4364 110.975 91.3304C110.975 91.2132 111.014 91.1183 111.098 91.0346C111.176 90.9509 111.282 90.9062 111.399 90.9062Z" fill="#00263E"/>
<path d="M115.73 93.8457C116.422 93.8457 117.013 94.0745 117.51 94.5377C118.012 95.0065 118.263 95.5701 118.263 96.2342C118.263 96.8983 118.012 97.4675 117.51 97.9307C117.013 98.3939 116.422 98.6227 115.73 98.6227C115.038 98.6227 114.463 98.3939 113.966 97.9307C113.749 97.7298 113.576 97.5066 113.458 97.2555H112.644V96.5969H113.246C113.23 96.4798 113.218 96.3626 113.218 96.2454C113.218 95.5757 113.464 95.0065 113.961 94.5433C114.457 94.0801 115.043 93.8513 115.724 93.8513L115.73 93.8457ZM115.73 94.5377C115.239 94.5377 114.82 94.6995 114.468 95.0288C114.117 95.3581 113.938 95.7599 113.938 96.2398C113.949 96.7197 114.128 97.1159 114.474 97.434C114.826 97.7521 115.244 97.9084 115.73 97.9084C116.215 97.9084 116.639 97.7521 116.991 97.434C117.337 97.1159 117.515 96.7197 117.527 96.2398C117.527 95.7654 117.354 95.3636 116.996 95.0288C116.639 94.6995 116.215 94.5377 115.724 94.5377H115.73Z" fill="#00263E"/>
<path d="M7.07575 72.673C7.07575 73.3315 6.84137 73.9063 6.36702 74.3919C5.89825 74.8774 5.34018 75.1229 4.69842 75.1229C4.11245 75.1229 3.57113 74.8606 3.0633 74.3305C2.56105 73.8003 2.30434 73.2367 2.30434 72.634C2.30434 71.9922 2.50524 71.4453 2.90704 70.9933C3.30885 70.5412 3.81668 70.2845 4.43055 70.2176V68.5936C3.45952 68.6941 2.60011 69.1461 1.85789 69.9441C1.09335 70.7645 0.713867 71.6741 0.713867 72.673C0.713867 73.7612 1.11009 74.7211 1.90254 75.5415C2.69498 76.3618 3.62136 76.7748 4.68167 76.7748C5.74199 76.7748 6.6014 76.3507 7.41617 75.5024C8.23094 74.6542 8.63832 73.711 8.63832 72.673V58.8945H7.07017V72.673H7.07575Z" fill="#00263E"/>
<path d="M31.2011 61.6792C31.4355 61.6792 31.6308 61.5955 31.7926 61.4337C31.9545 61.2662 32.0326 61.0653 32.0326 60.8142C32.0326 60.5631 31.9545 60.3678 31.7926 60.2003C31.6308 60.0329 31.4355 59.9492 31.2011 59.9492C30.9667 59.9492 30.7602 60.0329 30.5984 60.2003C30.4365 60.3678 30.3584 60.5742 30.3584 60.8142C30.3584 61.0542 30.4365 61.2662 30.5928 61.4337C30.749 61.6011 30.9499 61.6792 31.1955 61.6792H31.2011Z" fill="#00263E"/>
<path d="M31.1115 66.1284C31.6696 66.1284 32.1774 66.3125 32.6239 66.6809L33.7344 65.7098C32.8694 64.8839 31.9821 64.4709 31.0836 64.4709C30.0512 64.4709 29.1304 64.8839 28.3212 65.7154C27.512 66.5469 27.1102 67.4956 27.1102 68.5615C27.1102 69.2089 26.9205 69.7614 26.5466 70.2245C26.1727 70.6877 25.676 70.9556 25.0621 71.0226H14.4423C13.9065 70.9221 13.4545 70.6654 13.0973 70.2469C12.7011 69.7893 12.5058 69.2368 12.5058 68.595V58.8848H10.9209V68.7457C10.9209 69.7893 11.2836 70.7101 12.0091 71.4969C12.662 72.2057 13.4322 72.5963 14.3195 72.6688V72.6856H25.4416V72.6688C25.8155 72.6354 26.1392 72.5461 26.4126 72.401C26.9484 72.122 27.4674 71.5918 27.9752 70.8105C28.4998 71.6588 29.0355 72.2057 29.588 72.4568C29.9284 72.6075 30.4363 72.6856 31.1115 72.6856H32.9866V71.0505H31.1115C30.4697 71.0505 29.9061 70.8049 29.4206 70.3138C28.9351 69.8227 28.6895 69.2479 28.6895 68.5894C28.6895 67.9867 28.9462 67.4287 29.4597 66.9041C29.9731 66.3851 30.52 66.1228 31.1059 66.1228L31.1115 66.1284Z" fill="#00263E"/>
<path d="M58.5455 68.3422C58.5455 69.2128 58.339 69.7541 57.9316 70.2285C57.5354 70.6861 57.0611 70.9539 56.503 71.0265H45.9222C45.5204 70.9818 45.0962 70.6861 44.6554 70.1336C44.1866 69.5588 43.9522 69.0342 43.9522 68.5654C43.9522 67.4884 43.5448 66.5397 42.7356 65.7193C41.9209 64.899 40.9889 64.4916 39.9398 64.4916C38.8906 64.4916 38.0312 64.9213 37.2276 65.7751C36.424 66.629 36.0166 67.5777 36.0166 68.6101C36.0166 69.6425 36.424 70.5912 37.2388 71.4283C38.0535 72.271 38.9687 72.6895 39.9732 72.6895C40.5536 72.6895 41.1229 72.4886 41.6809 72.0812C41.8707 71.9361 42.0939 71.7296 42.3562 71.4618V75.2008C42.3562 75.8649 42.1218 76.4452 41.653 76.9308C41.1842 77.4163 40.6318 77.6618 39.99 77.6618C39.4654 77.6618 38.9576 77.4442 38.4553 77.0145L37.4843 78.2199C37.7298 78.471 38.0703 78.7054 38.5111 78.9119C39.0413 79.1742 39.5324 79.3025 39.99 79.3025C41.0001 79.3025 41.9097 78.8784 42.7245 78.0357C43.5393 77.1875 43.9466 76.2443 43.9466 75.1952V71.4562C44.5661 72.1259 45.1409 72.5165 45.671 72.6393V72.6839H56.7932V72.6337C57.6079 72.4774 58.3446 72.0366 58.9975 71.3167C59.7453 70.4907 60.1248 69.5867 60.1248 68.5989V58.8887H58.5399V68.3366L58.5455 68.3422ZM41.6139 70.3066C41.1229 70.8144 40.576 71.0655 39.9732 71.0655C39.3705 71.0655 38.7957 70.8144 38.3102 70.3177C37.8247 69.8211 37.5792 69.2519 37.5792 68.6101C37.5792 68.1022 37.8136 67.5721 38.2823 67.0196C38.7902 66.4225 39.3538 66.1267 39.9732 66.1267C40.5927 66.1267 41.1619 66.4225 41.6698 67.014C42.1274 67.5553 42.3506 68.0855 42.3506 68.6101C42.3506 69.2295 42.105 69.7932 41.6139 70.301V70.3066Z" fill="#00263E"/>
<path d="M64.5894 70.7028C64.3327 70.4405 64.2043 70.128 64.2043 69.7485V58.8887H62.7422V69.7485C62.7422 70.5242 63.0101 71.1995 63.5458 71.752C64.0815 72.2933 64.7456 72.5667 65.5213 72.5667H69.863V71.0879H65.5213C65.153 71.0879 64.8461 70.9595 64.5894 70.7028Z" fill="#00263E"/>
<path d="M77.8823 58.7715C76.0016 58.7715 74.3665 59.4579 73.0383 60.814C71.7046 62.1701 71.0293 63.8219 71.0293 65.7361C71.0293 67.6502 71.7046 69.3077 73.0383 70.6693C74.3721 72.0254 76.0016 72.7118 77.8823 72.7118C79.7629 72.7118 81.3981 72.0254 82.7262 70.6693C84.0656 69.3077 84.7464 67.6446 84.7464 65.7361C84.7464 63.8275 84.0656 62.1701 82.7262 60.814C81.3925 59.4579 79.7629 58.7715 77.8823 58.7715ZM83.2731 65.7361C83.2731 67.2428 82.743 68.5487 81.6882 69.6146C80.667 70.6805 79.389 71.2162 77.8823 71.2162C76.3755 71.2162 75.1087 70.6749 74.0596 69.6146C73.0216 68.5264 72.4914 67.2261 72.4914 65.7361C72.4914 64.2461 73.0216 62.929 74.0596 61.8464C75.1199 60.7805 76.4034 60.2392 77.8823 60.2392C79.3611 60.2392 80.6614 60.7805 81.6938 61.8464C82.743 62.9123 83.2731 64.2237 83.2731 65.7361Z" fill="#00263E"/>
<path d="M92.576 66.4842H98.0729C97.8832 67.8402 97.2861 68.9787 96.2983 69.8716C95.3273 70.7645 94.133 71.2221 92.7546 71.2221C91.2646 71.2221 89.9755 70.6808 88.9319 69.6205C87.8883 68.5378 87.3638 67.232 87.3638 65.7419C87.3638 64.2519 87.8939 62.9349 88.9319 61.8523C89.9922 60.7864 91.2758 60.245 92.7546 60.245C93.7814 60.245 94.7413 60.5185 95.5951 61.0598C96.449 61.6011 97.1242 62.3489 97.593 63.2753L97.6488 63.3813H99.2337L99.1221 63.1135C98.5808 61.8076 97.7325 60.7529 96.5997 59.9772C95.4445 59.1791 94.1498 58.7773 92.7602 58.7773C90.8795 58.7773 89.2444 59.4638 87.9162 60.8198C86.5825 62.1759 85.9072 63.8278 85.9072 65.7419C85.9072 67.6561 86.5825 69.3135 87.9162 70.6752C89.25 72.0313 90.8795 72.7177 92.7602 72.7177C94.6409 72.7177 96.2704 72.0313 97.6042 70.6752C98.9435 69.3135 99.6243 67.6505 99.6243 65.7419V65.0109H92.576V66.4897V66.4842Z" fill="#00263E"/>
<path d="M106.433 59.1125C106.126 58.8669 105.769 58.7441 105.373 58.7441C104.977 58.7441 104.603 58.8669 104.296 59.1125C103.989 59.358 103.788 59.6817 103.704 60.0723L100.719 72.5673H102.203L103.185 68.5381V68.5046C103.185 68.5046 103.197 68.4767 103.197 68.4711C103.197 68.4711 103.219 68.4655 103.241 68.4655H107.477C107.505 68.4655 107.516 68.4655 107.516 68.4655C107.516 68.4655 107.527 68.4767 107.533 68.5325L108.515 72.5617H110.016L107.019 60.0723C106.936 59.6817 106.735 59.358 106.428 59.1069L106.433 59.1125ZM107.192 67.0034H103.543L105.127 60.4295C105.161 60.29 105.228 60.2397 105.373 60.2397C105.54 60.2397 105.579 60.3011 105.602 60.4295L107.192 67.0034Z" fill="#00263E"/>
<path d="M113.899 71.0879C113.531 71.0879 113.224 70.9595 112.967 70.7028C112.711 70.4405 112.582 70.128 112.582 69.7485V58.8887H111.12V69.7485C111.12 70.5242 111.388 71.1995 111.924 71.752C112.459 72.2933 113.124 72.5667 113.899 72.5667H118.241V71.0879H113.899Z" fill="#00263E"/>
<path d="M0.847656 84.7441H118.174" stroke="url(#paint0_linear_1136_7917)" stroke-width="0.936"/>
</g>
<defs>
<linearGradient id="paint0_linear_1136_7917" x1="-nan" y1="-nan" x2="-nan" y2="-nan" gradientUnits="userSpaceOnUse">
<stop offset="0.05" stop-color="#00263E"/>
<stop offset="0.39" stop-color="#00263E"/>
<stop offset="0.82" stop-color="#00263E"/>
</linearGradient>
<clipPath id="clip0_1136_7917">
<rect width="117.6" height="98.5196" fill="white" transform="translate(0.713867 0.259766)"/>
</clipPath>
</defs>
</svg>
