<svg width="79" height="118" viewBox="0 0 79 118" fill="none" xmlns="http://www.w3.org/2000/svg">
<g clip-path="url(#clip0_1136_8389)">
<path d="M41.258 0.744141H20.3184V21.6838H41.258V0.744141Z" fill="url(#paint0_linear_1136_8389)"/>
<path d="M41.509 64.3088V43.3691H20.5693V64.3088V85.2484H62.4486V64.3088H41.509Z" fill="url(#paint1_linear_1136_8389)"/>
<path d="M62.4484 21.9336H41.5088V42.8732H62.4484V21.9336Z" fill="url(#paint2_linear_1136_8389)"/>
<path d="M35.0239 29.4084C35.0239 27.2072 33.2366 25.4199 31.0354 25.4199C28.8342 25.4199 27.0469 27.2072 27.0469 29.4084C27.0469 31.0766 28.0691 32.5064 29.524 33.0959L27.0469 38.878H35.0239L32.3837 33.1523C33.9202 32.6005 35.0239 31.133 35.0239 29.4022V29.4084Z" fill="url(#paint3_linear_1136_8389)"/>
<path d="M12.422 94.8044H15.8926V109.754H17.7178L17.7009 112.568H15.887C15.6343 114.185 15.0895 115.353 14.2415 116.077C13.3991 116.796 12.1468 117.111 10.4957 117.01H5.301C3.67238 116.999 2.42004 116.51 1.54395 115.538C0.667873 114.567 0.246674 112.848 0.274754 110.377V105.166H3.88578V111.781C3.92509 113.241 4.6664 113.983 6.10407 114H10.1195C11.7593 114.028 12.523 113.039 12.4163 111.023V94.7988L12.422 94.8044Z" fill="#868891"/>
<path d="M21.7386 100.723H25.271V109.753H26.8547V112.567H17.2402V109.753H21.7386V100.723ZM17.4536 114.122H20.6266V117.233H17.4536V114.122ZM21.9801 114.122H25.153V117.233H21.9801V114.122Z" fill="#868891"/>
<path d="M31.2975 100.723H36.7C39.8 100.745 41.4567 101.924 41.6645 104.261V109.753H42.6023L42.6472 112.567H26.3105V109.753H27.445C27.2653 105.985 28.7086 104.008 31.7805 103.834H31.2975V100.723ZM31.8647 106.962C30.6292 106.984 30.1182 107.917 30.3316 109.753H33.4877C33.6393 107.866 33.1002 106.939 31.8647 106.962ZM32.5498 103.834C35.3859 104.098 36.7505 106.075 36.6438 109.753H38.2612V105.462C38.25 104.328 37.7052 103.783 36.6158 103.834H32.5554H32.5498Z" fill="#868891"/>
<path d="M47.2967 109.754V112.567H42.2705V109.754H47.2967Z" fill="#868891"/>
<path d="M58.5619 102.941H62.246V109.753H65.9581V100.723H69.6422V109.753H71.2258V112.567H46.8135V109.753H51.1602V105.165H54.8442V109.753H58.5564V102.941H58.5619Z" fill="#868891"/>
<path d="M74.9893 100.724H78.5217V112.568H70.6426V109.754H74.9893V100.724ZM70.8055 95.3945H73.9728V98.5057H70.8055V95.3945ZM75.3319 95.3945H78.5048V98.5057H75.3319V95.3945Z" fill="#868891"/>
</g>
<defs>
<linearGradient id="paint0_linear_1136_8389" x1="32.3278" y1="96.3993" x2="30.716" y2="7.01538" gradientUnits="userSpaceOnUse">
<stop stop-color="#073DEB"/>
<stop offset="1" stop-color="#10A1F6"/>
</linearGradient>
<linearGradient id="paint1_linear_1136_8389" x1="42.0797" y1="106.458" x2="38.9064" y2="-69.1869" gradientUnits="userSpaceOnUse">
<stop stop-color="#073DEB"/>
<stop offset="1" stop-color="#10A1F6"/>
</linearGradient>
<linearGradient id="paint2_linear_1136_8389" x1="53.1294" y1="96.0219" x2="51.5114" y2="6.64434" gradientUnits="userSpaceOnUse">
<stop stop-color="#073DEB"/>
<stop offset="1" stop-color="#10A1F6"/>
</linearGradient>
<linearGradient id="paint3_linear_1136_8389" x1="32.1642" y1="96.404" x2="30.5462" y2="7.02013" gradientUnits="userSpaceOnUse">
<stop stop-color="#073DEB"/>
<stop offset="1" stop-color="#10A1F6"/>
</linearGradient>
<clipPath id="clip0_1136_8389">
<rect width="78.2478" height="116.49" fill="white" transform="translate(0.273438 0.744141)"/>
</clipPath>
</defs>
</svg>
