<svg width="295" height="78" viewBox="0 0 295 78" fill="none" xmlns="http://www.w3.org/2000/svg">
<g clip-path="url(#clip0_1136_7532)">
<path d="M107.681 2.19964C106.817 2.19964 106.655 2.48479 106.665 3.26897C106.685 10.8867 106.685 18.4942 106.675 26.1119V27.2525C106.167 27.3747 106.045 26.947 105.831 26.7331C103.748 24.6556 101.257 23.3622 98.3607 22.8428C88.5216 21.1013 79.5566 26.4276 75.9889 36.133C75.8568 36.4793 75.7246 36.8256 75.5214 37.3551C75.3282 36.8561 75.2063 36.5506 75.0843 36.2349C71.9029 27.7821 65.7128 23.2807 56.7986 22.466C52.6617 22.0892 48.596 22.5373 44.7132 24.1362C40.8508 25.7351 37.71 28.22 35.4128 31.7437C35.2705 31.9678 35.179 32.2529 34.8843 32.3751C34.6098 32.0798 34.742 31.7132 34.7318 31.3771C34.7216 29.5338 34.681 27.6904 34.742 25.8471C34.7725 24.9916 34.5285 24.7269 33.6442 24.7269C28.2876 24.7676 22.931 24.7269 17.5744 24.7778C16.5376 24.788 16.2937 24.4723 16.3242 23.4946C16.3953 21.3763 16.3852 19.2478 16.3242 17.1295C16.2937 16.2333 16.5173 15.938 17.4727 15.9482C23.3884 15.9991 29.2939 15.9482 35.2095 15.9991C36.1955 15.9991 36.4293 15.7038 36.4089 14.7668C36.3581 10.907 36.3683 7.04727 36.4089 3.18749C36.4089 2.4135 36.2056 2.18945 35.4128 2.18945C23.8966 2.22001 12.3906 2.20982 0.874354 2.18945C0.122192 2.18945 -0.0302734 2.42369 -0.0302734 3.12639C0.0205483 23.0974 0.0205483 43.0582 0.000219619 63.0089C0.000219619 63.8338 0.284821 63.9662 1.01665 63.9662C5.78374 63.9356 10.5508 63.9254 15.3077 63.9662C16.2225 63.9662 16.3852 63.6505 16.3852 62.8256C16.3547 54.9634 16.3852 47.1115 16.3445 39.2494C16.3445 38.2412 16.6088 37.9662 17.615 37.9866C22.2398 38.0375 26.8646 38.0273 31.4894 37.9866C32.4042 37.9866 32.6481 38.1291 32.4652 39.1374C31.0015 47.3152 32.6888 54.5968 38.9805 60.3508C43.7882 64.7504 49.6429 66.2983 56.0465 65.9521C61.5047 65.6567 66.4039 63.9764 70.3477 60.0249C72.4111 57.9576 73.9459 55.5236 75.125 52.8655C75.3892 52.2647 75.3892 52.0101 74.6167 52.0101C70.4392 52.0304 66.2718 52.0304 62.0942 52.0101C61.6267 52.0101 61.3218 52.1628 61.0473 52.5498C58.8213 55.7171 55.6196 56.043 52.2856 55.2079C48.8298 54.3422 46.868 51.8471 46.1972 48.3743C45.9736 47.193 46.0549 47.1319 47.2441 47.1319C56.0058 47.1319 64.7776 47.1522 73.5393 47.1013C74.4948 47.1013 74.7285 47.4374 74.8912 48.2929C76.2024 55.2384 79.7294 60.6564 86.0415 64.068C88.0845 65.1679 90.2902 65.779 92.5873 66.0539C92.8922 66.0947 93.2175 66.0437 93.4919 66.2474H95.7891C96.6022 66.0845 97.4255 65.9521 98.2387 65.7484C101.308 64.9744 103.829 63.3348 105.811 60.86C106.004 60.6156 106.208 60.3814 106.411 60.1573C106.421 60.137 106.472 60.1573 106.645 60.1573C106.645 61.0739 106.695 61.9905 106.624 62.907C106.563 63.732 106.838 63.9662 107.671 63.9662C112.347 63.9458 117.022 63.9458 121.688 63.9458V2.20982C117.012 2.20982 112.326 2.20982 107.651 2.19964H107.681ZM61.0575 38.2106C58.8315 38.1495 56.6055 38.1902 54.3897 38.1902C52.062 38.1902 49.7344 38.18 47.4068 38.1902C46.7766 38.1902 46.6241 38.0069 46.7969 37.3959C47.6812 34.1472 50.7305 31.7743 54.2169 31.6928C57.9269 31.6011 60.8237 33.6583 61.9011 37.07C62.1756 37.9458 62.0434 38.231 61.0676 38.2004L61.0575 38.2106ZM105.1 50.0242C102.741 54.9838 96.2973 56.1652 92.4044 52.2748C89.2737 49.1483 88.8265 45.2784 89.6295 41.1334C89.9446 39.5142 90.5748 38.0069 91.581 36.683C95.1182 31.9779 102.142 32.5584 104.846 37.7829C105.74 39.5142 106.238 41.7852 106.248 44.6266C106.248 46.2459 105.964 48.2012 105.1 50.0242Z" fill="#34225F"/>
<path d="M2.12402 69.8422H5.47826V70.5144H2.92701V72.5817H5.27497V73.2437H2.92701V76.0647H2.12402V69.832V69.8422Z" fill="#34225F"/>
<path d="M16.903 73.9779C16.9233 75.0778 17.6246 75.5259 18.4378 75.5259C19.0171 75.5259 19.3729 75.4241 19.6778 75.2917L19.8201 75.8722C19.5355 76.0046 19.0476 76.1472 18.3361 76.1472C16.9639 76.1472 16.1406 75.2408 16.1406 73.8863C16.1406 72.5318 16.9334 71.4727 18.2345 71.4727C19.688 71.4727 20.0844 72.7559 20.0844 73.5808C20.0844 73.7437 20.0641 73.8761 20.0539 73.9576H16.9131L16.903 73.9779ZM19.2814 73.3974C19.2814 72.8781 19.068 72.0735 18.1532 72.0735C17.3299 72.0735 16.9741 72.8271 16.903 73.3974H19.2712H19.2814Z" fill="#34225F"/>
<path d="M35.0764 69.5059V74.9136C35.0764 75.3108 35.0764 75.7691 35.117 76.0644H34.3852L34.3446 75.2904H34.3242C34.0803 75.7894 33.5314 76.1663 32.7996 76.1663C31.7221 76.1663 30.8887 75.2497 30.8887 73.8952C30.8887 72.4083 31.8035 71.4918 32.8911 71.4918C33.5721 71.4918 34.0396 71.8177 34.2429 72.1741H34.2632V69.5059H35.0764ZM34.2632 73.4165C34.2632 73.3147 34.2632 73.1721 34.2226 73.0703C34.1006 72.5509 33.6635 72.1232 33.0537 72.1232C32.21 72.1232 31.712 72.8666 31.712 73.8545C31.712 74.7608 32.1592 75.5145 33.0334 75.5145C33.5822 75.5145 34.0803 75.158 34.2226 74.547C34.2531 74.435 34.2632 74.3229 34.2632 74.1905V73.4165Z" fill="#34225F"/>
<path d="M49.8149 73.1516H47.3958V75.4023H50.0893V76.0745H46.5928V69.8418H49.947V70.5139H47.3958V72.4795H49.8149V73.1414V73.1516Z" fill="#34225F"/>
<path d="M61.6365 71.5938L62.2769 72.551C62.4395 72.7955 62.5818 73.0297 62.7343 73.2843H62.7648C62.9172 73.0195 63.0595 72.7853 63.212 72.5409L63.8422 71.5938H64.7163L63.1917 73.7528L64.757 76.0646H63.832L63.1815 75.0563C63.0087 74.8017 62.8562 74.5471 62.7038 74.2824H62.6834C62.531 74.5471 62.3785 74.7916 62.2159 75.0563L61.5654 76.0646H60.6709L62.2565 73.7833L60.742 71.5938H61.6467H61.6365Z" fill="#34225F"/>
<path d="M87.7996 69.9234C88.1554 69.8521 88.7043 69.791 89.2633 69.791C90.0663 69.791 90.5847 69.9336 90.9709 70.2391C91.2962 70.4835 91.4893 70.8502 91.4893 71.339C91.4893 71.9399 91.0929 72.4694 90.4322 72.7037V72.724C91.0217 72.8768 91.7129 73.3656 91.7129 74.2822C91.7129 74.822 91.4994 75.2293 91.1844 75.5348C90.7473 75.932 90.0459 76.1153 89.0295 76.1153C88.4806 76.1153 88.0537 76.0746 87.7793 76.0441V69.9132L87.7996 69.9234ZM88.6026 72.4796H89.3344C90.1781 72.4796 90.6863 72.0315 90.6863 71.4307C90.6863 70.6974 90.1273 70.4122 89.3243 70.4122C88.9584 70.4122 88.7449 70.4428 88.6128 70.4632V72.4694L88.6026 72.4796ZM88.6026 75.4636C88.7551 75.4941 88.9889 75.5043 89.2735 75.5043C90.1069 75.5043 90.8693 75.1988 90.8693 74.2924C90.8693 73.4369 90.1374 73.0907 89.2633 73.0907H88.6026V75.4636Z" fill="#34225F"/>
<path d="M105.394 76.0746L105.333 75.5145H105.302C105.058 75.8709 104.57 76.1765 103.94 76.1765C103.036 76.1765 102.578 75.5349 102.578 74.8933C102.578 73.8137 103.534 73.2231 105.262 73.2333V73.1416C105.262 72.775 105.16 72.1028 104.245 72.1028C103.828 72.1028 103.391 72.2352 103.086 72.4389L102.903 71.8991C103.269 71.6547 103.808 71.502 104.367 71.502C105.729 71.502 106.064 72.4389 106.064 73.3351V75.0053C106.064 75.3923 106.085 75.7691 106.136 76.0746H105.394ZM105.272 73.7934C104.387 73.773 103.381 73.936 103.381 74.8016C103.381 75.3312 103.737 75.5756 104.143 75.5756C104.723 75.5756 105.099 75.209 105.221 74.822C105.251 74.7405 105.272 74.6488 105.272 74.5674V73.7934Z" fill="#34225F"/>
<path d="M121.362 71.5947C121.342 71.9206 121.321 72.2771 121.321 72.827V75.4239C121.321 76.4525 121.118 77.084 120.681 77.4709C120.244 77.8783 119.624 78.0107 119.055 78.0107C118.486 78.0107 117.927 77.8783 117.571 77.6441L117.774 77.0228C118.069 77.2062 118.526 77.3793 119.085 77.3793C119.919 77.3793 120.529 76.9414 120.529 75.8211V75.3221H120.508C120.264 75.7396 119.776 76.0757 119.085 76.0757C117.977 76.0757 117.185 75.1286 117.185 73.8963C117.185 72.3789 118.171 71.5234 119.197 71.5234C119.97 71.5234 120.397 71.9308 120.59 72.2974H120.61L120.651 71.6253H121.362V71.5947ZM120.518 73.3566C120.518 73.214 120.518 73.102 120.468 72.9899C120.315 72.5215 119.919 72.1345 119.329 72.1345C118.557 72.1345 117.998 72.7863 117.998 73.825C117.998 74.7009 118.445 75.4341 119.319 75.4341C119.817 75.4341 120.275 75.1184 120.447 74.599C120.498 74.4565 120.508 74.3037 120.508 74.1611V73.3566H120.518Z" fill="#34225F"/>
<path d="M132.817 69.5059H133.631V72.2963H133.651C133.783 72.0621 133.986 71.8584 134.23 71.726C134.474 71.5834 134.759 71.4918 135.064 71.4918C135.663 71.4918 136.619 71.8584 136.619 73.4064V76.0746H135.806V73.5082C135.806 72.7851 135.541 72.1741 134.769 72.1741C134.24 72.1741 133.824 72.5407 133.681 72.9888C133.631 73.1008 133.631 73.2231 133.631 73.3758V76.0746H132.817V69.5059Z" fill="#34225F"/>
<path d="M151.947 69.5059V74.9136C151.947 75.3108 151.947 75.7691 151.987 76.0644H151.255L151.215 75.2904H151.194C150.95 75.7894 150.402 76.1663 149.67 76.1663C148.592 76.1663 147.759 75.2497 147.759 73.8952C147.759 72.4083 148.674 71.4918 149.761 71.4918C150.442 71.4918 150.91 71.8177 151.113 72.1741H151.133V69.5059H151.947ZM151.133 73.4165C151.133 73.3147 151.133 73.1721 151.093 73.0703C150.971 72.5509 150.534 72.1232 149.924 72.1232C149.08 72.1232 148.582 72.8666 148.582 73.8545C148.582 74.7608 149.029 75.5145 149.903 75.5145C150.452 75.5145 150.95 75.158 151.093 74.547C151.123 74.435 151.133 74.3229 151.133 74.1905V73.4165Z" fill="#34225F"/>
<path d="M165.912 76.0746L165.851 75.5145H165.821C165.577 75.8709 165.089 76.1765 164.459 76.1765C163.554 76.1765 163.097 75.5349 163.097 74.8933C163.097 73.8137 164.052 73.2231 165.78 73.2333V73.1416C165.78 72.775 165.678 72.1028 164.764 72.1028C164.347 72.1028 163.91 72.2352 163.605 72.4389L163.422 71.8991C163.788 71.6547 164.327 71.502 164.886 71.502C166.248 71.502 166.583 72.4389 166.583 73.3351V75.0053C166.583 75.3923 166.603 75.7691 166.654 76.0746H165.912ZM165.79 73.7934C164.906 73.773 163.9 73.936 163.9 74.8016C163.9 75.3312 164.255 75.5756 164.662 75.5756C165.241 75.5756 165.617 75.209 165.739 74.822C165.77 74.7405 165.79 74.6488 165.79 74.5674V73.7934Z" fill="#34225F"/>
<path d="M181.881 69.5059V74.9136C181.881 75.3108 181.881 75.7691 181.922 76.0644H181.19L181.149 75.2904H181.129C180.885 75.7894 180.336 76.1663 179.604 76.1663C178.527 76.1663 177.693 75.2497 177.693 73.8952C177.693 72.4083 178.608 71.4918 179.696 71.4918C180.377 71.4918 180.844 71.8177 181.048 72.1741H181.068V69.5059H181.881ZM181.068 73.4165C181.068 73.3147 181.068 73.1721 181.027 73.0703C180.905 72.5509 180.468 72.1232 179.858 72.1232C179.015 72.1232 178.517 72.8666 178.517 73.8545C178.517 74.7608 178.964 75.5145 179.838 75.5145C180.387 75.5145 180.885 75.158 181.027 74.547C181.058 74.435 181.068 74.3229 181.068 74.1905V73.4165Z" fill="#34225F"/>
<path d="M208.725 73.1516H206.306V75.4023H208.999V76.0745H205.503V69.8418H208.857V70.5139H206.306V72.4795H208.725V73.1414V73.1516Z" fill="#34225F"/>
<path d="M220.546 71.5938L221.186 72.551C221.349 72.7955 221.491 73.0297 221.643 73.2843H221.674C221.826 73.0195 221.969 72.7853 222.121 72.5409L222.751 71.5938H223.625L222.101 73.7528L223.666 76.0646H222.741L222.091 75.0563C221.918 74.8017 221.765 74.5471 221.613 74.2824H221.593C221.44 74.5471 221.288 74.7916 221.125 75.0563L220.475 76.0646H219.58L221.166 73.7833L219.651 71.5938H220.556H220.546Z" fill="#34225F"/>
<path d="M234.583 73.0601C234.583 72.4898 234.562 72.0213 234.542 71.6038H235.274L235.314 72.3676H235.335C235.67 71.8177 236.189 71.502 236.92 71.502C237.998 71.502 238.811 72.4185 238.811 73.773C238.811 75.3821 237.835 76.1765 236.778 76.1765C236.189 76.1765 235.67 75.9219 235.406 75.4738H235.386V77.9078H234.583V73.0601ZM235.386 74.2517C235.386 74.3739 235.406 74.4859 235.426 74.5877C235.579 75.1479 236.067 75.5349 236.646 75.5349C237.5 75.5349 237.998 74.8322 237.998 73.8036C237.998 72.9074 237.53 72.1435 236.666 72.1435C236.107 72.1435 235.599 72.5407 235.436 73.1518C235.406 73.2536 235.386 73.3758 235.386 73.4879V74.2517Z" fill="#34225F"/>
<path d="M249.982 72.9893C249.982 72.4597 249.982 72.0116 249.941 71.594H250.653L250.683 72.4699H250.724C250.927 71.869 251.415 71.4922 251.964 71.4922C252.056 71.4922 252.117 71.4922 252.198 71.5227V72.2866C252.117 72.2662 252.035 72.256 251.923 72.256C251.354 72.256 250.948 72.6939 250.836 73.305C250.816 73.417 250.795 73.5494 250.795 73.6818V76.0649H249.992V72.9893H249.982Z" fill="#34225F"/>
<path d="M263.501 73.9779C263.521 75.0778 264.222 75.5259 265.035 75.5259C265.615 75.5259 265.971 75.4241 266.275 75.2917L266.418 75.8722C266.133 76.0046 265.645 76.1472 264.934 76.1472C263.562 76.1472 262.738 75.2408 262.738 73.8863C262.738 72.5318 263.531 71.4727 264.832 71.4727C266.286 71.4727 266.682 72.7559 266.682 73.5808C266.682 73.7437 266.662 73.8761 266.652 73.9576H263.511L263.501 73.9779ZM265.879 73.3974C265.879 72.8781 265.666 72.0735 264.751 72.0735C263.928 72.0735 263.572 72.8271 263.501 73.3974H265.869H265.879Z" fill="#34225F"/>
<path d="M277.711 75.2395C277.954 75.3923 278.371 75.5654 278.778 75.5654C279.367 75.5654 279.642 75.2701 279.642 74.9034C279.642 74.5368 279.408 74.3026 278.808 74.0785C278.005 73.7934 277.629 73.3453 277.629 72.8157C277.629 72.0926 278.209 71.502 279.174 71.502C279.621 71.502 280.028 71.6344 280.272 71.7769L280.069 72.3676C279.896 72.2556 279.571 72.113 279.154 72.113C278.676 72.113 278.402 72.388 278.402 72.724C278.402 73.0907 278.666 73.2638 279.245 73.4777C280.018 73.773 280.414 74.16 280.414 74.8322C280.414 75.6163 279.804 76.1765 278.747 76.1765C278.259 76.1765 277.802 76.0542 277.497 75.8709L277.7 75.2497L277.711 75.2395Z" fill="#34225F"/>
<path d="M291.504 75.2395C291.747 75.3923 292.164 75.5654 292.571 75.5654C293.16 75.5654 293.435 75.2701 293.435 74.9034C293.435 74.5368 293.201 74.3026 292.601 74.0785C291.798 73.7934 291.422 73.3453 291.422 72.8157C291.422 72.0926 292.002 71.502 292.967 71.502C293.414 71.502 293.821 71.6344 294.065 71.7769L293.862 72.3676C293.689 72.2556 293.364 72.113 292.947 72.113C292.469 72.113 292.195 72.388 292.195 72.724C292.195 73.0907 292.459 73.2638 293.038 73.4777C293.811 73.773 294.207 74.16 294.207 74.8322C294.207 75.6163 293.597 76.1765 292.54 76.1765C292.052 76.1765 291.595 76.0542 291.29 75.8709L291.493 75.2497L291.504 75.2395Z" fill="#34225F"/>
<path d="M294.36 62.9278C289.034 56.96 283.718 50.9819 278.361 45.0446C277.832 44.4641 277.812 44.1178 278.351 43.5271C283.575 37.7018 288.759 31.846 293.953 25.9901C294.248 25.654 294.543 25.318 294.827 24.9921C294.573 24.6356 294.268 24.768 294.014 24.768C288.729 24.768 283.443 24.768 278.158 24.7477C277.538 24.7477 277.131 24.9411 276.735 25.3994C274.377 28.139 271.968 30.8377 269.62 33.5874C269.122 34.1679 268.857 34.1578 268.359 33.5874C265.96 30.8887 263.501 28.2306 261.092 25.5318C260.584 24.9615 260.075 24.7273 259.303 24.7273C247.411 24.7477 235.518 24.7477 223.626 24.7375C222.101 24.7375 222.264 24.9208 222.254 23.3219C222.254 21.2749 222.294 19.2177 222.233 17.1707C222.203 16.2439 222.427 15.9282 223.423 15.9384C229.196 15.9893 234.969 15.9384 240.743 15.9893C241.769 15.9893 242.003 15.6838 241.993 14.6959C241.932 10.8769 241.942 7.04769 241.993 3.21847C241.993 2.39355 241.759 2.17969 240.946 2.17969C230.273 2.20006 219.611 2.20006 208.938 2.17969V63.9564C210.646 63.9564 212.344 63.9564 214.051 63.9564C222.955 63.9564 231.859 63.9361 240.763 63.9768C241.8 63.9768 242.023 63.6815 242.003 62.6936C241.942 58.9357 241.932 55.1777 242.003 51.43C242.023 50.3199 241.668 50.1264 240.651 50.1366C234.878 50.1875 229.105 50.1366 223.331 50.1773C222.457 50.1773 222.213 49.9329 222.233 49.0673C222.284 45.7676 222.284 42.4578 222.233 39.1581C222.223 38.262 222.427 37.9768 223.372 37.987C229.115 38.0379 234.847 38.0073 240.59 38.0073C241.512 38.0073 241.973 37.5321 241.973 36.5816C241.973 32.9357 241.973 29.2796 241.973 25.6337C241.973 25.4707 242.003 25.3078 242.023 25.0532C242.461 25.155 242.623 25.4809 242.837 25.7151C248.112 31.6321 253.367 37.5694 258.662 43.4762C259.283 44.1687 259.262 44.5659 258.652 45.2482C253.377 51.1245 248.142 57.0312 242.898 62.9278C242.674 63.1824 242.45 63.4574 242.237 63.712C242.481 64.1092 242.826 63.9462 243.101 63.9462C248.386 63.9564 253.672 63.9462 258.957 63.9666C259.577 63.9666 259.984 63.7629 260.38 63.3046C262.779 60.5549 265.218 57.8358 267.607 55.0759C268.136 54.4649 268.4 54.4445 268.939 55.0759C271.307 57.8052 273.746 60.4735 276.135 63.2028C276.613 63.7426 277.09 63.987 277.822 63.9768C283.209 63.9462 288.607 63.9666 293.994 63.9564C294.319 63.9564 294.675 64.0583 295.01 63.8444C294.959 63.4167 294.604 63.2028 294.37 62.938L294.36 62.9278Z" fill="#F47621"/>
<path d="M166.655 63.9765H122.836L113.363 63.9256C113.363 63.9256 103.544 52.4481 110.263 33.6279C117.49 13.4328 143.063 1.06933 145.828 0C150.463 1.21191 166.35 14.2679 166.35 14.2679V14.5123L166.665 63.9765H166.655Z" fill="#F37A20"/>
<path d="M165.77 63.9767H123.08C121.921 62.9888 115.589 57.0922 114.379 44.1686C112.245 21.3766 140.024 5.39772 145.808 2.08789C157.08 8.31037 168.261 18.9018 170.67 22.1404C172.255 24.279 169.084 20.0017 169.084 20.0017C168.271 19.187 165.73 61.2066 165.781 63.9767H165.77Z" fill="#935424"/>
<path d="M223.046 33.6377C217.253 17.4144 199.638 6.2628 191.476 1.93456C189.88 0.956887 188.518 0.244 187.593 0.00976562C187.583 0.00976562 187.552 0.0301338 187.542 0.0301338C187.522 0.0301338 187.502 0.00976562 187.492 0.00976562C186.577 0.254184 185.205 0.956887 183.609 1.93456C182.653 2.44376 181.566 3.04463 180.376 3.73715H180.356C180.356 3.73715 180.315 3.77788 180.305 3.77788C171.401 9.00232 157.141 19.3596 152.038 33.6377C145.32 52.4579 155.138 63.9353 155.138 63.9353C155.138 63.9353 155.169 63.9659 155.179 63.9863H219.032C219.032 63.9863 219.052 63.9557 219.062 63.9353H219.936C219.936 63.9353 229.755 52.4579 223.036 33.6377H223.046Z" fill="url(#paint0_linear_1136_7532)"/>
</g>
<defs>
<linearGradient id="paint0_linear_1136_7532" x1="156.317" y1="16.7524" x2="211.336" y2="64.0945" gradientUnits="userSpaceOnUse">
<stop offset="0.12" stop-color="#816AAE"/>
<stop offset="0.18" stop-color="#6D579B"/>
<stop offset="0.27" stop-color="#554085"/>
<stop offset="0.38" stop-color="#432E74"/>
<stop offset="0.5" stop-color="#362268"/>
<stop offset="0.66" stop-color="#2F1B62"/>
<stop offset="1" stop-color="#2D1960"/>
</linearGradient>
<clipPath id="clip0_1136_7532">
<rect width="295" height="78" fill="white"/>
</clipPath>
</defs>
</svg>
