<svg width="121" height="71" viewBox="0 0 121 71" fill="none" xmlns="http://www.w3.org/2000/svg">
<g clip-path="url(#clip0_1136_7560)">
<path d="M90.0407 35.6348L85.3329 47.3024H75.1674L65.002 35.6348H90.0407Z" fill="#3ED7A6"/>
<path d="M54.3451 35.8828V46.8044H43.688L38.2354 35.8828H54.3451Z" fill="#FFD639"/>
<path d="M26.5846 35.8828H15.6742L12.208 47.3018H32.7822L26.5846 35.8828Z" fill="#FFD639"/>
<path d="M98.4678 13.541H95.4932L97.4746 17.5097L98.4678 13.541Z" fill="#FFD639"/>
<path d="M120.035 13.541H98.9638L96.9824 18.7531L109.124 46.8033L120.035 47.3006V13.541Z" fill="#56C845"/>
<path d="M76.6574 13.541H95.4985L96.9833 17.5148L90.0408 35.638L66.6592 35.6076C66.6592 35.6076 75.8618 31.1161 77.3517 22.6762C78.5932 15.4746 76.6574 13.5461 76.6574 13.5461V13.541Z" fill="#F14028"/>
<path d="M54.3594 35.9534V13.5417H43.7936V1.61523H20.3613L37.8646 36.5472L54.3594 35.9534Z" fill="#F14028"/>
<path d="M65.002 1.62514C65.002 1.62514 75.1725 4.83261 76.2823 12.4148C76.7738 7.96903 76.6522 1.20898 76.6522 1.20898L65.002 1.62514Z" fill="#3ED7A6"/>
<path d="M120.07 0.792969H0.603038C0.369931 0.792969 0.1875 0.975673 0.1875 1.20913V47.2251C0.1875 47.2251 0.1875 47.2353 0.1875 47.2454C0.1875 47.2556 0.1875 47.2657 0.1875 47.2759C0.1875 47.2962 0.192568 47.3215 0.202703 47.3418C0.202703 47.352 0.20777 47.3621 0.212838 47.3723C0.222973 47.3977 0.233108 47.423 0.24831 47.4433C0.24831 47.4433 0.24831 47.4535 0.253378 47.4535C0.268581 47.4789 0.288851 47.5042 0.314188 47.5245C0.319256 47.5296 0.324324 47.5347 0.334459 47.5398C0.354729 47.555 0.369931 47.5702 0.390202 47.5804C0.400337 47.5804 0.405404 47.5905 0.415539 47.5956C0.435809 47.6057 0.45608 47.6159 0.481417 47.621C0.491552 47.621 0.49662 47.626 0.506755 47.6311C0.53716 47.6362 0.567565 47.6413 0.603038 47.6413H120.07C120.298 47.6413 120.486 47.4535 120.486 47.2251V1.20913C120.486 0.980748 120.298 0.792969 120.07 0.792969ZM103.373 1.62529L98.6954 13.2168H95.4775L90.6329 1.62529H103.368H103.373ZM77.1786 14.0491H94.9251L96.6735 18.231L89.7867 35.3037H67.2057C68.2446 34.8266 69.6179 34.0704 71.0418 32.9285C73.7023 30.7919 77.0266 26.8384 77.7563 20.1596C77.7563 20.1494 77.7563 20.1393 77.7563 20.124C77.8222 17.8301 77.5992 15.8153 77.1786 14.0491ZM95.8272 14.0491H98.3609L97.1143 17.1348L95.8272 14.0491ZM77.0722 1.62529H89.7917C89.7867 1.69126 89.7917 1.76231 89.8221 1.82829L94.5806 13.2168H77.0722V1.62529ZM76.2411 1.62529V11.1513C74.8628 7.87274 72.7648 5.71075 70.8645 4.32017C68.8375 2.84331 66.8104 2.04144 65.4118 1.62529H76.2411ZM1.01858 1.62529H20.0168L37.4643 35.7655H27.4255L16.135 13.4452C16.0641 13.3031 15.907 13.2118 15.755 13.2168C15.5928 13.2168 15.4509 13.3133 15.385 13.4604L1.01858 45.2966V1.62529ZM11.7871 46.809H1.24662L15.7854 14.5973L26.4982 35.7655H15.7651C15.5878 35.7655 15.4256 35.8823 15.3698 36.0497L11.7871 46.809ZM12.6638 46.809L16.0641 36.5978H26.9188L32.0877 46.809H12.6638ZM33.7042 46.809H33.0201L27.8512 36.5978H37.8951L43.1146 46.809H33.7042ZM53.949 46.809H44.0521L38.8326 36.5978L53.949 36.3745V46.809ZM53.949 35.5422L38.4069 35.7655L20.9543 1.62529H43.3781V13.2168H35.0623C34.8343 13.2168 34.6468 13.4046 34.6468 13.633C34.6468 13.8614 34.8343 14.0491 35.0623 14.0491H43.3781V24.0116C43.3781 24.24 43.5656 24.4277 43.7937 24.4277C44.0217 24.4277 44.2092 24.24 44.2092 24.0116V14.0491H53.944V35.5422H53.949ZM54.3646 13.2168H44.2143V2.03129H63.5267C63.851 2.08205 67.1804 2.65046 70.4084 5.01546C73.3425 7.16223 75.2935 10.0601 76.2513 13.6634C76.2513 13.7193 76.2665 13.77 76.2918 13.8157C76.7783 15.7138 76.9911 17.8047 76.9303 20.0885C76.3678 25.2042 74.2243 29.2998 70.5554 32.2586C67.8037 34.4764 65.1838 35.192 65.1534 35.2022C65.128 35.2073 64.8898 35.3138 64.753 35.3138L54.7852 35.5321V13.633C54.7852 13.4046 54.5977 13.2168 54.3696 13.2168H54.3646ZM54.7801 46.809V36.3593L64.8949 36.1411L74.1989 46.814H54.7852L54.7801 46.809ZM85.2005 46.809H75.2986L65.9946 36.136H89.4471L85.2208 46.606C85.1955 46.6719 85.1853 46.7379 85.1955 46.8039L85.2005 46.809ZM86.0417 46.809L90.4505 35.8823L97.1295 19.3222L108.613 46.809H86.0417ZM119.66 46.809H109.459C109.464 46.743 109.459 46.6719 109.428 46.606L97.5755 18.226L99.263 14.0491H119.66V46.809ZM119.66 13.2168H99.5974L104.275 1.62529H119.66V13.2168Z" fill="black"/>
<path d="M2.41215 70.0452H0L7.62665 52.0488H10.201L17.8681 70.0452H15.2938L12.9678 64.3813H7.02361L7.66212 62.4934H12.1874L8.83272 54.3377L2.41215 70.0401V70.0452Z" fill="black"/>
<path d="M20.3154 70.0452V52.0488H27.9826C31.3981 52.0488 33.111 53.4902 33.111 56.3627C33.111 58.7023 31.4387 60.438 28.0992 61.5596L34.2664 70.0401H31.2005L25.4843 61.9504V60.4278C28.9201 59.8848 30.638 58.5602 30.638 56.4642C30.638 54.8046 29.6853 53.9723 27.7748 53.9723H22.6465V70.0401H20.3205L20.3154 70.0452Z" fill="black"/>
<path d="M48.8408 52.0488V53.9368H43.1855V70.0452H40.8595V53.9368H35.2041V52.0488H48.8358H48.8408Z" fill="black"/>
<path d="M71.4575 69.4146C69.9068 69.917 68.2345 70.1708 66.4305 70.1708C60.1468 70.1708 57.0049 67.0445 57.0049 60.7971C57.0049 54.8846 60.1468 51.9258 66.4305 51.9258C68.2295 51.9258 69.9068 52.1795 71.4575 52.682V54.6968C69.9068 54.1081 68.3156 53.8137 66.6839 53.8137C61.7836 53.8137 59.3309 56.1432 59.3309 60.7971C59.3309 65.791 61.7836 68.2829 66.6839 68.2829C68.3156 68.2829 69.9068 67.9885 71.4575 67.3998V69.4146Z" fill="black"/>
<path d="M75.8809 70.0452H73.4688L81.0954 52.0488H83.6697L91.3369 70.0452H88.7626L86.4366 64.3813H80.4924L81.1309 62.4934H85.6562L82.3015 54.3377L75.8809 70.0401V70.0452Z" fill="black"/>
<path d="M105.537 52.0488V53.9368H96.1112V59.9761H105.096V61.8641H96.1112V70.0452H93.7852V52.0488H105.532H105.537Z" fill="black"/>
<path d="M120.045 52.0488V53.9368H110.619V59.9761H119.604V61.8641H110.619V68.1572H120.232V70.0452H108.293V52.0488H120.04H120.045Z" fill="black"/>
<path d="M120.486 0.78125H0.228516V70.0209H120.486V0.78125Z" stroke="#29A9E0" stroke-width="0.568" stroke-miterlimit="10"/>
<path d="M120.8 51.9043H0.541992" stroke="#29A9E0" stroke-width="0.568" stroke-miterlimit="10"/>
</g>
<defs>
<clipPath id="clip0_1136_7560">
<rect width="120.8" height="69.6" fill="white" transform="translate(0 0.599609)"/>
</clipPath>
</defs>
</svg>
