<svg width="121" height="109" viewBox="0 0 121 109" fill="none" xmlns="http://www.w3.org/2000/svg">
<g clip-path="url(#clip0_1136_8445)">
<path d="M80.4709 34.4685V24.965L44.6738 0.5V77.2365L48.3791 72.4871V18.451L55.9154 23.6005L55.7849 60.6934L59.7511 56.5998L59.8816 26.1077L65.7028 29.806L65.5724 48.2873L68.8767 44.9845L69.1424 31.7828L76.6787 37.4627L80.4709 34.4685Z" fill="#1981C5"/>
<path d="M42.8237 18.3398L28.4082 28.1085V65.997L31.843 68.3692L32.1087 38.8704L39.384 34.2947V73.6296L42.8237 77.2362V18.3398Z" fill="#1981C5"/>
<path d="M0.5 62.014C0.5 62.014 24.5725 60.1673 44.6739 81.2861C47.5821 76.2716 53.3164 65.447 75.5338 40.8036C97.7512 16.165 116.268 33.9376 120.5 40.8036C120.5 40.8036 105.336 28.3059 91.2295 39.9213C77.4758 51.5366 67.9541 64.9118 57.0169 84.0972C48.2005 100.467 44.6739 106.098 44.6739 106.098C44.6739 106.098 30.9203 73.8897 0.5 62.0092L0.5 62.014Z" fill="#154470"/>
<path d="M88.2004 64.5201H90.5869V65.9714H83.4613C82.8187 65.9714 82.2922 66.1691 81.8864 66.5597C81.6062 66.8345 81.4081 67.1769 81.3018 67.5819C81.2487 67.7844 81.2245 67.9821 81.2245 68.1749C81.2245 68.3823 81.2535 68.5848 81.3115 68.7825C81.4709 69.3128 81.8429 69.7372 82.4371 70.065L81.5337 71.2367C80.582 70.7208 79.9733 70.012 79.7173 69.1103C79.6255 68.8018 79.582 68.4883 79.582 68.1749C79.582 67.8808 79.6207 67.5915 79.7028 67.2974C79.8671 66.6609 80.1811 66.1113 80.6497 65.6484C81.3212 64.9975 82.0265 64.6359 82.7753 64.5684C82.1714 64.0331 81.7221 63.2183 81.4226 62.119C81.2777 61.5886 81.2004 61.1064 81.2004 60.6676C81.2004 59.9299 81.3936 59.3128 81.7849 58.8113C82.1859 58.2954 82.7511 57.9338 83.4854 57.7409C83.9009 57.6204 84.3598 57.5625 84.8574 57.5625H86.0748C86.5772 57.5625 87.0361 57.6204 87.4516 57.7409C88.1859 57.9434 88.7463 58.3002 89.1424 58.8113C89.5337 59.3128 89.727 59.9299 89.727 60.6676C89.727 61.1064 89.6545 61.5886 89.5047 62.119C89.2101 63.2038 88.7753 64.0042 88.2004 64.5153V64.5201ZM85.4613 64.5394C85.7463 64.4285 86.0313 64.2598 86.3163 64.0331C87.0023 63.4883 87.4758 62.7506 87.7366 61.82C87.8477 61.3957 87.9057 61.0148 87.9057 60.6725C87.9057 60.2096 87.7994 59.8431 87.5917 59.5731C87.4226 59.3513 87.1762 59.197 86.8574 59.1102C86.6255 59.0476 86.3646 59.0186 86.07 59.0186H84.8526C84.5579 59.0186 84.3018 59.0476 84.0748 59.1102C83.7511 59.2019 83.5096 59.3562 83.3405 59.5731C83.1328 59.8431 83.0265 60.2096 83.0265 60.6725C83.0265 61.0148 83.0844 61.4005 83.1956 61.82C83.4564 62.7506 83.9299 63.4883 84.6158 64.0331C84.896 64.2598 85.1811 64.4285 85.4613 64.5394Z" fill="#154470"/>
<path d="M95.7991 65.9724C94.4996 65.9724 93.4755 65.577 92.7218 64.7814C92.7025 64.8007 92.6397 64.8634 92.5286 64.9839C91.8861 65.6445 90.9875 65.9724 89.8281 65.9724V64.521C90.3982 64.521 90.8185 64.3812 91.0987 64.0967C91.4127 63.7689 91.5721 63.3012 91.5721 62.6936V61.8161C91.5721 60.5432 91.9199 59.5355 92.6204 58.7929C93.3982 57.9733 94.461 57.5586 95.8088 57.5586C97.1566 57.5586 98.2339 57.9684 99.0069 58.7833C99.7074 59.5258 100.055 60.5384 100.055 61.8161C100.055 63.0167 99.7605 63.9183 99.1759 64.5162H100.968V65.9675H95.7991V65.9724ZM97.5431 59.6657C97.1373 59.2317 96.5576 59.0147 95.8088 59.0147C95.06 59.0147 94.4996 59.2317 94.0938 59.6657C93.6252 60.1575 93.3933 60.8711 93.3933 61.8161C93.3933 62.6792 93.6301 63.3494 94.1035 63.8364C94.5431 64.2944 95.1083 64.521 95.804 64.521C96.4996 64.521 97.0938 64.2993 97.5286 63.8557C98.002 63.3735 98.2388 62.6936 98.2388 61.8209C98.2388 60.8662 98.0069 60.1478 97.5431 59.6705V59.6657Z" fill="#154470"/>
<path d="M100.205 65.9714V64.5201L107.906 64.5298C107.896 64.4575 107.867 64.2164 107.823 63.8017C107.645 62.2154 107.422 61.1112 107.162 60.4989C106.736 59.5104 106.026 59.0138 105.031 59.0138C104.669 59.0138 104.35 59.062 104.065 59.1681C103.79 59.2645 103.553 59.4092 103.355 59.5972C103.244 59.7081 103.142 59.8335 103.06 59.9685C102.964 60.1083 102.867 60.3108 102.77 60.576L101.002 60.2144C101.147 59.8335 101.292 59.5297 101.432 59.3031C101.577 59.0717 101.746 58.8643 101.939 58.6859C102.321 58.3147 102.78 58.035 103.311 57.8422C103.838 57.6589 104.408 57.5625 105.026 57.5625C106.77 57.5625 107.993 58.2327 108.698 59.5731C109.104 60.3494 109.413 61.7188 109.63 63.6763C109.674 64.0717 109.707 64.3514 109.732 64.5201H111.06V65.9714H100.205ZM104.437 68.1942C104.437 68.064 104.461 67.9435 104.514 67.8326C104.567 67.7217 104.635 67.6204 104.717 67.5385C104.799 67.4565 104.901 67.389 105.007 67.3408C105.118 67.2926 105.234 67.2685 105.36 67.2685C105.485 67.2685 105.601 67.2926 105.717 67.3408C105.828 67.389 105.93 67.4565 106.012 67.5385C106.099 67.6204 106.162 67.7217 106.21 67.8326C106.258 67.9435 106.282 68.064 106.282 68.1942C106.282 68.3244 106.258 68.445 106.21 68.551C106.162 68.6619 106.094 68.7584 106.012 68.8403C105.93 68.9223 105.828 68.985 105.717 69.0332C105.606 69.0814 105.485 69.1055 105.36 69.1055C105.234 69.1055 105.118 69.0814 105.007 69.0332C104.896 68.985 104.799 68.9223 104.717 68.8403C104.63 68.7584 104.563 68.6619 104.514 68.551C104.466 68.4401 104.437 68.3196 104.437 68.1942Z" fill="#154470"/>
<path d="M111.872 61.82C111.872 60.5471 112.22 59.5394 112.92 58.7968C113.698 57.9772 114.761 57.5625 116.109 57.5625C117.456 57.5625 118.534 57.9723 119.307 58.7872C120.007 59.5297 120.355 60.5423 120.355 61.82C120.355 63.0206 119.988 63.9946 119.254 64.7419C118.452 65.5616 117.403 65.9763 116.099 65.9763C114.795 65.9763 113.775 65.5809 113.022 64.7853C113.002 64.8046 112.94 64.8673 112.828 64.9878C112.186 65.6484 111.287 65.9763 110.128 65.9763V64.525C110.698 64.525 111.118 64.3851 111.398 64.1007C111.712 63.7728 111.872 63.3051 111.872 62.6976V61.82ZM117.843 59.6696C117.437 59.2356 116.857 59.0186 116.109 59.0186C115.36 59.0186 114.799 59.2356 114.394 59.6696C113.925 60.1614 113.693 60.875 113.693 61.82C113.693 62.6831 113.93 63.3533 114.403 63.8403C114.843 64.2983 115.408 64.525 116.104 64.525C116.799 64.525 117.394 64.3032 117.828 63.8596C118.302 63.3774 118.539 62.6976 118.539 61.8248C118.539 60.8701 118.307 60.1517 117.843 59.6744V59.6696Z" fill="#154470"/>
<path d="M88.167 81.4829C88.1187 81.7722 88.0897 82.076 88.0897 82.3942C88.0897 83.4743 88.3893 84.3229 88.9883 84.9352C89.5632 85.5283 90.2975 85.8224 91.196 85.8224C92.0946 85.8224 92.8675 85.5331 93.4376 84.9545C94.0366 84.3422 94.3361 83.4887 94.3361 82.3942V77.5388H96.1574V82.3942C96.1574 83.8118 95.7274 84.9641 94.8723 85.8465C93.94 86.7964 92.7178 87.2737 91.2008 87.2737C89.8723 87.2737 88.7371 86.7916 87.8095 85.8224C86.9593 84.9449 86.5342 83.8021 86.5342 82.3942C86.5342 82.0133 86.5632 81.6469 86.6163 81.2949C86.6743 80.9477 86.7806 80.562 86.94 80.1473L88.4279 80.5282C88.2975 80.885 88.2153 81.1984 88.1719 81.4829H88.167ZM90.6646 76.2129C90.6646 76.0827 90.6888 75.9621 90.7419 75.8512C90.7902 75.7403 90.8627 75.6391 90.9448 75.5571C91.0269 75.4752 91.1284 75.4076 91.2347 75.3594C91.3409 75.3112 91.4617 75.2871 91.5873 75.2871C91.7129 75.2871 91.8289 75.3112 91.9448 75.3594C92.0607 75.4076 92.1574 75.4752 92.2395 75.5571C92.3216 75.6391 92.3893 75.7403 92.4376 75.8512C92.4859 75.9621 92.51 76.0875 92.51 76.2129C92.51 76.3382 92.4859 76.4636 92.4376 76.5697C92.3893 76.6806 92.3216 76.777 92.2395 76.859C92.1574 76.9409 92.0559 77.0036 91.9448 77.0518C91.8337 77.1 91.7129 77.1242 91.5873 77.1242C91.4617 77.1242 91.3458 77.1 91.2347 77.0518C91.1236 77.0036 91.0269 76.9409 90.9448 76.859C90.8627 76.777 90.7902 76.6806 90.7419 76.5697C90.6888 76.4588 90.6646 76.343 90.6646 76.2129Z" fill="#154470"/>
<path d="M99.4951 74.334V83.876H97.6787V74.334H99.4951Z" fill="#154470"/>
<path d="M105.326 84.4292C104.679 84.4051 104.176 84.2942 103.829 84.0917C103.717 84.6896 103.495 85.2971 103.162 85.9239C102.983 86.2662 102.737 86.623 102.428 86.9895C102.147 87.327 101.78 87.7031 101.326 88.1226L100.056 87.2257C100.5 86.8159 100.843 86.4639 101.089 86.1794C101.331 85.8853 101.519 85.6153 101.655 85.3598C101.964 84.7908 102.118 84.1447 102.118 83.4263C102.118 83.3106 102.114 83.1852 102.099 83.055V77.5391H103.916V81.3819C103.949 81.8737 104.104 82.2595 104.379 82.5487C104.66 82.8332 105.017 82.9779 105.452 82.9779H106.181V84.4292H105.317H105.326Z" fill="#154470"/>
<path d="M105.428 84.4292V82.9779H106.128C106.587 82.9779 106.949 82.838 107.23 82.5536C107.544 82.2257 107.703 81.758 107.703 81.1505V77.5391H109.529V81.3289C109.558 81.8496 109.713 82.2546 109.993 82.5439C110.273 82.8284 110.635 82.9731 111.065 82.9731H111.8V84.4244H111.065C110.032 84.4244 109.215 84.111 108.611 83.489C108.003 84.1158 107.172 84.4244 106.123 84.4244H105.423L105.428 84.4292ZM106.442 86.5989C106.442 86.4688 106.466 86.3482 106.519 86.2373C106.573 86.1264 106.64 86.0252 106.722 85.9432C106.809 85.8612 106.906 85.7937 107.012 85.7455C107.119 85.6973 107.239 85.6732 107.365 85.6732C107.49 85.6732 107.606 85.6973 107.722 85.7455C107.838 85.7937 107.935 85.8612 108.017 85.9432C108.099 86.03 108.167 86.1264 108.215 86.2373C108.263 86.3482 108.288 86.4688 108.288 86.5989C108.288 86.7291 108.263 86.8497 108.215 86.9557C108.167 87.0666 108.099 87.1631 108.017 87.245C107.935 87.327 107.833 87.3897 107.722 87.4379C107.611 87.4861 107.49 87.5102 107.365 87.5102C107.239 87.5102 107.123 87.4861 107.012 87.4379C106.901 87.3897 106.804 87.327 106.722 87.245C106.64 87.1631 106.573 87.0666 106.519 86.9557C106.466 86.8448 106.442 86.7243 106.442 86.5989ZM108.65 86.5989C108.65 86.4688 108.674 86.3482 108.727 86.2373C108.78 86.1264 108.848 86.0252 108.93 85.9432C109.012 85.8612 109.114 85.7937 109.225 85.7455C109.336 85.6973 109.457 85.6732 109.587 85.6732C109.718 85.6732 109.829 85.6973 109.94 85.7455C110.051 85.7937 110.147 85.8612 110.225 85.9432C110.307 86.03 110.37 86.1264 110.418 86.2373C110.466 86.3482 110.49 86.4688 110.49 86.5989C110.49 86.7291 110.466 86.8497 110.418 86.9557C110.37 87.0666 110.307 87.1631 110.225 87.245C110.143 87.327 110.046 87.3897 109.94 87.4379C109.829 87.4861 109.713 87.5102 109.587 87.5102C109.461 87.5102 109.336 87.4861 109.225 87.4379C109.114 87.3897 109.012 87.327 108.93 87.245C108.843 87.1631 108.776 87.0666 108.727 86.9557C108.679 86.8448 108.65 86.7243 108.65 86.5989Z" fill="#154470"/>
<path d="M112.099 77.7621C112.244 77.5307 112.413 77.3282 112.606 77.1449C112.988 76.7737 113.447 76.494 113.978 76.3011C114.505 76.1131 115.075 76.0215 115.693 76.0215C117.437 76.0215 118.659 76.6917 119.365 78.0321C119.771 78.8084 120.08 80.1777 120.297 82.1353C120.374 82.8152 120.442 83.307 120.49 83.6059C120.495 83.6397 120.5 83.6734 120.5 83.7072C120.5 83.8856 120.428 84.0447 120.278 84.1797C120.123 84.3195 119.93 84.4015 119.684 84.4256C119.626 84.4304 119.573 84.4353 119.524 84.4353H110.867V82.9839L118.568 82.9936C118.558 82.9213 118.529 82.6802 118.486 82.2655C118.307 80.6792 118.085 79.5799 117.824 78.9627C117.399 77.9742 116.688 77.4776 115.693 77.4776C115.331 77.4776 115.012 77.5307 114.727 77.6319C114.452 77.7283 114.215 77.873 114.017 78.061C113.906 78.1719 113.804 78.2973 113.722 78.4323C113.626 78.5721 113.529 78.7746 113.432 79.0398L111.664 78.6782C111.809 78.2973 111.954 77.9935 112.094 77.7669L112.099 77.7621ZM114.891 86.6532C114.891 86.523 114.915 86.4025 114.969 86.2916C115.022 86.1807 115.089 86.0794 115.172 85.9975C115.254 85.9155 115.355 85.848 115.461 85.7998C115.572 85.7516 115.688 85.7274 115.814 85.7274C115.94 85.7274 116.056 85.7516 116.172 85.7998C116.283 85.848 116.384 85.9155 116.466 85.9975C116.548 86.0794 116.616 86.1807 116.664 86.2916C116.713 86.4025 116.737 86.523 116.737 86.6532C116.737 86.7834 116.713 86.9039 116.664 87.0148C116.616 87.1257 116.548 87.2222 116.466 87.2993C116.384 87.3813 116.283 87.444 116.172 87.4922C116.06 87.5404 115.94 87.5645 115.814 87.5645C115.688 87.5645 115.572 87.5404 115.461 87.4922C115.35 87.444 115.254 87.3813 115.172 87.2993C115.089 87.2173 115.022 87.1209 114.969 87.0148C114.915 86.9088 114.891 86.7834 114.891 86.6532Z" fill="#154470"/>
<path d="M78.4372 102.887H77.9107C77.2923 102.887 76.7029 102.776 76.1425 102.549C76.1425 102.819 76.1136 103.07 76.0508 103.302C75.8189 104.189 75.1812 104.849 74.1281 105.278C73.3551 105.592 72.4227 105.756 71.3358 105.761C70.4469 105.761 69.6595 105.669 68.9831 105.491C67.8189 105.187 66.9203 104.676 66.2778 103.952C65.6401 103.253 65.3213 102.414 65.3213 101.426C65.3213 101.031 65.3454 100.669 65.3986 100.336C65.4421 99.9794 65.5387 99.6033 65.6788 99.2031L67.4469 99.5262C67.3261 99.8926 67.2488 100.216 67.2102 100.495C67.1667 100.789 67.1425 101.098 67.1425 101.426C67.1425 102.091 67.3503 102.655 67.7609 103.113C68.1764 103.572 68.7802 103.904 69.5628 104.116C70.0411 104.242 70.6015 104.304 71.244 104.304H71.331C72.1281 104.304 72.7754 104.198 73.2826 103.981C73.8237 103.769 74.1522 103.441 74.273 103.003C74.3068 102.863 74.3261 102.708 74.3261 102.545C74.3261 102.029 74.1232 101.638 73.7271 101.378C73.4711 101.219 73.0121 101.064 72.3406 100.905L72.0846 100.862L72.558 99.4683C73.0942 99.5455 73.5628 99.6612 73.9686 99.8058C74.3261 99.9167 74.6256 100.047 74.872 100.187C75.0025 100.254 75.2005 100.36 75.4662 100.5C76.5145 101.117 77.331 101.431 77.9107 101.431H78.4372V102.882V102.887ZM68.9107 107.588C68.9107 107.458 68.9348 107.337 68.988 107.226C69.0411 107.115 69.1087 107.014 69.1909 106.932C69.273 106.85 69.3744 106.783 69.4807 106.735C69.587 106.686 69.7078 106.662 69.8334 106.662C69.959 106.662 70.0749 106.686 70.1909 106.735C70.302 106.783 70.4034 106.85 70.4855 106.932C70.5677 107.014 70.6353 107.115 70.6836 107.226C70.7319 107.337 70.7561 107.458 70.7561 107.588C70.7561 107.718 70.7319 107.839 70.6836 107.95C70.6353 108.06 70.5677 108.157 70.4855 108.234C70.4034 108.316 70.302 108.379 70.1909 108.427C70.0797 108.475 69.959 108.499 69.8334 108.499C69.7078 108.499 69.5918 108.475 69.4807 108.427C69.3696 108.379 69.273 108.316 69.1909 108.234C69.1039 108.152 69.0363 108.056 68.988 107.95C68.9397 107.839 68.9107 107.718 68.9107 107.588ZM71.1184 107.588C71.1184 107.458 71.1425 107.337 71.1957 107.226C71.244 107.115 71.3165 107.014 71.3986 106.932C71.4807 106.85 71.5822 106.783 71.6933 106.735C71.8044 106.686 71.9252 106.662 72.0556 106.662C72.186 106.662 72.2971 106.686 72.4083 106.735C72.5194 106.783 72.616 106.85 72.6981 106.932C72.7802 107.019 72.843 107.115 72.8913 107.226C72.9397 107.337 72.9638 107.458 72.9638 107.588C72.9638 107.718 72.9397 107.839 72.8913 107.95C72.843 108.06 72.7802 108.157 72.6981 108.234C72.616 108.316 72.5194 108.379 72.4083 108.427C72.2971 108.475 72.1812 108.499 72.0556 108.499C71.93 108.499 71.8044 108.475 71.6933 108.427C71.5822 108.379 71.4807 108.316 71.3986 108.234C71.3165 108.152 71.244 108.056 71.1957 107.95C71.1425 107.839 71.1184 107.718 71.1184 107.588Z" fill="#154470"/>
<path d="M77.5097 102.886V101.435H78.2102C78.6691 101.435 79.0315 101.295 79.3116 101.01C79.6257 100.682 79.7851 100.215 79.7851 99.6072V95.991H81.6112V99.7808C81.6401 100.297 81.7947 100.702 82.0749 100.996C82.3551 101.285 82.7174 101.425 83.1474 101.425H83.8817V102.876H83.1474C82.1136 102.876 81.2972 102.563 80.6933 101.941C80.0846 102.568 79.2537 102.876 78.2054 102.876H77.5049L77.5097 102.886ZM79.674 94.0527C79.674 93.9225 79.6981 93.802 79.7513 93.6911C79.7996 93.5802 79.872 93.4789 79.9542 93.397C80.0363 93.315 80.1377 93.2475 80.244 93.1993C80.3551 93.1511 80.4711 93.127 80.5967 93.127C80.7223 93.127 80.8382 93.1511 80.9542 93.1993C81.0653 93.2475 81.1667 93.315 81.2488 93.397C81.331 93.4789 81.3986 93.5802 81.4469 93.6911C81.4952 93.802 81.5194 93.9273 81.5194 94.0527C81.5194 94.1781 81.4952 94.3034 81.4469 94.4095C81.3986 94.5204 81.331 94.6168 81.2488 94.6988C81.1619 94.7808 81.0653 94.8435 80.9542 94.8917C80.843 94.9399 80.7223 94.964 80.5967 94.964C80.4711 94.964 80.3551 94.9399 80.244 94.8917C80.1329 94.8435 80.0363 94.7808 79.9542 94.6988C79.872 94.6168 79.7996 94.5204 79.7513 94.4095C79.6981 94.2986 79.674 94.1781 79.674 94.0527Z" fill="#154470"/>
<path d="M82.954 102.886V101.435H94.5772V99.9164C94.5772 99.4101 94.3888 99.0292 94.0169 98.7688C93.6014 98.4795 92.9782 98.3397 92.1569 98.3397H84.4323L84.4227 97.6213V96.8016C84.4661 95.3117 85.3067 94.2509 86.9347 93.6193C87.8429 93.2625 89.3405 92.9973 91.4275 92.8189C92.1376 92.7562 92.6739 92.6935 93.0362 92.6309L93.442 94.0388C93.012 94.1111 92.4082 94.1834 91.6304 94.2509C89.9685 94.4052 88.7801 94.5981 88.07 94.844C86.8816 95.2538 86.2729 95.9144 86.2439 96.8209V96.8884H92.1569C93.4275 96.8884 94.442 97.1536 95.2101 97.6888C95.9975 98.2336 96.3937 98.9761 96.3937 99.9164L96.384 101.435H97.7367V102.886H82.9492H82.954Z" fill="#154470"/>
<path d="M113.293 101.436V102.887H112.558C111.524 102.887 110.708 102.574 110.104 101.952C109.495 102.578 108.665 102.887 107.616 102.887C106.568 102.887 105.766 102.574 105.162 101.952C104.549 102.578 103.718 102.887 102.665 102.887C101.611 102.887 100.814 102.574 100.21 101.952C99.5969 102.578 98.7611 102.887 97.7128 102.887H96.9785V101.436H97.7128C98.1717 101.436 98.5389 101.296 98.8191 101.011C99.1331 100.684 99.2925 100.216 99.2925 99.6083V95.9921H101.114V99.6083C101.114 100.211 101.273 100.674 101.587 101.002C101.867 101.291 102.23 101.431 102.66 101.431C103.119 101.431 103.486 101.291 103.761 101.007C104.085 100.679 104.244 100.211 104.244 99.6035V95.9872H106.061V99.6035C106.061 100.206 106.22 100.669 106.534 100.997C106.814 101.286 107.177 101.426 107.607 101.426C108.065 101.426 108.428 101.286 108.708 101.002C109.022 100.674 109.181 100.206 109.181 99.5987V95.9824H111.007V99.7722C111.036 100.288 111.191 100.693 111.471 100.987C111.751 101.277 112.109 101.416 112.544 101.416H113.278L113.293 101.436Z" fill="#154470"/>
<path d="M117.017 92.7852V100.071C117.017 100.813 116.747 101.454 116.206 101.994C115.611 102.588 114.887 102.882 114.022 102.882H112.534V101.43H114.022C114.302 101.43 114.558 101.319 114.785 101.093C115.061 100.823 115.201 100.481 115.201 100.071V92.7852H117.022H117.017Z" fill="#154470"/>
<path d="M120.36 92.7852V102.327H118.544V92.7852H120.36Z" fill="#154470"/>
</g>
<defs>
<clipPath id="clip0_1136_8445">
<rect width="120" height="108" fill="white" transform="translate(0.5 0.5)"/>
</clipPath>
</defs>
</svg>
