<svg width="191" height="51" viewBox="0 0 191 51" fill="none" xmlns="http://www.w3.org/2000/svg">
<g clip-path="url(#clip0_1136_7641)">
<path d="M84.7075 20.7355H78.0408L76.9905 23.7459H72.7051L78.8271 7.21094H83.91L90.032 23.7459H85.7466L84.7075 20.7355ZM79.1023 17.6689H83.6292L81.3713 11.0919L79.1023 17.6689Z" fill="#1D1D1B"/>
<path d="M92.2275 7.2168H96.4905V20.5279H103.977V23.7518H92.2275V7.2168Z" fill="#1D1D1B"/>
<path d="M106.68 7.21656H111.179C113.689 7.21656 115.559 7.39628 116.789 7.75574C118.019 8.11519 119.07 8.72178 119.951 9.57549C120.727 10.3225 121.305 11.1818 121.681 12.1535C122.058 13.1251 122.249 14.2316 122.249 15.4672C122.249 16.7028 122.058 17.8261 121.681 18.8034C121.305 19.7807 120.727 20.6456 119.951 21.387C119.064 22.2407 118.003 22.8529 116.761 23.2067C115.52 23.5662 113.661 23.7459 111.179 23.7459H106.68V7.21094V7.21656ZM110.943 10.4404V20.5277H112.47C114.211 20.5277 115.543 20.0952 116.464 19.2302C117.385 18.3653 117.84 17.1128 117.84 15.4672C117.84 13.8216 117.379 12.5803 116.469 11.7266C115.554 10.8729 114.223 10.4404 112.47 10.4404H110.943Z" fill="#1D1D1B"/>
<path d="M125.506 7.2168H137.014V10.4407H129.769V13.5185H136.582V16.7424H129.769V20.5279H137.256V23.7518H125.506V7.2168Z" fill="#1D1D1B"/>
<path d="M140.996 7.2168H152.504V10.4407H145.259V13.5185H152.072V16.7424H145.259V20.5279H152.746V23.7518H140.996V7.2168Z" fill="#1D1D1B"/>
<path d="M160.755 17.4891V23.7459H156.492V7.21094H163.002C165.181 7.21094 166.776 7.57601 167.793 8.30616C168.809 9.0363 169.315 10.1933 169.315 11.7715C169.315 12.8668 169.051 13.7598 168.523 14.4618C167.995 15.1639 167.197 15.6806 166.136 16.012C166.72 16.1468 167.242 16.4445 167.703 16.9163C168.163 17.3824 168.629 18.0957 169.101 19.0505L171.415 23.7459H166.877L164.861 19.6346C164.456 18.809 164.041 18.2417 163.625 17.9385C163.21 17.6352 162.653 17.4835 161.957 17.4835H160.75L160.755 17.4891ZM162.547 14.5461C163.44 14.5461 164.08 14.3776 164.468 14.0462C164.855 13.7148 165.052 13.17 165.052 12.4062C165.052 11.6424 164.855 11.1144 164.468 10.7886C164.08 10.4629 163.44 10.3 162.547 10.3H160.755V14.5405H162.547V14.5461Z" fill="#1D1D1B"/>
<path d="M183.985 20.7355H177.318L176.268 23.7459H171.982L178.104 7.21094H183.187L189.309 23.7459H185.024L183.985 20.7355ZM178.38 17.6689H182.907L180.649 11.0919L178.38 17.6689Z" fill="#1D1D1B"/>
<path d="M36.0963 0.740234H17.3652V10.7713H38.4552C48.3851 10.7713 55.5967 17.2359 55.5967 25.6606C55.5967 34.0854 48.3908 40.9263 38.4552 40.9263H17.3652V50.6204H36.0963C53.5243 50.6204 65.8637 40.2355 65.8637 25.6438C65.8637 11.0521 53.5186 0.740234 36.0963 0.740234Z" fill="#C0171A"/>
<path d="M36.5343 14.4334C33.3498 15.5062 30.7549 17.8539 29.3677 20.8755C29.2947 21.0216 29.2329 21.1732 29.1767 21.3136C28.587 22.7346 28.2668 24.296 28.2668 25.936C28.2668 27.576 28.587 29.1318 29.1767 30.5584C29.2329 30.7044 29.2947 30.8448 29.3677 30.9909C30.6875 33.889 33.1195 36.1693 36.1075 37.2982C36.2423 37.3543 36.2029 37.5734 36.0513 37.5734H17.4775V14.1582H36.4838C36.6354 14.1582 36.6747 14.3772 36.5343 14.4334Z" fill="#C0171A"/>
<path d="M45.3919 26.0086C45.3919 28.536 43.3307 30.5973 40.7751 30.5973H5.25641C2.70652 30.5973 0.639648 28.536 0.639648 26.0086C0.639648 23.4812 2.7009 21.4199 5.25641 21.4199H40.7751C43.325 21.4199 45.3919 23.4699 45.3919 26.0086Z" fill="#1D1D1B"/>
<path d="M41.8251 14.4512C37.2308 14.4512 33.2543 17.0965 31.3672 20.9438H41.9094C44.712 20.9438 46.9979 23.2129 46.9979 26.0099C46.9979 28.8069 44.7176 31.0704 41.9094 31.0704H31.3672C33.2543 34.9177 37.2252 37.5743 41.8251 37.5743C48.2448 37.5743 53.4513 32.3959 53.4513 26.0155C53.4513 19.6352 48.2448 14.4568 41.8251 14.4568V14.4512Z" fill="#1D1D1B"/>
<path d="M72.963 37.084H72.5361V43.7957H72.963H73.4179H76.5688V42.9027H73.4179V40.9144H76.0914V40.0158H73.4179V37.9826H76.5688V37.084H73.4179H72.963Z" fill="#1D1D1B"/>
<path d="M82.3259 42.8297C82.281 42.7679 82.2529 42.678 82.2529 42.5601V37.084H81.3711V42.5488C81.3711 42.9532 81.461 43.2621 81.6463 43.4868C81.8317 43.7058 82.09 43.8182 82.4214 43.8182H82.9381V42.9251H82.5225C82.4382 42.9251 82.3708 42.8914 82.3203 42.8297H82.3259Z" fill="#1D1D1B"/>
<path d="M90.2897 39.2352C90.0257 39.033 89.7056 38.9375 89.3293 38.9375C88.9305 38.9375 88.5935 39.0274 88.3071 39.2015C88.0262 39.3756 87.8072 39.6339 87.6612 39.9653C87.5152 40.3023 87.4365 40.7067 87.4365 41.1785V41.7177C87.4365 42.1726 87.5152 42.5601 87.6668 42.8803C87.8184 43.2004 88.0431 43.4476 88.3408 43.6104C88.6328 43.7789 88.9867 43.8576 89.4023 43.8576C89.6831 43.8576 89.9583 43.7958 90.2335 43.6722C90.5087 43.5487 90.7615 43.3689 90.9805 43.1443L90.402 42.5264C90.2616 42.6669 90.1044 42.7736 89.9302 42.8522C89.7561 42.9308 89.5764 42.9702 89.3967 42.9702C89.0372 42.9702 88.7564 42.8634 88.5654 42.65C88.3745 42.4478 88.279 42.1558 88.2734 41.7795H91.0985V41.4649C91.0985 40.937 91.0311 40.482 90.8907 40.1057C90.7503 39.7294 90.5481 39.4374 90.2841 39.2408L90.2897 39.2352ZM88.2846 41.0212C88.3015 40.6449 88.3857 40.3472 88.5542 40.1338C88.7395 39.8979 88.9979 39.7856 89.3293 39.7856C89.6045 39.7856 89.8235 39.8923 89.9864 40.1114C90.1493 40.3304 90.2448 40.6337 90.2672 41.0212H88.2846Z" fill="#1D1D1B"/>
<path d="M96.9849 40.1394C97.1702 39.9372 97.4342 39.8361 97.7768 39.8361C97.9622 39.8361 98.1363 39.8755 98.3104 39.9597C98.4845 40.044 98.6305 40.1619 98.7541 40.3135L99.3887 39.7013C99.282 39.5385 99.1416 39.3981 98.9787 39.2857C98.8159 39.1734 98.6305 39.0835 98.4227 39.0274C98.2149 38.9656 97.9958 38.9375 97.7656 38.9375C97.3556 38.9375 97.0073 39.0161 96.7153 39.179C96.4232 39.3419 96.2042 39.5778 96.0525 39.8811C95.9009 40.1844 95.8223 40.5607 95.8223 40.9931V41.7851C95.8223 42.2232 95.9009 42.5995 96.0525 42.914C96.2042 43.2285 96.4288 43.4588 96.7153 43.6273C97.0017 43.7958 97.3556 43.8744 97.7656 43.8744C97.9958 43.8744 98.2149 43.8463 98.4227 43.7845C98.6305 43.7284 98.8159 43.6385 98.9787 43.5262C99.1416 43.4138 99.282 43.2791 99.3944 43.1162L98.7597 42.459C98.6361 42.6219 98.4901 42.7455 98.3216 42.8354C98.1531 42.9252 97.9734 42.9702 97.788 42.9702C97.4454 42.9702 97.1815 42.8691 96.9961 42.6612C96.8108 42.4534 96.7153 42.1614 96.7153 41.7851V40.9931C96.7153 40.6225 96.8108 40.336 96.9961 40.1338L96.9849 40.1394Z" fill="#1D1D1B"/>
<path d="M104.994 37.6113H104.112V39.0042H103.651V39.8523H104.112V42.5482C104.112 42.9695 104.196 43.284 104.365 43.4974C104.533 43.7109 104.797 43.8176 105.162 43.8176H105.673V42.9245H105.252C105.168 42.9245 105.106 42.8908 105.061 42.8291C105.016 42.7673 104.994 42.6774 104.994 42.5595V39.8523H105.673V39.0042H104.994V37.6113Z" fill="#1D1D1B"/>
<path d="M112.571 38.9373C112.307 38.9373 112.065 39.0159 111.846 39.1731C111.672 39.2967 111.526 39.4652 111.402 39.673V39.0047H110.521V43.7955H111.402V40.7626C111.402 40.4706 111.481 40.2403 111.633 40.0774C111.784 39.9145 112.003 39.8303 112.284 39.8303C112.441 39.8303 112.576 39.8584 112.694 39.9089C112.812 39.9595 112.908 40.0381 112.986 40.1392L113.559 39.3079C113.435 39.1844 113.289 39.0889 113.127 39.0271C112.964 38.9653 112.778 38.9316 112.571 38.9316V38.9373Z" fill="#1D1D1B"/>
<path d="M120.557 39.179C120.282 39.0161 119.951 38.9375 119.558 38.9375C119.164 38.9375 118.839 39.0161 118.558 39.179C118.283 39.3419 118.069 39.5778 117.923 39.8867C117.777 40.1956 117.704 40.5663 117.704 40.9988V41.7795C117.704 42.2175 117.777 42.5938 117.923 42.9084C118.069 43.2229 118.277 43.4588 118.558 43.6217C118.833 43.7845 119.164 43.8688 119.558 43.8688C119.951 43.8688 120.276 43.7902 120.557 43.6217C120.833 43.4588 121.046 43.2229 121.192 42.914C121.338 42.6051 121.411 42.2344 121.411 41.7963V41.0044C121.411 40.5719 121.338 40.2012 121.192 39.8923C121.046 39.5834 120.838 39.3475 120.557 39.1846V39.179ZM120.529 41.7907C120.529 42.1614 120.445 42.4534 120.276 42.6556C120.108 42.8634 119.872 42.9645 119.563 42.9645C119.254 42.9645 119.018 42.8634 118.85 42.6556C118.681 42.4478 118.597 42.1614 118.597 41.7907V40.9988C118.597 40.6281 118.681 40.3416 118.85 40.1338C119.018 39.9316 119.254 39.8305 119.563 39.8305C119.872 39.8305 120.108 39.9316 120.276 40.1338C120.445 40.336 120.529 40.6224 120.529 40.9988V41.7907Z" fill="#1D1D1B"/>
<path d="M128.375 38.9375C128.106 38.9375 127.859 39.0161 127.634 39.1734C127.454 39.297 127.308 39.4655 127.185 39.6789V39.0105H126.303V43.8014H127.185V40.7685C127.185 40.4708 127.263 40.2461 127.42 40.0833C127.578 39.9204 127.802 39.8361 128.089 39.8361C128.375 39.8361 128.617 39.926 128.78 40.1114C128.942 40.2967 129.027 40.5551 129.027 40.8977V43.8014H129.909V40.892C129.909 40.2686 129.774 39.7912 129.51 39.4486C129.246 39.106 128.869 38.9375 128.381 38.9375H128.375Z" fill="#1D1D1B"/>
<path d="M135.761 37.084H134.879V38.0276H135.761V37.084Z" fill="#1D1D1B"/>
<path d="M135.761 39.0059H134.879V43.7967H135.761V39.0059Z" fill="#1D1D1B"/>
<path d="M141.771 40.1394C141.956 39.9372 142.22 39.8361 142.563 39.8361C142.748 39.8361 142.922 39.8755 143.097 39.9597C143.271 40.044 143.417 40.1619 143.54 40.3135L144.175 39.7013C144.068 39.5385 143.928 39.3981 143.765 39.2857C143.602 39.1734 143.417 39.0835 143.209 39.0274C143.001 38.9656 142.782 38.9375 142.552 38.9375C142.142 38.9375 141.793 39.0161 141.501 39.179C141.209 39.3419 140.99 39.5778 140.839 39.8811C140.687 40.1844 140.608 40.5607 140.608 40.9931V41.7851C140.608 42.2232 140.687 42.5995 140.839 42.914C140.99 43.2285 141.215 43.4588 141.501 43.6273C141.788 43.7958 142.142 43.8744 142.552 43.8744C142.782 43.8744 143.001 43.8463 143.209 43.7845C143.417 43.7284 143.602 43.6385 143.765 43.5262C143.928 43.4138 144.068 43.2791 144.181 43.1162L143.546 42.459C143.422 42.6219 143.276 42.7455 143.108 42.8354C142.939 42.9252 142.76 42.9702 142.574 42.9702C142.232 42.9702 141.968 42.8691 141.782 42.6612C141.597 42.4534 141.501 42.1614 141.501 41.7851V40.9931C141.501 40.6225 141.597 40.336 141.782 40.1338L141.771 40.1394Z" fill="#1D1D1B"/>
<path d="M155.745 42.8297C155.7 42.7679 155.672 42.678 155.672 42.5601V37.084H154.79V42.5488C154.79 42.9532 154.88 43.2621 155.065 43.4868C155.251 43.7058 155.509 43.8182 155.84 43.8182H156.357V42.9251H155.941C155.857 42.9251 155.79 42.8914 155.739 42.8297H155.745Z" fill="#1D1D1B"/>
<path d="M163.709 39.179C163.433 39.0161 163.102 38.9375 162.709 38.9375C162.316 38.9375 161.99 39.0161 161.709 39.179C161.434 39.3419 161.221 39.5778 161.075 39.8867C160.928 40.1956 160.855 40.5663 160.855 40.9988V41.7795C160.855 42.2175 160.928 42.5938 161.075 42.9084C161.221 43.2229 161.428 43.4588 161.709 43.6217C161.984 43.7845 162.316 43.8688 162.709 43.8688C163.102 43.8688 163.428 43.7902 163.709 43.6217C163.984 43.4588 164.197 43.2229 164.343 42.914C164.489 42.6051 164.562 42.2344 164.562 41.7963V41.0044C164.562 40.5719 164.489 40.2012 164.343 39.8923C164.197 39.5834 163.989 39.3475 163.709 39.1846V39.179ZM163.681 41.7907C163.681 42.1614 163.596 42.4534 163.428 42.6556C163.259 42.8634 163.023 42.9645 162.715 42.9645C162.406 42.9645 162.17 42.8634 162.001 42.6556C161.833 42.4478 161.748 42.1614 161.748 41.7907V40.9988C161.748 40.6281 161.833 40.3416 162.001 40.1338C162.17 39.9316 162.406 39.8305 162.715 39.8305C163.023 39.8305 163.259 39.9316 163.428 40.1338C163.596 40.336 163.681 40.6224 163.681 40.9988V41.7907Z" fill="#1D1D1B"/>
<path d="M170.482 40.1394C170.667 39.9372 170.931 39.8361 171.274 39.8361C171.459 39.8361 171.633 39.8755 171.807 39.9597C171.982 40.044 172.128 40.1619 172.251 40.3135L172.886 39.7013C172.779 39.5385 172.639 39.3981 172.476 39.2857C172.313 39.1734 172.128 39.0835 171.92 39.0274C171.712 38.9656 171.493 38.9375 171.263 38.9375C170.853 38.9375 170.504 39.0161 170.212 39.179C169.92 39.3419 169.701 39.5778 169.55 39.8811C169.398 40.1844 169.319 40.5607 169.319 40.9931V41.7851C169.319 42.2232 169.398 42.5995 169.55 42.914C169.701 43.2285 169.926 43.4588 170.212 43.6273C170.499 43.7958 170.853 43.8744 171.263 43.8744C171.493 43.8744 171.712 43.8463 171.92 43.7845C172.128 43.7284 172.313 43.6385 172.476 43.5262C172.639 43.4138 172.779 43.2791 172.891 43.1162L172.257 42.459C172.133 42.6219 171.987 42.7455 171.819 42.8354C171.65 42.9252 171.47 42.9702 171.285 42.9702C170.943 42.9702 170.679 42.8691 170.493 42.6612C170.308 42.4534 170.212 42.1614 170.212 41.7851V40.9931C170.212 40.6225 170.308 40.336 170.493 40.1338L170.482 40.1394Z" fill="#1D1D1B"/>
<path d="M181.215 39.0048H180.176L178.373 41.3301V37.084H177.491V43.7957H178.373V42.4253L179.165 41.4761L180.479 43.7957H181.434L179.715 40.8133L181.215 39.0048Z" fill="#1D1D1B"/>
<path d="M189.045 41.4598C188.893 41.2576 188.708 41.1284 188.489 41.0554C188.27 40.988 188 40.9431 187.686 40.9206C187.674 40.9206 187.669 40.9206 187.657 40.9206H187.629C187.629 40.9206 187.59 40.9206 187.573 40.9206C187.556 40.9206 187.534 40.9206 187.517 40.9206C187.276 40.9038 187.096 40.8869 186.967 40.8644C186.837 40.842 186.731 40.7971 186.647 40.7353C186.562 40.6735 186.517 40.5724 186.517 40.4432C186.517 40.2242 186.59 40.0613 186.742 39.949C186.894 39.8422 187.118 39.7861 187.416 39.7861C187.624 39.7861 187.837 39.8254 188.051 39.904C188.27 39.9827 188.489 40.095 188.713 40.2523L189.247 39.567C189.067 39.4266 188.882 39.3143 188.691 39.2244C188.5 39.1346 188.298 39.0672 188.084 39.0166C187.871 38.9717 187.652 38.9492 187.416 38.9492C187.028 38.9492 186.708 39.0054 186.45 39.1177C186.192 39.23 186.001 39.3985 185.871 39.6232C185.742 39.8479 185.675 40.1287 185.675 40.4657C185.675 40.8027 185.742 41.0666 185.877 41.2464C186.012 41.4261 186.18 41.5497 186.383 41.6171C186.585 41.6845 186.832 41.7294 187.124 41.7519C187.135 41.7519 187.146 41.7519 187.158 41.7519C187.169 41.7519 187.18 41.7519 187.191 41.7519C187.214 41.7519 187.236 41.7519 187.264 41.7575C187.292 41.7631 187.315 41.7575 187.337 41.7575C187.596 41.7799 187.792 41.8024 187.933 41.8305C188.073 41.8586 188.191 41.9091 188.287 41.9821C188.382 42.0608 188.427 42.1731 188.427 42.3304C188.427 42.5606 188.343 42.7347 188.163 42.8471C187.989 42.965 187.725 43.0212 187.377 43.0212C187.141 43.0212 186.905 42.9706 186.669 42.8752C186.427 42.7741 186.192 42.628 185.95 42.4314L185.428 43.1167C185.596 43.2852 185.782 43.42 185.984 43.5323C186.186 43.6446 186.399 43.7289 186.635 43.7794C186.866 43.8356 187.118 43.8637 187.382 43.8637C187.804 43.8637 188.152 43.8075 188.433 43.6952C188.708 43.5828 188.921 43.4087 189.056 43.1841C189.196 42.9594 189.264 42.673 189.264 42.3304C189.264 41.954 189.191 41.662 189.039 41.4654L189.045 41.4598Z" fill="#1D1D1B"/>
<path d="M72.4355 30.5234H98.3332H190.708" fill="#C0171A"/>
<path d="M72.4355 30.5234H98.3332H190.708" stroke="#1D1D1B" stroke-width="0.952" stroke-miterlimit="10"/>
</g>
<defs>
<clipPath id="clip0_1136_7641">
<rect width="190.068" height="49.8801" fill="white" transform="translate(0.639648 0.740234)"/>
</clipPath>
</defs>
</svg>
