<svg width="123" height="108" viewBox="0 0 123 108" fill="none" xmlns="http://www.w3.org/2000/svg">
<g clip-path="url(#clip0_1136_8406)">
<path d="M85.0471 27.1346C78.0995 22.7032 67.3159 27.4491 61.0647 37.5026C55.1 47.0619 56.2064 56.4527 60.0144 60.2607H55.2684C46.7145 36.7332 75.7238 19.3501 83.3678 23.613C87.2095 20.889 78.7959 15.3399 70.6969 21.7989C78.4814 11.8521 79.7002 0.888672 79.7002 0.888672H57.3241C57.9532 1.2032 58.5485 1.58512 59.1046 2.04006C63.7494 5.84243 64.3054 14.1886 60.2896 21.3103C55.9593 28.988 47.6862 32.8297 41.9293 29.0947C35.8578 25.1856 35.577 15.0254 41.1598 7.24655C43.2211 4.38214 45.7316 2.3265 48.3152 1.17512L45.2767 1.48964C41.8563 3.37679 38.6099 6.3423 35.9927 10.2177C29.3259 20.0634 29.4663 31.8918 36.4139 36.3288C43.3278 40.7602 54.1115 36.0143 60.3963 25.9944C66.4677 16.2554 65.1759 6.69051 61.2332 3.02856H65.0355C65.0355 3.02856 73.5895 13.8516 60.1492 30.1843C60.1492 30.1843 42.9065 48.8255 41.2328 62.4006H63.3618C58.717 58.5982 57.1163 49.2748 61.1265 42.1924C65.4905 34.481 73.7299 30.673 79.5205 34.4079C85.592 38.317 85.839 48.4773 80.2562 56.2561C78.195 59.1205 75.7182 61.1425 73.1346 62.3276L76.173 62.013C79.5598 60.1259 82.8398 57.1604 85.4571 53.285C92.0902 43.4056 91.9835 31.6109 85.0359 27.1402L85.0471 27.1346ZM72.4437 2.84322C74.3309 2.84322 75.8304 4.37652 75.8304 6.22997C75.8304 8.08341 74.3309 9.65041 72.4437 9.65041C70.5566 9.65041 69.057 8.11711 69.057 6.22997C69.057 4.34282 70.5566 2.84322 72.4437 2.84322Z" fill="#CFB98D"/>
<path d="M51.8144 2.84375C53.7016 2.84375 55.2349 4.37705 55.2349 6.2305C55.2349 8.08394 53.7016 9.65094 51.8144 9.65094C49.9273 9.65094 48.4277 8.11764 48.4277 6.2305C48.4277 4.34335 49.961 2.84375 51.8144 2.84375Z" fill="#CFB98D"/>
<path d="M17.2958 90.3728L15.4648 92.2038C15.785 92.5296 16.0827 92.8384 16.3579 93.1193C16.6387 93.4001 16.9476 93.709 17.2902 94.046C17.6103 93.7371 17.9136 93.4338 18.2001 93.1417C18.4865 92.8497 18.8011 92.5352 19.1324 92.1982C18.8291 91.8949 18.5315 91.6028 18.2394 91.3108C17.9417 91.0187 17.6272 90.7042 17.2902 90.3672L17.2958 90.3728Z" fill="#CFB98D"/>
<path d="M27.0008 73.1401L28.6745 74.8138L30.5055 72.9716C30.1966 72.6515 29.8989 72.3538 29.6181 72.0786C29.3372 71.7977 29.0227 71.4945 28.6745 71.1575L27.0176 72.7863L25.3607 71.1406L23.5186 72.9604L25.3607 74.8026L27.0064 73.1457L27.0008 73.1401Z" fill="#CFB98D"/>
<path d="M36.4871 75.3823L38.172 77.056L40.0143 75.2138C39.6885 74.8937 39.3852 74.596 39.11 74.3208C38.8348 74.0399 38.5203 73.731 38.1664 73.3828L36.4927 75.0284L34.8358 73.3828L33.0049 75.2026L34.8358 77.0448L36.4815 75.3879L36.4871 75.3823Z" fill="#CFB98D"/>
<path d="M101.616 90.3728L99.7852 92.2038C100.105 92.5296 100.403 92.8384 100.678 93.1193C100.959 93.4001 101.268 93.709 101.611 94.046C101.931 93.7371 102.234 93.4338 102.52 93.1417C102.807 92.8497 103.121 92.5352 103.453 92.1982C103.149 91.8949 102.852 91.6028 102.56 91.3108C102.262 91.0187 101.948 90.7042 101.611 90.3672L101.616 90.3728Z" fill="#CFB98D"/>
<path d="M115.983 70.3268C116.011 70.2538 116.04 70.1471 116.079 70.0011C116.113 69.8551 116.141 69.6922 116.163 69.5181C116.186 69.344 116.202 69.1586 116.208 68.9676C116.219 68.7767 116.208 68.6026 116.174 68.4509C116.141 68.2937 116.09 68.1701 116.006 68.0634C115.927 67.9623 115.815 67.9061 115.674 67.8949C115.427 67.8893 115.18 67.9454 114.933 68.0746C114.686 68.2038 114.467 68.3723 114.276 68.5857C114.085 68.7992 113.933 69.0351 113.827 69.2934C113.714 69.5518 113.675 69.8101 113.709 70.0573C113.737 70.3044 113.855 70.529 114.046 70.7312C114.242 70.9334 114.546 71.0851 114.961 71.1806C114.714 71.4726 114.467 71.7141 114.22 71.9051C113.973 72.096 113.697 72.2702 113.389 72.4274C113.085 72.5847 112.731 72.7476 112.338 72.9048C111.945 73.0621 111.479 73.253 110.94 73.4777C110.923 73.4833 110.923 73.4945 110.945 73.4945C110.968 73.4945 111.024 73.5058 111.114 73.517C111.204 73.5283 111.327 73.5339 111.49 73.5451C111.653 73.5563 111.861 73.5676 112.119 73.5844C112.501 73.6013 112.877 73.5339 113.254 73.3878C113.63 73.2418 113.978 73.0509 114.293 72.8262C114.613 72.6015 114.888 72.3544 115.124 72.096C115.36 71.8377 115.523 71.6018 115.624 71.3996L116.315 71.5569L116.567 70.4953L115.983 70.3212V70.3268ZM115.416 70.1527C115.158 70.0573 114.933 69.9562 114.742 69.8494C114.546 69.7427 114.461 69.5799 114.478 69.3608C114.489 69.2372 114.534 69.1305 114.624 69.0351C114.714 68.9452 114.832 68.9059 114.984 68.9227C115.029 68.9227 115.079 68.934 115.141 68.9508C115.203 68.9677 115.259 69.007 115.298 69.0575V69.0294C115.36 69.0744 115.399 69.153 115.416 69.2766C115.433 69.3945 115.444 69.5237 115.444 69.6529C115.444 69.8101 115.433 69.9786 115.416 70.1584V70.1527Z" fill="#CFB98D"/>
<path d="M87.4734 81.7959L87.4454 74.0957C87.4454 70.4955 84.4967 67.5469 80.8965 67.5469C77.7569 67.5469 75.1171 69.7822 74.488 72.7421L74.4319 73.1802L77.3862 72.1917C78.0826 70.9729 79.3969 70.1473 80.8965 70.1473C82.0086 70.1473 83.0196 70.6023 83.7497 71.3324C84.4799 72.0626 84.9348 73.0735 84.9348 74.1856V81.0826L87.4734 81.7959ZM120.027 78.8585V83.7954C120.027 84.138 119.965 84.4469 119.841 84.7165C119.718 84.9861 119.555 85.2164 119.358 85.4017C119.162 85.5871 118.931 85.7275 118.684 85.8286C118.432 85.9241 118.173 85.9802 117.909 85.9858C117.645 85.9802 117.387 85.9241 117.134 85.8286C116.881 85.7331 116.657 85.5927 116.46 85.4017C116.264 85.2108 116.101 84.9861 115.983 84.7165C115.865 84.4469 115.803 84.138 115.803 83.7954V78.8585H113.259V83.7954C113.259 84.138 113.197 84.4469 113.073 84.7221C112.95 84.9973 112.787 85.2276 112.59 85.413C112.394 85.5983 112.164 85.7387 111.905 85.8398C111.647 85.9409 111.389 85.9858 111.125 85.9858C110.861 85.9858 110.597 85.9353 110.344 85.8398C110.085 85.7443 109.861 85.6039 109.664 85.413C109.468 85.2276 109.305 84.9973 109.181 84.7221C109.058 84.4469 108.996 84.138 108.996 83.7954V78.8585H106.463V83.7954C106.463 84.1043 106.412 84.3852 106.317 84.6379C106.221 84.8906 106.087 85.1097 105.918 85.2894C105.75 85.4691 105.553 85.6208 105.334 85.7331C105.126 85.8398 104.907 85.9128 104.682 85.9522C104.458 85.9128 104.239 85.8398 104.031 85.7331C103.812 85.6152 103.615 85.4691 103.452 85.2894C103.289 85.1097 103.155 84.8906 103.054 84.6379C102.953 84.3852 102.902 84.1043 102.902 83.7954V78.8585H100.369V83.7954C100.369 84.1043 100.318 84.3852 100.223 84.6379C100.127 84.8906 99.9926 85.1097 99.8241 85.2894C99.6556 85.4691 99.459 85.6208 99.24 85.7331C99.021 85.851 98.7907 85.9241 98.5492 85.9578V85.9858H96.7182V72.7478H94.1739V87.8955C94.1739 88.4178 94.0784 88.8727 93.8875 89.2603C93.6965 89.6478 93.4438 89.9736 93.1292 90.2319C92.8147 90.4959 92.4552 90.6869 92.0565 90.8104C91.6521 90.934 91.2421 90.9958 90.8152 90.9958C90.3884 90.9958 89.9952 90.9284 89.5964 90.7992C89.1977 90.6644 88.8438 90.4734 88.5293 90.2151C88.2148 89.9567 87.962 89.6366 87.7711 89.2547C87.5801 88.8727 87.4846 88.4178 87.4846 87.8955V83.919L84.9404 83.2057V87.9516C84.9404 88.7829 85.1088 89.5411 85.4458 90.2207C85.7828 90.9003 86.2265 91.4844 86.7769 91.973C87.3274 92.4617 87.9565 92.838 88.6585 93.1019C89.3606 93.3659 90.0795 93.5007 90.8152 93.5007C91.4892 93.5007 92.152 93.3828 92.8035 93.1525C93.455 92.9166 94.0503 92.5852 94.5895 92.1528C95.1231 91.7203 95.578 91.198 95.9487 90.5858C96.3194 89.9736 96.5665 89.294 96.6901 88.5413H98.611V88.5189C99.1614 88.4683 99.6837 88.3223 100.184 88.0752C100.7 87.8168 101.183 87.4854 101.638 87.0642C102.088 87.4911 102.576 87.8281 103.099 88.0808C103.593 88.3223 104.109 88.4683 104.637 88.5189C104.637 88.5189 104.665 88.5189 104.677 88.5189C104.688 88.5189 104.705 88.5189 104.716 88.5189C105.255 88.4571 105.772 88.3111 106.266 88.0696C106.789 87.8112 107.277 87.4798 107.727 87.0586C108.221 87.5248 108.766 87.8898 109.355 88.1426C109.945 88.3953 110.535 88.5245 111.119 88.5357C111.709 88.4908 112.298 88.3616 112.877 88.137C113.455 87.9179 114 87.5585 114.517 87.0642C115.005 87.5079 115.545 87.8561 116.134 88.1201C116.724 88.3785 117.331 88.5189 117.937 88.5357C118.555 88.502 119.145 88.356 119.701 88.0976C120.257 87.8393 120.751 87.5023 121.172 87.0811C121.599 86.6598 121.936 86.1768 122.189 85.6208C122.442 85.0704 122.565 84.4806 122.565 83.8516V78.8641H120.032L120.027 78.8585ZM74.3421 75.3538C74.3421 77.4263 74.3308 81.6106 74.314 84.5143C74.3027 84.5593 74.2859 84.5986 74.2691 84.6435C74.1736 84.8906 74.0387 85.1097 73.8702 85.295C73.7018 85.4804 73.5052 85.6264 73.2862 85.7387C73.0671 85.8511 72.8368 85.9241 72.5953 85.9578V85.9858H70.7138V81.341C70.7138 80.6951 70.5902 80.0885 70.3431 79.5213C70.0959 78.954 69.759 78.4597 69.3321 78.0329C68.9109 77.606 68.411 77.2747 67.8381 77.0275C67.2709 76.7804 66.6587 76.6568 66.0128 76.6568C65.3669 76.6568 64.7603 76.7804 64.1987 77.0275C63.6314 77.2747 63.1371 77.6116 62.7103 78.0329C62.2834 78.4597 61.9465 78.954 61.6993 79.5213C61.4522 80.0885 61.3286 80.6951 61.3286 81.341V83.8066C61.3286 84.1773 61.2724 84.4975 61.1713 84.7615C61.0646 85.0254 60.9186 85.2501 60.7332 85.4242C60.5479 85.5983 60.3233 85.7331 60.0649 85.823C59.829 85.9016 59.565 85.9521 59.2898 85.9746V85.9578C59.0483 85.9241 58.8237 85.8454 58.6046 85.7331C58.3856 85.6152 58.1946 85.4691 58.0317 85.2894C57.8689 85.1097 57.7341 84.8906 57.633 84.6379C57.5319 84.3852 57.4813 84.1043 57.4813 83.7954V78.8585H54.9483V83.7954C54.9483 84.138 54.8865 84.4469 54.7629 84.7165C54.6393 84.9861 54.4765 85.2164 54.2799 85.4017C54.0833 85.5871 53.8531 85.7275 53.6059 85.8286C53.3588 85.9297 53.0948 85.9802 52.8309 85.9858C52.5669 85.9802 52.3085 85.9241 52.0558 85.8286C51.803 85.7331 51.5784 85.5927 51.3762 85.4017C51.174 85.2108 51.0167 84.9861 50.8988 84.7165C50.7808 84.4469 50.7191 84.138 50.7191 83.7954V78.8585H48.1579V83.7954C48.1579 84.138 48.0961 84.4469 47.9726 84.7221C47.849 84.9973 47.6861 85.2276 47.4896 85.413C47.293 85.5983 47.0627 85.7387 46.8156 85.8398C46.5629 85.9353 46.3045 85.9858 46.0405 85.9858C45.7766 85.9858 45.5126 85.9353 45.2598 85.8398C45.0015 85.7443 44.7768 85.6039 44.5746 85.413C44.3781 85.2276 44.2151 84.9973 44.0916 84.7221C43.968 84.4469 43.9062 84.138 43.9062 83.7954V78.8585H41.3732V83.7954C41.3732 84.1043 41.3227 84.3852 41.2216 84.6379C41.1205 84.8906 40.9857 85.1097 40.8228 85.2894C40.6599 85.4691 40.4633 85.6208 40.2443 85.7331C40.0365 85.8398 39.8174 85.9128 39.5928 85.9522C39.3681 85.9128 39.1547 85.8398 38.9469 85.7331C38.7278 85.6152 38.5369 85.4691 38.3684 85.2894C38.1999 85.1097 38.0707 84.8906 37.9696 84.6379C37.8741 84.3852 37.8236 84.1043 37.8236 83.7954V78.8585H35.2793V83.7954C35.2793 84.1043 35.2287 84.3852 35.1333 84.6379C35.0378 84.8906 34.903 85.1097 34.7345 85.2894C34.566 85.4691 34.375 85.6208 34.156 85.7331C33.937 85.851 33.7123 85.9241 33.4764 85.9578V85.9858H31.168C31.3197 85.5815 31.4376 85.1939 31.5219 84.8401C31.6061 84.4806 31.6454 84.1549 31.6454 83.8516V81.3466C31.6454 80.7007 31.5219 80.0941 31.2747 79.5269C31.0276 78.9596 30.6906 78.4654 30.2694 78.0385C29.8425 77.6117 29.3483 77.2803 28.7754 77.0331C28.2081 76.786 27.5959 76.6625 26.95 76.6625C26.3041 76.6625 25.6975 76.786 25.1247 77.0331C24.5574 77.2803 24.0575 77.6173 23.6307 78.0385C23.2038 78.4654 22.8668 78.9596 22.6197 79.5269C22.3726 80.0941 22.249 80.7007 22.249 81.3466V83.8516C22.249 84.1549 22.2883 84.4806 22.367 84.8401C22.4456 85.1995 22.5635 85.5815 22.7096 85.9858H20.3731V85.9578C20.1372 85.9241 19.9013 85.8454 19.6823 85.7331C19.4632 85.6152 19.2667 85.4691 19.1038 85.2894C18.9409 85.1097 18.8061 84.8906 18.705 84.6379C18.6039 84.3852 18.5534 84.1043 18.5534 83.7954V78.8585H16.0203V83.7954C16.0203 84.1043 15.9698 84.3852 15.8743 84.6379C15.7788 84.8906 15.644 85.1097 15.4755 85.2894C15.307 85.4691 15.1105 85.6208 14.8914 85.7331C14.6724 85.8454 14.4421 85.9241 14.2006 85.9578V85.9858H12.3696V72.7478H9.82532V87.8955C9.82532 88.4178 9.72984 88.8727 9.53888 89.2603C9.34791 89.6478 9.09519 89.9736 8.78066 90.2319C8.46614 90.4959 8.10666 90.6869 7.70789 90.8104C7.3035 90.934 6.89352 90.9958 6.46667 90.9958C6.03981 90.9958 5.64663 90.9284 5.24786 90.7992C4.84909 90.6644 4.49527 90.4734 4.18075 90.2151C3.86622 89.9567 3.61346 89.6366 3.4225 89.2547C3.23154 88.8727 3.13609 88.4178 3.13609 87.8955V83.1888H0.591797V87.9516C0.591797 88.7829 0.760306 89.5411 1.0973 90.2207C1.43429 90.9003 1.87799 91.4844 2.4284 91.973C2.97882 92.4617 3.60785 92.838 4.30992 93.1019C5.01198 93.3659 5.73091 93.5007 6.46667 93.5007C7.14065 93.5007 7.80338 93.3828 8.4549 93.1525C9.10641 92.9166 9.70175 92.5852 10.2409 92.1528C10.7745 91.7203 11.2294 91.198 11.6001 90.5858C11.9708 89.9736 12.2179 89.294 12.3415 88.5413H14.2624V88.5189C14.8128 88.4683 15.3351 88.3223 15.835 88.0752C16.3517 87.8168 16.8347 87.4854 17.2896 87.0642C17.739 87.4911 18.2276 87.8281 18.7499 88.0808C19.2498 88.3223 19.7609 88.4683 20.2889 88.5189V88.5413H33.527V88.5189C34.0661 88.4683 34.5885 88.3223 35.0827 88.0752C35.5994 87.8168 36.0825 87.4854 36.5374 87.0642C36.9979 87.4911 37.4866 87.8281 38.0033 88.0808C38.4975 88.3223 39.0087 88.4683 39.5366 88.5189C39.5366 88.5189 39.5647 88.5189 39.5759 88.5189C39.5871 88.5189 39.604 88.5189 39.6152 88.5189C40.1544 88.4571 40.6655 88.3111 41.1598 88.0696C41.6765 87.8112 42.1595 87.4798 42.6144 87.0586C43.1199 87.5248 43.6647 87.8898 44.2545 88.1426C44.8442 88.3953 45.4283 88.5245 46.0124 88.5357C46.6134 88.4908 47.1975 88.356 47.7704 88.1314C48.3377 87.9067 48.8937 87.5472 49.4216 87.0474C49.9271 87.5079 50.4663 87.8674 51.0504 88.137C51.6345 88.4009 52.2299 88.5357 52.8421 88.5357C53.4543 88.5189 54.044 88.3785 54.6113 88.1257C55.1786 87.8674 55.7121 87.5135 56.212 87.0642C56.6613 87.4911 57.1443 87.8281 57.6667 88.0808C58.1609 88.3223 58.672 88.4683 59.2 88.5189C59.2 88.5189 59.2281 88.5189 59.2449 88.5189C59.2562 88.5189 59.2674 88.5189 59.2786 88.5189C59.8515 88.4739 60.3963 88.356 60.9243 88.1594C61.4747 87.9572 62.0194 87.5866 62.5699 87.0586C63.0641 87.5248 63.6089 87.8955 64.193 88.1594C64.7828 88.4234 65.3837 88.5582 66.0015 88.5582L72.6627 88.5301V88.5077C73.2412 88.4571 73.786 88.3055 74.2859 88.0583C74.8138 87.8 75.2744 87.4574 75.6676 87.0361C76.0607 86.6149 76.3696 86.1319 76.5942 85.5871C76.8133 85.0591 76.9649 84.1661 76.9649 83.7505V74.472L74.3308 75.3538H74.3421ZM29.0899 83.801C29.0899 84.1886 29.0281 84.5256 28.9046 84.8064C28.781 85.0928 28.6181 85.3231 28.4215 85.5028C28.225 85.6826 27.9947 85.8174 27.7307 85.9016C27.4667 85.9859 27.2084 86.0195 26.9388 86.0027C26.6748 85.9971 26.4109 85.9409 26.1581 85.8342C25.8998 85.7331 25.6751 85.5871 25.4729 85.4017C25.2763 85.2164 25.1134 84.9861 24.9955 84.7165C24.8775 84.4469 24.8158 84.138 24.8158 83.7954V81.3916C24.8158 81.0377 24.8775 80.7288 24.9955 80.4592C25.1134 80.1896 25.2707 79.9593 25.4729 79.774C25.6695 79.5887 25.8998 79.4482 26.1581 79.3415C26.4165 79.2404 26.6748 79.1787 26.9388 79.1618C27.2028 79.1506 27.4667 79.1899 27.7307 79.2797C27.9891 79.3696 28.2193 79.5044 28.4215 79.6841C28.6181 79.8639 28.781 80.0998 28.9046 80.3806C29.0281 80.6614 29.0899 80.9984 29.0899 81.3859V83.7898V83.801ZM68.1695 86.0027H66.0071C65.7432 85.9971 65.4792 85.9409 65.2264 85.8342C64.9681 85.7331 64.7434 85.5871 64.5412 85.4017C64.3447 85.2164 64.1818 84.9861 64.0582 84.7165C63.9347 84.4469 63.8729 84.138 63.8729 83.7954V81.3916C63.8729 81.0377 63.9347 80.7288 64.0582 80.4592C64.1818 80.1896 64.3447 79.9593 64.5412 79.774C64.7378 79.5887 64.9681 79.4482 65.2264 79.3415C65.4848 79.2404 65.7432 79.1787 66.0071 79.1618C66.2711 79.1506 66.5351 79.1899 66.7991 79.2797C67.0574 79.3696 67.2933 79.5044 67.4955 79.6841C67.6977 79.8639 67.8606 80.0998 67.9842 80.3806C68.1077 80.6614 68.1695 80.9984 68.1695 81.3859V85.9915V86.0027Z" fill="#CFB98D"/>
<path d="M0.361355 103.924C0.872456 104.351 1.45657 104.564 2.1137 104.564C2.48439 104.564 2.76521 104.502 2.95055 104.373C3.1359 104.244 3.23138 104.081 3.23138 103.879C3.23138 103.705 3.15835 103.542 3.0067 103.39C2.86067 103.239 2.46754 103.025 1.83287 102.767C0.838755 102.346 0.338867 101.728 0.338867 100.925C0.338867 100.329 0.563539 99.8688 1.01848 99.5431C1.4678 99.2173 2.06876 99.0488 2.81014 99.0488C3.43357 99.0488 3.95589 99.1275 4.37713 99.2904V100.565C3.95028 100.273 3.45041 100.127 2.87191 100.127C2.53492 100.127 2.27095 100.189 2.06876 100.313C1.86656 100.436 1.76548 100.599 1.76548 100.807C1.76548 100.97 1.83287 101.121 1.97329 101.262C2.1137 101.402 2.45069 101.587 2.98987 101.823C3.62454 102.093 4.05698 102.379 4.29849 102.683C4.53438 102.986 4.65233 103.345 4.65233 103.761C4.65233 104.373 4.43331 104.839 4.00083 105.16C3.56836 105.48 2.95056 105.643 2.15302 105.643C1.42287 105.643 0.821902 105.525 0.355733 105.289V103.924H0.361355Z" fill="#CFB98D"/>
<path d="M9.85276 105.532H8.5329V104.835H8.51041C8.1678 105.374 7.70725 105.644 7.11191 105.644C6.05039 105.644 5.52246 105.004 5.52246 103.723V100.977H6.85357V103.599C6.85357 104.279 7.11753 104.622 7.6511 104.622C7.91508 104.622 8.12851 104.526 8.29139 104.341C8.44865 104.155 8.5329 103.903 8.5329 103.583V100.977H9.85276V105.532Z" fill="#CFB98D"/>
<path d="M12.3868 104.98V105.531H11.0557V98.791H12.3868V101.672H12.4036C12.7519 101.133 13.2517 100.864 13.892 100.864C14.4649 100.864 14.9142 101.066 15.24 101.464C15.5657 101.863 15.7286 102.419 15.7286 103.121C15.7286 103.874 15.5433 104.486 15.1669 104.947C14.7963 105.407 14.2964 105.638 13.6786 105.638C13.1113 105.638 12.6845 105.418 12.398 104.98H12.3811H12.3868ZM12.3643 103.559C12.3643 103.857 12.4542 104.11 12.6339 104.312C12.8136 104.514 13.0383 104.615 13.3135 104.615C13.6449 104.615 13.9032 104.486 14.0886 104.228C14.2739 103.969 14.3694 103.604 14.3694 103.133C14.3694 102.739 14.2852 102.431 14.1167 102.211C13.9482 101.992 13.7066 101.88 13.3921 101.88C13.0944 101.88 12.8529 101.992 12.6564 102.211C12.4654 102.436 12.3643 102.717 12.3643 103.065V103.554V103.559Z" fill="#CFB98D"/>
<path d="M20.9348 105.532H19.6149V104.835H19.5925C19.2499 105.374 18.7893 105.644 18.194 105.644C17.1325 105.644 16.6045 105.004 16.6045 103.723V100.977H17.9356V103.599C17.9356 104.279 18.1996 104.622 18.7331 104.622C18.9971 104.622 19.2105 104.526 19.3734 104.341C19.5307 104.155 19.6149 103.903 19.6149 103.583V100.977H20.9348V105.532Z" fill="#CFB98D"/>
<path d="M22.1201 105.531V98.791H23.4456V105.531H22.1201Z" fill="#CFB98D"/>
<path d="M32.8136 105.531H31.3309L30.8535 104.07H28.5339L28.0621 105.531H26.585L28.9214 99.1504H30.5165L32.808 105.531H32.8136ZM30.5333 103.02L29.8088 100.807C29.7639 100.667 29.7302 100.481 29.7077 100.251H29.6684C29.6516 100.437 29.6122 100.616 29.5561 100.79L28.8259 103.02H30.5277H30.5333Z" fill="#CFB98D"/>
<path d="M33.4648 105.531V98.791H34.7903V105.531H33.4648Z" fill="#CFB98D"/>
<path d="M41.9518 105.531V101.661C41.9518 101.302 41.9686 100.858 42.0079 100.313H41.9742C41.89 100.723 41.8282 100.993 41.7777 101.133L40.205 105.531H39.121L37.526 101.172C37.4866 101.066 37.4193 100.779 37.3238 100.313H37.2845C37.3182 100.847 37.3406 101.386 37.3406 101.925V105.531H36.1162V99.1504H38.0932L39.4692 103.003C39.5872 103.323 39.6602 103.621 39.7052 103.902H39.7332C39.8175 103.554 39.9073 103.25 39.9972 102.998L41.3789 99.1504H43.2997V105.531H41.9574H41.9518Z" fill="#CFB98D"/>
<path d="M48.9104 105.532H47.5906V104.835H47.5681C47.2255 105.374 46.7649 105.644 46.1696 105.644C45.1081 105.644 44.5801 105.004 44.5801 103.723V100.977H45.9112V103.599C45.9112 104.279 46.1752 104.622 46.7088 104.622C46.9727 104.622 47.1862 104.526 47.349 104.341C47.5063 104.155 47.5906 103.903 47.5906 103.583V100.977H48.9104V105.532Z" fill="#CFB98D"/>
<path d="M50 104.306C50.4549 104.582 50.9043 104.722 51.3367 104.722C51.8871 104.722 52.1623 104.576 52.1623 104.284C52.1623 104.076 51.9377 103.902 51.4828 103.762C50.9155 103.588 50.528 103.391 50.3202 103.178C50.1068 102.964 50.0056 102.672 50.0056 102.301C50.0056 101.852 50.1853 101.504 50.5504 101.251C50.9155 100.998 51.3873 100.869 51.977 100.869C52.3926 100.869 52.797 100.931 53.1846 101.054V102.099C52.8307 101.891 52.4432 101.785 52.0164 101.785C51.8029 101.785 51.6344 101.824 51.5053 101.897C51.3761 101.97 51.3143 102.071 51.3143 102.195C51.3143 102.402 51.5052 102.571 51.8928 102.7C52.3028 102.835 52.6117 102.964 52.8195 103.076C53.0273 103.189 53.1845 103.335 53.2913 103.52C53.398 103.705 53.4542 103.919 53.4542 104.16C53.4542 104.632 53.2688 104.992 52.8925 105.256C52.5162 105.52 52.0163 105.643 51.3873 105.643C50.893 105.643 50.4381 105.565 50.0169 105.407V104.306H50Z" fill="#CFB98D"/>
<path d="M56.9643 105.474C56.7621 105.587 56.4589 105.637 56.0545 105.637C55.0884 105.637 54.6054 105.132 54.6054 104.115V101.964H53.8584V100.97H54.6054V99.9701L55.9253 99.5938V100.975H56.9643V101.97H55.9253V103.89C55.9253 104.379 56.1163 104.621 56.5038 104.621C56.6498 104.621 56.8071 104.576 56.9643 104.491V105.485V105.474Z" fill="#CFB98D"/>
<path d="M57.8859 101.251C58.0937 101.133 58.3689 101.043 58.7115 100.97C59.0541 100.897 59.3518 100.863 59.5933 100.863C60.8683 100.863 61.5029 101.504 61.5029 102.779V105.531H60.2392V104.868H60.2224C59.9134 105.385 59.4585 105.643 58.8575 105.643C58.425 105.643 58.0825 105.519 57.8241 105.272C57.5657 105.025 57.4365 104.694 57.4365 104.267C57.4365 103.396 57.9589 102.885 58.9979 102.745L60.2504 102.576C60.2504 102.048 59.9752 101.784 59.4248 101.784C58.8744 101.784 58.3689 101.947 57.8915 102.279V101.251H57.8859ZM59.3911 103.464C58.908 103.526 58.6722 103.745 58.6722 104.115C58.6722 104.284 58.7283 104.424 58.8463 104.525C58.9642 104.632 59.1215 104.683 59.3181 104.683C59.5877 104.683 59.8123 104.587 59.9921 104.396C60.1662 104.205 60.256 103.964 60.256 103.677V103.351L59.3967 103.464H59.3911Z" fill="#CFB98D"/>
<path d="M67.1189 105.531H65.507L63.9906 103.279H63.9737V105.531H62.6426V98.791H63.9737V103.082H63.9906L65.4115 100.976H66.9954L65.3048 103.127L67.1189 105.531Z" fill="#CFB98D"/>
<path d="M69.001 104.98V105.531H67.6699V98.791H69.001V101.672H69.0178C69.366 101.133 69.8659 100.864 70.5062 100.864C71.0791 100.864 71.5284 101.066 71.8542 101.464C72.1799 101.863 72.3428 102.419 72.3428 103.121C72.3428 103.874 72.1575 104.486 71.7812 104.947C71.4105 105.407 70.9106 105.638 70.2928 105.638C69.7255 105.638 69.2986 105.418 69.0122 104.98H68.9954H69.001ZM68.9785 103.559C68.9785 103.857 69.0684 104.11 69.2481 104.312C69.4279 104.514 69.6525 104.615 69.9277 104.615C70.2591 104.615 70.5174 104.486 70.7028 104.228C70.8881 103.969 70.9836 103.604 70.9836 103.133C70.9836 102.739 70.8994 102.431 70.7309 102.211C70.5624 101.992 70.3209 101.88 70.0063 101.88C69.7087 101.88 69.4672 101.992 69.2706 102.211C69.0796 102.436 68.9785 102.717 68.9785 103.065V103.554V103.559Z" fill="#CFB98D"/>
<path d="M73.3028 101.251C73.5106 101.133 73.7859 101.043 74.1285 100.97C74.4711 100.897 74.7687 100.863 75.0102 100.863C76.2852 100.863 76.9199 101.504 76.9199 102.779V105.531H75.6561V104.868H75.6393C75.3304 105.385 74.8754 105.643 74.2744 105.643C73.842 105.643 73.4994 105.519 73.241 105.272C72.9827 105.025 72.8535 104.694 72.8535 104.267C72.8535 103.396 73.3758 102.885 74.4149 102.745L75.6674 102.576C75.6674 102.048 75.3921 101.784 74.8417 101.784C74.2913 101.784 73.7858 101.947 73.3084 102.279V101.251H73.3028ZM74.808 103.464C74.325 103.526 74.0891 103.745 74.0891 104.115C74.0891 104.284 74.1453 104.424 74.2633 104.525C74.3812 104.632 74.5385 104.683 74.735 104.683C75.0046 104.683 75.2293 104.587 75.409 104.396C75.5831 104.205 75.673 103.964 75.673 103.677V103.351L74.8137 103.464H74.808Z" fill="#CFB98D"/>
<path d="M78.043 105.531V98.791H79.3685V105.531H78.043Z" fill="#CFB98D"/>
<path d="M87.7489 105.3C87.2828 105.53 86.6818 105.643 85.9348 105.643C84.9743 105.643 84.2105 105.356 83.6489 104.778C83.0872 104.205 82.8008 103.435 82.8008 102.481C82.8008 101.475 83.1153 100.65 83.7444 100.009C84.3734 99.369 85.1878 99.0488 86.1819 99.0488C86.8054 99.0488 87.3277 99.1275 87.7489 99.2904V100.605C87.3165 100.352 86.8278 100.228 86.283 100.228C85.6596 100.228 85.1597 100.425 84.789 100.824C84.4184 101.222 84.2274 101.739 84.2274 102.385C84.2274 103.031 84.4071 103.514 84.7609 103.896C85.1148 104.278 85.5922 104.469 86.1988 104.469C86.7661 104.469 87.2828 104.334 87.7489 104.059V105.306V105.3Z" fill="#CFB98D"/>
<path d="M88.4727 103.273C88.4727 102.526 88.6974 101.936 89.1467 101.504C89.596 101.077 90.1969 100.863 90.9552 100.863C91.7134 100.863 92.2694 101.077 92.7019 101.498C93.1344 101.919 93.3478 102.486 93.3478 103.194C93.3478 103.941 93.1287 104.536 92.685 104.975C92.2413 105.418 91.646 105.637 90.8878 105.637C90.1296 105.637 89.5567 105.424 89.1242 105.003C88.6917 104.576 88.4727 104.003 88.4727 103.273ZM89.8206 103.256C89.8206 104.166 90.1913 104.621 90.9327 104.621C91.6741 104.621 91.9998 104.155 91.9998 103.222C91.9998 102.29 91.6404 101.885 90.9271 101.885C90.5788 101.885 90.3093 102.003 90.1127 102.245C89.9217 102.486 89.8206 102.823 89.8206 103.256Z" fill="#CFB98D"/>
<path d="M101.43 105.531H100.105V102.931C100.105 102.234 99.8518 101.886 99.3407 101.886C99.1048 101.886 98.9082 101.993 98.751 102.201C98.5937 102.414 98.5151 102.672 98.5151 102.976V105.531H97.1896V102.903C97.1896 102.229 96.9369 101.892 96.437 101.892C96.1899 101.892 95.9876 101.993 95.836 102.195C95.6843 102.397 95.6114 102.661 95.6114 102.998V105.537H94.2803V100.982H95.6114V101.695H95.6282C95.7854 101.437 95.9989 101.234 96.2628 101.088C96.5268 100.942 96.802 100.875 97.0941 100.875C97.7344 100.875 98.1725 101.161 98.4084 101.734C98.7622 101.161 99.2677 100.875 99.9417 100.875C100.93 100.875 101.43 101.487 101.43 102.712V105.542V105.531Z" fill="#CFB98D"/>
<path d="M103.901 104.98V107.626H102.57V100.976H103.901V101.672H103.918C104.267 101.133 104.761 100.863 105.395 100.863C105.974 100.863 106.429 101.065 106.755 101.47C107.08 101.874 107.243 102.425 107.243 103.121C107.243 103.879 107.052 104.492 106.676 104.952C106.3 105.413 105.8 105.637 105.188 105.637C104.632 105.637 104.205 105.418 103.918 104.98H103.901ZM103.879 103.514C103.879 103.84 103.969 104.104 104.143 104.312C104.317 104.52 104.547 104.621 104.828 104.621C105.16 104.621 105.418 104.492 105.603 104.233C105.789 103.975 105.884 103.61 105.884 103.138C105.884 102.301 105.558 101.885 104.907 101.885C104.604 101.885 104.356 102.003 104.165 102.234C103.974 102.464 103.879 102.762 103.879 103.121V103.514Z" fill="#CFB98D"/>
<path d="M108.198 101.251C108.406 101.133 108.681 101.043 109.024 100.97C109.367 100.897 109.664 100.863 109.906 100.863C111.181 100.863 111.815 101.504 111.815 102.779V105.531H110.552V104.868H110.535C110.226 105.385 109.771 105.643 109.17 105.643C108.737 105.643 108.395 105.519 108.137 105.272C107.878 105.025 107.749 104.694 107.749 104.267C107.749 103.396 108.271 102.885 109.31 102.745L110.563 102.576C110.563 102.048 110.288 101.784 109.737 101.784C109.187 101.784 108.681 101.947 108.204 102.279V101.251H108.198ZM109.704 103.464C109.221 103.526 108.985 103.745 108.985 104.115C108.985 104.284 109.041 104.424 109.159 104.525C109.277 104.632 109.434 104.683 109.631 104.683C109.9 104.683 110.125 104.587 110.304 104.396C110.479 104.205 110.569 103.964 110.569 103.677V103.351L109.709 103.464H109.704Z" fill="#CFB98D"/>
<path d="M117.286 105.531H115.966V102.992C115.966 102.256 115.702 101.891 115.174 101.891C114.921 101.891 114.713 101.987 114.545 102.183C114.376 102.38 114.292 102.633 114.292 102.936V105.536H112.961V100.981H114.292V101.706H114.309C114.64 101.15 115.129 100.869 115.775 100.869C116.786 100.869 117.291 101.493 117.291 102.745V105.531H117.286Z" fill="#CFB98D"/>
<path d="M122.683 100.976L120.807 105.936C120.369 107.087 119.718 107.666 118.847 107.666C118.504 107.666 118.24 107.632 118.049 107.559V106.492C118.229 106.593 118.426 106.643 118.639 106.643C118.999 106.643 119.257 106.469 119.403 106.115L119.656 105.52L117.813 100.976H119.285L120.172 103.829C120.229 104.004 120.268 104.195 120.29 104.408H120.313C120.33 104.262 120.375 104.071 120.448 103.835L121.358 100.971H122.677L122.683 100.976Z" fill="#CFB98D"/>
</g>
<defs>
<clipPath id="clip0_1136_8406">
<rect width="122.344" height="106.777" fill="white" transform="translate(0.338867 0.888672)"/>
</clipPath>
</defs>
</svg>
