<svg width="215" height="110" viewBox="0 0 215 110" fill="none" xmlns="http://www.w3.org/2000/svg">
<g clip-path="url(#clip0_1136_7963)">
<path d="M8.68824 51.6797C8.27529 51.6797 7.91997 51.8257 7.61906 52.1146C7.31815 52.4034 7.1709 52.7621 7.1709 53.1843C7.1709 53.6065 7.32135 53.9429 7.61906 54.2318C7.91997 54.5206 8.2785 54.6666 8.68824 54.6666C9.09799 54.6666 9.45012 54.5206 9.74462 54.2318C10.0359 53.9429 10.1832 53.5938 10.1832 53.1843C10.1832 52.7748 10.0359 52.4034 9.74462 52.1146C9.45012 51.8257 9.09799 51.6797 8.68824 51.6797Z" fill="#363634"/>
<path d="M5.22535 51.6797C4.8124 51.6797 4.45708 51.8257 4.15937 52.1146C3.85846 52.4034 3.70801 52.7621 3.70801 53.1843C3.70801 53.6065 3.85846 53.9429 4.15937 54.2318C4.46028 54.5206 4.81561 54.6666 5.22535 54.6666C5.6351 54.6666 5.98723 54.5206 6.28173 54.2318C6.57304 53.9429 6.72029 53.5938 6.72029 53.1843C6.72029 52.7748 6.57304 52.4034 6.28173 52.1146C5.98723 51.8257 5.6383 51.6797 5.22535 51.6797Z" fill="#363634"/>
<path d="M30.7156 36.1705C31.1253 36.1705 31.4775 36.0245 31.772 35.7357C32.0633 35.4468 32.2105 35.0977 32.2105 34.6882C32.2105 34.2787 32.0633 33.9073 31.772 33.6185C31.4775 33.3296 31.1253 33.1836 30.7156 33.1836C30.3058 33.1836 29.9473 33.3296 29.6464 33.6185C29.3455 33.9073 29.1982 34.266 29.1982 34.6882C29.1982 35.1104 29.3487 35.4468 29.6464 35.7357C29.9473 36.0245 30.3058 36.1705 30.7156 36.1705Z" fill="#363634"/>
<path d="M31.9226 37.2571C30.6902 37.2571 29.589 37.6253 28.6254 38.3617C27.2329 39.46 26.5351 40.9328 26.5351 42.7866C26.5511 43.8849 26.8424 44.8657 27.4122 45.7291H17.1141L17.0885 43.0215C17.0885 39.898 15.6544 38.3141 12.7925 38.2665C11.352 38.2665 10.0524 38.4315 8.89995 38.7585V47.9606H6.22058C3.90935 47.9447 2.75374 46.8465 2.75374 44.6658C2.75374 43.2691 3.26592 41.9899 4.29669 40.8281L2.27997 39.3933C0.887469 40.7106 0.173613 42.4977 0.141602 44.7578C0.157607 46.4528 0.804239 47.8717 2.0879 49.0176C3.09946 49.9128 4.46955 50.3603 6.19177 50.3603H10.9359C11.3008 50.3603 11.4833 50.1572 11.4833 49.7477L11.5281 40.6408C11.861 40.4853 12.2804 40.4059 12.7893 40.4059C13.9257 40.4059 14.4956 41.3074 14.4956 43.1135V48.1034H35.9817V38.5014C34.7492 37.6697 33.3951 37.2539 31.9258 37.2539L31.9226 37.2571ZM33.3695 45.7291H32.7293C30.3701 45.7132 29.192 44.6848 29.192 42.6469C29.192 41.6724 29.5153 40.8344 30.162 40.1298C30.6069 39.6758 31.1607 39.4473 31.8234 39.4473C32.3772 39.4473 32.8926 39.6028 33.3663 39.9171V45.7291H33.3695Z" fill="#363634"/>
<path d="M27.2488 36.1705C27.6617 36.1705 28.0107 36.0245 28.3052 35.7357C28.5965 35.4468 28.7437 35.0977 28.7437 34.6882C28.7437 34.2787 28.5965 33.9073 28.3052 33.6185C28.0107 33.3296 27.6617 33.1836 27.2488 33.1836C26.8358 33.1836 26.4805 33.3296 26.1828 33.6185C25.8819 33.9073 25.7314 34.266 25.7314 34.6882C25.7314 35.1104 25.8819 35.4468 26.1828 35.7357C26.4837 36.0245 26.839 36.1705 27.2488 36.1705Z" fill="#363634"/>
<path d="M72.6121 56.8802V67.0092C72.6121 68.2313 72.3368 69.2915 71.7638 70.1327C71.1075 71.1643 70.0672 71.6817 68.6971 71.7071H64.5356C64.2347 71.7357 63.9049 71.7611 63.5752 71.7611C62.1507 71.7611 61.0847 71.3548 60.3709 70.5675C59.6602 71.3294 58.6711 71.7071 57.4674 71.7071H40.4597C38.8175 71.7071 37.966 70.5675 37.9404 68.3138V33.2734H40.543V68.6376C40.543 69.0979 40.735 69.3423 41.0904 69.3423H43.8305C45.0342 69.3423 45.6104 68.5805 45.6104 67.06V62.0638H48.1585V66.9235C48.1585 67.8472 48.0497 68.6344 47.8032 69.3391H52.5697V63.6921H55.1978V69.3391H56.5679C57.1697 69.3391 57.6083 69.2566 57.8292 69.1487C58.2933 68.8757 58.5142 68.171 58.5142 67.0568V62.7938H61.1167V67.0854C61.1167 68.5805 61.6641 69.3391 62.7589 69.3391C63.8537 69.3391 64.4587 68.5233 64.4587 66.9489V62.0606H67.0613V66.8124C67.0325 67.7901 66.9236 68.6313 66.7316 69.3391H68.5402C69.5262 69.3105 69.9903 68.6059 69.9903 67.2219V56.8739H72.6185L72.6121 56.8802Z" fill="#363634"/>
<path d="M66.7863 33.2793V43.6114C66.7863 45.0081 66.3061 45.716 65.3394 45.7318H62.6312C63.4379 44.7129 63.8412 43.6051 63.8412 42.4116C63.8412 41.6434 63.6588 40.8816 63.297 40.1293C62.6632 38.8279 61.6356 37.9486 60.2111 37.4947C59.6893 37.3233 59.1772 37.2376 58.6682 37.2376C58.0055 37.2376 57.3429 37.3868 56.6771 37.6851C54.9997 38.4692 53.7896 39.9896 53.0438 42.2497L52.8549 42.7893L55.6335 45.7318H47.4193V38.4597H44.8104V48.0839C44.8104 49.6076 43.9973 50.3662 42.3647 50.3662H41.9102V52.7437H42.6272C45.822 52.7437 47.4193 51.2772 47.4193 48.3442V48.1093H65.4802V48.0998C66.8695 48.0744 67.9003 47.5602 68.5661 46.5317C69.1199 45.6842 69.3952 44.6399 69.3952 43.4019V33.2825H66.7863V33.2793ZM60.2847 44.7891C59.7758 45.3224 59.1868 45.6271 58.5049 45.7064L55.5374 42.364C56.0592 40.9356 56.7859 40.0023 57.7238 39.5643C58.0407 39.4214 58.3641 39.3516 58.6938 39.3516C58.9627 39.3516 59.238 39.3992 59.5261 39.4945C60.7265 39.9166 61.3379 40.8499 61.3539 42.2941C61.3539 43.2369 60.9986 44.0685 60.288 44.7891H60.2847Z" fill="#363634"/>
<path d="M73.9507 33.2793V48.1062H71.3418V33.2793H73.9507Z" fill="#363634"/>
<path d="M90.5392 38.4551H93.1257V47.4921C93.1257 47.8984 92.9433 48.1048 92.5815 48.1048H85.5326C83.8072 48.1048 82.4371 47.6508 81.4287 46.7398C80.1451 45.5939 79.4984 44.1751 79.4824 42.48C79.4984 41.0199 79.7993 39.7597 80.3851 38.6931L82.7124 39.8708C82.2994 40.6707 82.0946 41.5119 82.0946 42.388C82.0946 44.6004 83.2502 45.7146 85.5614 45.7304H90.5456V38.4583L90.5392 38.4551ZM87.4085 52.7138C86.9955 52.7138 86.6402 52.5677 86.3393 52.2789C86.0384 51.99 85.8911 51.6409 85.8911 51.2314C85.8911 50.8219 86.0416 50.4505 86.3393 50.1617C86.6402 49.8728 86.9987 49.7268 87.4085 49.7268C87.8182 49.7268 88.1703 49.8728 88.4648 50.1617C88.7561 50.4505 88.9034 50.8092 88.9034 51.2314C88.9034 51.6536 88.7561 51.99 88.4648 52.2789C88.1703 52.5677 87.8182 52.7138 87.4085 52.7138Z" fill="#363634"/>
<path d="M110.261 49.7285C109.849 49.7285 109.493 49.8745 109.192 50.1634C108.891 50.4522 108.744 50.8109 108.744 51.2331C108.744 51.6553 108.895 51.9917 109.192 52.2806C109.493 52.5695 109.852 52.7155 110.261 52.7155C110.671 52.7155 111.023 52.5695 111.318 52.2806C111.609 51.9917 111.756 51.6426 111.756 51.2331C111.756 50.8236 111.609 50.4522 111.318 50.1634C111.023 49.8745 110.674 49.7285 110.261 49.7285Z" fill="#363634"/>
<path d="M125.361 34.7832C125.361 35.1926 125.512 35.5418 125.809 35.8306C126.11 36.1195 126.469 36.2655 126.875 36.2655C127.282 36.2655 127.641 36.1195 127.932 35.8306C128.226 35.5418 128.37 35.1926 128.37 34.7832C128.37 34.3737 128.226 34.0023 127.932 33.7103C127.641 33.4214 127.288 33.2754 126.875 33.2754C126.463 33.2754 126.107 33.4214 125.809 33.7103C125.512 33.9991 125.361 34.3578 125.361 34.7832Z" fill="#363634"/>
<path d="M119.913 36.2655C120.323 36.2655 120.675 36.1195 120.966 35.8306C121.261 35.5418 121.408 35.1926 121.408 34.7832C121.408 34.3737 121.261 34.0023 120.966 33.7103C120.675 33.4214 120.323 33.2754 119.913 33.2754C119.503 33.2754 119.145 33.4214 118.844 33.7103C118.543 33.9991 118.396 34.3578 118.396 34.7832C118.396 35.2085 118.546 35.5418 118.844 35.8306C119.145 36.1195 119.503 36.2655 119.913 36.2655Z" fill="#363634"/>
<path d="M123.395 36.2655C123.808 36.2655 124.157 36.1195 124.452 35.8306C124.743 35.5418 124.89 35.1926 124.89 34.7832C124.89 34.3737 124.743 34.0023 124.452 33.7103C124.157 33.4214 123.808 33.2754 123.395 33.2754C122.982 33.2754 122.627 33.4214 122.329 33.7103C122.028 33.9991 121.878 34.3578 121.878 34.7832C121.878 35.2085 122.028 35.5418 122.329 35.8306C122.63 36.1195 122.986 36.2655 123.395 36.2655Z" fill="#363634"/>
<path d="M133.85 33.2793V43.6114C133.85 45.0081 133.37 45.716 132.403 45.7318H130.575C130.78 45.0398 130.892 44.2018 130.908 43.2147V38.4597H128.299V43.3543C128.299 44.9383 127.739 45.7318 126.616 45.7318C125.492 45.7318 124.98 44.9859 124.98 43.4972V39.1897H122.371V43.4718C122.371 44.5859 122.14 45.2779 121.683 45.5445C121.462 45.6683 121.039 45.7318 120.421 45.7318H119.048V40.1071H116.439V45.7318H111.666C111.903 45.0398 112.022 44.2399 112.022 43.3289V38.4597H109.483V43.4496C109.483 44.9732 108.891 45.7318 107.703 45.7318H98.2342C97.8693 45.7318 97.69 45.4969 97.69 45.024V33.2793H95.0811V44.7161C95.1291 46.9761 95.9742 48.1062 97.6228 48.1062H121.334C122.55 48.1062 123.517 47.7284 124.228 46.9761C124.954 47.7602 126.023 48.1538 127.432 48.1538C127.781 48.1538 128.104 48.1379 128.405 48.1062H132.56V48.0966C133.949 48.0712 134.98 47.557 135.646 46.5286C136.2 45.681 136.475 44.6367 136.475 43.3988V33.2793H133.866H133.85Z" fill="#363634"/>
<path d="M141.021 33.2793V48.1062H138.412V33.2793H141.021Z" fill="#363634"/>
<path d="M8.57301 75.2871C8.16006 75.2871 7.80473 75.4331 7.50382 75.722C7.20292 76.0108 7.05566 76.3695 7.05566 76.7917C7.05566 77.2139 7.20612 77.5503 7.50382 77.8392C7.80473 78.1281 8.16326 78.2741 8.57301 78.2741C8.98276 78.2741 9.33488 78.1281 9.62939 77.8392C9.92069 77.5503 10.0679 77.2012 10.0679 76.7917C10.0679 76.3822 9.92069 76.0108 9.62939 75.722C9.33488 75.4331 8.98276 75.2871 8.57301 75.2871Z" fill="#363634"/>
<path d="M5.10621 75.2871C4.69326 75.2871 4.33794 75.4331 4.04023 75.722C3.73932 76.0108 3.58887 76.3695 3.58887 76.7917C3.58887 77.2139 3.73932 77.5503 4.04023 77.8392C4.34114 78.1281 4.69646 78.2741 5.10621 78.2741C5.51596 78.2741 5.86808 78.1281 6.16259 77.8392C6.4539 77.5503 6.60115 77.2012 6.60115 76.7917C6.60115 76.3822 6.4539 76.0108 6.16259 75.722C5.86808 75.4331 5.51916 75.2871 5.10621 75.2871Z" fill="#363634"/>
<path d="M33.3693 62.0596V66.9543C33.3693 68.5382 32.8091 69.3318 31.6854 69.3318C30.5618 69.3318 30.0497 68.5858 30.0497 67.0971V62.7897H27.4407V67.0717C27.4407 68.1859 27.2102 68.8779 26.7525 69.1445C26.5316 69.2683 26.109 69.3318 25.4912 69.3318H24.1179V63.707H21.509V69.3318H17.117L17.0914 66.6241C17.0914 63.5007 15.6573 61.9168 12.7955 61.8691C11.355 61.8691 10.0553 62.0342 8.90287 62.3611V71.5633H6.22351C3.91228 71.5474 2.75667 70.4491 2.75667 68.2684C2.75667 66.8717 3.26885 65.5925 4.29962 64.4307L2.2829 62.996C0.890399 64.3133 0.176543 66.1004 0.144531 68.3605C0.160537 70.0555 0.807169 71.4744 2.09083 72.6203C3.10239 73.5154 4.47248 73.963 6.1947 73.963H10.9388C11.3037 73.963 11.4862 73.7598 11.4862 73.3504L11.531 64.2435C11.8639 64.0879 12.2833 64.0086 12.7923 64.0086C13.9287 64.0086 14.4985 64.9101 14.4985 66.7162V71.7061H26.3907C27.6072 71.7061 28.5739 71.3284 29.2846 70.5761C30.0112 71.4236 31.0804 71.8458 32.4889 71.8458C33.5965 71.8458 34.4737 71.3696 35.1235 70.411C35.6773 69.6111 35.9622 68.4112 35.9782 66.8114V62.0564H33.3693V62.0596Z" fill="#363634"/>
<path d="M46.6384 73.4043C46.2255 73.4043 45.8702 73.5503 45.5693 73.8392C45.2683 74.128 45.1211 74.4867 45.1211 74.9121C45.1211 75.3374 45.2715 75.6675 45.5693 75.9596C45.8702 76.2484 46.2287 76.3944 46.6384 76.3944C47.0482 76.3944 47.4003 76.2484 47.6948 75.9596C47.9861 75.6707 48.1334 75.3215 48.1334 74.9121C48.1334 74.5026 47.9861 74.1312 47.6948 73.8392C47.4003 73.5503 47.0482 73.4043 46.6384 73.4043Z" fill="#363634"/>
<path d="M43.1716 73.4043C42.7587 73.4043 42.4034 73.5503 42.1057 73.8392C41.8048 74.128 41.6543 74.4867 41.6543 74.9121C41.6543 75.3374 41.808 75.6675 42.1057 75.9596C42.4066 76.2484 42.7619 76.3944 43.1716 76.3944C43.5814 76.3944 43.9367 76.2484 44.228 75.9596C44.5193 75.6707 44.6666 75.3215 44.6666 74.9121C44.6666 74.5026 44.5193 74.1312 44.228 73.8392C43.9367 73.5503 43.5846 73.4043 43.1716 73.4043Z" fill="#363634"/>
<path d="M77.1578 56.8828V71.7097H74.5488V56.8828H77.1578Z" fill="#363634"/>
<path d="M89.0436 76.3428H86.4827C83.3487 76.3428 81.7674 74.8827 81.7354 71.9655V69.3309H90.801V68.2485C90.801 67.0709 90.4745 66.0932 89.8279 65.306C89.1012 64.4743 88.1344 64.0585 86.9308 64.0585C85.9801 64.0585 85.0966 64.3632 84.2739 64.9759C83.989 65.179 83.7041 65.471 83.4192 65.8456L81.9466 64.0331C83.2111 62.4333 84.8661 61.6334 86.9052 61.6334C88.8195 61.6334 90.3945 62.3317 91.6269 63.7284C92.7665 65.0933 93.3363 66.8106 93.3363 68.8802V71.7052H83.9858C83.9858 73.213 84.9045 73.9653 86.7387 73.9653H89.0404V76.3428H89.0436ZM85.0325 60.151C84.6196 60.151 84.2643 60.005 83.9666 59.7162C83.6656 59.4273 83.5152 59.0781 83.5152 58.6687C83.5152 58.2592 83.6688 57.8878 83.9666 57.5989C84.2675 57.3101 84.6228 57.1641 85.0325 57.1641C85.4423 57.1641 85.7976 57.3101 86.0889 57.5989C86.3834 57.8878 86.5275 58.2465 86.5275 58.6687C86.5275 59.0908 86.3834 59.4273 86.0889 59.7162C85.7976 60.005 85.4455 60.151 85.0325 60.151Z" fill="#363634"/>
<path d="M104.451 60.1549C104.864 60.1549 105.213 60.0089 105.507 59.7201C105.799 59.4312 105.946 59.082 105.946 58.6726C105.946 58.2631 105.799 57.8917 105.507 57.6028C105.213 57.314 104.864 57.168 104.451 57.168C104.038 57.168 103.683 57.314 103.385 57.6028C103.084 57.8917 102.934 58.2504 102.934 58.6726C102.934 59.0947 103.084 59.4312 103.385 59.7201C103.686 60.0089 104.041 60.1549 104.451 60.1549Z" fill="#363634"/>
<path d="M122.509 56.8828V67.215C122.509 68.6116 122.029 69.3195 121.062 69.3353H119.308C119.496 68.6751 119.593 67.9323 119.593 67.1007C119.593 65.2501 119.154 63.8249 118.277 62.8282C117.397 61.8314 116.206 61.3363 114.704 61.3363C113.203 61.3363 112.003 61.8187 111.202 62.7837C110.402 63.7487 110.005 65.085 110.005 66.796V67.1737C109.989 68.6021 109.515 69.3226 108.584 69.3385H105.901C106.138 68.6465 106.257 67.8466 106.257 66.9356V62.0663H103.718V67.0562C103.718 68.5799 103.126 69.3385 101.938 69.3385H98.2313C97.8663 69.3385 97.6871 69.1036 97.6871 68.6307V56.886H95.0781V68.3228C95.1261 70.5828 95.9712 71.7128 97.6198 71.7128H108.779C109.759 71.697 110.456 71.3034 110.869 70.5352C111.849 71.9319 113.289 72.6302 115.188 72.6302C116.263 72.6143 117.147 72.3096 117.845 71.7128H121.216V71.7033C122.605 71.6779 123.636 71.1637 124.301 70.1353C124.855 69.2877 125.131 68.2434 125.131 67.0055V56.886H122.522L122.509 56.8828ZM114.842 70.367C113.245 70.367 112.444 69.2306 112.444 66.9547C112.444 64.6787 113.203 63.6217 114.724 63.59C116.321 63.59 117.121 64.8152 117.121 67.2626C117.121 69.3353 116.363 70.367 114.842 70.367Z" fill="#363634"/>
<path d="M129.676 56.8828V71.7097H127.067V56.8828H129.676Z" fill="#363634"/>
<path d="M136.347 76.3433H134.73V73.9658H136.203C137.707 73.9658 138.498 73.2135 138.578 71.7057H138.034C136.104 71.6899 134.717 71.3693 133.879 70.7408C132.358 69.6584 131.593 68.2077 131.577 66.3889C131.577 64.5383 132.272 63.0623 133.667 61.964C134.634 61.2276 135.732 60.8594 136.965 60.8594C138.437 60.8594 139.788 61.2752 141.024 62.1069V71.6613C140.96 74.7657 139.401 76.3274 136.35 76.3433H136.347ZM138.412 69.3314V63.5194C137.935 63.2051 137.422 63.0496 136.869 63.0496C136.203 63.0496 135.649 63.2781 135.207 63.7321C134.557 64.4367 134.234 65.2779 134.234 66.2492C134.234 68.2871 135.412 69.3155 137.771 69.3314H138.415H138.412Z" fill="#363634"/>
<path d="M169.658 44.9057L169.745 44.82C171.278 43.4519 172.549 41.8013 173.512 39.9793C173.336 39.957 173.183 39.957 173.01 39.957C172.811 39.957 172.616 39.9793 172.418 40.0015C171.521 41.5219 170.404 42.9122 169.088 44.1058L169.002 44.1915L169.658 44.9088V44.9057Z" fill="url(#paint0_linear_1136_7963)"/>
<path d="M163.769 45.9915C163.769 45.9915 164.111 45.8391 164.178 45.8074C164.591 45.6169 165.004 45.4042 165.395 45.1852C167.53 43.9758 169.406 42.249 170.734 40.1953C169.223 40.5223 167.776 41.1952 166.486 42.2586C165.238 43.2997 164.342 44.5821 163.772 45.9946L163.769 45.9915Z" fill="url(#paint1_linear_1136_7963)"/>
<path d="M163.045 48.7058C165.059 48.0551 166.944 47.0774 168.609 45.7728L167.994 45.0332H167.972C166.525 46.141 164.95 46.9885 163.24 47.6393C163.132 47.9662 163.064 48.3344 163.042 48.7026L163.045 48.7058Z" fill="url(#paint2_linear_1136_7963)"/>
<path d="M165.279 56.0233C168.784 60.1498 175.001 60.6926 179.162 57.2168C183.346 53.741 183.894 47.5766 180.388 43.4279C178.922 41.6916 176.973 40.606 174.892 40.1934L174.674 40.5838C173.538 42.7677 171.966 44.65 170.09 46.2403C168.131 47.9004 165.903 49.1638 163.441 49.9414L163.003 50.0716C163.048 52.1793 163.813 54.2838 165.279 56.0201V56.0233Z" fill="url(#paint3_linear_1136_7963)"/>
<path d="M201.356 32.3079V35.4346H210.992V106.874H197.726C202.605 94.8245 204.967 81.607 204.055 68.7291C203.418 59.7492 201.206 50.9407 197.182 42.8305C195.002 38.4342 192.313 34.2569 190.696 29.6257C189.076 24.9977 188.635 19.6745 190.933 15.3385C190.05 21.6552 191.746 28.2894 195.559 33.4253C199.528 28.6957 201.619 22.4615 201.298 16.3161C201.138 13.2308 200.367 10.1835 199.08 7.37114C198.424 5.93638 197.63 4.56194 196.714 3.27637C196.218 2.58121 194.624 -0.0438818 193.68 0.000557512C192.761 0.0418226 191.058 2.42885 190.485 3.09226C189.496 4.23816 188.593 5.45707 187.796 6.73946C186.224 9.26298 185.037 12.0468 184.451 14.9607C183.862 17.8874 183.897 20.9346 184.704 23.8169C185.847 27.8989 188.401 31.4699 189.707 35.5044C191.33 40.5133 190.924 46.0365 189.179 51.0042C186.82 57.7145 182.005 63.5551 175.814 67.1357C170.087 70.4464 163.227 71.7573 156.665 70.8432V35.4346H183.993V32.3079H153.512V110.001H214.148V32.3079H201.359H201.356ZM193.004 105.433C192.838 105.915 192.668 106.395 192.499 106.874H156.662V74.957C160.839 76.0902 165.356 75.5093 169.604 74.6459C174.233 73.7063 178.759 70.7257 183.625 71.2526C192.71 72.2398 196.398 83.7845 196.25 91.4313C196.157 96.2625 194.579 100.906 193.007 105.43L193.004 105.433Z" fill="url(#paint4_linear_1136_7963)"/>
<path d="M58.761 85.2257C58.9339 85.2257 59.0811 85.1623 59.2092 85.0385C59.334 84.9147 59.398 84.7623 59.398 84.5846C59.398 84.4068 59.334 84.2544 59.2092 84.1306C59.0843 84.0068 58.9339 83.9434 58.761 83.9434C58.5881 83.9434 58.4249 84.0068 58.2968 84.1306C58.1656 84.2544 58.1016 84.4068 58.1016 84.5846C58.1016 84.7623 58.1656 84.9147 58.2968 85.0385C58.4249 85.1623 58.5817 85.2257 58.761 85.2257Z" fill="#363634"/>
<path d="M60.5247 85.2257C60.6975 85.2257 60.8448 85.1623 60.9728 85.0385C61.0977 84.9147 61.1617 84.7623 61.1617 84.5846C61.1617 84.4068 61.0977 84.2544 60.9728 84.1306C60.848 84.0068 60.6975 83.9434 60.5247 83.9434C60.3518 83.9434 60.1886 84.0068 60.0605 84.1306C59.9325 84.2544 59.8652 84.4068 59.8652 84.5846C59.8652 84.7623 59.9293 84.9147 60.0605 85.0385C60.1886 85.1623 60.3454 85.2257 60.5247 85.2257Z" fill="#363634"/>
<path d="M66.9653 84.2004L63.0407 86.4383V87.5461C64.7949 87.9048 65.7745 88.8793 65.9794 90.4727H62.09V86.743C61.517 86.3557 60.8703 86.1589 60.1501 86.1589C59.5482 86.1589 59.0105 86.3367 58.5399 86.6954C57.8676 87.2318 57.5283 87.9492 57.5283 88.8507C57.5347 89.7363 57.9093 90.4442 58.6455 90.9711C59.0521 91.2758 59.7339 91.4282 60.6911 91.4377H67.1798C67.1318 89.0665 66.1266 87.562 64.1579 86.9144L67.2022 85.2003L66.9685 84.1973L66.9653 84.2004ZM61.0048 90.4696H60.5598C59.2761 90.4632 58.6327 89.8982 58.6327 88.7809C58.6327 88.2539 58.8088 87.7968 59.1609 87.4191C59.4106 87.162 59.7243 87.035 60.102 87.035C60.4062 87.035 60.7103 87.108 61.008 87.2572V90.4759L61.0048 90.4696Z" fill="#363634"/>
<path d="M69.3725 91.5429C69.3725 92.3967 68.9147 92.8252 67.996 92.8252H67.5479V93.8061H68.1369C69.6798 93.8061 70.4513 93.0982 70.4513 91.6857V86.7656H69.3693V91.5429H69.3725Z" fill="#363634"/>
<path d="M88.6016 85.1812C88.6016 85.3526 88.6656 85.4987 88.7968 85.6224C88.9249 85.7462 89.0817 85.8097 89.261 85.8097C89.4403 85.8097 89.5811 85.7462 89.706 85.6224C89.8308 85.4987 89.8948 85.3526 89.8948 85.1812C89.8948 84.994 89.8308 84.8384 89.706 84.7146C89.5811 84.5908 89.4307 84.5273 89.261 84.5273C89.0913 84.5273 88.9249 84.5908 88.7968 84.7146C88.6688 84.8384 88.6016 84.994 88.6016 85.1812Z" fill="#363634"/>
<path d="M88.2814 84.143C88.4607 84.143 88.6143 84.0795 88.7392 83.9557C88.864 83.8319 88.928 83.6827 88.928 83.5113C88.928 83.324 88.864 83.1685 88.7392 83.0447C88.6143 82.9209 88.4607 82.8574 88.2814 82.8574C88.1021 82.8574 87.9581 82.9209 87.83 83.0447C87.6988 83.1685 87.6348 83.324 87.6348 83.5113C87.6348 83.6827 87.6988 83.8287 87.83 83.9557C87.9581 84.0795 88.1117 84.143 88.2814 84.143Z" fill="#363634"/>
<path d="M87.4845 85.8097C87.6638 85.8097 87.8174 85.7462 87.9423 85.6224C88.0671 85.4987 88.1311 85.3526 88.1311 85.1812C88.1311 84.994 88.0671 84.8384 87.9423 84.7146C87.8174 84.5908 87.6638 84.5273 87.4845 84.5273C87.3053 84.5273 87.1612 84.5908 87.0332 84.7146C86.9051 84.8384 86.8379 84.994 86.8379 85.1812C86.8379 85.3526 86.9019 85.4987 87.0332 85.6224C87.1612 85.7462 87.3117 85.8097 87.4845 85.8097Z" fill="#363634"/>
<path d="M100.023 89.2702C100.023 90.0638 99.7415 90.4637 99.1781 90.4701H98.3426C98.4675 90.0447 98.5315 89.6225 98.5315 89.2099C98.5315 88.3021 98.317 87.6037 97.8913 87.1181C97.4655 86.6324 96.8861 86.3912 96.1562 86.3912C95.4264 86.3912 94.847 86.6229 94.4628 87.0895C94.0787 87.5561 93.8866 88.21 93.8866 89.048V89.2448C93.8802 90.0542 93.5953 90.4605 93.0415 90.4701H91.8763C92.0171 90.0257 92.0876 89.5622 92.0876 89.0702V86.7625H91.0056V89.1401C91.0056 90.0257 90.6759 90.4669 90.0196 90.4669C89.3634 90.4669 89.0657 90.0479 89.0657 89.2067V87.1308H87.9837V89.194C87.9837 89.8066 87.846 90.1939 87.5707 90.3463C87.4363 90.4256 87.2026 90.4637 86.8665 90.4637H86.0438V87.5974H84.9618V90.4637H72.8679C72.6022 90.4574 72.4677 90.2955 72.4677 89.9876V84.0898H71.3857V89.8225C71.3857 90.8954 71.7731 91.4319 72.551 91.4319H87.3243C87.9133 91.4319 88.4062 91.2224 88.8064 90.8034C89.2065 91.2382 89.7475 91.4541 90.4294 91.4541C90.6022 91.4541 90.7655 91.4446 90.9223 91.4319H93.1343C93.5889 91.4223 93.941 91.1874 94.1907 90.7208C94.7381 91.5049 95.4712 91.8985 96.3899 91.8985C96.9149 91.8889 97.3535 91.7366 97.7056 91.4319H99.351V91.416C99.9528 91.3779 100.414 91.143 100.715 90.6859C100.98 90.2733 101.115 89.7654 101.115 89.1591V84.0898H100.02V89.2638L100.023 89.2702ZM96.2267 90.9938C95.3335 90.9938 94.8886 90.3748 94.8886 89.1401C94.8886 87.9053 95.3143 87.3244 96.169 87.3085C97.0718 87.3085 97.5199 87.9688 97.5199 89.2924C97.5199 90.4256 97.0878 90.9938 96.2267 90.9938Z" fill="#363634"/>
<path d="M103.154 84.0957H102.06V91.4377H103.154V84.0957Z" fill="#363634"/>
<path d="M107.594 85.5531C107.773 85.5531 107.927 85.4897 108.052 85.3659C108.177 85.2421 108.241 85.0961 108.241 84.9215C108.241 84.7342 108.177 84.5787 108.052 84.4549C107.927 84.3311 107.773 84.2676 107.594 84.2676C107.415 84.2676 107.271 84.3311 107.143 84.4612C107.011 84.5882 106.947 84.7437 106.947 84.9215C106.947 85.0992 107.011 85.2421 107.143 85.3659C107.271 85.4897 107.421 85.5531 107.594 85.5531Z" fill="#363634"/>
<path d="M126.964 89.8312V86.7649H125.882V89.9931C125.882 90.3042 125.748 90.4629 125.482 90.4692H108.17V86.7617H107.076V91.539C107.076 92.3928 106.621 92.8213 105.712 92.8213H105.264V93.8022H105.84C107.392 93.8022 108.167 93.0943 108.167 91.6818V91.4374H125.796C126.548 91.4374 126.935 90.9009 126.961 89.828L126.964 89.8312Z" fill="#363634"/>
<path d="M124.848 92.5469C124.669 92.5469 124.512 92.6104 124.384 92.7342C124.256 92.858 124.188 93.0103 124.188 93.1881C124.188 93.3658 124.252 93.5182 124.384 93.642C124.512 93.7658 124.669 93.8293 124.848 93.8293C125.027 93.8293 125.168 93.7658 125.296 93.642C125.421 93.5182 125.485 93.3658 125.485 93.1881C125.485 93.0103 125.421 92.858 125.296 92.7342C125.171 92.6104 125.021 92.5469 124.848 92.5469Z" fill="#363634"/>
<path d="M126.493 92.5469C126.314 92.5469 126.157 92.6104 126.029 92.7342C125.901 92.858 125.834 93.0103 125.834 93.1881C125.834 93.3658 125.898 93.5182 126.029 93.642C126.157 93.7658 126.314 93.8293 126.493 93.8293C126.673 93.8293 126.814 93.7658 126.938 93.642C127.063 93.5182 127.127 93.3658 127.127 93.1881C127.127 93.0103 127.063 92.858 126.938 92.7342C126.814 92.6104 126.663 92.5469 126.493 92.5469Z" fill="#363634"/>
<path d="M129.88 85.5531C130.059 85.5531 130.213 85.4897 130.338 85.3659C130.463 85.2421 130.527 85.0961 130.527 84.9215C130.527 84.7342 130.463 84.5787 130.338 84.4549C130.213 84.3311 130.059 84.2676 129.88 84.2676C129.701 84.2676 129.557 84.3311 129.429 84.4612C129.297 84.5882 129.233 84.7437 129.233 84.9215C129.233 85.0992 129.297 85.2421 129.429 85.3659C129.557 85.4897 129.707 85.5531 129.88 85.5531Z" fill="#363634"/>
<path d="M138.143 85.8097C138.322 85.8097 138.476 85.7462 138.6 85.6224C138.725 85.4987 138.789 85.3526 138.789 85.1812C138.789 84.994 138.729 84.8384 138.6 84.7146C138.476 84.5908 138.322 84.5273 138.143 84.5273C137.963 84.5273 137.819 84.5908 137.691 84.7146C137.563 84.8384 137.496 84.994 137.496 85.1812C137.496 85.3526 137.56 85.4987 137.691 85.6224C137.819 85.7462 137.973 85.8097 138.143 85.8097Z" fill="#363634"/>
<path d="M140.364 84.7146C140.239 84.5908 140.085 84.5273 139.906 84.5273C139.727 84.5273 139.583 84.5908 139.455 84.7146C139.327 84.8384 139.263 84.994 139.263 85.1812C139.263 85.3526 139.327 85.4987 139.455 85.6224C139.586 85.7462 139.736 85.8097 139.906 85.8097C140.076 85.8097 140.239 85.7462 140.364 85.6224C140.489 85.4987 140.553 85.3526 140.553 85.1812C140.553 84.994 140.489 84.8384 140.364 84.7146Z" fill="#363634"/>
<path d="M139.234 89.9937C139.234 90.3047 139.1 90.4634 138.834 90.4698H136.072C136.574 89.8413 136.824 89.2382 136.824 88.6637C136.817 88.2923 136.725 87.9177 136.555 87.5431C136.251 86.9146 135.748 86.4925 135.05 86.2735C134.801 86.1877 134.554 86.1465 134.311 86.1465C133.991 86.1465 133.667 86.2163 133.347 86.356C132.525 86.7432 131.929 87.4987 131.561 88.616L131.478 88.8255L133.04 90.4698H130.454V86.7623H129.359V91.5395C129.359 92.3934 128.904 92.8219 127.995 92.8219H127.547V93.8027H128.123C129.676 93.8027 130.45 93.0949 130.45 91.6823V91.4379H139.148C139.9 91.4379 140.287 90.9015 140.313 89.8286V86.7623H139.231V89.9905L139.234 89.9937ZM135.214 89.9587C134.932 90.2476 134.583 90.4127 134.167 90.4603L132.569 88.6637C132.867 87.8637 133.267 87.3432 133.767 87.1019C133.946 87.0226 134.132 86.9845 134.321 86.9845C134.468 86.9845 134.621 87.013 134.778 87.067C135.444 87.2987 135.78 87.8098 135.79 88.5938C135.79 89.1049 135.598 89.5588 135.214 89.9556V89.9587Z" fill="#363634"/>
<path d="M5.15126 107.785H3.5763C2.73119 107.785 2.05895 107.566 1.56598 107.131C0.93855 106.573 0.621637 105.877 0.615234 105.046C0.621637 104.322 0.752884 103.738 1.00257 103.284L1.94371 103.843C1.78685 104.17 1.71003 104.554 1.71003 104.995C1.71003 106.185 2.33745 106.785 3.5891 106.801H5.08084C5.92594 106.801 6.3741 106.338 6.42212 105.414H6.00917C5.06163 105.405 4.38299 105.252 3.97644 104.947C3.23377 104.42 2.85604 103.713 2.84964 102.827C2.84964 101.926 3.19216 101.205 3.874 100.672C4.33497 100.313 4.86956 100.135 5.47138 100.135C6.20124 100.135 6.85107 100.329 7.42088 100.719V105.509C7.38887 107.017 6.63339 107.772 5.15126 107.782V107.785ZM3.07052 99.3481C2.89125 99.3481 2.7344 99.2846 2.60635 99.1608C2.4751 99.037 2.41108 98.8878 2.41108 98.7164C2.41108 98.5291 2.4751 98.3736 2.60635 98.2498C2.7344 98.126 2.89125 98.0625 3.07052 98.0625C3.24978 98.0625 3.39063 98.126 3.51868 98.2498C3.64352 98.3736 3.70754 98.5291 3.70754 98.7164C3.70754 98.8878 3.64352 99.0338 3.51868 99.1608C3.39383 99.2846 3.24338 99.3481 3.07052 99.3481ZM6.32608 104.452V101.234C6.02838 101.088 5.72747 101.011 5.42016 101.011C5.05203 101.011 4.74152 101.142 4.49183 101.395C4.1397 101.776 3.96364 102.23 3.96364 102.76C3.96364 103.881 4.60387 104.443 5.88112 104.449H6.32929L6.32608 104.452ZM4.83435 99.3481C4.65508 99.3481 4.49823 99.2846 4.37018 99.1608C4.23893 99.037 4.17491 98.8878 4.17491 98.7164C4.17491 98.5291 4.23893 98.3736 4.37018 98.2498C4.49823 98.126 4.65508 98.0625 4.83435 98.0625C5.01361 98.0625 5.15446 98.126 5.28251 98.2498C5.40735 98.3736 5.47138 98.5291 5.47138 98.7164C5.47138 98.8878 5.40735 99.0338 5.28251 99.1608C5.15766 99.2846 5.00721 99.3481 4.83435 99.3481Z" fill="#363634"/>
<path d="M9.45319 105.42H8.3584V98.0781H9.45319V105.42Z" fill="#363634"/>
<path d="M46.4975 104.451C47.0001 103.823 47.2498 103.22 47.2498 102.645C47.2434 102.274 47.1505 101.899 46.9809 101.525C46.6768 100.896 46.1742 100.474 45.4763 100.255C45.2266 100.169 44.9802 100.125 44.7369 100.125C44.4168 100.125 44.0934 100.195 43.7733 100.335C42.9506 100.725 42.3552 101.477 41.9871 102.598L41.9039 102.807L43.466 104.448H12.7094V100.741H11.6146V105.518C11.6146 106.372 11.16 106.8 10.2509 106.8H9.80273V107.781H10.3789C11.9315 107.781 12.7062 107.073 12.7062 105.661V105.416H48.0661V104.448H46.4911L46.4975 104.451ZM45.6396 103.94C45.3579 104.229 45.009 104.394 44.5928 104.442L42.9954 102.645C43.2932 101.845 43.6933 101.325 44.1927 101.084C44.3719 101.004 44.5576 100.966 44.7465 100.966C44.8937 100.966 45.0474 100.995 45.2042 101.049C45.8701 101.28 46.2062 101.791 46.2158 102.576C46.2158 103.087 46.0237 103.544 45.6396 103.94Z" fill="#363634"/>
<path d="M47.9054 105.42H47.8926V104.452C48.456 104.446 48.7377 104.043 48.7377 103.252V98.0781H49.8325V103.147C49.8325 103.754 49.698 104.262 49.4323 104.674C49.1026 105.173 48.5936 105.42 47.9054 105.42Z" fill="#363634"/>
<path d="M51.8682 105.42H50.7734V98.0781H51.8682V105.42Z" fill="#363634"/>
<path d="M57.0028 107.484C56.8299 107.484 56.6795 107.548 56.5514 107.672C56.4234 107.795 56.3594 107.951 56.3594 108.138C56.3594 108.31 56.4234 108.456 56.5514 108.583C56.6827 108.706 56.8331 108.767 57.0028 108.767C57.1725 108.767 57.3357 108.703 57.4606 108.583C57.5854 108.459 57.6494 108.31 57.6494 108.138C57.6494 107.951 57.5854 107.795 57.4606 107.672C57.3357 107.548 57.1821 107.484 57.0028 107.484Z" fill="#363634"/>
<path d="M58.7764 107.484C58.5971 107.484 58.4402 107.548 58.3122 107.672C58.1841 107.795 58.1201 107.951 58.1201 108.138C58.1201 108.31 58.1841 108.456 58.3122 108.583C58.4434 108.706 58.5971 108.767 58.7764 108.767C58.9556 108.767 59.0965 108.703 59.2245 108.583C59.3494 108.459 59.4134 108.31 59.4134 108.138C59.4134 107.951 59.3494 107.795 59.2245 107.672C59.0997 107.548 58.9492 107.484 58.7764 107.484Z" fill="#363634"/>
<path d="M88.5537 100.139C87.9519 100.139 87.4141 100.316 86.9435 100.675C86.2681 101.212 85.932 101.929 85.932 102.83C85.9416 103.367 86.124 103.906 86.4858 104.449H62.9637L62.9509 102.948C62.9509 101.44 62.2627 100.675 60.883 100.65C60.1627 100.65 59.5417 100.723 59.0263 100.872V105.592H57.5442C56.2829 105.582 55.6523 104.983 55.6523 103.786C55.6523 103.046 55.8956 102.405 56.3822 101.862L55.5467 101.256C54.9128 101.862 54.5863 102.723 54.5703 103.843C54.5767 104.668 54.8968 105.357 55.5211 105.919C56.0076 106.354 56.6767 106.57 57.5314 106.57H59.9418C60.0507 106.57 60.1051 106.503 60.1051 106.373L60.1275 101.596C60.3548 101.532 60.6045 101.504 60.8798 101.504C61.5456 101.504 61.8785 102.005 61.8785 103.008V105.421H90.4904V100.723C89.9174 100.335 89.2708 100.139 88.5505 100.139H88.5537ZM89.4116 104.449H88.9635C87.6766 104.443 87.0364 103.878 87.0364 102.761C87.0364 102.234 87.2124 101.777 87.5646 101.396C87.8142 101.139 88.128 101.012 88.5057 101.012C88.813 101.012 89.1139 101.085 89.4116 101.234V104.449Z" fill="#363634"/>
<path d="M86.5558 99.5356C86.7351 99.5356 86.8887 99.4721 87.0136 99.3483C87.1384 99.2245 87.2024 99.0785 87.2024 98.9039C87.2024 98.7166 87.1384 98.5611 87.0136 98.4373C86.8887 98.3135 86.7351 98.25 86.5558 98.25C86.3765 98.25 86.2325 98.3135 86.1044 98.4405C85.9764 98.5706 85.9092 98.723 85.9092 98.9007C85.9092 99.0785 85.9732 99.2213 86.1044 99.3451C86.2325 99.4689 86.3861 99.5324 86.5558 99.5324V99.5356Z" fill="#363634"/>
<path d="M98.8261 104.452H96.1692C94.9143 104.445 94.2901 103.839 94.2901 102.633C94.2901 102.166 94.3797 101.754 94.559 101.398L93.5827 100.909C93.3298 101.366 93.2017 101.957 93.1953 102.68C93.2017 103.506 93.5218 104.195 94.1461 104.756C94.639 105.201 95.3113 105.42 96.1564 105.42H99.7417C99.8505 105.42 99.9049 105.356 99.9049 105.233V100.744H98.8229V104.452H98.8261Z" fill="#363634"/>
<path d="M97.1105 106.49C96.9376 106.49 96.7872 106.554 96.6591 106.678C96.5279 106.801 96.4639 106.954 96.4639 107.131C96.4639 107.309 96.5279 107.462 96.6591 107.585C96.7872 107.709 96.9408 107.773 97.1105 107.773C97.2802 107.773 97.4434 107.709 97.5683 107.585C97.6931 107.462 97.7571 107.309 97.7571 107.131C97.7571 106.954 97.6931 106.801 97.5683 106.678C97.4434 106.554 97.2898 106.49 97.1105 106.49Z" fill="#363634"/>
<path d="M125.165 106.49C124.992 106.49 124.842 106.554 124.714 106.678C124.586 106.801 124.519 106.954 124.519 107.131C124.519 107.309 124.583 107.462 124.714 107.585C124.842 107.709 124.996 107.773 125.165 107.773C125.335 107.773 125.498 107.709 125.623 107.585C125.748 107.462 125.812 107.309 125.812 107.131C125.812 106.954 125.748 106.801 125.623 106.678C125.498 106.554 125.344 106.49 125.165 106.49Z" fill="#363634"/>
<path d="M131.513 98.1222C131.692 98.1222 131.846 98.0588 131.971 97.9381C132.095 97.8143 132.159 97.6652 132.159 97.4937C132.159 97.3065 132.095 97.1509 131.971 97.0271C131.846 96.9033 131.692 96.8398 131.513 96.8398C131.334 96.8398 131.19 96.9033 131.061 97.0271C130.93 97.1509 130.866 97.3065 130.866 97.4937C130.866 97.6652 130.93 97.8112 131.061 97.9381C131.19 98.0619 131.343 98.1222 131.513 98.1222Z" fill="#363634"/>
<path d="M131.83 99.1598C131.83 99.3312 131.894 99.4772 132.025 99.601C132.153 99.7248 132.31 99.7883 132.49 99.7883C132.669 99.7883 132.81 99.7248 132.934 99.601C133.059 99.4772 133.123 99.3312 133.123 99.1598C133.123 98.9725 133.059 98.8169 132.934 98.6931C132.81 98.5694 132.659 98.5059 132.49 98.5059C132.32 98.5059 132.153 98.5694 132.025 98.6931C131.897 98.8169 131.83 98.9725 131.83 99.1598Z" fill="#363634"/>
<path d="M130.713 99.7883C130.892 99.7883 131.046 99.7248 131.171 99.601C131.296 99.4772 131.36 99.3312 131.36 99.1598C131.36 98.9725 131.296 98.8169 131.171 98.6931C131.046 98.5694 130.892 98.5059 130.713 98.5059C130.534 98.5059 130.39 98.5694 130.262 98.6931C130.134 98.8169 130.066 98.9725 130.066 99.1598C130.066 99.3312 130.13 99.4772 130.262 99.601C130.39 99.7248 130.54 99.7883 130.713 99.7883Z" fill="#363634"/>
<path d="M139.221 98.0774V103.251C139.221 104.045 138.94 104.445 138.376 104.451H137.73V98.0774H136.648V104.451H135.108C135.249 104.007 135.319 103.543 135.319 103.051V100.744H134.237V103.121C134.237 104.007 133.907 104.448 133.251 104.448C132.595 104.448 132.297 104.029 132.297 103.188V101.112H131.215V103.175C131.215 103.788 131.078 104.175 130.802 104.327C130.668 104.407 130.434 104.445 130.098 104.445H129.275V101.579H128.193V104.445H125.703C125.86 104.074 125.937 103.626 125.937 103.105V100.741H124.89V103.166C124.89 104.02 124.544 104.448 123.856 104.448H102.325C102.059 104.442 101.925 104.283 101.925 103.972V98.0742H100.843V103.807C100.843 104.88 101.23 105.416 102.008 105.416H130.556C131.145 105.416 131.638 105.207 132.038 104.788C132.438 105.223 132.979 105.438 133.661 105.438C133.834 105.438 133.997 105.429 134.154 105.416H138.549V105.4C139.151 105.362 139.612 105.124 139.913 104.67C140.178 104.258 140.313 103.75 140.313 103.143V98.0742H139.218L139.221 98.0774Z" fill="#363634"/>
<path d="M3.14088 85.4953C3.31374 85.4953 3.461 85.4318 3.58904 85.308C3.71389 85.1842 3.77791 85.0318 3.77791 84.8541C3.77791 84.6763 3.71389 84.524 3.58904 84.4002C3.4642 84.2764 3.31374 84.2129 3.14088 84.2129C2.96802 84.2129 2.80476 84.2764 2.67672 84.4002C2.54867 84.524 2.48145 84.6763 2.48145 84.8541C2.48145 85.0318 2.54547 85.1842 2.67672 85.308C2.80476 85.4318 2.96162 85.4953 3.14088 85.4953Z" fill="#363634"/>
<path d="M1.38014 85.4953C1.553 85.4953 1.70025 85.4318 1.8283 85.308C1.95315 85.1842 2.01717 85.0318 2.01717 84.8541C2.01717 84.6763 1.95315 84.524 1.8283 84.4002C1.70346 84.2764 1.553 84.2129 1.38014 84.2129C1.20728 84.2129 1.04402 84.2764 0.915973 84.4002C0.784726 84.524 0.720703 84.6763 0.720703 84.8541C0.720703 85.0318 0.784726 85.1842 0.915973 85.308C1.04402 85.4318 1.20088 85.4953 1.38014 85.4953Z" fill="#363634"/>
<path d="M18.6084 92.8145C18.4291 92.8145 18.2723 92.8779 18.1442 93.0017C18.0162 93.1255 17.9521 93.2779 17.9521 93.4557C17.9521 93.6334 18.0162 93.7858 18.1442 93.9096C18.2755 94.0334 18.4291 94.0968 18.6084 94.0968C18.7876 94.0968 18.9285 94.0334 19.0533 93.9096C19.1782 93.7858 19.2422 93.6334 19.2422 93.4557C19.2422 93.2779 19.1782 93.1255 19.0533 93.0017C18.9285 92.8779 18.778 92.8145 18.6084 92.8145Z" fill="#363634"/>
<path d="M16.8351 92.8145C16.6622 92.8145 16.5118 92.8779 16.3837 93.0017C16.2557 93.1255 16.1885 93.2779 16.1885 93.4557C16.1885 93.6334 16.2525 93.7858 16.3837 93.9096C16.5118 94.0334 16.6654 94.0968 16.8351 94.0968C17.0048 94.0968 17.168 94.0334 17.2929 93.9096C17.4177 93.7858 17.4817 93.6334 17.4817 93.4557C17.4817 93.2779 17.4209 93.1255 17.2929 93.0017C17.168 92.8779 17.0144 92.8145 16.8351 92.8145Z" fill="#363634"/>
<path d="M27.2006 89.4088C27.2006 90.2944 26.8741 90.7357 26.2243 90.7357C25.5745 90.7357 25.2607 90.3167 25.2607 89.4755V87.3995H24.1788V89.4628C24.1788 90.0754 24.0411 90.4627 23.7658 90.615C23.6314 90.6944 23.3977 90.7325 23.0616 90.7325H22.2389V87.8661H21.1569V90.7325H18.676C18.8264 90.2817 18.9001 89.8342 18.9001 89.393V87.0282H17.8533V89.4533C17.8533 90.3071 17.5076 90.7357 16.8193 90.7357H4.70617V87.0059C4.13316 86.6187 3.48653 86.4219 2.76627 86.4219C2.16446 86.4219 1.62666 86.5996 1.15609 86.9583C0.483853 87.4948 0.144531 88.2121 0.144531 89.1136C0.150934 89.9992 0.525468 90.7071 1.26173 91.234C1.66828 91.5387 2.35012 91.6911 3.30727 91.7006H23.5225C24.1115 91.7006 24.6045 91.4911 25.0047 91.0721C25.4112 91.5387 25.9554 91.7705 26.6372 91.7705C27.1558 91.7705 27.5656 91.5451 27.8729 91.0944C28.1386 90.7039 28.2762 90.1199 28.2826 89.3326V87.025H27.2006V89.4025V89.4088ZM3.62098 90.7357H3.17602C1.88916 90.7293 1.24893 90.1643 1.24893 89.047C1.24893 88.52 1.42499 88.063 1.77712 87.682C2.02681 87.4249 2.34052 87.298 2.71825 87.298C3.02236 87.298 3.32647 87.371 3.62418 87.5202V90.7357H3.62098Z" fill="#363634"/>
<path d="M38.213 92.8145C38.0402 92.8145 37.8897 92.8779 37.7617 93.0017C37.6336 93.1255 37.5664 93.2779 37.5664 93.4557C37.5664 93.6334 37.6304 93.7858 37.7617 93.9096C37.8897 94.0334 38.0434 94.0968 38.213 94.0968C38.3827 94.0968 38.546 94.0334 38.6708 93.9096C38.7956 93.7858 38.8597 93.6334 38.8597 93.4557C38.8597 93.2779 38.7988 93.1255 38.6708 93.0017C38.546 92.8779 38.3923 92.8145 38.213 92.8145Z" fill="#363634"/>
<path d="M39.9892 92.8145C39.81 92.8145 39.6531 92.8779 39.5251 93.0017C39.397 93.1255 39.333 93.2779 39.333 93.4557C39.333 93.6334 39.397 93.7858 39.5251 93.9096C39.6563 94.0334 39.81 94.0968 39.9892 94.0968C40.1685 94.0968 40.3094 94.0334 40.4342 93.9096C40.559 93.7858 40.6231 93.6334 40.6231 93.4557C40.6231 93.2779 40.559 93.1255 40.4342 93.0017C40.3094 92.8779 40.1589 92.8145 39.9892 92.8145Z" fill="#363634"/>
<path d="M51.1649 89.5385C51.1649 90.3321 50.8832 90.732 50.3197 90.7384H49.449C49.5899 90.294 49.6603 89.8305 49.6603 89.3385V87.0309H48.5783V89.4084C48.5783 90.294 48.2486 90.7352 47.5924 90.7352C46.9361 90.7352 46.6384 90.3162 46.6384 89.475V87.3991H45.5564V89.4623C45.5564 90.075 45.4188 90.4622 45.1435 90.6146C45.009 90.6939 44.7754 90.732 44.4392 90.732H43.6165V87.8657H42.5346V90.732H40.0537C40.2041 90.2813 40.2777 89.8337 40.2777 89.3925V87.0277H39.231V89.4528C39.231 90.3067 38.8852 90.7352 38.197 90.7352H30.6999C30.4342 90.7289 30.2998 90.5701 30.2998 90.2591V84.3613H29.2178V90.094C29.2178 91.1669 29.6051 91.7033 30.383 91.7033H44.897C45.486 91.7033 45.979 91.4938 46.3791 91.0748C46.7793 91.5097 47.3203 91.7256 48.0021 91.7256C48.175 91.7256 48.3382 91.7192 48.4951 91.7033H50.4926V91.6875C51.0944 91.6494 51.5554 91.4113 51.8563 90.9574C52.122 90.5447 52.2564 90.0369 52.2564 89.4306V84.3613H51.1616V89.5353L51.1649 89.5385Z" fill="#363634"/>
<path d="M54.295 84.3652H53.2002V91.7072H54.295V84.3652Z" fill="#363634"/>
</g>
<defs>
<linearGradient id="paint0_linear_1136_7963" x1="201.065" y1="-17.7823" x2="139.132" y2="108.72" gradientUnits="userSpaceOnUse">
<stop stop-color="#2B9348"/>
<stop offset="0.11" stop-color="#349745"/>
<stop offset="0.28" stop-color="#4CA23C"/>
<stop offset="0.5" stop-color="#75B42F"/>
<stop offset="0.75" stop-color="#ACCD1D"/>
<stop offset="1" stop-color="#EAE90A"/>
</linearGradient>
<linearGradient id="paint1_linear_1136_7963" x1="198.235" y1="-19.1693" x2="136.299" y2="107.333" gradientUnits="userSpaceOnUse">
<stop stop-color="#2B9348"/>
<stop offset="0.11" stop-color="#349745"/>
<stop offset="0.28" stop-color="#4CA23C"/>
<stop offset="0.5" stop-color="#75B42F"/>
<stop offset="0.75" stop-color="#ACCD1D"/>
<stop offset="1" stop-color="#EAE90A"/>
</linearGradient>
<linearGradient id="paint2_linear_1136_7963" x1="198.632" y1="-18.9753" x2="136.696" y2="107.527" gradientUnits="userSpaceOnUse">
<stop stop-color="#2B9348"/>
<stop offset="0.11" stop-color="#349745"/>
<stop offset="0.28" stop-color="#4CA23C"/>
<stop offset="0.5" stop-color="#75B42F"/>
<stop offset="0.75" stop-color="#ACCD1D"/>
<stop offset="1" stop-color="#EAE90A"/>
</linearGradient>
<linearGradient id="paint3_linear_1136_7963" x1="205.93" y1="-15.4002" x2="143.994" y2="111.102" gradientUnits="userSpaceOnUse">
<stop stop-color="#2B9348"/>
<stop offset="0.11" stop-color="#349745"/>
<stop offset="0.28" stop-color="#4CA23C"/>
<stop offset="0.5" stop-color="#75B42F"/>
<stop offset="0.75" stop-color="#ACCD1D"/>
<stop offset="1" stop-color="#EAE90A"/>
</linearGradient>
<linearGradient id="paint4_linear_1136_7963" x1="222.81" y1="-7.13513" x2="160.874" y2="119.367" gradientUnits="userSpaceOnUse">
<stop stop-color="#2B9348"/>
<stop offset="0.11" stop-color="#349745"/>
<stop offset="0.28" stop-color="#4CA23C"/>
<stop offset="0.5" stop-color="#75B42F"/>
<stop offset="0.75" stop-color="#ACCD1D"/>
<stop offset="1" stop-color="#EAE90A"/>
</linearGradient>
<clipPath id="clip0_1136_7963">
<rect width="214" height="110" fill="white" transform="translate(0.144531)"/>
</clipPath>
</defs>
</svg>
