<svg width="210" height="139" viewBox="0 0 210 139" fill="none" xmlns="http://www.w3.org/2000/svg">
<g clip-path="url(#clip0_1136_8363)">
<path d="M93.2942 33.212C92.9038 32.9815 91.7071 32.2837 91.4063 32.2645C91.2592 32.2581 91.0288 32.2005 90.632 32.1045C90.0881 31.9701 89.0834 31.714 88.821 31.8356C88.2194 32.1045 87.9506 32.591 88.021 33.276C88.1234 34.2043 88.2706 34.7036 88.7954 34.87C88.9746 34.5756 89.1985 34.3835 89.4609 34.2875C89.9537 34.1146 90.4848 34.3195 90.984 34.5692C91.1184 34.6332 91.272 34.7228 91.4576 34.8188C92.1167 35.1773 93.1854 35.7471 93.9021 35.6766C93.595 34.7164 93.3902 33.8522 93.3006 33.2184H93.2878L93.2942 33.212ZM98.5865 45.7529C100.711 52.814 103.079 58.2874 104.218 58.7676C104.32 58.8124 104.365 58.7868 104.378 58.774C104.807 58.5499 104.986 58.0122 104.992 57.308C105.005 56.1237 104.538 54.4656 103.93 52.9548C103.917 52.91 103.892 52.8652 103.873 52.814C103.866 52.8012 103.853 52.782 103.847 52.7628C103.834 52.7308 103.815 52.6923 103.796 52.6475C103.783 52.6219 103.77 52.6027 103.764 52.5771C103.745 52.5387 103.725 52.5003 103.7 52.4555C103.687 52.4299 103.674 52.4043 103.655 52.3723C103.636 52.3275 103.61 52.2826 103.591 52.2378C103.578 52.2122 103.559 52.1802 103.546 52.1482C103.521 52.1034 103.495 52.0522 103.463 52.001C103.444 51.969 103.431 51.937 103.412 51.9049C103.38 51.8537 103.348 51.7897 103.316 51.7321C103.297 51.7001 103.284 51.6745 103.265 51.6361C103.233 51.5721 103.188 51.4952 103.149 51.4248C103.137 51.3992 103.124 51.38 103.111 51.3544C102.996 51.1559 102.881 50.9447 102.753 50.727C102.74 50.7142 102.727 50.695 102.721 50.6822C102.669 50.5862 102.612 50.4966 102.561 50.4005C102.541 50.3685 102.522 50.3365 102.509 50.3045C102.458 50.2213 102.407 50.1317 102.356 50.042C102.337 50.01 102.324 49.978 102.305 49.9524C102.253 49.8564 102.196 49.7732 102.145 49.6772C102.125 49.6451 102.106 49.6131 102.087 49.5811C102.036 49.4851 101.972 49.3891 101.914 49.2995C101.895 49.2674 101.882 49.2354 101.863 49.2098C101.799 49.101 101.735 48.9986 101.671 48.8897C101.658 48.8705 101.645 48.8513 101.639 48.8385C101.319 48.3136 100.98 47.763 100.628 47.2125C100.622 47.1997 100.615 47.1869 100.602 47.1741C100.519 47.0525 100.442 46.9244 100.359 46.8028C100.353 46.79 100.34 46.7708 100.327 46.7516C100.257 46.6363 100.174 46.5147 100.103 46.3995C100.084 46.3739 100.071 46.3483 100.052 46.3227C99.9816 46.2074 99.9112 46.0986 99.8344 45.9834C99.8216 45.9578 99.8025 45.9386 99.7896 45.9066C99.7129 45.7913 99.6361 45.6761 99.5593 45.5609C99.5465 45.5417 99.5337 45.5225 99.5273 45.5033C99.4441 45.3816 99.3545 45.2536 99.2777 45.1255C99.2777 45.1191 99.2713 45.1127 99.2649 45.1063C98.9961 44.7094 98.7273 44.3125 98.4714 43.9348C98.4586 43.9156 98.4458 43.9028 98.433 43.8836C98.3626 43.7812 98.2922 43.6788 98.2218 43.5827C98.2026 43.5507 98.1834 43.5251 98.1642 43.4995C98.1002 43.4099 98.0426 43.3203 97.9786 43.237C97.953 43.205 97.9338 43.173 97.9082 43.141C97.8826 43.1026 97.8506 43.0578 97.825 43.0194C98.0554 43.8708 98.3114 44.7735 98.593 45.7145C98.593 45.7209 98.593 45.7273 98.593 45.7337L98.5865 45.7529ZM105.92 64.3178C109.03 64.1642 111.597 62.807 112.96 60.5792C112.217 54.7409 111.584 44.9783 111.686 36.5537C110.938 39.3576 110.17 42.2128 109.709 43.9092C109.498 44.6966 109.35 45.2472 109.293 45.452C109.005 46.5211 106.637 54.8561 105.312 58.5563H105.3C105.152 58.8572 104.941 59.1004 104.64 59.2605C104.64 59.2605 104.64 59.2605 104.634 59.2605C104.602 59.2733 104.564 59.2925 104.519 59.3053C104.506 59.3053 104.487 59.3053 104.474 59.3117C104.442 59.3181 104.397 59.3245 104.359 59.3245C104.352 59.3245 104.346 59.3245 104.333 59.3245C104.314 59.3245 104.288 59.3245 104.263 59.3181C104.244 59.3181 104.224 59.3181 104.205 59.3181C104.148 59.3053 104.09 59.2925 104.026 59.2669C103.962 59.2413 103.905 59.2029 103.834 59.1645C103.815 59.1517 103.796 59.1325 103.77 59.1197C103.725 59.0876 103.681 59.0492 103.636 59.0108C103.61 58.9852 103.585 58.966 103.559 58.9404C103.514 58.8956 103.469 58.8572 103.425 58.806C103.399 58.7804 103.373 58.7548 103.354 58.7228C103.303 58.6715 103.258 58.6075 103.207 58.5435C103.188 58.5179 103.169 58.4987 103.149 58.4731C103.079 58.3835 103.009 58.2874 102.938 58.185C102.925 58.1658 102.913 58.1402 102.9 58.121C102.842 58.0314 102.785 57.9417 102.727 57.8521C102.701 57.8137 102.682 57.7689 102.65 57.7305C102.605 57.6473 102.554 57.5704 102.509 57.4808C102.484 57.436 102.458 57.3848 102.433 57.34C102.381 57.2504 102.33 57.1607 102.285 57.0711C102.26 57.0263 102.234 56.9815 102.215 56.9367C102.157 56.8214 102.093 56.7062 102.036 56.5846C102.023 56.559 102.01 56.5334 101.997 56.5078C101.927 56.3605 101.85 56.2069 101.78 56.0532C101.767 56.0212 101.748 55.9828 101.729 55.938C101.671 55.8164 101.613 55.6947 101.556 55.5731C101.53 55.5219 101.511 55.4707 101.486 55.4131C101.434 55.2978 101.383 55.1826 101.332 55.0738C101.306 55.0162 101.287 54.9586 101.262 54.9009C101.21 54.7793 101.159 54.6577 101.108 54.536C101.089 54.4912 101.07 54.44 101.05 54.3952C100.903 54.0495 100.762 53.6974 100.622 53.3389C100.609 53.2941 100.59 53.2493 100.57 53.2045C100.519 53.0701 100.468 52.9356 100.417 52.8012C100.391 52.75 100.372 52.6924 100.353 52.6347C100.308 52.5067 100.257 52.3787 100.212 52.2506C100.193 52.1994 100.174 52.1482 100.154 52.0906C100.103 51.9498 100.046 51.8025 99.9944 51.6553C99.9816 51.6233 99.9688 51.5913 99.956 51.5593C99.892 51.38 99.828 51.2008 99.764 51.0215C99.764 51.0087 99.7577 50.9895 99.7513 50.9767C99.7001 50.8167 99.6361 50.6566 99.5849 50.503C99.5657 50.4518 99.5529 50.4069 99.5337 50.3621C99.4889 50.2405 99.4505 50.1189 99.4057 49.9972C99.3865 49.9396 99.3673 49.882 99.3481 49.8244C99.3161 49.722 99.2713 49.6131 99.2393 49.5107C99.2201 49.4467 99.2009 49.3891 99.1817 49.3315C99.1433 49.2162 99.1049 49.1138 99.0665 49.005C99.0537 48.9602 99.0345 48.9153 99.0217 48.8705C98.9769 48.7297 98.9257 48.5889 98.8873 48.4544C98.8617 48.3776 98.8361 48.3072 98.8169 48.2304C98.7977 48.1664 98.7785 48.1087 98.7593 48.0447C98.7273 47.9615 98.7017 47.8719 98.6761 47.7887C98.6633 47.7566 98.6505 47.7246 98.6441 47.6862C98.6121 47.5838 98.5802 47.4942 98.5482 47.3982C98.4522 48.8193 98.2794 50.9383 98.1002 53.1405C97.8314 56.4117 97.5626 59.7918 97.5434 60.8737C99.2649 63.1399 102.554 64.5035 105.933 64.3306L105.92 64.3178ZM109.555 18.0336C110.08 17.5534 110.829 17.3998 111.501 17.6431C111.545 17.6559 111.897 17.7583 112.205 17.8735L112.217 17.0413C112.134 17.0157 112.045 16.9901 111.955 16.9517C111.104 16.6124 110.579 15.953 110.272 15.4473C109.766 15.9018 109.158 16.6124 108.525 17.355C108.499 17.387 108.474 17.419 108.442 17.4574L108.627 18.9426C108.934 18.6225 109.242 18.3088 109.549 18.0272L109.555 18.0336ZM114.464 7.38115L106.778 4.9165L106.701 5.72952C109.453 6.45931 112.691 7.554 114.092 8.05973L114.47 7.37475L114.464 7.38115ZM116.934 2.91277L116.358 3.11122C116.287 3.13683 116.204 3.13043 116.14 3.09202C116.076 3.05361 116.025 2.98959 116.006 2.91277L115.865 2.2534L115.116 2.84235C115.052 2.89357 114.956 2.91277 114.873 2.88716C114.79 2.86156 114.72 2.79114 114.694 2.71432L114.387 1.78607L113.561 2.41344C113.491 2.46465 113.401 2.48386 113.318 2.45825C113.235 2.43264 113.171 2.36863 113.139 2.28541L112.832 1.37636L112.147 1.83729C112.077 1.8885 111.987 1.9013 111.904 1.8693C111.821 1.84369 111.763 1.77327 111.731 1.69645L111.488 0.947451L110.778 1.41477C110.707 1.45959 110.611 1.47239 110.528 1.44038C110.445 1.40837 110.387 1.33795 110.368 1.25473L110.176 0.473725L109.434 0.883434C109.363 0.921844 109.28 0.928246 109.203 0.896237C109.126 0.864229 109.069 0.800212 109.043 0.729793L108.813 0.0320085L108.103 0.550546C107.994 0.627366 107.847 0.614563 107.751 0.524939L107.226 0L106.823 4.37236L114.726 6.90743L116.927 2.92557L116.934 2.91277ZM105.127 8.28379C107.911 9.32087 108.768 9.8138 109.325 10.6844C109.651 11.1902 109.83 12.0288 110.029 12.9122C110.163 13.514 110.298 14.1413 110.483 14.6279C110.726 15.2808 111.302 16.1067 112.166 16.4524C112.889 16.7404 113.708 16.6636 114.611 16.2283C115.372 15.857 115.865 15.2616 116.076 14.455C116.428 13.1107 115.916 11.5423 115.443 10.8637C115.097 10.3707 114.899 9.90982 114.745 9.54493C114.534 9.03919 114.406 8.76392 114.105 8.64229C113.472 8.41183 112.269 7.98932 110.848 7.52839C109.427 7.07387 107.802 6.57454 106.336 6.19044C106.176 6.14563 106.023 6.12642 105.882 6.12642C105.216 6.12642 104.781 6.55534 104.621 7.04827C104.474 7.51559 104.576 8.07254 105.127 8.27739V8.28379ZM103.821 22.6044C103.956 22.534 104.372 21.8746 104.711 21.3433C105.242 20.511 105.901 19.474 106.618 18.7058C107.13 18.1616 107.635 17.5727 108.122 16.9965C108.813 16.1899 109.466 15.4281 110.022 14.9416C110.003 14.8903 109.984 14.8455 109.971 14.8071C109.792 14.3206 109.651 13.7316 109.523 13.1427C108.57 14.1734 107.949 14.5703 107.431 14.5703C107.027 14.5703 106.682 14.3398 106.266 13.9877L106.189 13.9237C105.735 13.5396 105.466 13.3091 105.05 13.2963C105.082 13.4564 105.146 13.6676 105.191 13.7893C105.287 14.0773 105.332 14.2374 105.306 14.3782C105.28 14.4934 104.813 15.857 103.277 20.2294C102.919 21.2472 102.644 22.0538 102.567 22.2651C102.708 22.4315 103.514 22.6748 103.815 22.598L103.821 22.6044ZM86.7795 25.3891C87.0675 25.5428 88.2514 25.7732 89.2049 25.9589C89.5761 26.0293 89.9345 26.0997 90.2417 26.1701C90.3376 25.4147 90.4784 24.5953 90.5936 24.032C90.0497 23.5902 88.3154 22.1819 88.0402 21.977C87.925 21.8874 87.4899 21.881 86.7283 21.945C86.594 21.9578 86.498 21.9642 86.4404 21.9642C86.2676 21.9642 86.0692 21.8362 85.3589 21.3369C85.0325 21.1064 84.4757 20.7159 84.335 20.6775C84.1366 20.6903 83.3302 21.2152 83.2982 21.5737C83.2598 22.041 83.5094 23.1485 83.599 23.4686C83.9062 23.7695 86.146 25.0626 86.7731 25.3891H86.7795ZM91.0096 28.1098C91.8479 28.9997 93.5054 30.7473 94.1133 31.8356C94.8493 31.5732 96.11 31.1827 97.4346 30.7601C99.4505 30.1328 102.484 29.1853 102.881 28.8973C103.124 28.3531 104.103 25.9653 104.596 24.6849C104.666 24.5313 104.73 24.3905 104.794 24.256C105.332 23.0077 107.027 20.4662 107.507 19.6596C106.573 21.0936 104.352 24.1152 102.772 24.1152C102.689 24.4545 102.561 25.3827 102.465 26.0869C102.145 28.3851 102.087 28.6092 101.914 28.7244C101.697 28.878 101.646 28.9101 96.1932 26.2277C94.2349 25.2611 91.8543 24.0896 91.1568 23.8335C90.984 24.5569 90.6192 27.252 90.6512 27.7257C90.7152 27.7962 90.8624 27.9434 91.0096 28.1098ZM112.345 18.5137C112.185 18.4241 111.641 18.2448 111.341 18.1552C110.842 17.976 110.304 18.0848 109.926 18.4305C108.243 19.9733 106.49 22.2203 105.46 24.16C105.338 24.3841 105.223 24.6145 105.101 24.8898C104.596 26.2021 103.565 28.6988 103.367 29.1533C103.245 29.4414 102.509 29.7423 97.601 31.2723C96.1356 31.7268 94.7533 32.1621 94.0813 32.4118C93.9213 32.4758 93.8317 32.5142 93.7806 32.5334C93.6974 33.34 95.0732 38.5958 97.2747 41.3934L97.4154 41.5726C99.4761 44.2293 102.791 49.5619 104.026 51.8857C104.084 52.001 104.141 52.1034 104.192 52.2058C104.301 52.4235 104.384 52.6027 104.442 52.7436C104.839 53.7486 105.312 55.1186 105.479 56.3605C106.803 52.2762 108.525 46.201 108.768 45.2984C108.819 45.0999 108.973 44.543 109.184 43.7556C109.76 41.6238 110.835 37.6548 111.731 34.2619V34.2363H111.737C112.576 31.061 113.056 29.1533 113.216 28.3915C114.016 24.5377 114.259 19.634 112.339 18.5137H112.345ZM104.327 12.8738C105.364 12.5857 105.805 12.8866 106.541 13.5204L106.624 13.5908C107.328 14.1862 107.648 14.4614 109.389 12.5089C109.248 11.8879 109.088 11.3054 108.877 10.9725C108.448 10.3003 107.744 9.87141 105.684 9.0712C105.748 10.486 105.568 10.9149 105.421 11.1069C105.364 11.1838 105.248 11.2862 105.031 11.4846C104.724 11.7663 104.084 12.3361 104.007 12.5985C103.994 12.6433 103.975 12.7202 104.007 12.765C104.039 12.8098 104.154 12.8546 104.333 12.8674L104.327 12.8738ZM106.362 10.2363C106.906 10.3835 107.258 10.5116 107.296 10.6652C107.136 10.7805 106.605 10.7356 106.323 10.8445C106.221 10.6844 106.266 10.4092 106.362 10.2299V10.2363ZM140.068 80.8534C135.62 79.6627 134.43 84.6816 136.702 86.0388C131.992 86.6341 130.565 82.8571 127.806 75.2711C126.603 71.9743 124.78 69.4776 122.674 67.8004C123.512 67.8004 124.351 67.8068 125.196 67.8132C125.701 67.8132 126.059 67.3138 125.88 66.8401L125.144 64.8172C123.788 64.8172 122.425 64.8172 121.042 64.8364L121.701 67.109C119.954 65.9567 118.067 65.3293 116.217 65.2333C118.041 62.8454 119.129 59.8687 119.129 56.6358C119.129 53.7806 118.278 51.1239 116.825 48.9025C119.839 48.9666 128.235 49.1138 130.565 48.8321C134.814 48.3136 141.949 47.9359 146.391 40.1834H114.886C114.316 40.1834 113.811 40.5355 113.612 41.0733L112.339 44.5494L111.846 45.8809C111.846 45.9386 111.846 45.9962 111.853 46.0538C115.308 48.3136 117.593 52.2122 117.593 56.6422C117.593 63.6136 111.923 69.2855 104.954 69.2855C97.985 69.2855 92.3151 63.6136 92.3151 56.6422C92.3151 52.2186 94.5997 48.32 98.049 46.0602L97.6074 44.8311L97.6266 44.8183L96.2507 41.0797C96.0524 40.5483 95.5468 40.1898 94.9773 40.1898H63.4727C67.9139 47.9359 75.0429 48.3136 79.2986 48.8385C81.6408 49.1266 90.1009 48.973 93.083 48.909C91.6303 51.1367 90.7792 53.7934 90.7792 56.6422C90.7792 59.8687 91.8607 62.8454 93.6846 65.2333C91.8671 65.2973 89.9985 65.8734 88.2642 66.9617L88.8786 64.8556C87.5027 64.8428 86.1396 64.8428 84.7765 64.8364L84.0406 66.8593C83.8678 67.333 84.2198 67.8388 84.7253 67.8324C85.4996 67.8324 86.274 67.826 87.0419 67.8196C84.9365 69.4968 83.1062 71.9871 81.9095 75.2903C79.1514 82.8763 77.7243 86.6533 73.0143 86.058C75.2797 84.7008 74.0958 79.6755 69.6482 80.8726C65.9429 81.8649 65.9429 89.0732 72.3424 89.0476C79.2922 89.022 81.3272 84.2783 83.855 77.5309C86.1268 71.4621 88.9234 68.3765 93.3646 67.7171L84.1622 91.6851C83.8934 92.3893 84.2582 93.1831 84.9749 93.4263C85.6852 93.6696 86.4596 93.2791 86.6836 92.5557L94.7661 66.4816C95.1308 66.8593 95.5212 67.2178 95.9244 67.5571L87.5347 93.1191C87.2979 93.8361 87.7075 94.6106 88.4306 94.8155C89.1537 95.0268 89.9025 94.5914 90.0945 93.8616L96.6923 68.146C97.0187 68.3829 97.3579 68.607 97.7034 68.8118L90.9712 94.2906C90.7792 95.0204 91.2336 95.7694 91.9695 95.9358C92.7054 96.1022 93.4286 95.6285 93.5694 94.8859L98.5546 69.2855C98.8553 69.4392 99.1561 69.58 99.4697 69.7081L94.4909 95.1996C94.3437 95.9422 94.8493 96.6592 95.5916 96.7744C96.3339 96.8897 97.0251 96.3711 97.1211 95.6221L100.378 70.0537C100.692 70.1626 101.012 70.2586 101.338 70.3418L98.0618 95.827C97.9658 96.576 98.5098 97.2545 99.2649 97.325C100.014 97.3954 100.673 96.832 100.718 96.0766L102.298 70.5531C102.65 70.6171 103.002 70.6747 103.367 70.7131L101.671 96.1727C101.626 96.9281 102.215 97.5682 102.97 97.5874C103.725 97.6066 104.34 96.9985 104.333 96.2431V70.7899C104.532 70.7963 104.736 70.8027 104.941 70.8027C105.101 70.8027 105.268 70.8027 105.428 70.7963L105.357 96.2495C105.357 97.0049 105.972 97.6066 106.72 97.5938C107.475 97.5746 108.064 96.9345 108.019 96.1791L106.4 70.7323C106.733 70.7003 107.066 70.6491 107.399 70.5915L108.979 96.0766C109.024 96.8256 109.683 97.389 110.432 97.325C111.187 97.2545 111.731 96.576 111.635 95.827L108.365 70.3866C108.691 70.3034 109.011 70.2138 109.325 70.1114L112.576 95.6157C112.672 96.3647 113.363 96.8833 114.105 96.768C114.854 96.6528 115.353 95.9358 115.206 95.1932L110.246 69.7721C110.56 69.644 110.861 69.5096 111.161 69.3624L116.127 94.8795C116.268 95.6157 116.998 96.0894 117.727 95.9294C118.463 95.763 118.918 95.0204 118.726 94.2842L112.019 68.9014C112.365 68.6966 112.704 68.4853 113.037 68.2549L119.609 93.8552C119.794 94.585 120.549 95.014 121.273 94.8091C122.002 94.5979 122.405 93.8296 122.169 93.1127L113.817 67.6723C114.227 67.3458 114.611 66.9937 114.982 66.6224L123.02 92.5493C123.244 93.2663 124.012 93.6632 124.728 93.4199C125.445 93.1767 125.816 92.3829 125.541 91.6787L116.339 67.7107C120.78 68.3701 123.576 71.4557 125.848 77.5245C128.37 84.2655 130.405 89.0092 137.361 89.0412C143.767 89.0668 143.767 81.8585 140.055 80.8662L140.068 80.8534ZM181.677 60.9633C181.728 60.9441 181.786 60.9249 181.837 60.9057C182.957 60.4832 182.983 59.7598 181.882 59.2733L173.051 55.4003C172.404 55.8228 171.72 56.2261 170.99 56.6166L179.732 60.8673C180.34 61.1618 181.044 61.2002 181.677 60.9633ZM177.217 62.2693C177.217 62.2693 177.249 62.2629 177.268 62.2565C178.068 62.0708 178.189 60.9761 177.447 60.6112L170.133 57.0519C169.774 57.2312 169.403 57.404 169.025 57.5768C168.75 57.6985 168.456 57.8137 168.174 57.9289L175.649 62.0324C176.129 62.2949 176.686 62.3781 177.217 62.2565V62.2693ZM171.668 63.2359C172.206 63.1655 172.737 63.0887 173.262 63.0119C173.908 62.9159 174.055 62.0516 173.479 61.7379L167.221 58.3002C166.37 58.6075 165.487 58.8828 164.559 59.1261L170.427 62.9479C170.792 63.1847 171.233 63.2872 171.668 63.2359ZM156.22 64.1834C156.745 64.177 157.263 64.1642 157.782 64.1514C158.217 64.145 158.409 63.6008 158.076 63.3192L154.947 60.6625C153.788 60.7585 152.598 60.8353 151.376 60.8993L153.884 63.268C154.518 63.8633 155.356 64.1962 156.22 64.1834ZM161.327 64.049C162.037 64.0234 162.735 63.9913 163.432 63.9529C163.778 63.9337 163.906 63.4984 163.637 63.2872L159.503 60.1439C158.39 60.3104 157.231 60.4448 156.035 60.56L159.311 63.3448C159.874 63.8185 160.591 64.0746 161.327 64.0426V64.049ZM166.53 63.7545C166.971 63.7225 167.413 63.6841 167.848 63.6456C168.494 63.588 168.699 62.743 168.155 62.3909L163.541 59.3821C162.588 59.6062 161.589 59.8046 160.559 59.9711L164.885 63.2616C165.352 63.62 165.934 63.7929 166.523 63.7481L166.53 63.7545ZM179.751 46.3803C179.751 46.3803 179.757 46.3611 179.764 46.3483C180.173 45.3752 179.514 44.2933 178.465 44.2293L146.634 42.3472C146.608 42.5777 146.621 42.4752 146.595 42.7057L178.145 47.2701C178.823 47.3661 179.489 47.0076 179.751 46.3739V46.3803ZM181.063 42.3728C181.076 42.3216 181.088 42.2768 181.101 42.2256C181.338 41.2653 180.615 40.3371 179.629 40.3371H147.728C147.542 40.766 147.331 41.1885 147.101 41.5982L179.508 43.5123C180.237 43.5571 180.89 43.077 181.069 42.3728H181.063ZM195.897 48.5953C195.897 48.5953 195.897 48.5825 195.903 48.5761C196.198 47.9231 195.75 47.1805 195.039 47.1165L180.768 45.8233C180.596 46.2779 180.41 46.726 180.212 47.1613L194.79 49.2098C195.257 49.2738 195.698 49.0242 195.89 48.5953H195.897ZM185.766 59.0748C185.907 58.998 186.048 58.9212 186.189 58.8444C186.842 58.4795 186.758 57.5128 186.054 57.2568L175.604 53.4734C175.054 53.9599 174.459 54.4336 173.825 54.8817L183.597 59.1645C184.295 59.4717 185.101 59.4397 185.773 59.0748H185.766ZM150.806 64.2218C151.44 64.2218 152.06 64.2218 152.681 64.2218C153.072 64.2218 153.257 63.7417 152.976 63.4792L150.307 60.9505C149.385 60.9889 148.458 61.021 147.498 61.0466L149.232 63.428C149.597 63.9337 150.185 64.2282 150.806 64.2282V64.2218ZM189.037 57.0199C189.165 56.9239 189.293 56.8278 189.421 56.7318C190.118 56.2005 189.894 55.0994 189.049 54.8689L177.351 51.6873C176.999 52.097 176.628 52.4875 176.238 52.8716L188.051 57.1543C188.384 57.276 188.755 57.2248 189.037 57.0199ZM192.095 54.3312C192.153 54.2672 192.211 54.2096 192.268 54.1455C192.819 53.5438 192.499 52.5707 191.705 52.3979L178.881 49.6323C178.573 50.1189 178.241 50.5862 177.889 51.0407L191.059 54.6193C191.43 54.7217 191.833 54.6193 192.095 54.3312ZM194.335 51.4696C194.335 51.4696 194.342 51.4568 194.348 51.4504C194.764 50.8039 194.367 49.9396 193.599 49.8308L179.86 47.8975C179.681 48.2496 179.495 48.5953 179.303 48.9282L193.215 51.9306C193.651 52.0266 194.092 51.8345 194.335 51.4632V51.4696ZM130.277 50.1765L135.819 59.4974C136.126 60.0159 136.689 60.336 137.29 60.3424C137.566 60.3424 137.847 60.3424 138.122 60.3424C138.66 60.3424 138.974 59.7278 138.654 59.2989L131.819 50.0228C131.249 50.0997 130.731 50.1509 130.277 50.1765ZM142.525 46.5211L164.981 57.532C165.538 57.8009 166.178 57.8329 166.754 57.6153L167.112 57.4808C167.72 57.2504 167.733 56.3861 167.125 56.1429L142.666 46.1946C142.57 46.4059 142.615 46.3099 142.519 46.5211H142.525ZM136.836 48.9154L148.125 59.619C148.541 60.0159 149.104 60.2271 149.68 60.2079C150.064 60.1951 150.441 60.1759 150.819 60.1567C151.305 60.1311 151.497 59.523 151.113 59.2221L137.559 48.6785C137.316 48.7617 137.073 48.8385 136.836 48.9154ZM146.41 64.2154C146.743 64.2154 147.075 64.2154 147.408 64.2154C148.003 64.2154 148.349 63.5368 147.997 63.0567L146.544 61.0658C145.405 61.0914 144.24 61.1042 143.05 61.1106L144.208 62.9799C144.682 63.7417 145.507 64.2026 146.403 64.209L146.41 64.2154ZM143.421 45.6633L168.661 55.9252C169.377 56.2197 170.197 56.1813 170.875 55.81C171.08 55.6947 171.284 55.5859 171.483 55.4707C172.225 55.0418 172.104 53.9343 171.284 53.6846L143.844 45.3304C143.703 45.4392 143.562 45.5545 143.415 45.6633H143.421ZM138.583 48.4928L152.771 59.5294C153.174 59.843 153.68 59.9967 154.185 59.9583C154.537 59.9327 154.883 59.9007 155.222 59.8751C155.676 59.8366 155.823 59.2413 155.439 58.998L138.775 48.2304C138.654 48.3968 138.705 48.3264 138.59 48.4928H138.583ZM139.633 47.8655L157.25 59.2477C157.609 59.4781 158.038 59.5806 158.46 59.523C158.62 59.5038 158.786 59.4781 158.946 59.4589C159.535 59.3757 159.682 58.5819 159.157 58.2938L139.799 47.5838C139.69 47.7695 139.741 47.6862 139.626 47.8655H139.633ZM177.633 50.1509C177.677 50.0869 177.729 50.0228 177.773 49.9588C178.349 49.1522 177.876 48.0255 176.897 47.8847L145.847 43.3907C145.738 43.5187 145.629 43.6468 145.514 43.7748L176.282 50.6566C176.794 50.7718 177.326 50.5734 177.633 50.1509ZM197.983 42.0655C198.015 41.9119 198.047 41.7647 198.079 41.611C198.213 40.9644 197.721 40.3499 197.055 40.3499H182.292C182.157 41.0349 182.01 41.6942 181.85 42.3408L196.914 42.8978C197.42 42.917 197.868 42.5649 197.977 42.0719L197.983 42.0655ZM144.547 44.735L173.428 53.5246C173.863 53.659 174.331 53.563 174.683 53.2685L175.431 52.6475C175.969 52.1994 175.758 51.3352 175.079 51.1815L144.887 44.4278C144.778 44.5302 144.663 44.6326 144.554 44.735H144.547ZM195.922 46.4251C196.409 46.4699 196.863 46.169 197.01 45.7017C197.087 45.4648 197.164 45.228 197.234 44.9847C197.426 44.3317 196.946 43.6724 196.268 43.6468L181.652 43.109C181.466 43.7876 181.261 44.447 181.044 45.0871L195.916 46.4315L195.922 46.4251ZM119.679 60.9953L120.236 63.0951C120.39 63.6649 120.908 64.0618 121.497 64.0554C121.913 64.0554 122.329 64.0554 122.745 64.049C123.237 64.049 123.583 63.5688 123.436 63.1015L122.783 61.0018C121.759 61.0018 120.722 61.0018 119.679 61.0018V60.9953ZM124.037 59.1645L121.676 50.2149H119.846L121.797 59.1517C121.932 59.7726 122.482 60.2207 123.122 60.2207C123.154 60.2207 123.186 60.2207 123.218 60.2207C123.775 60.2207 124.178 59.7022 124.037 59.1645ZM140.861 47.2701L161.231 58.5435C161.711 58.806 162.268 58.8828 162.799 58.7676C162.805 58.7676 162.818 58.7676 162.824 58.7676C163.49 58.6203 163.592 57.7177 162.978 57.4168L141.54 46.9052C141.316 47.0333 141.085 47.1549 140.855 47.2765L140.861 47.2701ZM132.529 67.8452C132.984 67.8452 133.432 67.8452 133.886 67.8452C134.488 67.8452 134.878 67.2114 134.596 66.6737L133.656 64.8492C132.427 64.8364 131.198 64.83 129.957 64.8172L130.865 66.7697C131.166 67.4163 131.813 67.8324 132.529 67.8388V67.8452ZM127.583 67.826C128.171 67.826 128.766 67.826 129.355 67.8324C129.886 67.8324 130.245 67.2818 130.021 66.8017L129.106 64.8236C128.069 64.8236 127.032 64.8172 125.983 64.8172L126.904 67.3522C127.007 67.6403 127.282 67.826 127.583 67.8324V67.826ZM122.476 50.2149L124.805 59.0236C124.991 59.7342 125.637 60.2335 126.373 60.2399C126.539 60.2399 126.699 60.2399 126.866 60.2399C127.371 60.2399 127.723 59.7342 127.538 59.2605L123.999 50.2149H122.476ZM137.201 67.8516C137.566 67.8516 137.937 67.8516 138.302 67.8516C138.916 67.8516 139.3 67.1794 138.993 66.648L137.975 64.9004C136.836 64.8876 135.691 64.8748 134.532 64.862L135.563 66.8529C135.876 67.4611 136.51 67.8516 137.201 67.8516ZM139.031 63.3128L137.726 61.1106C136.83 61.1106 135.915 61.0978 134.993 61.0914L136.03 63.1783C136.318 63.7481 136.9 64.113 137.534 64.1258C137.879 64.1258 138.218 64.1322 138.558 64.1386C139.089 64.1386 139.3 63.7737 139.025 63.3192L139.031 63.3128ZM141.719 64.1642C142.154 64.1642 142.583 64.1706 143.012 64.177C143.466 64.177 143.748 63.6777 143.511 63.2936L142.16 61.117C141.687 61.117 141.213 61.117 140.727 61.117C140.036 61.117 139.338 61.117 138.628 61.117L139.773 63.0439C140.183 63.7289 140.919 64.1578 141.719 64.1642ZM124.831 50.2085L128.338 59.1837C128.587 59.8302 129.208 60.2592 129.906 60.2656C130.027 60.2656 130.149 60.2656 130.264 60.2656C130.84 60.2656 131.224 59.6702 130.974 59.1453L126.667 50.2085H124.831ZM134.974 49.4211L143.844 59.5294C144.279 60.0287 144.919 60.3104 145.584 60.304C145.923 60.304 146.256 60.2912 146.589 60.2848C146.998 60.2784 147.19 59.779 146.896 59.4974L135.991 49.1586C135.646 49.2546 135.307 49.3443 134.974 49.4211ZM132.696 49.882L139.729 59.4269C140.151 60.0031 140.823 60.336 141.533 60.336C141.815 60.336 142.09 60.336 142.365 60.336C142.813 60.336 143.05 59.811 142.756 59.4717L134.11 49.6195C133.617 49.722 133.144 49.8116 132.689 49.8884L132.696 49.882ZM129.24 50.2021H127.531L131.825 59.1068C132.171 59.8238 132.9 60.2848 133.694 60.2912C133.828 60.2912 133.956 60.2912 134.091 60.2912C134.673 60.2912 135.038 59.6638 134.737 59.1581L129.4 50.1957C129.342 50.1957 129.285 50.1957 129.234 50.1957L129.24 50.2021ZM131.16 61.0402L131.864 62.8903C132.133 63.5944 132.804 64.0618 133.553 64.0682C133.931 64.0682 134.308 64.0746 134.686 64.081C135.115 64.081 135.396 63.6329 135.204 63.2487L134.123 61.0786C133.15 61.0722 132.165 61.0594 131.16 61.053V61.0402ZM127.25 61.0018L128.056 63.1143C128.267 63.6649 128.792 64.0233 129.381 64.0298C129.72 64.0298 130.053 64.0298 130.392 64.0298C130.91 64.0298 131.275 63.5112 131.089 63.0247L130.328 61.021C129.31 61.0082 128.28 61.0018 127.25 60.9953V61.0018ZM125.547 64.017C125.951 64.017 126.347 64.017 126.751 64.017C127.147 64.017 127.423 63.62 127.282 63.2487L126.418 60.9953C125.483 60.9889 124.549 60.9825 123.602 60.9761L124.255 63.0631C124.434 63.6264 124.959 64.017 125.547 64.017ZM152.944 64.9772C152.188 64.9772 151.427 64.9836 150.659 64.9836C150.115 64.9836 149.565 64.9836 149.021 64.9836L150.582 67.0193C150.941 67.4803 151.497 67.7491 152.08 67.7427C152.624 67.7363 153.161 67.7235 153.705 67.7107C154.403 67.6979 154.748 66.8593 154.262 66.3536L152.95 64.9772H152.944ZM171.7 65.9567L169.601 64.2474C168.187 64.3947 166.715 64.5163 165.199 64.6123L166.856 66.2191C167.458 66.8081 168.283 67.1026 169.121 67.0386C169.896 66.9809 170.664 66.9233 171.419 66.8593C171.873 66.8209 172.052 66.2447 171.7 65.9567ZM158.07 64.9068C156.745 64.9388 155.388 64.958 154.012 64.9708L155.663 66.6929C156.239 67.2946 157.039 67.6211 157.871 67.5955C158.447 67.5763 159.017 67.5571 159.58 67.5379C160.028 67.5187 160.239 66.9681 159.913 66.6609L158.076 64.9004L158.07 64.9068ZM182.522 64.0618L179.866 62.3653C178.727 62.6982 177.524 62.9927 176.263 63.2487L178.413 65.054C179.085 65.6174 179.968 65.8542 180.832 65.707C181.319 65.6238 181.792 65.5406 182.26 65.4509C182.938 65.3229 183.111 64.4331 182.528 64.0618H182.522ZM177.543 65.3421L175.278 63.4408C173.819 63.7097 172.283 63.9401 170.676 64.1258L172.814 65.867C173.428 66.3664 174.215 66.5968 175.003 66.5072C175.777 66.424 176.532 66.328 177.274 66.2319C177.716 66.1743 177.876 65.6238 177.537 65.3357L177.543 65.3421ZM148.035 64.9772C146.64 64.9708 145.219 64.958 143.786 64.9452L145.296 67.0386C145.648 67.5251 146.211 67.8068 146.807 67.8068C147.402 67.8068 147.99 67.794 148.579 67.7876C149.238 67.7811 149.603 67.0193 149.2 66.5008L148.035 64.9772ZM117.452 64.081C117.926 64.0746 118.399 64.0682 118.873 64.0618C119.289 64.0618 119.59 63.6585 119.487 63.2551L118.937 61.181C118.54 62.1861 118.047 63.1591 117.452 64.081ZM142.826 64.9388C141.521 64.926 140.209 64.9132 138.878 64.894L140.055 66.9169C140.388 67.4867 140.996 67.8324 141.655 67.8324C142.224 67.8324 142.788 67.8324 143.357 67.8324C144.01 67.8324 144.381 67.0898 144.004 66.5648L142.832 64.9452L142.826 64.9388ZM164.155 64.6763C162.536 64.7659 160.873 64.8364 159.157 64.8812L160.943 66.5904C161.525 67.141 162.306 67.4355 163.106 67.4035C163.944 67.365 164.776 67.3202 165.602 67.2754C166.043 67.2498 166.242 66.7121 165.922 66.3984L164.149 64.6763H164.155ZM203.243 52.289L195.455 51.0599C195.116 51.6425 194.751 52.1994 194.361 52.7436L201.823 54.7857C202.271 54.9073 202.751 54.7729 203.064 54.4336C203.301 54.1711 203.531 53.9023 203.762 53.627C204.171 53.1405 203.877 52.3915 203.25 52.289H203.243ZM205.272 48.6145L196.985 47.9359C196.646 48.7681 196.274 49.5747 195.858 50.3429L204.357 51.6873C204.843 51.7641 205.33 51.54 205.598 51.1303C205.778 50.8487 205.957 50.567 206.13 50.2789C206.545 49.5811 206.085 48.6913 205.278 48.6273L205.272 48.6145ZM206.968 44.5878L198.226 44.2421C197.945 45.2664 197.631 46.2394 197.279 47.1741L206.456 47.9295C206.981 47.9743 207.48 47.6862 207.685 47.2061C207.819 46.8988 207.947 46.5851 208.075 46.265C208.389 45.4776 207.813 44.6198 206.961 44.5814L206.968 44.5878ZM208.235 40.3243H199.109C198.905 41.419 198.681 42.4688 198.425 43.4739L207.928 43.8452C208.51 43.8708 209.028 43.4803 209.176 42.917C209.272 42.5649 209.361 42.2064 209.444 41.8415C209.624 41.0669 209.028 40.3243 208.235 40.3243ZM188.441 62.6662L184.295 60.6817C184.135 60.7585 183.975 60.8353 183.815 60.9121C182.88 61.341 181.888 61.7251 180.832 62.0708L183.981 64.081C184.743 64.5675 185.67 64.7147 186.541 64.4715C187.181 64.2922 187.789 64.1066 188.371 63.9081C188.947 63.7161 188.992 62.9223 188.441 62.6598V62.6662ZM193.318 60.2848L188.403 58.3835C187.417 59.0364 186.349 59.6574 185.184 60.2464L189.734 62.4165C190.444 62.7558 191.27 62.7494 191.974 62.4101C192.46 62.1733 192.94 61.93 193.407 61.6867C193.996 61.3795 193.939 60.5216 193.318 60.2784V60.2848ZM200.466 55.2146L193.855 53.4093C193.286 54.1455 192.659 54.8433 191.974 55.5091L199.09 57.436C199.474 57.5384 199.89 57.4488 200.197 57.1927L200.792 56.687C201.317 56.2453 201.132 55.3939 200.466 55.2146ZM197.273 57.7497L191.308 56.1365C190.649 56.7318 189.932 57.3016 189.165 57.8521L195.052 60.1247C195.423 60.272 195.846 60.2271 196.178 60.0031L197.49 59.1389C198.047 58.774 197.913 57.9161 197.266 57.7433L197.273 57.7497ZM90.6256 35.8239C90.6256 35.8239 90.2289 34.9469 89.2945 35.4014C88.7506 36.2208 85.6276 36.9826 84.111 35.0685C82.6263 33.1864 83.503 30.6129 85.2629 29.8831C87.0227 29.1533 89.0514 30.1264 89.6593 30.9458C89.6593 30.9458 90.6 31.1891 91.144 31.1891C90.0241 27.5785 83.7782 26.5222 82.0823 31.4003C80.3481 36.3936 87.3235 40.1962 90.632 35.8239H90.6256ZM14.4848 51.0855L6.69668 52.3147C6.06953 52.4107 5.78156 53.1597 6.18472 53.6526C6.4087 53.9215 6.64548 54.1903 6.88226 54.4592C7.18944 54.8049 7.6758 54.9394 8.12376 54.8113L15.5855 52.7692C15.1952 52.225 14.8304 51.6617 14.4912 51.0855H14.4848ZM12.9554 47.9615L4.66805 48.6401C3.86172 48.7041 3.40096 49.6003 3.81692 50.2917C3.98971 50.5798 4.16249 50.8615 4.34808 51.1431C4.61685 51.5592 5.10321 51.7833 5.58957 51.7001L14.0881 50.3557C13.6721 49.5875 13.3009 48.7873 12.9618 47.9487L12.9554 47.9615ZM16.0783 53.4414L9.46764 55.2466C8.8085 55.4259 8.61652 56.2773 9.14127 56.719L9.73642 57.2248C10.0436 57.4808 10.4532 57.5768 10.8435 57.468L17.9597 55.5411C17.275 54.8689 16.6542 54.1711 16.0783 53.4414ZM18.6189 56.1685L12.6546 57.7817C12.0082 57.9545 11.8738 58.8124 12.4306 59.1773L13.7425 60.0415C14.0753 60.2592 14.4976 60.304 14.8688 60.1631L20.7563 57.8905C19.9884 57.34 19.278 56.7702 18.6125 56.1749L18.6189 56.1685ZM21.5306 58.4155L16.6158 60.3168C15.9951 60.5536 15.9439 61.4179 16.5263 61.7251C16.9934 61.9684 17.4734 62.2117 17.9597 62.4485C18.6637 62.7878 19.4892 62.7942 20.1995 62.4549L24.7496 60.2848C23.5849 59.6958 22.5161 59.0748 21.5306 58.4219V58.4155ZM26.119 60.9441C25.9527 60.8673 25.7991 60.7905 25.6391 60.7137L21.4922 62.6982C20.9483 62.9607 20.9931 63.7545 21.5626 63.9465C22.145 64.145 22.7529 64.3306 23.3929 64.5099C24.2632 64.7531 25.1911 64.5995 25.9527 64.1194L29.1012 62.1092C28.0453 61.7635 27.047 61.3795 26.119 60.9505V60.9441ZM12.693 44.9911C12.7634 45.2344 12.8402 45.4712 12.917 45.7081C13.0705 46.1754 13.5185 46.4763 14.0113 46.4315L28.8836 45.0871C28.6596 44.447 28.4612 43.794 28.2757 43.109L13.6593 43.6468C12.9809 43.6724 12.501 44.3317 12.693 44.9847V44.9911ZM11.9506 42.0719C12.0594 42.5713 12.501 42.917 13.0129 42.8978L28.0773 42.3408C27.9173 41.6942 27.7701 41.0349 27.6357 40.3499H12.8722C12.2066 40.3499 11.7139 40.9644 11.8482 41.611C11.8802 41.7647 11.9122 41.9119 11.9442 42.0655L11.9506 42.0719ZM28.8708 42.392C29.05 43.0962 29.7027 43.5763 30.4323 43.5315L62.8392 41.6174C62.6024 41.2077 62.3912 40.7852 62.212 40.3563H30.2979C29.3124 40.3563 28.5892 41.2845 28.826 42.2448C28.8388 42.296 28.8516 42.3408 28.8644 42.392H28.8708ZM11.7203 44.2741L2.97859 44.6198C2.13386 44.6518 1.55791 45.5097 1.86508 46.3035C1.98667 46.6235 2.12106 46.9308 2.25545 47.2445C2.46663 47.7246 2.96579 48.0127 3.48415 47.9679L12.661 47.2125C12.309 46.2779 11.9954 45.2984 11.7139 44.2805L11.7203 44.2741ZM11.5155 43.5059C11.2595 42.5009 11.0355 41.451 10.8307 40.3563H1.6987C0.898766 40.3563 0.303616 41.0989 0.489201 41.8735C0.572394 42.2384 0.661986 42.5969 0.757978 42.949C0.911565 43.5123 1.42352 43.9028 2.00587 43.8772L11.5091 43.5059H11.5155ZM59.2811 65.0156C58.5131 65.0156 57.7516 65.0156 56.9964 65.0092L55.6846 66.3856C55.2046 66.8913 55.5502 67.7235 56.2413 67.7427C56.7789 67.7555 57.3228 67.7619 57.8668 67.7747C58.4491 67.7876 59.0059 67.5187 59.3642 67.0514L60.9257 65.0156C60.3754 65.0156 59.825 65.0156 59.2875 65.0156H59.2811ZM61.8984 65.0092L60.7337 66.5328C60.3306 67.0578 60.6953 67.8132 61.3545 67.8196C61.9432 67.826 62.532 67.8324 63.1271 67.8388C63.7223 67.8388 64.2918 67.5571 64.6374 67.0706L66.1477 64.9772C64.7142 64.99 63.2935 65.0028 61.8984 65.0092ZM69.885 66.9489L71.0625 64.926C69.7314 64.9388 68.4195 64.958 67.114 64.9708L65.9429 66.5904C65.5653 67.1218 65.9365 67.858 66.5892 67.858C67.1524 67.858 67.7219 67.858 68.2915 67.858C68.9506 67.858 69.5586 67.5123 69.8914 66.9425L69.885 66.9489ZM92.4879 64.113C91.8927 63.1975 91.4 62.2245 91.0032 61.213L90.4528 63.2872C90.344 63.6905 90.6448 64.0874 91.0672 64.0938C91.5407 64.0938 92.0143 64.1066 92.4879 64.113ZM45.7846 64.7083L44.0119 66.4304C43.692 66.7377 43.8903 67.2818 44.3319 67.3074C45.151 67.3522 45.983 67.397 46.8277 67.4355C47.6276 67.4739 48.4084 67.1794 48.9907 66.6224L50.7762 64.9132C49.0611 64.8684 47.3973 64.798 45.7782 64.7083H45.7846ZM40.3386 64.2794L38.2396 65.9887C37.8813 66.2767 38.0604 66.8529 38.5212 66.8913C39.2763 66.9553 40.0443 67.0193 40.8186 67.0706C41.6569 67.1346 42.4825 66.8337 43.084 66.2511L44.7415 64.6443C43.2248 64.5483 41.7593 64.4267 40.3386 64.2794ZM51.8705 64.9388L50.0338 66.6993C49.7075 67.0129 49.9186 67.5635 50.3666 67.5763C50.9362 67.5955 51.5057 67.6147 52.0753 67.6339C52.9072 67.6595 53.7071 67.3266 54.2831 66.7313L55.9341 65.0092C54.5583 64.9964 53.2016 64.9772 51.8769 64.9452L51.8705 64.9388ZM34.6559 63.4728L32.3905 65.3741C32.0513 65.6622 32.2113 66.2127 32.6529 66.2703C33.3952 66.3664 34.1504 66.456 34.9247 66.5456C35.7118 66.6352 36.499 66.4048 37.1133 65.9054L39.2507 64.1642C37.6445 63.9785 36.115 63.7481 34.6495 63.4792L34.6559 63.4728ZM30.0739 62.3973L27.4181 64.0938C26.8358 64.4651 27.0086 65.3549 27.6869 65.4829C28.1541 65.5726 28.6276 65.6558 29.114 65.739C29.9779 65.8862 30.861 65.643 31.533 65.086L33.6832 63.2808C32.4225 63.0247 31.2194 62.7302 30.0803 62.3973H30.0739ZM80.5529 64.0618C81.1416 64.0618 81.6664 63.6969 81.8776 63.1463L82.6839 61.0338C81.6536 61.0402 80.6233 61.053 79.6057 61.0594L78.8442 63.0631C78.6586 63.5496 79.017 64.0682 79.5417 64.0682C79.8809 64.0682 80.2137 64.0682 80.5529 64.0682V64.0618ZM42.0793 63.6649C42.5145 63.7033 42.956 63.7417 43.3976 63.7737C43.9863 63.8185 44.5687 63.6393 45.0359 63.2872L49.3619 59.9967C48.3316 59.8238 47.3333 59.6318 46.3797 59.4077L41.7657 62.4165C41.2218 62.7686 41.433 63.6136 42.0729 63.6713L42.0793 63.6649ZM86.4916 63.1079C86.3444 63.5752 86.6964 64.0554 87.1827 64.0554C87.5987 64.0554 88.0146 64.0554 88.4306 64.0618C89.0194 64.0618 89.5377 63.6713 89.6913 63.1015L90.2481 61.0018C89.2049 61.0018 88.1682 61.0018 87.1443 61.0018L86.4916 63.1015V63.1079ZM36.659 63.0311C37.1837 63.1079 37.7149 63.1847 38.2524 63.2551C38.6876 63.3128 39.1292 63.2103 39.4939 62.9671L45.3622 59.1453C44.4343 58.902 43.5512 58.6267 42.7001 58.3194L36.4414 61.7572C35.8718 62.0708 36.019 62.9351 36.659 63.0311ZM23.7384 58.8636C23.8792 58.9404 24.0136 59.0172 24.1608 59.094C24.8328 59.4589 25.6391 59.491 26.3366 59.1837L36.1086 54.9009C35.4751 54.4464 34.8799 53.9791 34.3296 53.4926L23.8792 57.276C23.1753 57.532 23.0921 58.4987 23.7448 58.8636H23.7384ZM28.0773 60.9185C28.1285 60.9377 28.1861 60.9569 28.2373 60.9761C28.8708 61.213 29.5748 61.1746 30.1827 60.8801L38.9244 56.6294C38.1948 56.2389 37.5101 55.8356 36.8637 55.4131L28.0325 59.2861C26.9318 59.7662 26.9574 60.496 28.0773 60.9185ZM20.5067 56.751C20.6347 56.8471 20.7627 56.9431 20.8907 57.0391C21.1723 57.244 21.5434 57.2952 21.8762 57.1735L33.6896 52.8908C33.2992 52.5067 32.9217 52.1098 32.5761 51.7065L20.8779 54.8881C20.0332 55.1186 19.8092 56.2197 20.5067 56.751ZM29.1524 45.8425L14.8816 47.1357C14.1713 47.1997 13.7233 47.9487 14.0177 48.5953C14.0177 48.6017 14.0177 48.6081 14.0241 48.6145C14.216 49.0434 14.664 49.2931 15.1248 49.229L29.7027 47.1805C29.5044 46.7452 29.3188 46.2971 29.146 45.8425H29.1524ZM15.5855 51.4824C15.8287 51.8537 16.2703 52.0394 16.7054 51.9498L30.6179 48.9474C30.4259 48.6081 30.2339 48.2688 30.0611 47.9167L16.3215 49.85C15.5599 49.9588 15.1568 50.8231 15.5727 51.4696C15.5727 51.476 15.5791 51.4824 15.5855 51.4888V51.4824ZM17.8253 54.344C18.0877 54.6257 18.4909 54.7281 18.8621 54.6321L32.0321 51.0535C31.6802 50.599 31.3474 50.1317 31.0402 49.6451L18.2157 52.4107C17.4158 52.5835 17.1022 53.5566 17.6526 54.1583C17.7102 54.2224 17.7677 54.28 17.8253 54.344ZM32.6401 62.2693C32.6401 62.2693 32.6721 62.2757 32.6913 62.2821C33.2224 62.4037 33.7792 62.3205 34.2592 62.058L41.7337 57.9545C41.4458 57.8393 41.1578 57.7241 40.8826 57.6025C40.4986 57.4296 40.1339 57.2568 39.7755 57.0775L32.4609 60.6369C31.7186 60.9953 31.8402 62.0964 32.6401 62.2821V62.2693ZM75.2413 64.1002C75.6189 64.1002 75.9964 64.0938 76.374 64.0874C77.1227 64.081 77.7947 63.6136 78.0635 62.9095L78.7674 61.0594C77.7627 61.0722 76.7772 61.0786 75.8045 61.085L74.723 63.2551C74.531 63.6392 74.8125 64.0938 75.2413 64.0874V64.1002ZM66.9092 64.1898C67.338 64.1898 67.7731 64.1834 68.2019 64.177C69.0018 64.1706 69.7378 63.7417 70.1473 63.0567L71.2928 61.1298C70.5889 61.1298 69.885 61.1298 69.1938 61.1298C68.7075 61.1298 68.2339 61.1298 67.7603 61.1298L66.41 63.3064C66.1669 63.6969 66.4484 64.1962 66.9092 64.1898ZM71.3632 64.1386C71.7024 64.1386 72.048 64.1322 72.3872 64.1258C73.0271 64.1194 73.6095 63.7545 73.891 63.1783L74.9277 61.0914C74.0062 61.0978 73.0911 61.1042 72.1952 61.1106L70.8897 63.3128C70.6209 63.7673 70.8321 64.1386 71.3568 64.1322L71.3632 64.1386ZM71.6256 67.858C71.9904 67.858 72.3615 67.858 72.7263 67.858C73.4111 67.858 74.0446 67.4739 74.3646 66.8593L75.3949 64.8684C74.243 64.8812 73.0975 64.894 71.952 64.9068L70.9345 66.6544C70.6273 67.1858 71.0049 67.858 71.6256 67.858ZM57.2396 64.2218C57.8604 64.2218 58.4875 64.2218 59.1147 64.2218C59.7354 64.2218 60.3242 63.9209 60.6889 63.4216L62.4232 61.0402C61.4697 61.0146 60.5354 60.9825 59.6138 60.9441L56.9452 63.4728C56.6637 63.7417 56.8493 64.2154 57.2396 64.2154V64.2218ZM62.5064 64.2218C62.8392 64.2218 63.1719 64.2218 63.5047 64.2218C64.4006 64.2218 65.2262 63.7481 65.6997 62.9927L66.858 61.1234C65.6677 61.117 64.5094 61.0978 63.3639 61.0786L61.9112 63.0695C61.5593 63.5496 61.9048 64.2346 62.5 64.2282L62.5064 64.2218ZM52.1329 64.1642C52.6512 64.177 53.1696 64.1834 53.6943 64.1962C54.5647 64.209 55.403 63.8825 56.0301 63.2808L58.5387 60.9121C57.31 60.8481 56.1197 60.7713 54.9678 60.6753L51.8385 63.332C51.5057 63.6136 51.6977 64.1578 52.1329 64.1642ZM46.4885 63.9593C47.1797 63.9977 47.8836 64.0298 48.594 64.0554C49.3299 64.0874 50.053 63.8313 50.6098 63.3576L53.8863 60.5728C52.6896 60.4576 51.5313 60.3168 50.4178 60.1567L46.2837 63.3C46.0086 63.5112 46.143 63.9465 46.4885 63.9657V63.9593ZM80.5657 67.8388C81.1544 67.8388 81.7496 67.8388 82.3383 67.8324C82.6455 67.8324 82.9143 67.6403 83.0167 67.3522L83.9382 64.8172C82.8887 64.8172 81.852 64.8172 80.8152 64.8236L79.9001 66.8017C79.6761 67.2818 80.0281 67.8388 80.5657 67.8324V67.8388ZM67.1652 59.4846C66.8708 59.8174 67.1076 60.3488 67.5556 60.3488C67.8307 60.3488 68.1123 60.3488 68.3875 60.3488C69.0978 60.3488 69.7698 60.0159 70.1921 59.4397L77.2251 49.8948C76.7708 49.8244 76.2972 49.7348 75.8045 49.6259L67.1588 59.4781L67.1652 59.4846ZM50.757 58.2938C50.2322 58.5819 50.3794 59.3757 50.9682 59.4589C51.1281 59.4845 51.2881 59.5038 51.4545 59.523C51.8769 59.5806 52.3056 59.4781 52.664 59.2477L70.2817 47.8655C70.1729 47.6798 70.2241 47.763 70.1089 47.5838L50.7506 58.2938H50.757ZM58.8011 59.2285C58.4171 59.5294 58.6091 60.1375 59.0955 60.1631C59.473 60.1823 59.8506 60.1951 60.2346 60.2143C60.8105 60.2335 61.3737 60.0223 61.7896 59.6254L73.0783 48.9218C72.8351 48.8449 72.5983 48.7681 72.3552 48.6849L58.8011 59.2285ZM63.0375 59.5102C62.7432 59.7918 62.9351 60.2912 63.3447 60.2976C63.6775 60.304 64.0103 60.3104 64.3494 60.3168C65.015 60.3296 65.6485 60.0415 66.0901 59.5422L74.9597 49.4339C74.627 49.3507 74.2878 49.2674 73.9422 49.1714L63.0375 59.5102ZM54.4879 58.998C54.1039 59.2477 54.2511 59.8366 54.7054 59.8751C55.051 59.9071 55.3966 59.9327 55.7421 59.9583C56.2477 59.9967 56.7533 59.843 57.1564 59.5294L71.344 48.4928C71.2225 48.3264 71.2736 48.3968 71.1585 48.2304L54.4943 58.998H54.4879ZM34.8543 51.188C34.176 51.3416 33.9648 52.2058 34.5023 52.6539L35.2511 53.2749C35.5966 53.563 36.0702 53.659 36.5054 53.531L65.3861 44.7414C65.271 44.639 65.1622 44.5366 65.0534 44.4342L34.8607 51.188H34.8543ZM46.9429 57.4232C46.3349 57.7241 46.4373 58.6267 47.0965 58.774C47.1029 58.774 47.1157 58.774 47.1221 58.774C47.6532 58.8892 48.2164 58.8124 48.6899 58.5499L69.0594 47.2765C68.829 47.1549 68.5987 47.0333 68.3747 46.9052L46.9365 57.4168L46.9429 57.4232ZM88.2514 50.2277L85.89 59.1773C85.7492 59.715 86.1524 60.2335 86.7092 60.2335C86.7411 60.2335 86.7731 60.2335 86.8051 60.2335C87.4451 60.2335 87.9954 59.7854 88.1298 59.1645L90.0817 50.2277H88.2514ZM42.7896 56.1493C42.1817 56.3925 42.1945 57.2568 42.8024 57.4872L43.1608 57.6217C43.7368 57.8393 44.3767 57.8137 44.9335 57.5384L67.3892 46.5275C67.2932 46.3163 67.338 46.4123 67.242 46.201L42.7832 56.1493H42.7896ZM38.63 53.691C37.8109 53.9407 37.6893 55.0482 38.4316 55.4771C38.63 55.5923 38.8348 55.7076 39.0396 55.8164C39.7243 56.1877 40.537 56.2261 41.2538 55.9316L66.4932 45.6697C66.3461 45.5609 66.2053 45.452 66.0645 45.3368L38.6236 53.691H38.63ZM76.0348 67.858C76.4892 67.858 76.9372 67.858 77.3915 67.858C78.1083 67.858 78.7546 67.4419 79.0554 66.7889L79.9641 64.8364C78.7226 64.8428 77.4939 64.8556 76.2652 64.8684L75.3245 66.6929C75.0493 67.2242 75.4333 67.8644 76.0348 67.8644V67.858ZM33.0177 47.8911C32.0385 48.0319 31.5714 49.1586 32.1409 49.9652C32.1857 50.0292 32.2369 50.0933 32.2817 50.1573C32.5889 50.5798 33.1201 50.7782 33.632 50.663L64.4006 43.7812C64.2854 43.6532 64.1766 43.5251 64.0679 43.3971L33.0177 47.8911ZM30.1507 46.3611C30.1507 46.3611 30.1571 46.3803 30.1635 46.3931C30.4323 47.0205 31.0978 47.3853 31.7698 47.2893L63.3191 42.7249C63.2935 42.4944 63.3063 42.5969 63.2807 42.3664L31.4498 44.2485C30.4003 44.3125 29.7411 45.3944 30.1507 46.3675V46.3611ZM85.666 63.0951L86.3188 61.0082C85.3717 61.0082 84.4373 61.0146 83.503 61.0274L82.6391 63.2808C82.4983 63.6521 82.7735 64.049 83.1702 64.049C83.567 64.049 83.9702 64.049 84.3734 64.049C84.9685 64.049 85.4932 63.6649 85.666 63.0951ZM78.9402 59.1645C78.6906 59.683 79.0746 60.2912 79.6505 60.2848C79.7721 60.2848 79.8937 60.2848 80.0089 60.2848C80.7001 60.2784 81.3208 59.8494 81.5768 59.2029L85.0837 50.2277H83.247L78.9402 59.1645ZM82.3831 59.2733C82.1975 59.747 82.5495 60.2592 83.0551 60.2528C83.2215 60.2528 83.3814 60.2528 83.5478 60.2528C84.2838 60.2528 84.9301 59.747 85.1157 59.0364L87.4451 50.2277H85.922L82.3831 59.2733ZM80.5145 50.2213L75.1773 59.1837C74.8765 59.683 75.2413 60.3232 75.8237 60.3168C75.958 60.3168 76.086 60.3168 76.2204 60.3168C77.0204 60.3104 77.7435 59.8494 78.0891 59.1325L82.3831 50.2277H80.6745C80.6233 50.2277 80.5593 50.2277 80.5081 50.2277L80.5145 50.2213ZM71.2544 59.2989C70.9345 59.7342 71.2416 60.3488 71.7856 60.3424C72.0608 60.3424 72.336 60.3424 72.6175 60.3424C73.2191 60.3424 73.7822 60.0159 74.0894 59.4974L79.6313 50.1765C79.177 50.1445 78.6586 50.0933 78.0891 50.0228L71.2544 59.2989Z" fill="#F0A61F"/>
<path d="M81.1737 128.404L80.3418 126.522C81.4873 126.382 82.3192 126.029 82.844 125.473C83.3687 124.916 83.6311 124.051 83.6311 122.873V111.318H85.7045V122.777C85.7045 125.94 84.1943 127.816 81.1801 128.398L81.1737 128.404Z" fill="#F0A61F"/>
<path d="M101.633 121.029C101.665 121.086 101.678 121.138 101.678 121.182V122.591C101.678 122.636 101.665 122.687 101.633 122.745C101.601 122.802 101.537 122.828 101.441 122.828H99.0348C99.0156 124.479 98.5485 125.747 97.6269 126.63C96.7054 127.514 95.3487 128.103 93.5569 128.404L92.6994 126.522C94.1456 126.297 95.2143 125.913 95.9055 125.363C96.5966 124.812 96.9422 123.967 96.9422 122.828V113.225C96.1615 113.052 95.4575 112.963 94.824 112.963C93.6145 112.963 92.6738 113.353 91.989 114.141C91.3043 114.928 90.9651 115.927 90.9651 117.13C90.9651 118.193 91.2915 119.096 91.9442 119.832C92.597 120.568 93.5057 120.939 94.6832 120.939H96.1807L95.3487 122.821H94.5616C93.3713 122.821 92.341 122.559 91.4771 122.034C90.6131 121.509 89.954 120.805 89.4996 119.915C89.0453 119.025 88.8213 118.046 88.8213 116.983C88.8213 115.92 89.0645 114.979 89.5508 114.077C90.0372 113.174 90.7411 112.444 91.669 111.894C92.597 111.343 93.6913 111.074 94.9456 111.074C95.8351 111.074 96.9806 111.209 98.3757 111.478C98.4845 111.497 98.7085 111.535 99.0412 111.599V120.939H101.447C101.543 120.939 101.607 120.965 101.639 121.022L101.633 121.029Z" fill="#F0A61F"/>
<path d="M117.402 122.829C116.435 122.829 115.559 122.643 114.771 122.278C113.984 121.913 113.338 121.363 112.832 120.633C112.436 121.286 111.904 121.811 111.239 122.22C110.573 122.63 109.799 122.829 108.929 122.829H101.448C101.352 122.829 101.288 122.803 101.256 122.745C101.224 122.688 101.211 122.637 101.211 122.592V121.183C101.211 121.139 101.23 121.087 101.256 121.03C101.288 120.972 101.352 120.947 101.448 120.947H104.449V111.318H106.548V120.947H108.551C109.421 120.947 110.145 120.646 110.708 120.05C111.271 119.455 111.552 118.706 111.552 117.797V111.318H113.626V118.13C113.658 118.636 113.856 119.109 114.221 119.538C114.586 119.967 115.053 120.306 115.629 120.562C116.198 120.819 116.787 120.947 117.389 120.947H119.699V110.32H121.772V122.829H117.414H117.402ZM109.306 108.988V106.581H111.546V108.988H109.306ZM111.591 105.006V102.695H113.709V105.006H111.591ZM113.779 108.988V106.581H116.019V108.988H113.779Z" fill="#F0A61F"/>
<path d="M124.095 106.031L124.402 104.719H129.573V106.031H124.095ZM125.739 122.829V108.15H127.813V122.829H125.739Z" fill="#F0A61F"/>
<path d="M72.8477 133.366C73.5516 133.366 74.102 133.532 74.4859 133.859C74.8699 134.185 75.0619 134.646 75.0619 135.235C75.0619 135.824 74.8699 136.336 74.4859 136.675C74.102 137.015 73.558 137.188 72.8477 137.188H71.5422V138.858H70.6143V133.359H72.8413L72.8477 133.366ZM72.8477 136.394C73.27 136.394 73.6028 136.298 73.8332 136.112C74.0636 135.926 74.1852 135.638 74.1852 135.254C74.1852 134.87 74.07 134.608 73.8332 134.428C73.6028 134.249 73.27 134.16 72.8477 134.16H71.5422V136.4H72.8477V136.394ZM72.8797 136.823H73.7884L75.1515 138.858H74.102L72.8797 136.823Z" fill="#F0A61F"/>
<path d="M79.1252 136.472C79.1124 136.235 79.0612 136.037 78.9652 135.87C78.8692 135.704 78.7348 135.576 78.562 135.486C78.3892 135.396 78.1908 135.352 77.9669 135.352C77.7173 135.352 77.4997 135.409 77.3141 135.524C77.1285 135.64 76.9813 135.8 76.8789 136.005C76.7766 136.209 76.719 136.453 76.719 136.728C76.719 137.029 76.7766 137.285 76.8853 137.503C77.0005 137.72 77.1541 137.893 77.3589 138.015C77.5573 138.136 77.7941 138.194 78.0564 138.194C78.5236 138.194 78.914 138.027 79.2339 137.701L79.7139 138.181C79.5091 138.405 79.2595 138.578 78.9652 138.706C78.6708 138.828 78.3444 138.892 77.9861 138.892C77.5573 138.892 77.1797 138.802 76.8661 138.623C76.5462 138.444 76.2966 138.2 76.1174 137.88C75.9382 137.567 75.8486 137.195 75.8486 136.779C75.8486 136.363 75.9382 135.992 76.1174 135.678C76.2966 135.364 76.5462 135.115 76.8661 134.935C77.1861 134.756 77.5509 134.667 77.9669 134.66C78.4596 134.66 78.8564 134.763 79.1508 134.961C79.4515 135.159 79.6627 135.448 79.7843 135.812C79.9123 136.177 79.9571 136.613 79.9187 137.118H76.5846V136.472H79.138H79.1252Z" fill="#F0A61F"/>
<path d="M83.2338 135.704C83.0482 135.595 82.8499 135.505 82.6323 135.441C82.4147 135.377 82.2163 135.345 82.0307 135.345C81.8451 135.345 81.7043 135.377 81.5892 135.448C81.474 135.518 81.4164 135.627 81.4164 135.787C81.4164 135.915 81.4676 136.024 81.5764 136.094C81.6851 136.171 81.8195 136.235 81.9859 136.286C82.1523 136.337 82.3315 136.395 82.5171 136.453C82.7027 136.51 82.8819 136.587 83.0546 136.677C83.2274 136.766 83.3618 136.894 83.4642 137.048C83.5666 137.208 83.6242 137.413 83.6242 137.669C83.6242 137.951 83.5474 138.181 83.4002 138.367C83.253 138.552 83.0546 138.68 82.8115 138.77C82.5683 138.853 82.3059 138.898 82.0243 138.898C81.7235 138.898 81.4164 138.847 81.1156 138.751C80.8148 138.648 80.5524 138.508 80.3477 138.322L80.6676 137.707C80.8532 137.867 81.0708 137.995 81.3332 138.085C81.5956 138.175 81.8387 138.219 82.0627 138.219C82.1907 138.219 82.3123 138.2 82.4147 138.168C82.5171 138.136 82.6003 138.085 82.6579 138.015C82.7155 137.944 82.7475 137.855 82.7475 137.746C82.7475 137.599 82.6963 137.483 82.5875 137.4C82.4851 137.317 82.3443 137.246 82.1779 137.195C82.0115 137.138 81.8323 137.086 81.6468 137.029C81.4612 136.971 81.282 136.901 81.1156 136.811C80.9492 136.722 80.8148 136.6 80.7124 136.453C80.61 136.299 80.5524 136.101 80.5524 135.851C80.5524 135.569 80.6228 135.339 80.77 135.166C80.9172 134.993 81.1092 134.865 81.3396 134.782C81.57 134.699 81.8195 134.66 82.0883 134.66C82.3571 134.66 82.6131 134.699 82.8754 134.769C83.1378 134.839 83.3618 134.942 83.5474 135.076L83.2146 135.71L83.2338 135.704Z" fill="#F0A61F"/>
<path d="M84.1172 134.838H86.8306V135.485H84.1172V134.838ZM85.6019 137.54C85.6019 137.764 85.6403 137.917 85.7171 138.001C85.7938 138.084 85.9026 138.122 86.0498 138.122C86.1458 138.122 86.2418 138.109 86.3442 138.077C86.4466 138.045 86.5554 138.001 86.677 137.937L86.9074 138.59C86.7474 138.692 86.5746 138.769 86.4082 138.82C86.2354 138.878 86.0626 138.903 85.8834 138.903C85.6723 138.903 85.4803 138.865 85.3011 138.782C85.1219 138.698 84.9811 138.57 84.8723 138.391C84.7635 138.212 84.7123 137.981 84.7123 137.7V133.705H85.6083V137.546L85.6019 137.54Z" fill="#F0A61F"/>
<path d="M89.1022 137.002C88.8078 137.002 88.5903 137.047 88.4495 137.136C88.3087 137.226 88.2383 137.373 88.2383 137.578C88.2383 137.77 88.3087 137.924 88.4559 138.039C88.5966 138.154 88.795 138.212 89.051 138.212C89.275 138.212 89.4798 138.173 89.6526 138.096C89.8317 138.02 89.9725 137.911 90.0749 137.776C90.1773 137.642 90.2349 137.495 90.2413 137.322L90.4141 138.084C90.2861 138.359 90.0813 138.557 89.8189 138.698C89.5502 138.833 89.2302 138.903 88.859 138.903C88.5583 138.903 88.3023 138.845 88.0847 138.73C87.8671 138.615 87.6943 138.461 87.5727 138.263C87.4511 138.064 87.3936 137.847 87.3936 137.61C87.3936 137.232 87.5279 136.931 87.8031 136.707C88.0783 136.483 88.4687 136.368 88.9678 136.362H90.3501V137.008H89.1022V137.002ZM90.2349 136.214C90.2349 135.939 90.1517 135.728 89.9853 135.581C89.8189 135.427 89.5694 135.35 89.2366 135.35C89.0382 135.35 88.8334 135.389 88.6286 135.459C88.4239 135.529 88.2127 135.638 88.0015 135.779L87.6303 135.196C87.8223 135.075 88.0079 134.979 88.1807 134.896C88.3535 134.812 88.5391 134.755 88.731 134.716C88.923 134.678 89.1598 134.652 89.4286 134.652C89.9661 134.652 90.3821 134.78 90.6701 135.043C90.9581 135.299 91.1052 135.657 91.1116 136.112V138.852H90.2349V136.208V136.214Z" fill="#F0A61F"/>
<path d="M93.1084 137.047C93.1084 137.374 93.1916 137.63 93.3644 137.815C93.5371 138.001 93.7739 138.097 94.0811 138.097C94.4395 138.084 94.721 137.956 94.9258 137.694C95.1306 137.431 95.2266 137.118 95.2266 136.746H95.4698C95.4698 137.258 95.3994 137.675 95.2586 137.988C95.1178 138.302 94.9194 138.532 94.657 138.673C94.4011 138.82 94.0875 138.891 93.7355 138.897C93.4156 138.897 93.1404 138.833 92.9164 138.699C92.686 138.571 92.5132 138.385 92.3916 138.142C92.2701 137.899 92.2061 137.617 92.2061 137.284V134.691H93.1084V137.047ZM95.2266 134.691H96.1289V138.859H95.2266V134.691Z" fill="#F0A61F"/>
<path d="M97.46 134.692H98.3623V138.859H97.46V134.692ZM99.8086 135.479C99.5078 135.466 99.2518 135.517 99.0342 135.633C98.8166 135.748 98.6503 135.914 98.5287 136.126C98.4135 136.337 98.3495 136.574 98.3495 136.849L98.0999 136.817C98.0999 136.35 98.1703 135.959 98.3047 135.639C98.4391 135.319 98.6375 135.076 98.8934 134.916C99.1494 134.749 99.4502 134.666 99.8022 134.666V135.485L99.8086 135.479Z" fill="#F0A61F"/>
<path d="M101.754 137.002C101.459 137.002 101.242 137.047 101.101 137.136C100.96 137.226 100.89 137.373 100.89 137.578C100.89 137.77 100.96 137.924 101.107 138.039C101.248 138.154 101.446 138.212 101.702 138.212C101.926 138.212 102.131 138.173 102.304 138.096C102.483 138.02 102.624 137.911 102.726 137.776C102.829 137.642 102.886 137.495 102.893 137.322L103.065 138.084C102.937 138.359 102.733 138.557 102.47 138.698C102.202 138.833 101.882 138.903 101.51 138.903C101.21 138.903 100.954 138.845 100.736 138.73C100.518 138.615 100.346 138.461 100.224 138.263C100.103 138.064 100.045 137.847 100.045 137.61C100.045 137.232 100.179 136.931 100.454 136.707C100.73 136.483 101.12 136.368 101.619 136.362H103.001V137.008H101.754V137.002ZM102.886 136.214C102.886 135.939 102.803 135.728 102.637 135.581C102.47 135.427 102.221 135.35 101.888 135.35C101.69 135.35 101.485 135.389 101.28 135.459C101.075 135.529 100.864 135.638 100.653 135.779L100.282 135.196C100.474 135.075 100.659 134.979 100.832 134.896C101.005 134.812 101.19 134.755 101.382 134.716C101.581 134.672 101.811 134.652 102.08 134.652C102.618 134.652 103.033 134.78 103.321 135.043C103.609 135.299 103.757 135.657 103.763 136.112V138.852H102.886V136.208V136.214Z" fill="#F0A61F"/>
<path d="M104.992 134.691H105.895V138.858H104.992V134.691ZM108.083 136.502C108.083 136.176 107.994 135.92 107.814 135.734C107.635 135.549 107.392 135.453 107.078 135.453C106.707 135.453 106.413 135.587 106.202 135.843C105.991 136.099 105.882 136.419 105.882 136.803H105.632C105.632 136.285 105.703 135.869 105.85 135.555C105.997 135.241 106.202 135.011 106.47 134.87C106.739 134.729 107.059 134.652 107.424 134.652C107.75 134.652 108.026 134.716 108.262 134.851C108.493 134.979 108.672 135.164 108.793 135.401C108.915 135.638 108.979 135.926 108.979 136.259V138.852H108.077V136.496L108.083 136.502Z" fill="#F0A61F"/>
<path d="M109.772 134.838H112.486V135.485H109.772V134.838ZM111.257 137.54C111.257 137.764 111.296 137.917 111.372 138.001C111.449 138.084 111.558 138.122 111.705 138.122C111.801 138.122 111.897 138.109 111.999 138.077C112.102 138.045 112.211 138.001 112.332 137.937L112.563 138.59C112.403 138.692 112.23 138.769 112.057 138.82C111.884 138.878 111.711 138.903 111.532 138.903C111.321 138.903 111.129 138.865 110.95 138.782C110.771 138.698 110.63 138.57 110.521 138.391C110.412 138.212 110.361 137.981 110.361 137.7V133.705H111.257V137.546V137.54Z" fill="#F0A61F"/>
<path d="M119.666 136.611C119.474 137.085 119.237 137.488 118.962 137.827C118.687 138.166 118.386 138.429 118.053 138.615C117.72 138.8 117.375 138.896 117.01 138.896C116.684 138.896 116.396 138.832 116.133 138.698C115.871 138.563 115.666 138.384 115.513 138.154C115.359 137.923 115.282 137.661 115.282 137.36C115.282 137.078 115.346 136.835 115.481 136.636C115.615 136.438 115.788 136.265 115.993 136.124C116.204 135.983 116.421 135.849 116.658 135.734C116.895 135.619 117.119 135.503 117.324 135.382C117.535 135.266 117.701 135.132 117.836 134.991C117.97 134.85 118.034 134.677 118.034 134.479C118.034 134.293 117.976 134.146 117.855 134.031C117.733 133.916 117.573 133.858 117.368 133.858C117.151 133.858 116.972 133.922 116.844 134.057C116.716 134.191 116.645 134.351 116.645 134.549C116.645 134.754 116.709 134.972 116.844 135.215C116.978 135.452 117.183 135.727 117.458 136.035C117.733 136.342 118.079 136.7 118.495 137.117C118.911 137.526 119.403 138.006 119.973 138.557L119.512 139.005C119.013 138.518 118.565 138.083 118.181 137.699C117.791 137.315 117.458 136.976 117.176 136.675C116.895 136.374 116.658 136.099 116.479 135.855C116.293 135.612 116.159 135.382 116.069 135.17C115.98 134.959 115.935 134.754 115.935 134.556C115.935 134.313 115.993 134.101 116.114 133.916C116.236 133.73 116.402 133.583 116.613 133.48C116.824 133.378 117.074 133.32 117.362 133.32C117.65 133.32 117.88 133.372 118.085 133.468C118.29 133.57 118.456 133.704 118.572 133.877C118.687 134.05 118.751 134.249 118.751 134.466C118.751 134.722 118.687 134.94 118.552 135.126C118.424 135.311 118.252 135.471 118.047 135.606C117.842 135.74 117.618 135.868 117.388 135.983C117.157 136.099 116.933 136.22 116.722 136.342C116.511 136.464 116.345 136.604 116.21 136.752C116.082 136.905 116.012 137.085 116.012 137.296C116.012 137.481 116.057 137.648 116.146 137.795C116.236 137.942 116.357 138.051 116.511 138.128C116.665 138.205 116.837 138.243 117.023 138.243C117.298 138.243 117.56 138.16 117.81 137.994C118.066 137.827 118.296 137.59 118.508 137.277C118.719 136.969 118.904 136.604 119.052 136.195L119.64 136.611H119.666Z" fill="#F0A61F"/>
<path d="M126.866 134.793C126.668 134.575 126.431 134.402 126.162 134.274C125.887 134.146 125.618 134.089 125.336 134.089C125.055 134.089 124.812 134.14 124.569 134.242C124.332 134.345 124.121 134.485 123.941 134.671C123.762 134.857 123.621 135.068 123.519 135.311C123.417 135.555 123.372 135.817 123.372 136.099C123.372 136.38 123.423 136.636 123.519 136.88C123.621 137.123 123.756 137.334 123.941 137.52C124.121 137.705 124.332 137.846 124.569 137.949C124.805 138.051 125.061 138.109 125.336 138.109C125.612 138.109 125.887 138.051 126.156 137.93C126.424 137.814 126.661 137.648 126.872 137.449L127.423 138.026C127.237 138.211 127.032 138.371 126.796 138.506C126.565 138.64 126.322 138.749 126.066 138.819C125.81 138.89 125.554 138.928 125.292 138.928C124.888 138.928 124.517 138.858 124.172 138.711C123.826 138.57 123.525 138.365 123.263 138.109C123.001 137.853 122.802 137.552 122.655 137.213C122.508 136.873 122.438 136.502 122.438 136.111C122.438 135.721 122.508 135.356 122.655 135.017C122.802 134.677 123.007 134.383 123.269 134.127C123.532 133.871 123.839 133.672 124.191 133.532C124.537 133.391 124.914 133.32 125.324 133.32C125.586 133.32 125.842 133.352 126.092 133.423C126.341 133.493 126.578 133.589 126.808 133.711C127.032 133.839 127.237 133.986 127.41 134.165L126.866 134.799V134.793Z" fill="#F0A61F"/>
<path d="M129.669 137.002C129.374 137.002 129.157 137.047 129.016 137.136C128.875 137.226 128.805 137.373 128.805 137.578C128.805 137.77 128.875 137.924 129.022 138.039C129.169 138.154 129.361 138.212 129.617 138.212C129.841 138.212 130.046 138.173 130.219 138.096C130.398 138.02 130.539 137.911 130.641 137.776C130.744 137.642 130.801 137.495 130.808 137.322L130.981 138.084C130.853 138.359 130.648 138.557 130.385 138.698C130.117 138.833 129.797 138.903 129.425 138.903C129.125 138.903 128.869 138.845 128.651 138.73C128.434 138.615 128.261 138.461 128.139 138.263C128.018 138.064 127.96 137.847 127.96 137.61C127.96 137.232 128.094 136.931 128.37 136.707C128.645 136.483 129.035 136.368 129.534 136.362H130.917V137.008H129.669V137.002ZM130.801 136.214C130.801 135.939 130.718 135.728 130.552 135.581C130.385 135.427 130.136 135.35 129.803 135.35C129.605 135.35 129.4 135.389 129.195 135.459C128.99 135.529 128.779 135.638 128.568 135.779L128.197 135.196C128.389 135.075 128.574 134.979 128.747 134.896C128.92 134.819 129.105 134.755 129.297 134.716C129.489 134.678 129.726 134.652 129.995 134.652C130.533 134.652 130.949 134.78 131.236 135.043C131.524 135.299 131.672 135.657 131.678 136.112V138.852H130.801V136.208V136.214Z" fill="#F0A61F"/>
<path d="M132.522 134.838H135.057V135.485H132.522V134.838ZM133.073 134.429C133.073 134.096 133.143 133.827 133.278 133.616C133.418 133.404 133.598 133.244 133.815 133.142C134.033 133.039 134.263 132.988 134.506 132.988C134.634 132.988 134.756 133.007 134.884 133.039C135.012 133.072 135.133 133.116 135.242 133.174L135.057 133.865C134.986 133.833 134.903 133.801 134.807 133.776C134.717 133.75 134.621 133.731 134.525 133.731C134.423 133.731 134.334 133.75 134.244 133.788C134.161 133.827 134.09 133.891 134.033 133.974C133.982 134.057 133.956 134.173 133.956 134.307V138.846H133.06V134.416L133.073 134.429Z" fill="#F0A61F"/>
<path d="M138.5 136.472C138.487 136.235 138.436 136.037 138.34 135.87C138.244 135.704 138.11 135.576 137.937 135.486C137.764 135.396 137.566 135.352 137.342 135.352C137.092 135.352 136.875 135.409 136.689 135.524C136.504 135.64 136.356 135.8 136.254 136.005C136.152 136.209 136.094 136.453 136.094 136.728C136.094 137.029 136.152 137.285 136.26 137.503C136.376 137.72 136.529 137.893 136.734 138.015C136.932 138.136 137.169 138.194 137.431 138.194C137.899 138.194 138.289 138.027 138.609 137.701L139.089 138.181C138.884 138.405 138.635 138.578 138.34 138.706C138.046 138.828 137.719 138.892 137.361 138.892C136.932 138.892 136.555 138.802 136.241 138.623C135.921 138.444 135.672 138.2 135.492 137.88C135.313 137.567 135.224 137.195 135.224 136.779C135.224 136.363 135.313 135.992 135.492 135.678C135.672 135.364 135.921 135.115 136.241 134.935C136.561 134.756 136.926 134.667 137.342 134.66C137.835 134.66 138.231 134.763 138.526 134.961C138.827 135.159 139.038 135.448 139.159 135.812C139.287 136.177 139.332 136.613 139.294 137.118H135.96V136.472H138.513H138.5Z" fill="#F0A61F"/>
</g>
<defs>
<clipPath id="clip0_1136_8363">
<rect width="209" height="139" fill="white" transform="translate(0.457031)"/>
</clipPath>
</defs>
</svg>
