<svg width="122" height="85" viewBox="0 0 122 85" fill="none" xmlns="http://www.w3.org/2000/svg">
<g clip-path="url(#clip0_1136_7810)">
<mask id="mask0_1136_7810" style="mask-type:luminance" maskUnits="userSpaceOnUse" x="47" y="63" width="28" height="13">
<path d="M50.9531 71.9886C50.4068 71.4423 50.1266 70.7629 50.1266 69.9785C50.1266 69.5373 50.2177 69.096 50.4068 68.6618C50.5118 68.4096 50.6519 68.1645 50.82 67.9474C51.1002 67.5762 51.4363 67.282 51.8145 67.0649C52.1577 66.8688 52.5429 66.7638 52.9632 66.7638H55.7997V69.9715C55.7997 70.3777 55.7227 70.7559 55.5686 71.0921C55.4215 71.4213 55.2184 71.7225 54.9663 71.9746C54.7141 72.2407 54.406 72.4438 54.0628 72.5909C53.7196 72.731 53.3484 72.801 52.9702 72.801C52.1857 72.801 51.5064 72.5209 50.9601 71.9746M66.4175 69.3692C66.4175 68.984 66.4945 68.6128 66.6486 68.2696C66.7957 67.9334 66.9988 67.6252 67.2509 67.3661C67.5031 67.0999 67.8112 66.8968 68.1544 66.7497C68.4976 66.6097 68.8688 66.5396 69.247 66.5396C70.0314 66.5396 70.7108 66.8198 71.2571 67.3661C71.8034 67.9124 72.0836 68.5917 72.0836 69.3762C72.0836 69.7544 72.0135 70.1396 71.8734 70.5248C71.7334 70.91 71.5373 71.2602 71.2781 71.5684C71.019 71.8765 70.7178 72.1287 70.3746 72.3178C70.0244 72.5139 69.6392 72.6189 69.247 72.6189H66.4105V69.3832L66.4175 69.3692ZM66.8937 64.4385C66.2214 64.7467 65.626 65.1599 65.1148 65.6642C64.6105 66.1684 64.2043 66.7707 63.9171 67.4501C63.63 68.1225 63.4829 68.8509 63.4829 69.6143V72.6119H60.1911C59.7639 72.6119 59.4557 72.5699 59.2386 72.4788C58.9794 72.3738 58.8043 72.1847 58.7203 71.9325C58.6503 71.7224 58.6292 71.4773 58.6643 71.1761C58.6923 70.938 58.7063 70.6509 58.7063 70.3217C58.7063 70.2236 58.7063 70.1186 58.7203 70.0065C58.7273 69.9155 58.7343 69.8244 58.7343 69.7264V64.2354H52.9982C52.2418 64.2354 51.5134 64.3824 50.848 64.6696C50.1827 64.9568 49.5873 65.349 49.0901 65.8392C48.5928 66.3295 48.1866 66.9178 47.8924 67.5832C47.5983 68.2486 47.4512 68.9699 47.4512 69.7264C47.4512 70.4828 47.6123 71.2112 47.9204 71.8765C48.2356 72.5559 48.6628 73.1582 49.1881 73.6625C49.7134 74.1738 50.3297 74.587 51.0231 74.8952C51.7025 75.1963 52.4379 75.3504 53.1943 75.3504C53.9017 75.3504 54.581 75.2244 55.1974 74.9722C55.8207 74.7201 56.388 74.3629 56.8783 73.9006L57.1304 73.6625L57.3546 73.9286C57.5997 74.2228 57.9359 74.496 58.3631 74.7481C58.7693 74.9862 59.2876 75.1053 59.9109 75.1053H69.233C69.9894 75.1053 70.7178 74.9582 71.3832 74.671C72.0555 74.3839 72.6439 73.9917 73.1411 73.5014C73.6384 73.0111 74.0446 72.4228 74.3388 71.7575C74.6329 71.0921 74.78 70.3707 74.78 69.6143C74.78 68.8579 74.6189 68.1365 74.3108 67.4641C73.9956 66.7848 73.5684 66.1824 73.0501 65.6782C72.5248 65.1669 71.9085 64.7537 71.2151 64.4455C70.5357 64.1443 69.8003 63.9902 69.0439 63.9902C68.2875 63.9902 67.5661 64.1443 66.9007 64.4455" fill="white"/>
</mask>
<g mask="url(#mask0_1136_7810)">
<path d="M74.7662 63.998H47.4443V75.3652H74.7662V63.998Z" fill="url(#paint0_linear_1136_7810)"/>
</g>
<mask id="mask1_1136_7810" style="mask-type:luminance" maskUnits="userSpaceOnUse" x="104" y="77" width="5" height="4">
<path d="M105.442 77.9699C105.113 78.3061 104.959 78.6983 104.959 79.1676C104.959 79.6368 105.12 80.001 105.442 80.3232C105.764 80.6454 106.157 80.8065 106.626 80.8065C107.095 80.8065 107.487 80.6454 107.81 80.3232C108.132 80.001 108.293 79.6228 108.293 79.1676C108.293 78.7123 108.132 78.3061 107.81 77.9699C107.487 77.6408 107.095 77.4727 106.626 77.4727C106.157 77.4727 105.771 77.6338 105.442 77.9699Z" fill="white"/>
</mask>
<g mask="url(#mask1_1136_7810)">
<path d="M108.286 77.4727H104.952V80.8065H108.286V77.4727Z" fill="url(#paint1_linear_1136_7810)"/>
</g>
<mask id="mask2_1136_7810" style="mask-type:luminance" maskUnits="userSpaceOnUse" x="100" y="77" width="4" height="4">
<path d="M100.995 77.9699C100.666 78.3061 100.512 78.6983 100.512 79.1676C100.512 79.6368 100.673 80.001 100.995 80.3232C101.317 80.6454 101.709 80.8065 102.179 80.8065C102.648 80.8065 103.033 80.6454 103.362 80.3232C103.684 80.001 103.846 79.6228 103.846 79.1676C103.846 78.7123 103.684 78.3061 103.362 77.9699C103.04 77.6408 102.648 77.4727 102.179 77.4727C101.709 77.4727 101.324 77.6338 100.995 77.9699Z" fill="white"/>
</mask>
<g mask="url(#mask2_1136_7810)">
<path d="M103.839 77.4727H100.505V80.8065H103.839V77.4727Z" fill="url(#paint2_linear_1136_7810)"/>
</g>
<mask id="mask3_1136_7810" style="mask-type:luminance" maskUnits="userSpaceOnUse" x="78" y="54" width="38" height="22">
<path d="M89.0467 69.3826C89.0467 68.9974 89.1237 68.6262 89.2778 68.283C89.4249 67.9468 89.628 67.6387 89.8801 67.3795C90.1323 67.1134 90.4404 66.9103 90.7836 66.7632C91.1268 66.6231 91.498 66.5531 91.8762 66.5531C92.6676 66.5531 93.34 66.8332 93.8863 67.3795C94.4326 67.9258 94.7128 68.6052 94.7128 69.3896C94.7128 69.7678 94.6427 70.153 94.5026 70.5382C94.3626 70.9234 94.1665 71.2736 93.9073 71.5818C93.6482 71.89 93.347 72.1421 93.0108 72.3312C92.6606 72.5273 92.2754 72.6324 91.8832 72.6324H89.0467V69.3966V69.3826ZM112.474 70.3771C112.474 71.2036 112.243 71.7919 111.795 72.1351C111.368 72.4573 110.716 72.6184 109.806 72.6184H108.132C107.257 72.6184 106.654 72.4223 106.29 72.0301C105.933 71.6378 105.758 71.0565 105.758 70.2441V68.7593C105.758 67.1064 104.476 65.7476 102.858 65.6216V70.3491C102.858 71.1686 102.627 71.7639 102.165 72.1211C101.724 72.4573 101.079 72.6184 100.19 72.6184H98.2217C97.8014 72.6184 97.4092 72.5694 97.059 72.4713L96.6738 72.3662L96.8489 72.009C97.2201 71.2666 97.4092 70.4682 97.4092 69.6207C97.4092 68.8643 97.2481 68.1429 96.94 67.4706C96.6248 66.7912 96.1976 66.1889 95.6723 65.6846C95.147 65.1733 94.5307 64.7601 93.8373 64.4519C93.1579 64.1508 92.4225 63.9967 91.6661 63.9967C90.9097 63.9967 90.1883 64.1508 89.5229 64.4519C88.8506 64.7601 88.2552 65.1733 87.744 65.6776C87.2397 66.1819 86.8335 66.7842 86.5463 67.4636C86.2592 68.1359 86.1121 68.8643 86.1121 69.6278V72.6254H83.8709C82.9604 72.6254 82.309 72.4643 81.8818 72.1421C81.4265 71.7989 81.2024 71.2106 81.2024 70.3842V57.6092C81.2024 55.9843 79.9627 54.6396 78.3799 54.4785V70.4122C78.3799 71.2596 78.506 71.988 78.7581 72.5763C79.0102 73.1577 79.3464 73.6479 79.7596 74.0261C80.1729 74.4043 80.6491 74.6845 81.1744 74.8596C81.7137 75.0347 82.281 75.1257 82.8483 75.1257H91.8482C92.5766 75.1257 93.27 74.9927 93.9073 74.7335C94.5517 74.4744 95.126 74.1102 95.6162 73.6549L95.8754 73.4098L96.0925 73.69C96.5267 74.2362 96.975 74.6145 97.4372 74.8176C97.9065 75.0207 98.5088 75.1257 99.2302 75.1257H101.415C102.277 75.1257 103.033 74.9646 103.664 74.6355C104.287 74.3133 104.742 73.844 105.05 73.1857L105.303 72.6534L105.625 73.1507C106.115 73.9071 106.619 74.4324 107.138 74.7125C107.656 74.9927 108.328 75.1327 109.155 75.1327H110.829C111.403 75.1327 111.963 75.0417 112.502 74.8666C113.028 74.6915 113.504 74.4113 113.917 74.0331C114.33 73.6549 114.667 73.1647 114.919 72.5834C115.171 71.995 115.297 71.2737 115.297 70.4192V57.6162C115.297 55.9913 114.057 54.6466 112.474 54.4855V70.3912V70.3771Z" fill="white"/>
</mask>
<g mask="url(#mask3_1136_7810)">
<path d="M115.29 54.4785H78.3799V75.1257H115.29V54.4785Z" fill="url(#paint3_linear_1136_7810)"/>
</g>
<mask id="mask4_1136_7810" style="mask-type:luminance" maskUnits="userSpaceOnUse" x="119" y="54" width="4" height="22">
<path d="M119.185 75.1047C120.767 74.9436 122.007 73.5989 122.007 71.974V57.6092C122.007 55.9843 120.767 54.6396 119.185 54.4785V75.1047Z" fill="white"/>
</mask>
<g mask="url(#mask4_1136_7810)">
<path d="M122.007 54.4785H119.185V75.1047H122.007V54.4785Z" fill="url(#paint4_linear_1136_7810)"/>
</g>
<mask id="mask5_1136_7810" style="mask-type:luminance" maskUnits="userSpaceOnUse" x="0" y="0" width="82" height="85">
<path d="M58.8815 84.7556C28.9683 80.1682 34.8165 53.8548 34.8165 53.8548C38.8647 35.2317 28.3379 30.5112 28.3379 30.5112C48.1097 23.4093 51.8847 32.1991 52.5151 34.4613C52.8302 35.5819 53.1804 36.6955 53.6077 37.7741C56.052 43.9374 59.6519 47.3413 65.0449 48.9942C65.192 49.0292 65.346 49.0642 65.4931 49.0993C78.7233 52.0829 85.9232 37.9982 78.9965 26.3369C73.1833 16.5666 59.8971 18.0164 56.3531 18.6047C54.4341 18.9199 52.5151 19.193 50.582 19.3821C14.0642 22.968 0.280686 0.955078 0.280686 0.955078C-2.58387 91.5073 58.8885 84.7486 58.8885 84.7486" fill="white"/>
</mask>
<g mask="url(#mask5_1136_7810)">
<path d="M85.9164 0.962891H-2.59766V91.5151H85.9164V0.962891Z" fill="url(#paint5_linear_1136_7810)"/>
</g>
<mask id="mask6_1136_7810" style="mask-type:luminance" maskUnits="userSpaceOnUse" x="41" y="33" width="4" height="4">
<path d="M41.4141 35.2476C41.4141 36.025 42.0444 36.6554 42.8218 36.6554C43.5992 36.6554 44.2296 36.025 44.2296 35.2476C44.2296 34.4702 43.5992 33.8398 42.8218 33.8398C42.0444 33.8398 41.4141 34.4702 41.4141 35.2476Z" fill="white"/>
</mask>
<g mask="url(#mask6_1136_7810)">
<path d="M41.4134 33.7983L41.3887 36.6348L44.2251 36.6595L44.2498 33.8231L41.4134 33.7983Z" fill="url(#paint6_linear_1136_7810)"/>
</g>
</g>
<defs>
<linearGradient id="paint0_linear_1136_7810" x1="159.179" y1="73.7849" x2="49.6189" y2="73.7849" gradientUnits="userSpaceOnUse">
<stop stop-color="#B73A93"/>
<stop offset="1" stop-color="#5362AA"/>
</linearGradient>
<linearGradient id="paint1_linear_1136_7810" x1="-1.31092e+06" y1="83.2044" x2="-1.31109e+06" y2="83.2044" gradientUnits="userSpaceOnUse">
<stop stop-color="#B73A93"/>
<stop offset="1" stop-color="#5362AA"/>
</linearGradient>
<linearGradient id="paint2_linear_1136_7810" x1="-1.31092e+06" y1="83.2044" x2="-1.31109e+06" y2="83.2044" gradientUnits="userSpaceOnUse">
<stop stop-color="#B73A93"/>
<stop offset="1" stop-color="#5362AA"/>
</linearGradient>
<linearGradient id="paint3_linear_1136_7810" x1="-1.31092e+06" y1="67.996" x2="-1.31109e+06" y2="67.996" gradientUnits="userSpaceOnUse">
<stop stop-color="#B73A93"/>
<stop offset="1" stop-color="#5362AA"/>
</linearGradient>
<linearGradient id="paint4_linear_1136_7810" x1="-1.31092e+06" y1="67.989" x2="-1.31109e+06" y2="67.989" gradientUnits="userSpaceOnUse">
<stop stop-color="#B73A93"/>
<stop offset="1" stop-color="#5362AA"/>
</linearGradient>
<linearGradient id="paint5_linear_1136_7810" x1="66.0783" y1="40.3079" x2="-36.6062" y2="40.3079" gradientUnits="userSpaceOnUse">
<stop stop-color="#B73A93"/>
<stop offset="1" stop-color="#5362AA"/>
</linearGradient>
<linearGradient id="paint6_linear_1136_7810" x1="72.2628" y1="41.3423" x2="69.281" y2="41.3163" gradientUnits="userSpaceOnUse">
<stop stop-color="#B73A93"/>
<stop offset="1" stop-color="#5362AA"/>
</linearGradient>
<clipPath id="clip0_1136_7810">
<rect width="121.823" height="83.9076" fill="white" transform="translate(0.183594 0.955078)"/>
</clipPath>
</defs>
</svg>
