<svg width="218" height="54" viewBox="0 0 218 54" fill="none" xmlns="http://www.w3.org/2000/svg">
<g clip-path="url(#clip0_1136_7716)">
<path d="M143.045 9.30535H144.014C144.069 10.7139 144.844 11.2387 146.256 11.2387C147.473 11.2387 148.193 10.7968 148.193 9.91296C148.193 9.36059 147.972 9.02917 147.28 8.83584C146.588 8.64251 145.425 8.55965 144.595 8.3387C143.764 8.09014 143.294 7.593 143.294 6.57112C143.294 5.27304 144.346 4.52734 146.006 4.52734C147.861 4.52734 148.913 5.27304 148.996 7.09587H148.027C147.944 5.7978 147.252 5.32828 146.006 5.32828C144.955 5.32828 144.29 5.74256 144.29 6.51588C144.29 7.06825 144.484 7.37205 145.176 7.56538C145.868 7.75871 147.141 7.86919 147.889 8.09014C148.691 8.31109 149.162 8.83584 149.162 9.83011C149.162 11.2939 148.055 12.0672 146.228 12.0672C144.263 12.0672 143.072 11.2663 143.017 9.30535H143.045Z" fill="#003333"/>
<path d="M151.709 11.9291C150.878 11.9291 150.491 11.5701 150.491 10.8244V7.56541H149.605V6.81971H150.491V5.32831L151.404 4.7207V6.81971H152.373V7.56541H151.404V10.6587C151.404 11.0177 151.515 11.1834 151.958 11.1834H152.401V11.9291H151.709Z" fill="#003333"/>
<path d="M155.999 6.79157V7.5925H155.584C154.615 7.5925 154.172 8.28297 154.172 9.19438V11.901H153.259V6.79157H154.145V7.75821C154.394 7.15061 154.892 6.73633 155.667 6.73633H155.999V6.79157Z" fill="#003333"/>
<path d="M161.119 9.5258H157.327C157.327 10.6029 157.715 11.3486 158.822 11.3486C159.735 11.3486 160.123 10.8239 160.206 10.161H161.092C160.981 11.2934 160.234 12.0667 158.794 12.0667C157.189 12.0667 156.386 11.0448 156.386 9.41533C156.386 7.75821 157.217 6.73633 158.767 6.73633C160.317 6.73633 161.092 7.70298 161.092 9.27724V9.5258H161.119ZM157.327 8.89057H160.178C160.123 7.97916 159.708 7.42679 158.767 7.42679C157.826 7.42679 157.383 7.97916 157.327 8.89057Z" fill="#003333"/>
<path d="M166.544 8.53181V11.9289H165.631V8.6699C165.631 7.95182 165.326 7.4823 164.496 7.4823C163.5 7.4823 163.029 8.17277 163.029 9.02894V11.9289H162.116V6.81946H163.029V7.67563C163.334 7.09564 163.943 6.70898 164.801 6.70898C165.991 6.70898 166.572 7.42707 166.572 8.50419L166.544 8.53181Z" fill="#003333"/>
<path d="M172.302 6.8468V11.5972C172.302 12.9229 171.444 13.7514 169.894 13.7514C168.51 13.7514 167.68 13.0886 167.597 12.0115H168.51C168.565 12.6191 169.008 13.061 169.894 13.061C171.001 13.061 171.389 12.4534 171.389 11.5696V10.7963C171.084 11.4039 170.475 11.7905 169.672 11.7905C168.288 11.7905 167.569 10.7686 167.569 9.30485C167.569 7.78583 168.316 6.73633 169.7 6.73633C170.531 6.73633 171.139 7.12299 171.444 7.70298V6.8468H172.33H172.302ZM171.389 9.30485V9.24962C171.389 8.20011 170.89 7.48203 169.894 7.48203C168.897 7.48203 168.482 8.20011 168.482 9.27724C168.482 10.3544 168.897 11.0724 169.894 11.0724C170.89 11.0724 171.389 10.3267 171.389 9.30485Z" fill="#003333"/>
<path d="M175.125 11.9291C174.295 11.9291 173.907 11.5701 173.907 10.8244V7.56541H173.021V6.81971H173.907V5.32831L174.821 4.7207V6.81971H175.789V7.56541H174.821V10.6587C174.821 11.0177 174.931 11.1834 175.374 11.1834H175.817V11.9291H175.125Z" fill="#003333"/>
<path d="M181.103 8.53289V11.93H180.19V8.67098C180.19 7.9529 179.886 7.48338 179.055 7.48338C178.059 7.48338 177.588 8.17385 177.588 9.03002V11.93H176.675V4.63867H177.588V7.67671C177.92 7.09672 178.474 6.73768 179.332 6.73768C180.522 6.73768 181.103 7.45576 181.103 8.53289Z" fill="#003333"/>
<path d="M186.805 9.5258H183.013C183.013 10.6029 183.401 11.3486 184.508 11.3486C185.421 11.3486 185.809 10.8239 185.892 10.161H186.778C186.667 11.2934 185.92 12.0667 184.48 12.0667C182.875 12.0667 182.072 11.0448 182.072 9.41533C182.072 7.75821 182.903 6.73633 184.453 6.73633C186.003 6.73633 186.778 7.70298 186.778 9.27724V9.5258H186.805ZM183.013 8.89057H185.864C185.809 7.97916 185.394 7.42679 184.453 7.42679C183.512 7.42679 183.069 7.97916 183.013 8.89057Z" fill="#003333"/>
<path d="M192.23 8.53181V11.9289H191.317V8.6699C191.317 7.95182 191.013 7.4823 190.182 7.4823C189.186 7.4823 188.715 8.17277 188.715 9.02894V11.9289H187.802V6.81946H188.715V7.67563C189.02 7.09564 189.629 6.70898 190.487 6.70898C191.677 6.70898 192.23 7.42707 192.23 8.50419V8.53181Z" fill="#003333"/>
<path d="M193.421 4.83203H194.445V5.8263H193.421V4.83203ZM193.476 6.82057H194.39V11.93H193.476V6.82057Z" fill="#003333"/>
<path d="M200.119 8.53181V11.9289H199.206V8.6699C199.206 7.95182 198.901 7.4823 198.071 7.4823C197.074 7.4823 196.604 8.17277 196.604 9.02894V11.9289H195.69V6.81946H196.604V7.67563C196.908 7.09564 197.517 6.70898 198.375 6.70898C199.565 6.70898 200.147 7.42707 200.147 8.50419L200.119 8.53181Z" fill="#003333"/>
<path d="M205.876 6.8468V11.5972C205.876 12.9229 205.018 13.7514 203.468 13.7514C202.084 13.7514 201.254 13.0886 201.171 12.0115H202.084C202.14 12.6191 202.582 13.061 203.468 13.061C204.575 13.061 204.963 12.4534 204.963 11.5696V10.7963C204.658 11.4039 204.049 11.7905 203.247 11.7905C201.863 11.7905 201.143 10.7686 201.143 9.30485C201.143 7.78583 201.89 6.73633 203.274 6.73633C204.105 6.73633 204.714 7.12299 205.018 7.70298V6.8468H205.904H205.876ZM204.963 9.30485V9.24962C204.963 8.20011 204.465 7.48203 203.468 7.48203C202.472 7.48203 202.056 8.20011 202.056 9.27724C202.056 10.3544 202.472 11.0724 203.468 11.0724C204.465 11.0724 204.963 10.3267 204.963 9.30485Z" fill="#003333"/>
<path d="M149.467 16.8457L146.616 21.4028V24.137H145.619V21.4028L142.796 16.8457H143.875L146.145 20.5742L148.415 16.8457H149.467Z" fill="#003333"/>
<path d="M148.691 21.6224C148.691 19.9929 149.549 18.9434 151.127 18.9434C152.705 18.9434 153.563 19.9929 153.563 21.5947C153.563 23.2242 152.705 24.2737 151.127 24.2737C149.549 24.2737 148.691 23.2242 148.691 21.6224ZM152.594 21.6224C152.594 20.49 152.179 19.6891 151.099 19.6891C150.02 19.6891 149.605 20.49 149.605 21.5947C149.605 22.7271 150.02 23.528 151.099 23.528C152.179 23.528 152.594 22.7271 152.594 21.6224Z" fill="#003333"/>
<path d="M158.933 19.0547V24.1641H158.047V23.2803C157.742 23.8603 157.161 24.2746 156.303 24.2746C155.141 24.2746 154.532 23.5841 154.532 22.4518V19.0547H155.445V22.3137C155.445 23.0318 155.75 23.5013 156.58 23.5013C157.576 23.5013 158.019 22.8108 158.019 21.9546V19.0547H158.933Z" fill="#003333"/>
<path d="M161.784 24.1635C160.953 24.1635 160.566 23.8045 160.566 23.0588V19.7998H159.68V19.0541H160.566V17.5627L161.479 16.9551V19.0541H162.448V19.7998H161.479V22.8931C161.479 23.2521 161.59 23.4178 162.033 23.4178H162.476V24.1635H161.784Z" fill="#003333"/>
<path d="M167.735 20.7399V24.137H166.821V20.878C166.821 20.1599 166.517 19.6904 165.687 19.6904C164.69 19.6904 164.22 20.3809 164.22 21.2371V24.137H163.306V16.8457H164.22V19.8837C164.552 19.3038 165.105 18.9447 165.963 18.9447C167.154 18.9447 167.735 19.6628 167.735 20.7399Z" fill="#003333"/>
<path d="M170.226 17.0938C170.005 17.9499 169.562 19.0547 169.285 19.5242L168.704 19.5794C168.925 18.9718 169.202 17.9223 169.313 17.2042L170.226 17.0938Z" fill="#003333"/>
<path d="M170.807 22.3695H171.665C171.721 23.2809 172.246 23.5847 173.132 23.5847C173.907 23.5847 174.378 23.3085 174.378 22.7561C174.378 22.3971 174.212 22.2038 173.769 22.0933C173.298 21.9552 172.496 21.8999 171.914 21.7342C171.333 21.5409 170.973 21.1819 170.973 20.4914C170.973 19.5248 171.776 19 172.966 19C174.295 19 175.097 19.5248 175.153 20.7676H174.295C174.239 19.9666 173.796 19.6905 172.994 19.6905C172.329 19.6905 171.887 19.939 171.887 20.4362C171.887 20.7676 172.053 20.9609 172.496 21.099C172.966 21.2371 173.824 21.32 174.378 21.4857C174.959 21.6514 175.291 22.038 175.291 22.7285C175.291 23.778 174.433 24.3304 173.132 24.3304C171.721 24.3304 170.862 23.8056 170.807 22.4247V22.3695Z" fill="#003333"/>
<path d="M184.259 18.9721C184.259 20.6292 183.179 21.1263 181.491 21.1263H179.443V24.1643H178.446V16.873H181.491C183.152 16.873 184.231 17.3702 184.231 18.9721H184.259ZM183.262 18.9721C183.262 17.8949 182.57 17.674 181.491 17.674H179.47V20.3254H181.491C182.57 20.3254 183.262 20.1044 183.262 18.9997V18.9721Z" fill="#003333"/>
<path d="M184.812 21.6224C184.812 19.9929 185.671 18.9434 187.248 18.9434C188.826 18.9434 189.684 19.9929 189.684 21.5947C189.684 23.2242 188.826 24.2737 187.248 24.2737C185.671 24.2737 184.812 23.2242 184.812 21.6224ZM188.715 21.6224C188.715 20.49 188.3 19.6891 187.221 19.6891C186.141 19.6891 185.726 20.49 185.726 21.5947C185.726 22.7271 186.141 23.528 187.221 23.528C188.3 23.528 188.715 22.7271 188.715 21.6224Z" fill="#003333"/>
<path d="M191.566 16.8457V24.137H190.653V16.8457H191.566Z" fill="#003333"/>
<path d="M192.812 17.0664H193.836V18.0607H192.812V17.0664ZM192.867 19.0549H193.781V24.1644H192.867V19.0549Z" fill="#003333"/>
<path d="M196.604 24.1635C195.774 24.1635 195.386 23.8045 195.386 23.0588V19.7998H194.5V19.0541H195.386V17.5627L196.3 16.9551V19.0541H197.268V19.7998H196.3V22.8931C196.3 23.2521 196.41 23.4178 196.853 23.4178H197.296V24.1635H196.604Z" fill="#003333"/>
<path d="M198.099 17.0664H199.123V18.0607H198.099V17.0664ZM198.154 19.0549H199.067V24.1644H198.154V19.0549Z" fill="#003333"/>
<path d="M200.091 21.6224C200.091 19.9929 200.949 18.9434 202.499 18.9434C203.856 18.9434 204.714 19.7167 204.824 21.0148H203.883C203.8 20.2138 203.357 19.6891 202.499 19.6891C201.448 19.6891 201.032 20.49 201.032 21.5947C201.032 22.6995 201.448 23.5004 202.499 23.5004C203.413 23.5004 203.828 22.9204 203.911 22.0643H204.824C204.741 23.4176 203.856 24.2461 202.499 24.2461C200.949 24.2461 200.091 23.1966 200.091 21.5947V21.6224Z" fill="#003333"/>
<path d="M209.917 20.7386V24.1356H209.032V23.2519C208.755 23.7766 208.118 24.2461 207.233 24.2461C206.264 24.2461 205.572 23.6937 205.572 22.7547C205.572 21.9262 206.015 21.4843 206.679 21.2081C207.316 20.9595 208.091 20.8214 209.004 20.7938V20.7386C209.004 20.0757 208.727 19.6338 207.814 19.6338C207.011 19.6338 206.624 19.9652 206.568 20.7109H205.682C205.738 19.4957 206.513 18.9434 207.814 18.9434C209.225 18.9434 209.89 19.6338 209.89 20.7662L209.917 20.7386ZM209.004 22.2023V21.3738C208.284 21.4014 207.648 21.5119 207.233 21.6776C206.79 21.8709 206.513 22.1471 206.513 22.6442C206.513 23.2242 206.928 23.5004 207.509 23.5004C208.367 23.5004 209.004 22.8928 209.004 22.1747V22.2023Z" fill="#003333"/>
<path d="M212.076 16.8457V24.137H211.163V16.8457H212.076Z" fill="#003333"/>
<path d="M148.636 35.5428V36.3714H143.488V29.0801H148.636V29.9086H144.484V32.2286H148.442V33.0571H144.484V35.5428H148.664H148.636Z" fill="#003333"/>
<path d="M154.117 32.9752V36.3723H153.203V33.1133C153.203 32.3952 152.899 31.9257 152.068 31.9257C151.072 31.9257 150.601 32.6161 150.601 33.4723V36.3723H149.688V31.2628H150.601V32.119C150.906 31.539 151.515 31.1523 152.373 31.1523C153.563 31.1523 154.117 31.8704 154.117 32.9475V32.9752Z" fill="#003333"/>
<path d="M159.846 31.2628V36.0132C159.846 37.3389 158.988 38.1675 157.438 38.1675C156.054 38.1675 155.224 37.5046 155.141 36.4275H156.054C156.11 37.0351 156.553 37.477 157.438 37.477C158.545 37.477 158.933 36.8694 158.933 35.9856V35.2123C158.629 35.8199 158.02 36.2065 157.217 36.2065C155.833 36.2065 155.113 35.1847 155.113 33.7209C155.113 32.2018 155.861 31.1523 157.245 31.1523C158.075 31.1523 158.684 31.539 158.988 32.119V31.2628H159.874H159.846ZM158.933 33.7209V33.6656C158.933 32.6161 158.435 31.898 157.438 31.898C156.442 31.898 156.027 32.6161 156.027 33.6933C156.027 34.7704 156.442 35.4885 157.438 35.4885C158.435 35.4885 158.933 34.7428 158.933 33.7209Z" fill="#003333"/>
<path d="M165.216 32.9749V36.372H164.33V35.4882C164.053 36.0129 163.417 36.4824 162.531 36.4824C161.562 36.4824 160.87 35.9301 160.87 34.991C160.87 34.1625 161.313 33.7206 161.977 33.4444C162.614 33.1958 163.389 33.0577 164.302 33.0301V32.9749C164.302 32.312 164.026 31.8702 163.112 31.8702C162.309 31.8702 161.922 32.2016 161.867 32.9473H160.981C161.036 31.7321 161.811 31.1797 163.112 31.1797C164.524 31.1797 165.188 31.8702 165.188 33.0025L165.216 32.9749ZM164.302 34.4387V33.6101C163.583 33.6377 162.946 33.7482 162.531 33.9139C162.088 34.1073 161.811 34.3834 161.811 34.8806C161.811 35.4606 162.226 35.7367 162.808 35.7367C163.666 35.7367 164.302 35.1291 164.302 34.4111V34.4387Z" fill="#003333"/>
<path d="M170.973 31.2628V36.0132C170.973 37.3389 170.115 38.1675 168.565 38.1675C167.181 38.1675 166.351 37.5046 166.268 36.4275H167.181C167.237 37.0351 167.68 37.477 168.565 37.477C169.672 37.477 170.06 36.8694 170.06 35.9856V35.2123C169.755 35.8199 169.147 36.2065 168.344 36.2065C166.96 36.2065 166.24 35.1847 166.24 33.7209C166.24 32.2018 166.988 31.1523 168.372 31.1523C169.202 31.1523 169.811 31.539 170.115 32.119V31.2628H171.001H170.973ZM170.06 33.7209V33.6656C170.06 32.6161 169.562 31.898 168.565 31.898C167.569 31.898 167.154 32.6161 167.154 33.6933C167.154 34.7704 167.569 35.4885 168.565 35.4885C169.562 35.4885 170.06 34.7428 170.06 33.7209Z" fill="#003333"/>
<path d="M176.703 33.9418H172.911C172.911 35.0189 173.298 35.7646 174.405 35.7646C175.319 35.7646 175.706 35.2399 175.789 34.577H176.675C176.564 35.7094 175.817 36.4827 174.378 36.4827C172.772 36.4827 171.97 35.4608 171.97 33.8313C171.97 32.1742 172.8 31.1523 174.35 31.1523C175.9 31.1523 176.675 32.119 176.675 33.6933V33.9418H176.703ZM172.911 33.3066H175.762C175.706 32.3952 175.291 31.8428 174.35 31.8428C173.409 31.8428 172.966 32.3952 172.911 33.3066Z" fill="#003333"/>
<path d="M184.951 32.9199V36.3723H184.038V33.058C184.038 32.3676 183.761 31.9257 183.069 31.9257C182.211 31.9257 181.823 32.5609 181.823 33.3618V36.3723H180.91V33.058C180.91 32.3676 180.661 31.9257 179.941 31.9257C179.083 31.9257 178.668 32.5885 178.668 33.4447V36.3723H177.754V31.2628H178.64V32.119C178.945 31.539 179.443 31.1523 180.246 31.1523C181.048 31.1523 181.491 31.5114 181.712 32.119C182.017 31.539 182.543 31.1523 183.373 31.1523C184.453 31.1523 185.006 31.8152 185.006 32.8923L184.951 32.9199Z" fill="#003333"/>
<path d="M190.653 33.9418H186.861C186.861 35.0189 187.249 35.7646 188.356 35.7646C189.269 35.7646 189.657 35.2399 189.74 34.577H190.625C190.515 35.7094 189.767 36.4827 188.328 36.4827C186.723 36.4827 185.92 35.4608 185.92 33.8313C185.92 32.1742 186.75 31.1523 188.3 31.1523C189.85 31.1523 190.625 32.119 190.625 33.6933V33.9418H190.653ZM186.861 33.3066H189.712C189.657 32.3952 189.241 31.8428 188.3 31.8428C187.359 31.8428 186.916 32.3952 186.861 33.3066Z" fill="#003333"/>
<path d="M196.078 32.9752V36.3723H195.165V33.1133C195.165 32.3952 194.86 31.9257 194.03 31.9257C193.033 31.9257 192.563 32.6161 192.563 33.4723V36.3723H191.649V31.2628H192.563V32.119C192.867 31.539 193.476 31.1523 194.334 31.1523C195.524 31.1523 196.078 31.8704 196.078 32.9475V32.9752Z" fill="#003333"/>
<path d="M198.818 36.3725C197.988 36.3725 197.601 36.0135 197.601 35.2678V32.0088H196.715V31.2631H197.601V29.7717L198.514 29.1641V31.2631H199.483V32.0088H198.514V35.1021C198.514 35.4611 198.625 35.6268 199.068 35.6268H199.51V36.3725H198.818Z" fill="#003333"/>
<path d="M206.541 32.9749V36.372H205.655V35.4882C205.378 36.0129 204.742 36.4824 203.856 36.4824C202.887 36.4824 202.195 35.9301 202.195 34.991C202.195 34.1625 202.638 33.7206 203.302 33.4444C203.939 33.1958 204.714 33.0577 205.628 33.0301V32.9749C205.628 32.312 205.351 31.8702 204.437 31.8702C203.635 31.8702 203.247 32.2016 203.192 32.9473H202.306C202.361 31.7321 203.136 31.1797 204.437 31.1797C205.849 31.1797 206.513 31.8702 206.513 33.0025L206.541 32.9749ZM205.628 34.4387V33.6101C204.908 33.6377 204.271 33.7482 203.856 33.9139C203.413 34.1073 203.136 34.3834 203.136 34.8806C203.136 35.4606 203.552 35.7367 204.133 35.7367C204.991 35.7367 205.628 35.1291 205.628 34.4111V34.4387Z" fill="#003333"/>
<path d="M212.215 32.9752V36.3723H211.301V33.1133C211.301 32.3952 210.997 31.9257 210.167 31.9257C209.17 31.9257 208.7 32.6161 208.7 33.4723V36.3723H207.786V31.2628H208.7V32.119C209.004 31.539 209.613 31.1523 210.471 31.1523C211.661 31.1523 212.215 31.8704 212.215 32.9475V32.9752Z" fill="#003333"/>
<path d="M218 29.0527V36.344H217.114V35.3774C216.81 36.0402 216.201 36.4545 215.343 36.4545C213.959 36.4545 213.211 35.3774 213.211 33.8307C213.211 32.2289 213.959 31.1517 215.37 31.1517C216.145 31.1517 216.727 31.4832 217.059 32.0632V29.0804H217.972L218 29.0527ZM217.086 33.7479C217.086 32.6431 216.588 31.8698 215.564 31.8698C214.54 31.8698 214.153 32.6431 214.153 33.7755C214.153 34.9355 214.568 35.7088 215.564 35.7088C216.561 35.7088 217.086 34.9355 217.086 33.8031V33.7479Z" fill="#003333"/>
<path d="M149.273 43.3861C149.273 45.0432 148.193 45.5404 146.505 45.5404H144.456V48.5784H143.46V41.2871H146.505C148.165 41.2871 149.245 41.7842 149.245 43.3861H149.273ZM148.276 43.3861C148.276 42.309 147.584 42.088 146.505 42.088H144.484V44.7394H146.505C147.584 44.7394 148.276 44.5185 148.276 43.4137V43.3861Z" fill="#003333"/>
<path d="M154.172 45.1819V48.579H153.286V47.6952C153.009 48.22 152.373 48.6895 151.487 48.6895C150.518 48.6895 149.826 48.1371 149.826 47.1981C149.826 46.3695 150.269 45.9276 150.933 45.6514C151.57 45.4029 152.345 45.2648 153.258 45.2372V45.1819C153.258 44.5191 152.982 44.0772 152.068 44.0772C151.265 44.0772 150.878 44.4086 150.823 45.1543H149.937C149.992 43.9391 150.767 43.3867 152.068 43.3867C153.48 43.3867 154.144 44.0772 154.144 45.2095L154.172 45.1819ZM153.258 46.6457V45.8171C152.539 45.8448 151.902 45.9552 151.487 46.121C151.044 46.3143 150.767 46.5905 150.767 47.0876C150.767 47.6676 151.182 47.9438 151.764 47.9438C152.622 47.9438 153.258 47.3362 153.258 46.6181V46.6457Z" fill="#003333"/>
<path d="M158.186 43.4693V44.2702H157.77C156.802 44.2702 156.359 44.9607 156.359 45.8721V48.5787H155.445V43.4693H156.331V44.4359C156.58 43.8283 157.078 43.4141 157.853 43.4141H158.186V43.4693Z" fill="#003333"/>
<path d="M160.538 48.5795C159.708 48.5795 159.32 48.2205 159.32 47.4748V44.2158H158.435V43.4701H159.32V41.9787L160.234 41.3711V43.4701H161.202V44.2158H160.234V47.3091C160.234 47.6681 160.344 47.8338 160.787 47.8338H161.23V48.5795H160.538Z" fill="#003333"/>
<path d="M162.033 41.4805H163.057V42.4747H162.033V41.4805ZM162.088 43.469H163.001V48.5784H162.088V43.469Z" fill="#003333"/>
<path d="M164.026 46.0657C164.026 44.4362 164.884 43.3867 166.434 43.3867C167.79 43.3867 168.648 44.16 168.759 45.4581H167.818C167.735 44.6572 167.292 44.1324 166.434 44.1324C165.382 44.1324 164.967 44.9334 164.967 46.0381C164.967 47.1428 165.382 47.9438 166.434 47.9438C167.347 47.9438 167.762 47.3638 167.845 46.5076H168.759C168.676 47.8609 167.79 48.6895 166.406 48.6895C164.856 48.6895 163.998 47.64 163.998 46.0381L164.026 46.0657Z" fill="#003333"/>
<path d="M169.7 41.4805H170.724V42.4747H169.7V41.4805ZM169.755 43.469H170.668V48.5784H169.755V43.469Z" fill="#003333"/>
<path d="M176.73 46.0105V46.0657C176.73 47.64 175.983 48.7171 174.571 48.7171C173.796 48.7171 173.215 48.3581 172.855 47.8057V50.319H171.942V43.4972H172.828V44.4638C173.16 43.801 173.741 43.3867 174.599 43.3867C175.983 43.3867 176.73 44.4638 176.73 46.0105ZM175.789 46.0381C175.789 44.9057 175.374 44.1048 174.35 44.1048C173.326 44.1048 172.828 44.8781 172.828 46.0105V46.0657C172.828 47.1705 173.326 47.9438 174.35 47.9438C175.374 47.9438 175.789 47.1705 175.789 46.0381Z" fill="#003333"/>
<path d="M181.851 45.1819V48.579H180.965V47.6952C180.688 48.22 180.052 48.6895 179.166 48.6895C178.197 48.6895 177.505 48.1371 177.505 47.1981C177.505 46.3695 177.948 45.9276 178.613 45.6514C179.249 45.4029 180.024 45.2648 180.938 45.2372V45.1819C180.938 44.5191 180.661 44.0772 179.747 44.0772C178.945 44.0772 178.557 44.4086 178.502 45.1543H177.616C177.671 43.9391 178.446 43.3867 179.747 43.3867C181.159 43.3867 181.823 44.0772 181.823 45.2095L181.851 45.1819ZM180.938 46.6457V45.8171C180.218 45.8448 179.581 45.9552 179.166 46.121C178.723 46.3143 178.446 46.5905 178.446 47.0876C178.446 47.6676 178.862 47.9438 179.443 47.9438C180.301 47.9438 180.938 47.3362 180.938 46.6181V46.6457Z" fill="#003333"/>
<path d="M184.564 48.5795C183.733 48.5795 183.346 48.2205 183.346 47.4748V44.2158H182.46V43.4701H183.346V41.9787L184.259 41.3711V43.4701H185.228V44.2158H184.259V47.3091C184.259 47.6681 184.37 47.8338 184.813 47.8338H185.256V48.5795H184.564Z" fill="#003333"/>
<path d="M186.058 41.4805H187.082V42.4747H186.058V41.4805ZM186.113 43.469H187.027V48.5784H186.113V43.469Z" fill="#003333"/>
<path d="M188.051 46.0657C188.051 44.4362 188.909 43.3867 190.487 43.3867C192.065 43.3867 192.923 44.4362 192.923 46.0381C192.923 47.6676 192.065 48.7171 190.487 48.7171C188.909 48.7171 188.051 47.6676 188.051 46.0657ZM191.954 46.0657C191.954 44.9334 191.539 44.1324 190.459 44.1324C189.38 44.1324 188.965 44.9334 188.965 46.0381C188.965 47.1705 189.38 47.9714 190.459 47.9714C191.539 47.9714 191.954 47.1705 191.954 46.0657Z" fill="#003333"/>
<path d="M198.32 45.1822V48.5793H197.407V45.3203C197.407 44.6022 197.102 44.1327 196.272 44.1327C195.276 44.1327 194.805 44.8232 194.805 45.6793V48.5793H193.892V43.4698H194.805V44.326C195.109 43.746 195.718 43.3594 196.576 43.3594C197.767 43.3594 198.348 44.0775 198.348 45.1546L198.32 45.1822Z" fill="#003333"/>
<path d="M121.123 13.1435V13.0883C121.123 3.58748 114.176 0.880859 104.488 0.880859H78.2764V41.563H86.2756V25.489H91.8668V53.3009H99.866V37.6411H117.996C127.739 37.6411 134.714 34.8517 134.714 25.2957V25.2128C134.714 16.7339 129.233 13.6682 121.151 13.1159L121.123 13.1435ZM86.2756 19.33V7.15027H104.212C109.498 7.15027 112.82 8.28263 112.903 13.0054V13.2263C112.903 18.1425 109.581 19.3024 104.212 19.3024H86.2756V19.33ZM126.466 25.3785C126.466 30.2946 123.144 31.4546 117.774 31.4546H99.8383V25.489H104.378C111.547 25.489 117.221 23.97 119.712 19.3577C123.919 19.6615 126.438 21.07 126.438 25.3233V25.3785H126.466Z" fill="#003333"/>
<path d="M126.963 6.15601V6.79124H126.493V6.18363C126.493 5.96268 126.382 5.87983 126.133 5.87983H125.579V6.79124H125.109V4.60938H126.105C126.576 4.60938 126.908 4.74747 126.908 5.18936C126.908 5.43793 126.797 5.60364 126.604 5.65888C126.825 5.71412 126.936 5.87983 126.936 6.1284L126.963 6.15601ZM126.493 5.2446C126.493 5.02365 126.354 4.96842 126.133 4.96842H125.635V5.49317H126.161C126.382 5.49317 126.521 5.43793 126.521 5.21698L126.493 5.2446Z" fill="#003333"/>
<path d="M125.939 3.31055C124.611 3.31055 123.559 4.38767 123.559 5.71336C123.559 7.03905 124.639 8.08856 125.939 8.08856C127.24 8.08856 128.32 7.01143 128.32 5.71336C128.32 4.41529 127.24 3.31055 125.939 3.31055ZM125.939 7.61904C124.888 7.61904 124.03 6.76287 124.03 5.71336C124.03 4.66386 124.888 3.78006 125.939 3.78006C126.991 3.78006 127.877 4.63624 127.877 5.71336C127.877 6.79048 126.991 7.61904 125.939 7.61904Z" fill="#003333"/>
<path d="M60.2293 33.9131L49.739 13.0059H42.1826L56.4096 41.5634L50.4863 53.3013H58.2918L78.2761 13.0335H70.7197L60.2293 33.9131Z" fill="#003333"/>
<path d="M0.886026 9.19424C2.38069 5.46574 5.72985 2.84198 9.54956 1.65438C11.9853 0.88106 14.5871 0.522019 17.1613 0.383926C21.9774 0.0801218 27.1811 0.577256 31.6374 2.40008C36.5643 4.38862 40.467 8.00665 42.1554 13.0332H34.0178C33.3535 11.1275 31.7205 9.719 29.949 8.77997C28.1775 7.84093 26.1847 7.37142 24.1918 7.04C20.898 6.51524 17.355 6.23906 14.1166 7.04C12.3728 7.45428 10.2692 8.39331 9.07902 9.719C7.88882 11.0447 7.36292 13.0885 8.19329 14.6627C9.07902 16.3751 11.6255 16.9551 13.5353 17.3417C20.0399 18.695 26.7936 18.3084 33.2705 19.6893C36.758 20.4074 40.384 21.8435 42.2385 24.8816C43.8715 27.533 43.7608 31.0129 42.3769 33.8024C40.9929 36.5918 38.4741 38.6909 35.6509 39.9889C32.8276 41.287 29.7276 41.867 26.6275 42.1432C21.5346 42.5851 16.2756 42.2537 11.5978 40.2375C6.92005 38.2213 2.87892 34.3547 1.52264 29.4386C4.20751 29.4386 6.89237 29.4386 9.60492 29.4386C10.3799 31.4272 12.013 32.9738 13.8952 33.9681C16.1372 35.1281 18.6836 35.57 21.1747 35.8185C24.0257 36.0947 26.9043 35.9842 29.6722 35.2938C31.2222 34.9071 32.7999 34.3271 33.9071 33.1671C34.9589 32.09 35.5125 30.4053 34.9035 29.0244C34.2116 27.3949 32.274 26.7044 30.5303 26.3177C23.3614 24.7435 15.8604 25.2406 8.74687 23.4454C6.53255 22.893 4.29055 22.0645 2.68516 20.435C-0.35953 17.2589 -0.608642 12.9227 0.886026 9.19424Z" fill="#003333"/>
</g>
<defs>
<clipPath id="clip0_1136_7716">
<rect width="218" height="53" fill="white" transform="translate(0 0.300781)"/>
</clipPath>
</defs>
</svg>
