<svg width="142" height="80" viewBox="0 0 142 80" fill="none" xmlns="http://www.w3.org/2000/svg">
<g clip-path="url(#clip0_1136_7849)">
<path d="M70.8609 46.6743C70.2487 46.6743 69.6365 46.6743 69.0243 46.6687C49.4733 46.5002 30.0233 43.6638 11.2193 38.2383L8.83789 37.5531L17.0885 8.9707L19.4699 9.65592C35.6735 14.3345 52.4332 16.7776 69.277 16.9237C87.1937 17.0753 105.015 14.6321 122.252 9.65592L124.633 8.9707L132.884 37.5531L130.502 38.2383C111.097 43.8379 91.0353 46.6799 70.8609 46.6799M14.9823 34.1495C32.6125 39.0134 50.7931 41.5576 69.0692 41.7149C69.6702 41.7149 70.2655 41.7205 70.8609 41.7205C89.7435 41.7205 108.525 39.1762 126.739 34.1495L121.241 15.0927C104.813 19.6027 87.8789 21.8887 70.8553 21.8887C70.3161 21.8887 69.7769 21.8887 69.2377 21.883C52.7645 21.7426 36.3756 19.4567 20.4865 15.0927L14.9823 34.1495Z" fill="#FCEE29"/>
<path d="M34.3145 67.6952C34.3145 67.6054 34.3313 67.5155 34.365 67.4312C34.3987 67.347 34.4492 67.274 34.5054 67.2122C34.5672 67.1504 34.6346 67.0999 34.7132 67.0662C34.7919 67.0325 34.8761 67.0156 34.966 67.0156C35.0502 67.0156 35.1345 67.0325 35.2187 67.0662C35.2973 67.0999 35.3703 67.1504 35.4265 67.2122C35.4883 67.274 35.5332 67.347 35.5669 67.4312C35.6006 67.5155 35.6175 67.5997 35.6175 67.6952C35.6175 67.7907 35.6006 67.8749 35.5669 67.9592C35.5332 68.0434 35.4827 68.1165 35.4265 68.1782C35.3647 68.24 35.2973 68.2906 35.2187 68.3243C35.1401 68.358 35.0558 68.3748 34.966 68.3748C34.8761 68.3748 34.7919 68.358 34.7132 68.3243C34.6346 68.2906 34.5672 68.24 34.5054 68.1782C34.4436 68.1165 34.3987 68.0434 34.365 67.9592C34.3313 67.8749 34.3145 67.7907 34.3145 67.6952ZM34.3145 71.2617C34.3145 71.1718 34.3313 71.082 34.365 70.9977C34.3987 70.9135 34.4492 70.8405 34.5054 70.7787C34.5672 70.7169 34.6346 70.6664 34.7132 70.6327C34.7919 70.599 34.8761 70.5821 34.966 70.5821C35.0502 70.5821 35.1345 70.599 35.2187 70.6327C35.2973 70.6664 35.3703 70.7169 35.4265 70.7787C35.4883 70.8405 35.5332 70.9135 35.5669 70.9977C35.6006 71.082 35.6175 71.1662 35.6175 71.2617C35.6175 71.3572 35.6006 71.4414 35.5669 71.5257C35.5332 71.6099 35.4827 71.6829 35.4265 71.7447C35.3647 71.8065 35.2973 71.857 35.2187 71.8907C35.1401 71.9244 35.0558 71.9413 34.966 71.9413C34.8761 71.9413 34.7919 71.9244 34.7132 71.8907C34.6346 71.857 34.5672 71.8065 34.5054 71.7447C34.4436 71.6829 34.3987 71.6099 34.365 71.5257C34.3313 71.4414 34.3145 71.3572 34.3145 71.2617Z" fill="black"/>
<path d="M39.7514 68.6575C39.7514 69.1742 39.6952 69.6853 39.5885 70.1964C39.4762 70.7075 39.3133 71.1905 39.0942 71.6623C38.8752 72.1285 38.6056 72.5722 38.2742 72.9822C37.9485 73.3922 37.5665 73.7629 37.1285 74.083L36.8926 73.8078C37.252 73.482 37.5609 73.1226 37.8193 72.735C38.072 72.3475 38.2855 71.9375 38.4483 71.4994C38.6112 71.0613 38.7348 70.6064 38.8078 70.129C38.8808 69.6516 38.9201 69.1629 38.9201 68.6631C38.9201 68.1632 38.8808 67.669 38.8078 67.1916C38.7348 66.7198 38.6112 66.2648 38.4483 65.838C38.2855 65.4111 38.072 65.0011 37.8193 64.6136C37.5609 64.226 37.2577 63.8666 36.8926 63.5408L37.1285 63.2656C37.5609 63.5858 37.9372 63.9508 38.263 64.3608C38.5888 64.7652 38.864 65.2033 39.083 65.6695C39.3021 66.1357 39.4705 66.6187 39.5829 67.1242C39.6952 67.6296 39.7514 68.1407 39.7514 68.6575Z" fill="black"/>
<path d="M56.3483 71.5213C55.68 71.5213 55.2306 71.2854 55.0004 70.8136C54.8712 70.5553 54.7813 70.0554 54.7252 69.314C54.6746 68.6457 54.5567 68.2076 54.3713 67.9885C54.1635 67.7414 53.5738 67.6179 52.6133 67.6179C51.6529 67.6179 50.2151 67.7807 48.3111 68.1121C45.8286 68.5446 44.593 69.0388 44.593 69.6061C44.593 69.8195 44.9693 69.9936 45.7219 70.1172C46.2555 70.2015 46.7441 70.2464 47.1934 70.2464C49.0469 70.2464 51.007 69.7858 53.0683 68.8647C53.4614 68.685 53.7479 68.6007 53.922 68.6007C54.0175 68.6007 54.068 68.6344 54.068 68.6962C54.068 68.831 53.8434 69.0669 53.3997 69.3983C52.8492 69.8083 52.0236 70.1958 50.9228 70.5609C49.6029 70.999 48.3617 71.2124 47.1934 71.2124C44.8177 71.2124 43.627 70.6789 43.627 69.6061C43.627 68.5333 44.9637 67.7695 47.6315 67.2191C49.4288 66.8428 51.0913 66.6518 52.619 66.6518C53.8827 66.6518 54.7476 66.9326 55.2082 67.4887C55.5002 67.8425 55.6575 68.4098 55.6856 69.1905C55.708 69.9206 55.7979 70.3531 55.9608 70.4879C56.0113 70.5328 56.1405 70.5497 56.3539 70.5497C56.6741 70.5497 56.837 70.7125 56.837 71.0327C56.837 71.3528 56.6741 71.5157 56.3539 71.5157M48.4122 65.5903C47.9629 65.7813 47.4181 65.8824 46.7834 65.8824C46.2049 65.8824 45.9185 65.7588 45.9185 65.5173C45.9185 65.3432 46.1656 65.2196 46.6542 65.1466C46.9856 65.096 47.4462 64.95 48.0359 64.7029C48.1033 64.6692 48.1763 64.6523 48.2437 64.6523C48.5582 64.6523 48.7099 64.8208 48.7099 65.1634C48.7099 65.3656 48.6088 65.5117 48.4122 65.5903Z" fill="black"/>
<path d="M59.3751 69.5607C59.3751 70.1504 59.0044 70.6447 58.2686 71.0322C57.6508 71.358 57.0217 71.5265 56.3814 71.5265C56.0557 71.5265 55.8984 71.3636 55.8984 71.0435C55.8984 70.7233 56.0613 70.5604 56.3814 70.5604C56.7016 70.5604 57.1004 70.4706 57.5665 70.2852C58.1282 70.0718 58.4034 69.8303 58.4034 69.5663C58.4034 69.1507 58.3304 68.7969 58.1844 68.5104C58.1394 68.4318 58.1169 68.3531 58.1169 68.2745C58.1169 68.1397 58.1675 68.0274 58.2742 67.9375C58.3809 67.8477 58.4933 67.8027 58.628 67.8027C58.819 67.8027 58.9538 67.8926 59.0493 68.0779C59.2627 68.5104 59.3694 69.0047 59.3694 69.5719M58.5157 66.3818L58.2405 66.8255C58.145 66.9827 58.0102 67.0614 57.8474 67.0614C57.7126 67.0614 57.5946 67.0164 57.4935 66.9209C57.3924 66.8255 57.3419 66.7131 57.3419 66.5783C57.3419 66.4941 57.37 66.4042 57.4205 66.3144L57.6957 65.8706C57.7912 65.7134 57.926 65.6348 58.0889 65.6348C58.2237 65.6348 58.3416 65.6797 58.4427 65.7752C58.5438 65.8707 58.5943 65.983 58.5943 66.1178C58.5943 66.202 58.5663 66.2919 58.5157 66.3818Z" fill="black"/>
<path d="M62.2785 71.5216C61.3181 71.5216 60.8238 71.1677 60.7845 70.4657C60.7059 69.0447 60.543 67.371 60.3015 65.4389C60.3015 65.4052 60.2959 65.3771 60.2959 65.349C60.2959 65.1974 60.3577 65.0626 60.4756 64.939C60.5992 64.8098 60.7396 64.748 60.8969 64.748C61.1047 64.748 61.2226 64.8604 61.2507 65.085C61.3687 66.3712 61.5315 68.118 61.745 70.3252C61.7618 70.4825 61.9415 70.5611 62.2841 70.5611C62.6043 70.5611 62.7672 70.724 62.7672 71.0442C62.7672 71.3643 62.6043 71.5272 62.2841 71.5272" fill="black"/>
<path d="M69.4402 69.9701C68.7381 70.2172 67.6317 70.571 66.1096 71.0372C66.0703 71.1551 66.0253 71.3012 65.9748 71.4753C65.7445 72.065 65.5535 72.3627 65.4019 72.3627C65.2952 72.3627 65.239 72.211 65.239 71.9134C65.239 71.7112 65.2671 71.4809 65.3177 71.2281C65.0986 71.2899 64.6662 71.3517 64.0259 71.4191C63.3519 71.4865 62.8071 71.5258 62.3971 71.5258C62.0713 71.5258 61.9141 71.3629 61.9141 71.0428C61.9141 70.7227 62.0769 70.5598 62.3971 70.5598C63.4249 70.5598 64.4808 70.4306 65.5592 70.1779C66.0141 68.3413 66.6712 67.4258 67.5306 67.4258C67.9181 67.4258 68.2214 67.555 68.4348 67.8189C68.5135 67.9256 68.6539 68.2065 68.8561 68.6502C68.9515 68.8692 69.0919 68.9815 69.2661 68.9815C69.2998 68.9815 69.3447 68.9759 69.4065 68.9591C69.4683 68.9478 69.5188 68.9366 69.5581 68.9366C69.7828 68.9366 69.8951 69.0714 69.8951 69.3466C69.8951 69.6724 69.7435 69.8802 69.4458 69.9701M68.154 69.3747C68.154 69.3747 68.0417 69.1669 67.8788 68.8187C67.744 68.5322 67.626 68.3918 67.5306 68.3918C67.2104 68.3918 66.8678 68.9029 66.4915 69.9251C66.8397 69.8184 67.3958 69.6331 68.154 69.3747Z" fill="black"/>
<path d="M74.7251 70.572C75.079 70.572 75.2587 70.8641 75.2587 71.4426L75.1913 71.4763H74.9273C74.0736 71.4763 73.2648 71.7964 72.5122 72.4423L71.681 73.751C71.2654 74.2845 70.2544 74.5485 68.6368 74.5485H68.5301C68.1988 74.5485 68.0303 74.4474 68.0303 74.2508C68.0303 74.0262 68.5077 73.8577 69.4681 73.751C70.5802 73.4701 71.1362 73.2006 71.1362 72.9422C71.608 71.9368 72.282 71.2685 73.1469 70.9315C73.7759 70.69 74.2983 70.5664 74.7195 70.5664" fill="black"/>
<path d="M78.4093 68.1005C78.5217 68.3757 78.5779 68.6846 78.5779 69.0272C78.5779 69.6787 78.415 70.1617 78.0948 70.4819C77.741 70.8357 77.213 71.1109 76.511 71.2963C75.9437 71.4479 75.3877 71.5209 74.8316 71.5209C74.5115 71.5209 74.3486 71.358 74.3486 71.0379C74.3486 70.7178 74.5115 70.5549 74.8316 70.5549C75.3821 70.5549 75.9213 70.4762 76.4548 70.3134C77.0502 70.128 77.4209 69.8865 77.5613 69.5945C77.6062 69.499 77.623 69.4091 77.623 69.3361V69.2856C77.6118 69.1957 77.5613 69.1508 77.4714 69.1508C77.4489 69.1508 77.4208 69.1508 77.3928 69.1564C77.2243 69.1901 77.067 69.2069 76.9154 69.2069C76.3425 69.2069 76.0617 68.9654 76.0617 68.4824C76.0617 68.1679 76.1796 67.8758 76.4155 67.6006C76.6739 67.3029 76.9828 67.1569 77.3366 67.1569C77.8028 67.1569 78.1622 67.4714 78.4093 68.1005ZM77.1737 65.0282L76.8985 65.4719C76.803 65.6292 76.6682 65.7078 76.5054 65.7078C76.3706 65.7078 76.2526 65.6629 76.1515 65.5674C76.0504 65.472 75.9999 65.3596 75.9999 65.2248C75.9999 65.1406 76.028 65.0507 76.0785 64.9608L76.3537 64.5172C76.4492 64.3599 76.584 64.2812 76.7469 64.2812C76.8817 64.2812 76.9996 64.3262 77.1007 64.4217C77.2018 64.5171 77.2524 64.6295 77.2524 64.7643C77.2524 64.8485 77.2243 64.9384 77.1737 65.0282Z" fill="black"/>
<path d="M90.0465 68.635C90.0465 69.309 89.687 69.938 88.9737 70.5334C88.311 71.0838 87.6763 71.359 87.0697 71.359C86.2947 71.359 85.9071 71.0613 85.9071 70.4716C85.9071 70.2918 85.9464 70.1009 86.0307 69.8931C86.2216 69.382 86.5923 68.9102 87.1371 68.4833C87.2944 68.3598 87.446 68.298 87.5864 68.298C87.7493 68.298 87.828 68.3654 87.828 68.5058C87.828 68.6069 87.7718 68.7249 87.6651 68.854C87.5078 69.0394 87.3505 69.2191 87.1877 69.4044C86.9349 69.7302 86.8058 69.9773 86.8058 70.1458C86.8058 70.3143 86.9349 70.4042 87.1933 70.4042C87.5752 70.4042 87.9852 70.1964 88.4177 69.7807C88.8558 69.3651 89.0692 68.9888 89.0692 68.6406C89.0692 68.0396 88.5918 67.7363 87.6426 67.7363C86.9349 67.7363 86.0307 67.8992 84.9298 68.2194C84.0368 68.4833 83.4078 68.7136 83.0483 68.9158C82.7731 69.0731 82.5428 69.1517 82.3519 69.1517C82.189 69.1517 82.1104 69.0955 82.1104 68.9832C82.1104 68.7979 82.3125 68.5957 82.7225 68.3598C84.576 67.3263 86.261 66.8096 87.7886 66.8096C89.3163 66.8096 90.0296 67.4218 90.0296 68.6406M86.6653 65.3774C86.216 65.5684 85.6712 65.6695 85.0366 65.6695C84.4581 65.6695 84.1716 65.5459 84.1716 65.3044C84.1716 65.1303 84.4187 65.0067 84.9074 64.9337C85.2387 64.8832 85.6993 64.7371 86.289 64.49C86.3564 64.4563 86.4294 64.4395 86.4968 64.4395C86.8114 64.4395 86.963 64.608 86.963 64.9506C86.963 65.1528 86.8619 65.2988 86.6653 65.3774Z" fill="black"/>
<path d="M97.0902 71.5213C96.4331 71.5213 95.9725 71.3191 95.7029 70.9091C95.6748 70.8698 95.6187 70.7406 95.5344 70.5159C95.4726 70.3587 95.4109 70.28 95.3491 70.28C95.2761 70.28 95.1806 70.3531 95.0739 70.5047C94.8717 70.808 94.5515 71.1899 94.1191 71.6561C93.563 72.0492 92.4453 72.2458 90.7548 72.2458C90.3616 72.2458 90.165 72.156 90.165 71.9818C90.165 71.8077 90.3672 71.6617 90.7773 71.5775C91.2266 71.5101 91.6759 71.4483 92.1252 71.3865C92.9171 71.2292 93.4675 70.999 93.7821 70.6901C94.0236 70.3755 94.2651 70.0666 94.5066 69.7633C94.8548 69.3365 95.1581 69.123 95.4109 69.123C95.7085 69.123 95.9669 69.359 96.1859 69.8364C96.405 70.3138 96.7083 70.5496 97.0902 70.5496C97.4103 70.5496 97.5732 70.7125 97.5732 71.0327C97.5732 71.3528 97.4103 71.5157 97.0902 71.5157" fill="black"/>
<path d="M101.988 71.5203C101.01 71.5203 100.275 71.3406 99.7861 70.9868C99.0728 71.3631 98.3763 71.554 97.7024 71.554C97.5451 71.554 97.3934 71.5428 97.2418 71.5203C96.9217 71.5203 96.7588 71.3574 96.7588 71.0373C96.7588 70.7172 96.9217 70.5543 97.2418 70.5543C97.3934 70.5768 97.5451 70.588 97.6911 70.588C98.1629 70.588 98.6291 70.47 99.0784 70.2398C99.0054 70.0432 98.9661 69.8241 98.9661 69.5883V69.4984C98.9885 69.0603 99.1121 68.7065 99.348 68.4313C99.5783 68.156 99.8591 68.0156 100.196 68.0156C100.263 68.0156 100.325 68.0156 100.398 68.0325C101.134 68.1617 101.505 68.4425 101.505 68.8693C101.505 68.9985 101.471 69.1445 101.409 69.313C101.235 69.7624 100.971 70.1218 100.617 70.4026C100.859 70.5037 101.319 70.5543 101.988 70.5543C102.308 70.5543 102.471 70.7172 102.471 71.0373C102.471 71.3574 102.308 71.5203 101.988 71.5203Z" fill="black"/>
<path d="M104.239 63.6133H104.307C104.442 63.6133 104.526 63.7088 104.565 63.8941C104.565 64.3041 104.666 65.5173 104.863 67.5392C104.874 67.5504 104.88 67.6403 104.88 67.8032V68.0559C104.88 68.2974 104.846 68.539 104.784 68.7805C105.11 68.8029 105.402 68.8872 105.666 69.0388C105.84 69.168 105.924 69.3253 105.924 69.5162C105.924 70.0779 105.486 70.5272 104.61 70.8698C103.655 71.263 102.936 71.4708 102.448 71.4932C102.307 71.4932 102.195 71.4876 102.111 71.4876H102.038C101.807 71.4876 101.673 71.3472 101.645 71.0608V71.0214C101.645 70.7125 101.802 70.5609 102.122 70.5609H102.397C102.948 70.4879 103.402 70.3587 103.768 70.1733C103.756 70.0835 103.751 70.0161 103.751 69.9824V69.9318C103.751 69.6061 103.846 69.2747 104.043 68.9377C104.071 68.8254 104.082 68.7355 104.082 68.6625V68.5558C104.082 68.494 103.981 67.41 103.773 65.3039C103.717 64.6692 103.695 64.3041 103.695 64.2086C103.695 63.9671 103.835 63.7762 104.121 63.6358C104.155 63.6189 104.194 63.6133 104.251 63.6133" fill="black"/>
<path d="M108.087 69.5099C108.098 69.6279 108.104 69.7458 108.104 69.8581C108.104 70.5714 107.986 70.9309 107.756 70.9309C107.581 70.9309 107.441 70.6557 107.329 70.0996C107.267 69.802 107.177 69.1224 107.054 68.0552C106.975 67.3532 106.879 66.4714 106.778 65.4099V65.3537C106.778 65.1122 106.84 64.9044 106.964 64.7415C107.082 64.5786 107.216 64.5 107.368 64.5C107.553 64.5 107.654 64.6236 107.677 64.8651C107.778 65.9547 107.918 67.4992 108.087 69.5155" fill="black"/>
<path d="M122.426 37.9805C118.966 37.9805 115.652 41.019 115.815 44.5911C115.978 48.1744 118.719 51.2017 122.426 51.2017C125.886 51.2017 129.199 48.1632 129.037 44.5911C128.874 41.0078 126.133 37.9805 122.426 37.9805Z" fill="#CB221F"/>
<path d="M19.2902 38.1484C15.8305 38.1484 12.5167 41.187 12.6796 44.7591C12.8425 48.3424 15.5833 51.3697 19.2902 51.3697C22.75 51.3697 26.0637 48.3311 25.9008 44.7591C25.738 41.1757 22.9971 38.1484 19.2902 38.1484Z" fill="#CB221F"/>
<path d="M33.4494 40.8555C29.9896 40.8555 26.6759 43.894 26.8388 47.4661C27.0017 51.0494 29.7425 54.0767 33.4494 54.0767C36.9092 54.0767 40.2229 51.0382 40.06 47.4661C39.8971 43.8828 37.1563 40.8555 33.4494 40.8555Z" fill="#CB221F"/>
<path d="M106.031 41.5234C102.572 41.5234 99.2579 44.562 99.4208 48.1341C99.5837 51.7174 102.325 54.7447 106.031 54.7447C109.491 54.7447 112.805 51.7061 112.642 48.1341C112.479 44.5507 109.738 41.5234 106.031 41.5234Z" fill="#CB221F"/>
<path d="M91.5187 43.2148C88.059 43.2148 84.7452 46.2534 84.9081 49.8255C85.071 53.4088 87.8118 56.4361 91.5187 56.4361C94.9785 56.4361 98.2922 53.3976 98.1294 49.8255C97.9665 46.2421 95.2256 43.2148 91.5187 43.2148Z" fill="#CB221F"/>
<path d="M130.07 10.2734C128.542 4.72988 120.847 3.66836 117.983 8.69513C115.585 12.4975 119.022 15.463 117.511 19.2541C116.118 22.5229 111.625 21.2031 109.979 18.8217C108.16 16.4122 108.244 12.7334 105.256 11.2282C100.167 8.25143 94.0735 13.003 95.545 18.6925C96.4605 24.9212 94.9496 25.1459 89.3275 26.067C87.3112 6.99333 59.2736 7.83019 58.8805 27.1959C58.8693 32.1159 61.2394 36.7102 65.2159 39.5353C62.6941 39.6757 60.1386 39.0411 57.9481 37.7998C54.9321 36.0026 50.613 37.0585 48.9 40.17C45.4346 47.2243 52.6686 50.7739 58.4986 52.0657C69.3665 54.5482 82.3069 49.9764 87.2775 39.5915C93.8039 38.7266 101.616 38.0863 105.728 32.2227C120.96 40.0577 135.4 25.9659 130.075 10.2734M74.0675 29.4313C71.1525 29.42 71.1525 24.983 74.0675 24.9717C76.9825 24.983 76.9825 29.42 74.0675 29.4313Z" fill="#CB221F"/>
<path d="M50.5628 35.0537C52.2927 32.515 51.3547 29.2575 51.1581 28.6453C49.7989 24.3936 44.0701 22.0234 39.9588 21.5236C38.4929 21.3438 31.7363 20.7316 27.816 21.1697C27.4677 21.209 26.4455 21.3326 25.5357 20.7653C24.2158 19.9397 23.9518 18.1761 23.8956 17.8054C23.6654 16.2609 24.3 15.9239 24.5696 12.8461C24.6988 11.397 24.6146 10.8241 24.5191 10.4029C24.1933 9.01562 23.4351 8.10575 23.1486 7.76876C22.7106 7.25765 21.6041 6.12873 19.8181 5.65695C17.8523 5.14023 16.0606 5.69627 15.0328 6.22984C11.5618 8.04397 10.9665 12.7057 10.6744 14.9803C10.5003 16.3564 9.94986 21.1978 12.9041 26.1684C13.3647 26.9491 16.0718 31.3468 21.4862 33.3968C21.9299 33.5653 23.5867 34.1719 25.8446 34.3966C29.9165 34.8122 33.3763 33.7451 36.9147 34.0259C37.8021 34.0933 39.3803 34.2955 40.5991 35.4581C40.6553 35.5143 40.7171 35.5704 40.7732 35.6322C43.0535 37.8788 47.0356 38.2326 49.5462 36.177C49.6754 36.0703 50.1359 35.694 50.5684 35.0537" fill="#CB221F"/>
<path d="M122.426 37.9805C118.966 37.9805 115.652 41.019 115.815 44.5911C115.978 48.1744 118.719 51.2017 122.426 51.2017C125.886 51.2017 129.199 48.1632 129.037 44.5911C128.874 41.0078 126.133 37.9805 122.426 37.9805Z" fill="#CB221F"/>
<path d="M19.2902 38.1484C15.8305 38.1484 12.5167 41.187 12.6796 44.7591C12.8425 48.3424 15.5833 51.3697 19.2902 51.3697C22.75 51.3697 26.0637 48.3311 25.9008 44.7591C25.738 41.1757 22.9971 38.1484 19.2902 38.1484Z" fill="#CB221F"/>
<path d="M33.4494 40.8555C29.9896 40.8555 26.6759 43.894 26.8388 47.4661C27.0017 51.0494 29.7425 54.0767 33.4494 54.0767C36.9092 54.0767 40.2229 51.0382 40.06 47.4661C39.8971 43.8828 37.1563 40.8555 33.4494 40.8555Z" fill="#CB221F"/>
<path d="M106.031 41.5234C102.572 41.5234 99.2579 44.562 99.4208 48.1341C99.5837 51.7174 102.325 54.7447 106.031 54.7447C109.491 54.7447 112.805 51.7061 112.642 48.1341C112.479 44.5507 109.738 41.5234 106.031 41.5234Z" fill="#CB221F"/>
<path d="M91.5187 43.2148C88.059 43.2148 84.7452 46.2534 84.9081 49.8255C85.071 53.4088 87.8118 56.4361 91.5187 56.4361C94.9785 56.4361 98.2922 53.3976 98.1294 49.8255C97.9665 46.2421 95.2256 43.2148 91.5187 43.2148Z" fill="#CB221F"/>
<path d="M130.07 10.2734C128.542 4.72988 120.847 3.66836 117.983 8.69513C115.585 12.4975 119.022 15.463 117.511 19.2541C116.118 22.5229 111.625 21.2031 109.979 18.8217C108.16 16.4122 108.244 12.7334 105.256 11.2282C100.167 8.25143 94.0735 13.003 95.545 18.6925C96.4605 24.9212 94.9496 25.1459 89.3275 26.067C87.3112 6.99333 59.2736 7.83019 58.8805 27.1959C58.8693 32.1159 61.2394 36.7102 65.2159 39.5353C62.6941 39.6757 60.1386 39.0411 57.9481 37.7998C54.9321 36.0026 50.613 37.0585 48.9 40.17C45.4346 47.2243 52.6686 50.7739 58.4986 52.0657C69.3665 54.5482 82.3069 49.9764 87.2775 39.5915C93.8039 38.7266 101.616 38.0863 105.728 32.2227C120.96 40.0577 135.4 25.9659 130.075 10.2734M74.0675 29.4313C71.1525 29.42 71.1525 24.983 74.0675 24.9717C76.9825 24.983 76.9825 29.42 74.0675 29.4313Z" fill="#CB221F"/>
<path d="M50.5628 35.0537C52.2927 32.515 51.3547 29.2575 51.1581 28.6453C49.7989 24.3936 44.0701 22.0234 39.9588 21.5236C38.4929 21.3438 31.7363 20.7316 27.816 21.1697C27.4677 21.209 26.4455 21.3326 25.5357 20.7653C24.2158 19.9397 23.9518 18.1761 23.8956 17.8054C23.6654 16.2609 24.3 15.9239 24.5696 12.8461C24.6988 11.397 24.6146 10.8241 24.5191 10.4029C24.1933 9.01562 23.4351 8.10575 23.1486 7.76876C22.7106 7.25765 21.6041 6.12873 19.8181 5.65695C17.8523 5.14023 16.0606 5.69627 15.0328 6.22984C11.5618 8.04397 10.9665 12.7057 10.6744 14.9803C10.5003 16.3564 9.94986 21.1978 12.9041 26.1684C13.3647 26.9491 16.0718 31.3468 21.4862 33.3968C21.9299 33.5653 23.5867 34.1719 25.8446 34.3966C29.9165 34.8122 33.3763 33.7451 36.9147 34.0259C37.8021 34.0933 39.3803 34.2955 40.5991 35.4581C40.6553 35.5143 40.7171 35.5704 40.7732 35.6322C43.0535 37.8788 47.0356 38.2326 49.5462 36.177C49.6754 36.0703 50.1359 35.694 50.5684 35.0537" fill="#CB221F"/>
<path d="M122.426 37.9805C118.966 37.9805 115.652 41.019 115.815 44.5911C115.978 48.1744 118.719 51.2017 122.426 51.2017C125.886 51.2017 129.199 48.1632 129.037 44.5911C128.874 41.0078 126.133 37.9805 122.426 37.9805Z" stroke="#CB221F" stroke-width="7.6"/>
<path d="M19.2902 38.1484C15.8305 38.1484 12.5167 41.187 12.6796 44.7591C12.8425 48.3424 15.5833 51.3697 19.2902 51.3697C22.75 51.3697 26.0637 48.3311 25.9008 44.7591C25.738 41.1757 22.9971 38.1484 19.2902 38.1484Z" stroke="#CB221F" stroke-width="7.6"/>
<path d="M33.4494 40.8555C29.9896 40.8555 26.6759 43.894 26.8388 47.4661C27.0017 51.0494 29.7425 54.0767 33.4494 54.0767C36.9092 54.0767 40.2229 51.0382 40.06 47.4661C39.8971 43.8828 37.1563 40.8555 33.4494 40.8555Z" stroke="#CB221F" stroke-width="7.6"/>
<path d="M106.031 41.5234C102.572 41.5234 99.2579 44.562 99.4208 48.1341C99.5837 51.7174 102.325 54.7447 106.031 54.7447C109.491 54.7447 112.805 51.7061 112.642 48.1341C112.479 44.5507 109.738 41.5234 106.031 41.5234Z" stroke="#CB221F" stroke-width="7.6"/>
<path d="M91.5187 43.2148C88.059 43.2148 84.7452 46.2534 84.9081 49.8255C85.071 53.4088 87.8118 56.4361 91.5187 56.4361C94.9785 56.4361 98.2922 53.3976 98.1294 49.8255C97.9665 46.2421 95.2256 43.2148 91.5187 43.2148Z" stroke="#CB221F" stroke-width="7.6"/>
<path d="M130.07 10.2734C128.542 4.72988 120.847 3.66836 117.983 8.69513C115.585 12.4975 119.022 15.463 117.511 19.2541C116.118 22.5229 111.625 21.2031 109.979 18.8217C108.16 16.4122 108.244 12.7334 105.256 11.2282C100.167 8.25143 94.0735 13.003 95.545 18.6925C96.4605 24.9212 94.9496 25.1459 89.3275 26.067C87.3112 6.99333 59.2736 7.83019 58.8805 27.1959C58.8693 32.1159 61.2394 36.7102 65.2159 39.5353C62.6941 39.6757 60.1386 39.0411 57.9481 37.7998C54.9321 36.0026 50.613 37.0585 48.9 40.17C45.4346 47.2243 52.6686 50.7739 58.4986 52.0657C69.3665 54.5482 82.3069 49.9764 87.2775 39.5915C93.8039 38.7266 101.616 38.0863 105.728 32.2227C120.96 40.0577 135.4 25.9659 130.075 10.2734M74.0675 29.4313C71.1525 29.42 71.1525 24.983 74.0675 24.9717C76.9825 24.983 76.9825 29.42 74.0675 29.4313Z" stroke="#CB221F" stroke-width="7.6"/>
<path d="M50.5628 35.0537C52.2927 32.515 51.3547 29.2575 51.1581 28.6453C49.7989 24.3936 44.0701 22.0234 39.9588 21.5236C38.4929 21.3438 31.7363 20.7316 27.816 21.1697C27.4677 21.209 26.4455 21.3326 25.5357 20.7653C24.2158 19.9397 23.9518 18.1761 23.8956 17.8054C23.6654 16.2609 24.3 15.9239 24.5696 12.8461C24.6988 11.397 24.6146 10.8241 24.5191 10.4029C24.1933 9.01562 23.4351 8.10575 23.1486 7.76876C22.7106 7.25765 21.6041 6.12873 19.8181 5.65695C17.8523 5.14023 16.0606 5.69627 15.0328 6.22984C11.5618 8.04397 10.9665 12.7057 10.6744 14.9803C10.5003 16.3564 9.94986 21.1978 12.9041 26.1684C13.3647 26.9491 16.0718 31.3468 21.4862 33.3968C21.9299 33.5653 23.5867 34.1719 25.8446 34.3966C29.9165 34.8122 33.3763 33.7451 36.9147 34.0259C37.8021 34.0933 39.3803 34.2955 40.5991 35.4581C40.6553 35.5143 40.7171 35.5704 40.7732 35.6322C43.0535 37.8788 47.0356 38.2326 49.5462 36.177C49.6754 36.0703 50.1359 35.694 50.5684 35.0537" stroke="#CB221F" stroke-width="7.6"/>
<path d="M122.426 37.9805C118.966 37.9805 115.652 41.019 115.815 44.5911C115.978 48.1744 118.719 51.2017 122.426 51.2017C125.886 51.2017 129.199 48.1632 129.037 44.5911C128.874 41.0078 126.133 37.9805 122.426 37.9805Z" fill="#CB221F"/>
<path d="M19.2902 38.1484C15.8305 38.1484 12.5167 41.187 12.6796 44.7591C12.8425 48.3424 15.5833 51.3697 19.2902 51.3697C22.75 51.3697 26.0637 48.3311 25.9008 44.7591C25.738 41.1757 22.9971 38.1484 19.2902 38.1484Z" fill="#CB221F"/>
<path d="M33.4494 40.8555C29.9896 40.8555 26.6759 43.894 26.8388 47.4661C27.0017 51.0494 29.7425 54.0767 33.4494 54.0767C36.9092 54.0767 40.2229 51.0382 40.06 47.4661C39.8971 43.8828 37.1563 40.8555 33.4494 40.8555Z" fill="#CB221F"/>
<path d="M106.031 41.5234C102.572 41.5234 99.2579 44.562 99.4208 48.1341C99.5837 51.7174 102.325 54.7447 106.031 54.7447C109.491 54.7447 112.805 51.7061 112.642 48.1341C112.479 44.5507 109.738 41.5234 106.031 41.5234Z" fill="#CB221F"/>
<path d="M91.5187 43.2148C88.059 43.2148 84.7452 46.2534 84.9081 49.8255C85.071 53.4088 87.8118 56.4361 91.5187 56.4361C94.9785 56.4361 98.2922 53.3976 98.1294 49.8255C97.9665 46.2421 95.2256 43.2148 91.5187 43.2148Z" fill="#CB221F"/>
<path d="M130.07 10.2734C128.542 4.72988 120.847 3.66836 117.983 8.69513C115.585 12.4975 119.022 15.463 117.511 19.2541C116.118 22.5229 111.625 21.2031 109.979 18.8217C108.16 16.4122 108.244 12.7334 105.256 11.2282C100.167 8.25143 94.0735 13.003 95.545 18.6925C96.4605 24.9212 94.9496 25.1459 89.3275 26.067C87.3112 6.99333 59.2736 7.83019 58.8805 27.1959C58.8693 32.1159 61.2394 36.7102 65.2159 39.5353C62.6941 39.6757 60.1386 39.0411 57.9481 37.7998C54.9321 36.0026 50.613 37.0585 48.9 40.17C45.4346 47.2243 52.6686 50.7739 58.4986 52.0657C69.3665 54.5482 82.3069 49.9764 87.2775 39.5915C93.8039 38.7266 101.616 38.0863 105.728 32.2227C120.96 40.0577 135.4 25.9659 130.075 10.2734M74.0675 29.4313C71.1525 29.42 71.1525 24.983 74.0675 24.9717C76.9825 24.983 76.9825 29.42 74.0675 29.4313Z" fill="#CB221F"/>
<path d="M50.5628 35.0537C52.2927 32.515 51.3547 29.2575 51.1581 28.6453C49.7989 24.3936 44.0701 22.0234 39.9588 21.5236C38.4929 21.3438 31.7363 20.7316 27.816 21.1697C27.4677 21.209 26.4455 21.3326 25.5357 20.7653C24.2158 19.9397 23.9518 18.1761 23.8956 17.8054C23.6654 16.2609 24.3 15.9239 24.5696 12.8461C24.6988 11.397 24.6146 10.8241 24.5191 10.4029C24.1933 9.01562 23.4351 8.10575 23.1486 7.76876C22.7106 7.25765 21.6041 6.12873 19.8181 5.65695C17.8523 5.14023 16.0606 5.69627 15.0328 6.22984C11.5618 8.04397 10.9665 12.7057 10.6744 14.9803C10.5003 16.3564 9.94986 21.1978 12.9041 26.1684C13.3647 26.9491 16.0718 31.3468 21.4862 33.3968C21.9299 33.5653 23.5867 34.1719 25.8446 34.3966C29.9165 34.8122 33.3763 33.7451 36.9147 34.0259C37.8021 34.0933 39.3803 34.2955 40.5991 35.4581C40.6553 35.5143 40.7171 35.5704 40.7732 35.6322C43.0535 37.8788 47.0356 38.2326 49.5462 36.177C49.6754 36.0703 50.1359 35.694 50.5684 35.0537" fill="#CB221F"/>
<path d="M122.426 37.9805C118.966 37.9805 115.652 41.019 115.815 44.5911C115.978 48.1744 118.719 51.2017 122.426 51.2017C125.886 51.2017 129.199 48.1632 129.037 44.5911C128.874 41.0078 126.133 37.9805 122.426 37.9805Z" fill="white"/>
<path d="M19.2902 38.1484C15.8305 38.1484 12.5167 41.187 12.6796 44.7591C12.8425 48.3424 15.5833 51.3697 19.2902 51.3697C22.75 51.3697 26.0637 48.3311 25.9008 44.7591C25.738 41.1757 22.9971 38.1484 19.2902 38.1484Z" fill="white"/>
<path d="M33.4494 40.8555C29.9896 40.8555 26.6759 43.894 26.8388 47.4661C27.0017 51.0494 29.7425 54.0767 33.4494 54.0767C36.9092 54.0767 40.2229 51.0382 40.06 47.4661C39.8971 43.8828 37.1563 40.8555 33.4494 40.8555Z" fill="white"/>
<path d="M106.031 41.5234C102.572 41.5234 99.2579 44.562 99.4208 48.1341C99.5837 51.7174 102.325 54.7447 106.031 54.7447C109.491 54.7447 112.805 51.7061 112.642 48.1341C112.479 44.5507 109.738 41.5234 106.031 41.5234Z" fill="white"/>
<path d="M91.5187 43.2148C88.059 43.2148 84.7452 46.2534 84.9081 49.8255C85.071 53.4088 87.8118 56.4361 91.5187 56.4361C94.9785 56.4361 98.2922 53.3976 98.1294 49.8255C97.9665 46.2421 95.2256 43.2148 91.5187 43.2148Z" fill="white"/>
<path d="M130.07 10.2734C128.542 4.72988 120.847 3.66836 117.983 8.69513C115.585 12.4975 119.022 15.463 117.511 19.2541C116.118 22.5229 111.625 21.2031 109.979 18.8217C108.16 16.4122 108.244 12.7334 105.256 11.2282C100.167 8.25143 94.0735 13.003 95.545 18.6925C96.4605 24.9212 94.9496 25.1459 89.3275 26.067C87.3112 6.99333 59.2736 7.83019 58.8805 27.1959C58.8693 32.1159 61.2394 36.7102 65.2159 39.5353C62.6941 39.6757 60.1386 39.0411 57.9481 37.7998C54.9321 36.0026 50.613 37.0585 48.9 40.17C45.4346 47.2243 52.6686 50.7739 58.4986 52.0657C69.3665 54.5482 82.3069 49.9764 87.2775 39.5915C93.8039 38.7266 101.616 38.0863 105.728 32.2227C120.96 40.0577 135.4 25.9659 130.075 10.2734M74.0675 29.4313C71.1525 29.42 71.1525 24.983 74.0675 24.9717C76.9825 24.983 76.9825 29.42 74.0675 29.4313Z" fill="white"/>
<path d="M50.5628 35.0537C52.2927 32.515 51.3547 29.2575 51.1581 28.6453C49.7989 24.3936 44.0701 22.0234 39.9588 21.5236C38.4929 21.3438 31.7363 20.7316 27.816 21.1697C27.4677 21.209 26.4455 21.3326 25.5357 20.7653C24.2158 19.9397 23.9518 18.1761 23.8956 17.8054C23.6654 16.2609 24.3 15.9239 24.5696 12.8461C24.6988 11.397 24.6146 10.8241 24.5191 10.4029C24.1933 9.01562 23.4351 8.10575 23.1486 7.76876C22.7106 7.25765 21.6041 6.12873 19.8181 5.65695C17.8523 5.14023 16.0606 5.69627 15.0328 6.22984C11.5618 8.04397 10.9665 12.7057 10.6744 14.9803C10.5003 16.3564 9.94986 21.1978 12.9041 26.1684C13.3647 26.9491 16.0718 31.3468 21.4862 33.3968C21.9299 33.5653 23.5867 34.1719 25.8446 34.3966C29.9165 34.8122 33.3763 33.7451 36.9147 34.0259C37.8021 34.0933 39.3803 34.2955 40.5991 35.4581C40.6553 35.5143 40.7171 35.5704 40.7732 35.6322C43.0535 37.8788 47.0356 38.2326 49.5462 36.177C49.6754 36.0703 50.1359 35.694 50.5684 35.0537" fill="white"/>
<path d="M122.426 37.9805C118.966 37.9805 115.652 41.019 115.815 44.5911C115.978 48.1744 118.719 51.2017 122.426 51.2017C125.886 51.2017 129.199 48.1632 129.037 44.5911C128.874 41.0078 126.133 37.9805 122.426 37.9805Z" stroke="black" stroke-width="1.368"/>
<path d="M19.2902 38.1484C15.8305 38.1484 12.5167 41.187 12.6796 44.7591C12.8425 48.3424 15.5833 51.3697 19.2902 51.3697C22.75 51.3697 26.0637 48.3311 25.9008 44.7591C25.738 41.1757 22.9971 38.1484 19.2902 38.1484Z" stroke="black" stroke-width="1.368"/>
<path d="M33.4494 40.8555C29.9896 40.8555 26.6759 43.894 26.8388 47.4661C27.0017 51.0494 29.7425 54.0767 33.4494 54.0767C36.9092 54.0767 40.2229 51.0382 40.06 47.4661C39.8971 43.8828 37.1563 40.8555 33.4494 40.8555Z" stroke="black" stroke-width="1.368"/>
<path d="M106.031 41.5234C102.572 41.5234 99.2579 44.562 99.4208 48.1341C99.5837 51.7174 102.325 54.7447 106.031 54.7447C109.491 54.7447 112.805 51.7061 112.642 48.1341C112.479 44.5507 109.738 41.5234 106.031 41.5234Z" stroke="black" stroke-width="1.368"/>
<path d="M91.5187 43.2148C88.059 43.2148 84.7452 46.2534 84.9081 49.8255C85.071 53.4088 87.8118 56.4361 91.5187 56.4361C94.9785 56.4361 98.2922 53.3976 98.1294 49.8255C97.9665 46.2421 95.2256 43.2148 91.5187 43.2148Z" stroke="black" stroke-width="1.368"/>
<path d="M130.07 10.2734C128.542 4.72988 120.847 3.66836 117.983 8.69513C115.585 12.4975 119.022 15.463 117.511 19.2541C116.118 22.5229 111.625 21.2031 109.979 18.8217C108.16 16.4122 108.244 12.7334 105.256 11.2282C100.167 8.25143 94.0735 13.003 95.545 18.6925C96.4605 24.9212 94.9496 25.1459 89.3275 26.067C87.3112 6.99333 59.2736 7.83019 58.8805 27.1959C58.8693 32.1159 61.2394 36.7102 65.2159 39.5353C62.6941 39.6757 60.1386 39.0411 57.9481 37.7998C54.9321 36.0026 50.613 37.0585 48.9 40.17C45.4346 47.2243 52.6686 50.7739 58.4986 52.0657C69.3665 54.5482 82.3069 49.9764 87.2775 39.5915C93.8039 38.7266 101.616 38.0863 105.728 32.2227C120.96 40.0577 135.4 25.9659 130.075 10.2734M74.0675 29.4313C71.1525 29.42 71.1525 24.983 74.0675 24.9717C76.9825 24.983 76.9825 29.42 74.0675 29.4313Z" stroke="black" stroke-width="1.368"/>
<path d="M50.5628 35.0537C52.2927 32.515 51.3547 29.2575 51.1581 28.6453C49.7989 24.3936 44.0701 22.0234 39.9588 21.5236C38.4929 21.3438 31.7363 20.7316 27.816 21.1697C27.4677 21.209 26.4455 21.3326 25.5357 20.7653C24.2158 19.9397 23.9518 18.1761 23.8956 17.8054C23.6654 16.2609 24.3 15.9239 24.5696 12.8461C24.6988 11.397 24.6146 10.8241 24.5191 10.4029C24.1933 9.01562 23.4351 8.10575 23.1486 7.76876C22.7106 7.25765 21.6041 6.12873 19.8181 5.65695C17.8523 5.14023 16.0606 5.69627 15.0328 6.22984C11.5618 8.04397 10.9665 12.7057 10.6744 14.9803C10.5003 16.3564 9.94986 21.1978 12.9041 26.1684C13.3647 26.9491 16.0718 31.3468 21.4862 33.3968C21.9299 33.5653 23.5867 34.1719 25.8446 34.3966C29.9165 34.8122 33.3763 33.7451 36.9147 34.0259C37.8021 34.0933 39.3803 34.2955 40.5991 35.4581C40.6553 35.5143 40.7171 35.5704 40.7732 35.6322C43.0535 37.8788 47.0356 38.2326 49.5462 36.177C49.6754 36.0703 50.1359 35.694 50.5684 35.0537" stroke="black" stroke-width="1.368"/>
</g>
<defs>
<clipPath id="clip0_1136_7849">
<rect width="142" height="80" fill="white"/>
</clipPath>
</defs>
</svg>
