<svg width="159" height="134" viewBox="0 0 159 134" fill="none" xmlns="http://www.w3.org/2000/svg">
<g clip-path="url(#clip0_1136_7421)">
<path d="M12.8267 81.8655L13.2365 82.2066C12.7905 79.1606 12.5554 75.8393 13.4415 72.931C14.7736 68.2572 16.4432 63.7212 17.2931 58.8799C17.9742 55.1218 18.7578 50.8909 18.3177 47.2644C17.8054 49.2272 17.2931 51.1602 16.2021 52.8477C12.0732 59.1791 7.84794 66.6295 10.7472 74.6844C10.6809 74.7861 10.5784 74.8878 10.4759 74.822C9.31866 72.147 9.04139 69.1369 8.29398 66.2884C6.28079 58.7363 0.452173 52.4049 2.15796 43.6738C1.23575 45.5708 0.898209 47.7012 0.416008 49.7658C-0.608671 55.1158 0.416008 60.7709 1.8807 65.7139C3.68895 71.8418 9.7225 76.2403 12.8267 81.8655Z" fill="#009EDB"/>
<path d="M11.2593 42.6567C12.6215 39.88 14.8396 37.2409 17.4977 35.2781C23.3625 30.8797 29.7758 25.1886 29.8783 17.7382C27.9012 23.0881 22.0003 25.3203 18.0824 28.9767C16.0029 30.9036 14.3996 33.2434 13.4774 35.679L13.3388 35.5773C13.8149 33.411 14.7371 31.4781 15.3821 29.3836C17.0879 23.6985 16.7805 16.8884 22.374 13.0645C19.5109 13.8065 17.0879 15.6377 14.9421 18.0075C10.4094 22.9864 10.8132 30.3291 11.3979 36.834C11.6028 38.8627 11.5004 40.5921 11.2593 42.6567Z" fill="#009EDB"/>
<path d="M18.0762 26.4452C21.2105 23.5309 24.827 21.3646 27.4851 17.9116C30.6556 13.7466 33.4162 9.07287 37.5812 5.48828C31.9576 7.65459 25.8818 9.88673 22.2352 15.6436C20.0894 18.9948 19.7458 22.9564 18.0762 26.4452Z" fill="#009EDB"/>
<path d="M20.4338 41.172C21.796 38.4312 22.6519 35.3134 23.0256 32.3033C22.5133 33.5899 21.7297 34.7748 20.6387 35.7921C16.0699 40.0948 10.7174 44.2898 9.69276 50.3818C9.55413 51.2615 9.45166 52.1412 9.21659 52.9909C9.01165 53.0927 9.01165 52.8533 8.94535 52.7875L9.52399 45.2712C10.0725 37.9225 6.18474 29.7659 10.4462 23.2969C10.3076 23.261 10.2051 23.3987 10.1026 23.4346C6.21488 28.3417 3.62305 33.7634 3.62305 40.3641C3.62305 48.5207 8.36068 54.2476 8.94535 61.8955C10.175 53.9065 16.9258 48.2155 20.4398 41.178L20.4338 41.172Z" fill="#009EDB"/>
<path d="M11.392 91.3094C15.7921 94.7623 21.0421 97.4373 25.0685 100.483C24.2849 98.4845 22.989 96.6593 22.4766 94.5947C20.1259 85.1516 21.4218 74.1824 17.3593 65.4453C18.1067 70.4242 16.1296 74.8227 15.6896 79.5622C15.3159 83.458 15.997 87.246 17.5341 90.4955C17.9801 91.4769 18.7938 92.3267 19.0349 93.338C17.5702 92.0155 16.5094 90.3579 15.5209 88.7361C10.7772 81.1181 0.855903 76.1751 0.174793 66.8995C-0.168776 71.0286 0.210958 75.3972 1.57318 79.0536C3.44774 84.0624 7.13055 87.9582 11.392 91.3094Z" fill="#009EDB"/>
<path d="M71.2089 116.328C63.5359 116.328 56.6464 120.021 49.9317 122.797C43.8259 125.305 35.743 124.826 30.3242 121.104C32.9824 124.419 36.5627 126.49 40.2817 127.872C47.135 130.583 55.1516 128.512 61.0164 124.79C65.2115 122.115 68.828 118.321 73.8369 118.321C81.9198 118.321 90.4126 126.55 97.6758 133.994C98.8029 133.078 99.9963 132.133 100.913 131.08C93.3058 123.904 82.5648 116.316 71.2089 116.316V116.328Z" fill="#009EDB"/>
<path d="M57.4963 117.144C58.6898 116.838 60.1243 116.94 61.2153 116.533C56.6464 115.618 52.2464 114.229 48.7022 111.016C43.621 106.414 39.1184 101.501 33.6997 97.916C37.9611 103.601 39.1546 111.865 46.9301 114.744C48.2923 115.252 49.8956 115.354 51.0891 116.096C49.5882 116.336 48.2923 115.857 46.8939 115.552C36.8702 113.421 24.6584 116.162 17.1602 107.694C19.9931 113.248 25.8579 117.616 31.5177 119.441C40.2154 122.356 49.317 119.136 57.5024 117.138L57.4963 117.144Z" fill="#009EDB"/>
<path d="M40.7216 112.978C34.2059 107.765 33.2174 99.944 30.3181 93.104C28.5099 88.8372 25.5805 85.0132 22.4402 81.291C25.8819 88.131 24.381 96.9339 28.8534 103.367C30.2518 105.396 32.1927 107.329 34.0009 108.92L33.9346 109.022C32.2951 108.28 30.8305 107.125 29.3296 105.91C21.5179 99.4413 9.75824 98.6335 5.08691 88.1011C6.34667 95.8209 12.5188 102.661 19.2034 106.993C25.5443 111.123 33.6935 110.686 40.7216 112.984V112.978Z" fill="#009EDB"/>
<path d="M131.46 17.9116C134.119 21.4005 137.735 23.5309 140.869 26.4452C139.2 22.9564 138.856 18.9948 136.741 15.6436C133.094 9.88673 127.024 7.65459 121.395 5.48828C125.487 9.07885 128.248 13.7167 131.454 17.9116H131.46Z" fill="#009EDB"/>
<path d="M143.57 29.3894C144.184 31.454 145.107 33.4169 145.613 35.5832L145.474 35.6849C144.552 33.2493 142.949 30.9095 140.869 28.9825C136.945 25.2902 131.05 23.094 129.104 17.7081C129.206 25.1885 135.619 30.8795 141.484 35.2481C144.112 37.2109 146.36 39.85 147.723 42.6267C147.481 40.5621 147.379 38.8326 147.584 36.8399C148.199 30.305 148.572 22.9922 144.07 18.0133C141.924 15.6436 139.501 13.7824 136.638 13.0703C142.165 16.8943 141.858 23.6984 143.558 29.3894H143.57Z" fill="#009EDB"/>
<path d="M149.434 45.229L150.013 52.7453C149.947 52.8111 149.947 53.0146 149.742 52.9488C149.501 52.105 149.398 51.2193 149.265 50.3396C148.241 44.2775 142.852 40.0466 138.32 35.7499C137.229 34.7326 136.445 33.5477 135.933 32.2611C136.306 35.2772 137.162 38.389 138.524 41.1298C142.038 48.1733 148.789 53.8584 150.019 61.8833C150.598 54.1995 155.341 48.5084 155.341 40.3518C155.341 33.7512 152.749 28.3354 148.862 23.4223C148.759 23.3565 148.657 23.2548 148.518 23.2847C152.78 29.7537 148.862 37.9103 149.44 45.223L149.434 45.229Z" fill="#009EDB"/>
<path d="M150.658 66.2578C149.91 69.1003 149.633 72.1463 148.476 74.7914C148.373 74.8572 148.271 74.7256 148.205 74.6537C151.104 66.5989 146.873 59.1844 142.75 52.8171C141.659 51.1595 141.146 49.1966 140.634 47.2338C140.188 50.8902 140.978 55.0911 141.659 58.8493C142.545 63.6905 144.184 68.2266 145.51 72.9003C146.396 75.8147 146.155 79.0941 145.715 82.176L146.125 81.8349C149.193 76.2156 155.263 71.8112 157.107 65.6534C158.572 60.7463 159.597 55.0552 158.572 49.7053C158.096 47.6407 157.722 45.5043 156.83 43.6133C158.5 52.3803 152.671 58.7116 150.658 66.2638V66.2578Z" fill="#009EDB"/>
<path d="M108.99 122.799C102.239 120.022 95.3854 116.33 87.7124 116.33C76.3927 116.33 65.6155 123.948 58.0811 131.093C59.0033 132.141 60.1967 133.122 61.3178 134.008C68.5448 126.593 77.0738 118.335 85.1567 118.335C90.1716 118.335 93.7821 122.129 97.9772 124.804C103.806 128.496 111.822 130.591 118.712 127.886C122.395 126.497 125.975 124.433 128.669 121.118C123.214 124.81 115.095 125.318 108.996 122.811L108.99 122.799Z" fill="#009EDB"/>
<path d="M143.467 88.6697C142.442 90.2974 141.423 91.985 139.953 93.2716C140.194 92.2902 141.007 91.4105 141.453 90.4291C142.99 87.1437 143.671 83.3856 143.298 79.4958C142.822 74.7563 140.845 70.3518 141.628 65.3789C137.535 74.116 138.868 85.0851 136.511 94.5283C135.998 96.6288 134.703 98.454 133.919 100.417C137.945 97.3709 143.195 94.6959 147.595 91.243C151.857 87.9277 155.54 83.996 157.487 78.9213C158.885 75.2649 159.229 70.8964 158.885 66.7673C158.168 76.1087 148.21 81.0517 143.473 88.6697H143.467Z" fill="#009EDB"/>
<path d="M129.549 105.904C128.048 107.125 126.584 108.274 124.944 109.016L124.878 108.915C126.686 107.287 128.627 105.36 130.025 103.361C134.492 96.9281 132.991 88.0893 136.439 81.2852C133.304 85.0074 130.369 88.8373 128.561 93.0981C125.661 99.9382 124.673 107.76 118.157 112.972C125.179 110.668 133.335 111.111 139.639 107.012C146.288 102.679 152.46 95.8389 153.756 88.1192C149.121 98.6156 137.385 99.4295 129.543 105.893L129.549 105.904Z" fill="#009EDB"/>
<path d="M112.058 115.587C110.659 115.892 109.363 116.329 107.863 116.131C109.056 115.389 110.623 115.288 112.022 114.779C119.797 111.865 120.991 103.606 125.252 97.9512C119.827 101.542 115.331 106.449 110.249 111.051C106.705 114.264 102.305 115.623 97.7363 116.568C98.8273 116.975 100.262 116.873 101.455 117.179C109.671 119.207 118.742 122.391 127.476 119.513C133.1 117.651 138.971 113.283 141.834 107.765C134.299 116.197 122.057 113.486 112.064 115.587H112.058Z" fill="#009EDB"/>
<path d="M79.4613 0C48.4255 0 23.1943 25.0562 23.1943 55.8633C23.1943 86.6703 48.4316 111.727 79.4613 111.727C110.491 111.727 135.728 86.6703 135.728 55.8633C135.728 25.0562 110.491 0 79.4613 0ZM79.4613 66.5272C73.5302 66.5272 68.7202 61.7518 68.7202 55.8633C68.7202 49.9747 73.5302 45.1993 79.4613 45.1993C85.3923 45.1993 90.2023 49.9747 90.2023 55.8633C90.2023 61.7518 85.3923 66.5272 79.4613 66.5272ZM87.5442 46.8928C85.5671 45.1334 83.0115 44.0144 80.1785 43.8468V34.7028C85.531 34.8704 90.4072 37.0068 94.0599 40.4238L87.5442 46.8928ZM78.7801 43.8468C75.9472 44.0144 73.3915 45.1334 71.4145 46.8928L64.8988 40.4238C68.5454 37.0068 73.4217 34.8704 78.7801 34.7028V43.8468ZM70.4622 47.8742C68.6901 49.8371 67.5629 52.3744 67.3942 55.187H58.1841C58.3529 49.873 60.5047 45.0317 63.9464 41.4052L70.4622 47.8742ZM67.3942 56.5395C67.5629 59.3521 68.6901 61.8894 70.4622 63.8523L63.9464 70.3213C60.5047 66.7008 58.3529 61.8595 58.1841 56.5395H67.3942ZM71.4205 64.8337C73.3976 66.5931 75.9532 67.7121 78.7862 67.8797V77.0237C73.4337 76.8561 68.5575 74.7197 64.9048 71.3027L71.4205 64.8337ZM80.1484 67.8498C82.9813 67.6822 85.537 66.5631 87.514 64.8038L94.0298 71.2728C90.3831 74.6898 85.5069 76.8262 80.1484 76.9938V67.8498ZM88.5025 63.8523C90.2746 61.8894 91.4018 59.3521 91.5705 56.5395H100.781C100.612 61.8535 98.46 66.6948 95.0183 70.3213L88.5025 63.8523ZM91.5705 55.187C91.4018 52.3744 90.2746 49.8371 88.5025 47.8742L95.0183 41.4052C98.46 45.0257 100.612 49.867 100.781 55.187H91.5705ZM95.0123 39.4783C91.0883 35.8219 85.9047 33.518 80.1424 33.3504V23.1951C88.7015 23.3626 96.477 26.8156 102.239 32.3031L95.0123 39.4783ZM78.7801 33.3504C73.054 33.518 67.8342 35.8219 63.9102 39.4783L56.6833 32.3031C62.4456 26.8156 70.2211 23.3626 78.7801 23.1951V33.3504ZM62.9579 40.4238C59.2751 44.3196 56.9545 49.4661 56.7857 55.187H46.557C46.7258 46.6894 50.2037 38.9696 55.7309 33.2487L62.9579 40.4238ZM56.8219 56.5395C56.9907 62.2245 59.3112 67.4069 62.9941 71.3027L55.7309 78.4779C50.2037 72.7569 46.7258 65.0372 46.557 56.5395H56.8219ZM63.9464 72.2482C67.8703 75.9046 73.054 78.2086 78.8163 78.3761V88.5314C70.2572 88.3639 62.4817 84.9109 56.7194 79.4234L63.9464 72.2482ZM80.1424 78.3402C85.8685 78.1727 91.0883 75.8687 95.0123 72.2123L102.239 79.3875C96.477 84.875 88.7015 88.328 80.1424 88.4955V78.3402ZM95.9646 71.2668C99.6474 67.371 101.968 62.2245 102.137 56.5036H112.366C112.197 65.0013 108.719 72.721 103.192 78.4419L95.9646 71.2668ZM102.137 55.187C101.968 49.502 99.6474 44.3196 95.9646 40.4238L103.192 33.2487C108.719 38.9696 112.197 46.6894 112.366 55.187H102.137ZM103.192 31.3516C97.1882 25.6307 89.0752 22.0401 80.1424 21.8725V12.8662C91.5645 13.0338 101.932 17.6417 109.569 24.9844L103.192 31.3516ZM78.7741 21.8366C69.8413 22.0042 61.7223 25.5948 55.7249 31.3157L49.3478 24.9844C56.9846 17.6357 67.352 13.0338 78.7741 12.8662V21.8366ZM54.7665 32.2972C49.0042 38.2575 45.3877 46.3123 45.2189 55.181H36.1836C36.3524 43.8408 40.9936 33.5479 48.3894 25.9658L54.7665 32.2972ZM45.2189 56.5395C45.3877 65.4082 49.0042 73.469 54.7665 79.4234L48.3894 85.7547C40.9876 78.1727 36.3524 67.8797 36.1836 56.5395H45.2189ZM55.7249 80.3749C61.7283 86.0958 69.8413 89.6864 78.7741 89.854V98.8244C67.352 98.6568 56.9846 94.0489 49.3478 86.7062L55.7249 80.3749ZM80.1424 89.8899C89.0752 89.7223 97.1942 86.1317 103.192 80.4108L109.569 86.7421C101.932 94.0908 91.5645 98.6927 80.1424 98.8603V89.8899ZM104.186 79.4293C109.948 73.469 113.565 65.4142 113.734 56.5455H122.769C122.6 67.8857 117.959 78.1786 110.563 85.7607L104.186 79.4293ZM113.734 55.187C113.565 46.3183 109.948 38.2575 104.186 32.3031L110.563 25.9718C117.965 33.5539 122.6 43.8468 122.769 55.187H113.734ZM110.563 24.0389C102.649 16.4209 91.9804 11.6813 80.1484 11.5138V1.35245C94.7772 1.52001 108.044 7.41452 117.796 16.8577L110.569 24.0329L110.563 24.0389ZM78.7801 11.5138C66.9843 11.6813 56.2734 16.4209 48.3653 24.0389L41.1684 16.8637C50.9149 7.41452 64.1815 1.52599 78.8103 1.35245V11.5138H78.7741H78.7801ZM47.4069 24.9904C39.7339 32.8477 34.9601 43.4399 34.7913 55.187H24.5626C24.7314 40.6632 30.6685 27.4918 40.1799 17.8092L47.4069 24.9844V24.9904ZM34.8214 56.5455C34.9902 68.2567 39.764 78.8908 47.437 86.7421L40.1739 93.8874C30.6624 84.2407 24.7615 71.0693 24.5927 56.5455H34.8214ZM48.3954 87.6936C56.3095 95.3116 66.9783 100.051 78.8103 100.219V110.374C64.1815 110.207 50.9149 104.312 41.1624 94.8688L48.3894 87.6936H48.3954ZM80.1424 100.219C91.9382 100.051 102.649 95.3116 110.557 87.6936L117.784 94.8688C108.032 104.312 94.7651 110.207 80.1363 110.374V100.219H80.1424ZM111.516 86.7122C119.189 78.8549 123.962 68.2627 124.131 56.5155H134.36C134.191 71.0394 128.254 84.2108 118.743 93.8933L111.516 86.7182V86.7122ZM124.131 55.193C123.962 43.4818 119.189 32.8477 111.516 24.9963L118.743 17.8212C128.254 27.5038 134.191 40.6752 134.36 55.199H124.131V55.193Z" fill="#009EDB"/>
<path d="M82.6979 42.9316L82.3604 42.9616V43.3685L82.6979 43.3386V42.9316Z" fill="#009EDB"/>
<path d="M82.2947 42.3867H81.8486V42.7278H82.2947V42.3867Z" fill="#009EDB"/>
<path d="M81.0283 42.2843L81.4382 42.3561L81.4683 42.015L81.0645 41.9492L81.0283 42.2843Z" fill="#009EDB"/>
<path d="M80.6852 42.1544L80.3115 42.1184L80.3477 41.7773L80.7576 41.8133L80.6852 42.1544Z" fill="#009EDB"/>
<path d="M77.8581 41.7109H77.4121V42.052H77.8581V41.7109Z" fill="#009EDB"/>
<path d="M76.4238 42.3879L76.8337 42.4537L76.8699 42.1186L76.4901 42.0527L76.4238 42.3879Z" fill="#009EDB"/>
<path d="M76.4898 42.9319L76.0137 42.7942L76.1161 42.4531L76.5622 42.5908L76.4898 42.9319Z" fill="#009EDB"/>
<path d="M75.6758 43.3386L75.6035 42.9975L75.9471 42.9316L76.0134 43.2668L75.6758 43.3386Z" fill="#009EDB"/>
<path d="M31.1755 78.3772V79.1253H31.5131L31.4468 78.2755L31.0007 78.1079V77.8027H30.7295V78.3772H31.1755Z" fill="#009EDB"/>
<path d="M33.5615 80.4414L34.4114 80.8483L34.6826 81.6263L35.0925 81.9315L35.4662 82.7813L35.2673 83.1822L34.6163 82.6077L34.1703 81.9674L33.9352 81.4587L33.5615 80.4414Z" fill="#009EDB"/>
<path d="M47.8837 98.0108L48.1911 98.7589L47.7813 98.9982L47.5402 98.6571L46.9977 98.4896L46.9254 97.9809L46.4854 97.3047L47.1665 97.4064L47.8837 98.0108Z" fill="#009EDB"/>
<path d="M77.7196 46.6176H77.1048L77.0023 45.3668L77.3459 45.1275V44.4872H75.3689L75.3026 43.8468L75.5738 43.6793L75.1278 43.5117L74.7842 43.9546L74.6817 44.4632L74.1031 44.565V44.8342H73.6932V45.5763L72.0899 46.8988L68.9194 46.7971C68.6783 47.3058 68.1358 46.7313 68.1358 46.7313C68.0334 46.3902 67.2136 46.7313 67.2136 46.7313C67.2136 47.3716 66.1226 46.462 66.1226 46.462L64.1456 45.0377C63.0185 44.0204 61.3127 45.307 61.2464 45.6122C61.3127 46.4261 59.9505 45.7798 59.9505 45.7798C59.9505 45.7798 58.8233 45.4387 58.6545 45.8815C58.4858 46.3243 57.7323 46.2226 57.7323 46.2226L57.6299 46.462L57.0512 46.5637L56.9488 46.9048L56.2676 47.0065L57.9734 46.9407C58.4195 46.8749 57.8047 47.9221 57.5274 47.8563L56.7438 47.9221L56.4726 48.1914H55.7252L55.3816 48.6642L54.2906 48.5984C54.2906 48.5984 53.6758 49.107 53.712 49.2746C53.7783 49.4421 53.6095 49.9508 53.4407 49.9508C53.272 49.9508 52.9284 50.4595 53.0309 50.627C53.1333 50.7946 52.6873 51.3691 52.6873 51.3691L52.5848 51.9436L52.2413 52.0453V53.6012L51.5602 54.074V54.7502L50.5355 55.8334L50.6379 56.7489L49.7881 57.6645L49.8905 58.5801L49.3782 58.7477L49.2757 59.1546L49.0346 60.3395L49.6133 60.4053C49.8845 60.3036 49.8544 61.1474 49.6133 61.2491C49.3722 61.3509 48.7634 61.5902 49.1009 61.8236C49.4385 62.057 48.1787 61.9912 48.1787 61.6561C48.1787 61.3209 47.4976 61.0157 47.3288 61.1474C47.1601 61.2491 46.8828 60.6387 46.8828 60.6387C46.268 59.9984 44.3271 60.7046 44.3271 60.7046L44.0559 61.6202C43.4411 61.7219 43.0312 62.7691 43.0312 62.7691C42.5189 62.9367 42.109 63.583 42.2838 63.7506C42.4586 63.9181 42.0126 63.9899 42.0126 63.9899V65.2406L41.7413 65.6476L41.8076 67C42.1512 67 42.0789 67.6403 42.0789 67.6403C41.5002 67.7062 41.6328 68.4542 41.6328 68.4542L40.4394 68.8611L40.1983 69.2022L38.7336 69.1364L38.3237 69.5433L37.9138 69.1364H35.0809L34.9784 68.8671L34.3998 68.7654L34.3335 68.1251L33.4836 68.1909L33.3148 68.532L32.3926 68.5978C32.4589 69.1723 31.4704 70.0221 31.368 69.7827C31.2655 69.5433 30.6205 68.9389 30.9219 68.8013C31.1932 68.6996 31.9466 68.5619 31.9466 68.5619V68.155L29.8309 68.0892L29.5898 68.4303L28.74 68.4961V69.4117L28.3301 69.5134C28.0588 69.681 28.3964 70.3273 28.3964 70.3273C28.8063 70.7342 28.3301 71.3446 28.3301 71.3446C27.9865 71.6857 28.6013 72.326 28.6013 72.326C29.0474 72.4278 28.3301 72.7689 28.3301 72.7689C28.4326 73.3434 28.7761 73.5109 28.7761 73.5109C28.4326 74.0854 29.0172 74.3547 29.0172 74.3547L29.0835 75.3361L29.4934 75.5755V76.2158L29.7345 76.6227H30.6567L30.5904 75.1985C29.8068 74.2829 31.2715 74.0495 31.3378 74.3846C31.4041 74.7197 32.0189 74.8933 32.0189 74.8933C32.1214 75.7371 33.1099 76.2457 33.3811 75.4019C33.6524 74.5582 33.8935 75.0608 34.0623 75.4678C34.231 75.8747 35.322 76.8561 35.322 76.8561H36.1719L36.2744 77.67C37.2267 77.6042 37.5341 77.7358 37.9138 79.0224C38.3237 80.345 39.3785 80.6801 39.3785 80.6801L40.1621 80.6143C40.1621 79.938 40.9457 80.716 40.9457 81.087C40.9457 81.4281 42.4827 82.7447 42.4827 82.7447L44.0197 83.0858L45.4543 84.2347L46.5453 84.133H46.9913C47.2625 83.1516 48.6308 84.1988 48.7634 84.5399C48.8659 84.8811 49.7881 85.4555 49.8905 85.1803C49.993 84.905 50.6379 85.0785 50.7404 85.9223C50.8429 86.7661 51.2527 86.5985 51.2527 86.5985L54.4895 86.5327L55.6167 85.5513L58.5159 85.4855C59.9806 85.4196 59.0946 83.4209 58.7871 83.4209C58.2748 83.014 58.9559 81.3563 58.9559 81.3563L54.8271 77.5323C53.8747 77.5323 54.7246 76.144 54.7246 76.144C55.472 75.6712 54.5558 74.9591 54.5558 74.9591C54.6583 74.2829 54.146 73.469 54.146 73.469C53.1213 72.7928 53.3985 71.4703 53.3985 71.4703V70.5547C52.5487 69.7408 53.7421 69.6391 53.7421 69.6391C54.152 68.9629 53.4709 68.4542 53.4709 68.4542L53.4046 67.7121L52.4824 67.6104L52.3799 64.9354L50.3366 62.0211C49.9267 61.9194 50.2341 61.2072 50.2341 61.2072C50.7464 60.9379 50.1316 60.2258 50.1316 60.2258L50.0653 58.9751L51.2588 58.8734L51.53 58.4305H52.1087L52.0424 56.9404C52.3136 56.1984 52.9947 56.5993 52.9947 56.5993L53.7783 56.6652L54.2243 55.8214L54.3268 55.1452L53.712 55.0793C53.0309 54.6724 53.3684 53.1823 53.3684 53.1823C54.4594 51.5905 55.689 52.5061 55.689 52.5061L56.4726 52.4403C57.666 53.2541 56.5751 54.7083 56.5751 54.7083C56.3339 55.0494 56.4726 56.1326 56.4726 56.1326L56.7438 57.9638L55.9964 58.6041C55.3816 58.9452 55.3816 59.7531 56.0627 59.9266C56.5087 59.9924 56.334 61.0756 55.6528 60.3335C54.6282 60.3335 56.2315 61.2491 55.7553 61.0098C56.78 61.5184 56.5389 60.5669 56.5389 60.5669L57.9011 59.4838C58.4134 59.0768 59.3357 60.3275 59.3357 60.5011C59.3357 60.6746 61.5839 60.5669 61.5839 60.5669C62.1987 60.9738 62.4338 61.9912 62.4338 61.9912C63.0486 61.1773 64.3747 61.9253 63.3862 62.3981C64.3084 62.9726 64.3084 63.4813 64.3084 63.4813C65.0558 63.2419 65.0558 63.8224 65.0558 63.9899C65.0558 64.1575 65.2969 63.1461 65.2969 63.1461C64.447 62.5058 66.424 62.3024 65.8755 63.4154L65.5319 63.9241L66.1106 64.3669L66.1769 65.6895C67.4366 65.5877 67.0991 64.0318 67.0991 64.0318L67.6777 63.9301C67.6777 63.4214 68.0876 63.6907 68.0876 63.6907C67.6777 61.7638 69.0098 61.4227 69.0098 61.4227C69.7572 61.2551 69.7934 59.6932 69.7934 59.6932C69.2811 59.4538 69.5523 58.6759 70.137 59.3521C70.7156 60.0283 69.7934 57.9638 69.7934 57.9638L69.3474 57.5568L68.7326 57.491L68.6663 56.8507H67.6416L67.4728 57.6645L67.0991 57.8321L66.9966 57.5927L66.8279 58.233H65.8032L65.7369 57.5568L66.3517 57.3893L66.5928 57.0482L66.7616 56.1326H67.509L68.4613 55.8633C68.5276 54.8819 69.04 55.1212 69.04 55.1212L69.3835 55.3905L69.8959 55.7974L69.9622 56.1385L69.6186 56.3061L69.5523 56.7789L69.7211 57.4192H70.1671C70.3359 56.5036 71.5293 56.5036 71.8729 57.0781L72.2165 56.2642C71.4329 55.8573 72.2165 55.2469 72.4214 55.5222C72.6625 55.7915 73.1688 54.7801 73.1688 54.7801C73.1688 54.7801 73.5787 55.2888 73.1688 54.6126C72.7589 53.9363 73.4401 53.5952 73.4401 53.5952C73.3376 52.919 74.1875 53.0207 74.1875 53.0207L74.2538 52.1051L73.4702 52.0393C73.3014 52.8532 72.6203 52.1411 72.9579 51.9735C73.2954 51.8059 73.639 51.4648 73.639 51.4648V50.8903L73.9825 50.7886L74.0488 50.2141H74.8987L75.6461 49.873L75.8149 49.6037L76.5985 49.5379L77.7256 48.5206L77.6232 48.0777C76.942 48.0777 77.6232 47.5691 77.6232 47.5691L77.6895 46.6235L77.7196 46.6176Z" fill="#009EDB"/>
<path d="M54.8753 57.9279L53.8506 57.8262L53.9169 58.2331H54.1881C54.6342 59.047 54.2544 60.9739 54.2544 60.9739C54.2544 60.9739 53.5733 61.0397 53.4708 60.7046C53.3684 60.3695 53.061 61.4467 53.3021 61.6202C53.5432 61.7938 54.3268 61.6202 54.3931 62.2605C54.4594 62.9008 54.9054 61.8536 54.9054 61.8536L54.8692 57.9279H54.8753Z" fill="#009EDB"/>
<path d="M53.8506 62.5655V63.918L54.7366 65.1388L55.0802 64.3249L55.2128 63.8163L54.8029 63.6487L54.8753 62.8049L55.2128 62.7331L55.249 62.3262L54.3931 62.9066L53.8506 62.5655Z" fill="#009EDB"/>
<path d="M55.315 66.3889V65.8145L54.9051 65.8803L54.875 66.3231L55.315 66.3889Z" fill="#009EDB"/>
<path d="M54.8033 69.1374V68.7305L54.3271 68.7963V69.2032L54.8033 69.1374Z" fill="#009EDB"/>
<path d="M55.4843 67.3713C55.6229 67.3713 55.7254 67.2696 55.7254 67.132C55.7254 66.9943 55.6229 66.8926 55.4843 66.8926C55.3456 66.8926 55.2432 66.9943 55.2432 67.132C55.2432 67.2696 55.3456 67.3713 55.4843 67.3713Z" fill="#009EDB"/>
<path d="M55.8641 68.5627C55.9973 68.5627 56.1053 68.4556 56.1053 68.3234C56.1053 68.1912 55.9973 68.084 55.8641 68.084C55.731 68.084 55.623 68.1912 55.623 68.3234C55.623 68.4556 55.731 68.5627 55.8641 68.5627Z" fill="#009EDB"/>
<path d="M55.8944 62.0276C56.0276 62.0276 56.1355 61.9204 56.1355 61.7882C56.1355 61.656 56.0276 61.5488 55.8944 61.5488C55.7613 61.5488 55.6533 61.656 55.6533 61.7882C55.6533 61.9204 55.7613 62.0276 55.8944 62.0276Z" fill="#009EDB"/>
<path d="M74.0726 54.0331H74.4102L74.4825 54.4101L74.2414 54.6135L74.1389 54.9128L73.6989 55.0145L72.6743 55.9959L72.6019 56.4387L72.3307 56.8457L71.9931 57.6895L70.7997 57.7613L70.5586 58.7726L70.7274 59.6523L71.752 60.0592L71.8545 59.4847L72.1981 59.3172L72.2644 58.7427L72.5055 58.3358L72.843 57.9288L72.9455 57.486L73.5241 57.1509L74.2052 57.0132L74.4825 56.6781L74.585 55.9959L74.6513 55.4932L74.8924 55.1162L75.5735 54.8469V53.7638H75.2299L75.1636 53.3568L74.5488 53.291L74.4102 53.5962H74.1389L74.0726 54.0331Z" fill="#009EDB"/>
<path d="M76.7309 57.2519V56.438L76.6284 55.696L75.7785 55.2891L75.1637 55.8636L75.0613 56.6774V57.1861L74.4826 57.2878L74.3802 58.8437L73.9341 59.0113L74.0004 59.5858L73.3856 59.7533L72.7708 59.9209L72.6683 60.6629L72.2223 60.9322L71.9812 61.6085L71.71 63.2661C71.71 63.2661 72.2223 64.2475 72.4935 63.7748C72.7648 63.3319 73.241 63.2661 73.241 63.2661L73.4097 62.8592L74.9467 62.925C75.0492 62.2847 75.7966 62.5181 75.7966 62.8233C75.7966 63.0926 76.3753 62.8891 76.3753 62.8891L76.7851 62.2488H77.3999L77.4662 61.5726L77.7375 61.405V60.3877C78.6597 60.1184 78.5211 59.2387 78.5211 59.2387L78.7622 58.9694L78.6597 58.5625C78.2137 58.3949 78.4186 57.988 78.726 58.0897C78.9972 58.1914 78.3161 57.581 78.3161 57.581C77.9726 57.8503 77.7013 57.2399 77.7013 57.2399H76.7128L76.7309 57.2519Z" fill="#009EDB"/>
<path d="M77.6529 64.1568C77.5866 64.833 76.7307 65.0724 76.7307 65.0724L76.1159 64.9048L75.7724 64.6355L75.7061 63.8217L76.2184 63.7559L76.3209 64.097L77.6529 64.1628V64.1568Z" fill="#009EDB"/>
<path d="M80.7213 60.5012C80.8599 61.0099 80.8237 59.6874 81.0648 59.7592C81.3059 59.831 81.1311 58.9453 81.1311 58.9453L80.1064 59.6874C80.5826 59.7532 80.655 60.2619 80.7213 60.5012Z" fill="#009EDB"/>
<path d="M83.7233 57.5215C83.9644 58.0302 83.892 58.7722 84.748 59.3527C85.0192 59.5562 84.5792 59.9272 84.3019 59.7596C84.0247 59.5921 83.2109 58.3354 83.2109 58.3354V57.5933C83.3797 57.1505 83.6208 57.324 83.7233 57.5275V57.5215Z" fill="#009EDB"/>
<path d="M83.7227 74.8884L83.8914 75.062L84.0602 75.3672L84.4399 74.7209L84.1325 74.6191L83.7227 74.8884Z" fill="#009EDB"/>
<path d="M90.5096 73.1643L90.9496 72.8591L90.7809 72.5898L90.3047 72.8591L90.5096 73.1643Z" fill="#009EDB"/>
<path d="M106.911 85.079L107.424 85.3184L107.49 86.2998C108.171 86.976 110.389 86.4016 110.389 86.234C110.389 86.0664 110.287 84.1335 110.287 84.1335L110.015 83.8642L109.949 82.44C110.19 81.6979 108.858 80.6088 108.756 80.8481C108.653 81.0875 107.906 80.914 107.906 81.1174C107.906 81.3568 107.46 82.4699 107.665 82.8768C107.906 83.2837 107.496 83.2837 107.424 83.6907C107.357 84.0318 106.779 84.708 106.911 85.079Z" fill="#009EDB"/>
<path d="M105.652 82.7809C105.549 83.2237 105.139 83.4571 104.904 83.2895C104.669 83.122 105.175 83.5588 105.314 83.7982C105.416 84.0376 105.76 84.0376 105.893 83.7982C105.995 83.5588 105.959 83.0561 106.061 82.8168C106.164 82.6133 105.718 82.5475 105.652 82.7809Z" fill="#009EDB"/>
<path d="M103.433 72.3145H103.023V73.3976H103.433V72.3145Z" fill="#009EDB"/>
<path d="M108.888 61.3154C108.647 60.9743 110.015 60.3998 110.25 61.0761C110.491 61.7523 110.25 61.6506 110.009 61.5847C109.804 61.5189 109.225 61.7523 108.882 61.3154H108.888Z" fill="#009EDB"/>
<path d="M110.117 53.6621L110.045 54.0032L110.66 54.1049L110.732 53.7638L110.117 53.6621Z" fill="#009EDB"/>
<path d="M108.514 54.6434L108.544 54.7452L108.888 54.6135L108.749 54.3382L108.683 54.1348L108.514 54.2365L108.104 54.4759L107.73 54.2365L107.556 54.5417L108.002 54.811L108.104 54.8828L108.17 54.811L108.514 54.6434Z" fill="#009EDB"/>
<path d="M110.66 40.7285H109.81C109.81 40.7285 110.082 40.8303 109.298 40.0882C108.514 39.3462 108.002 40.2558 108.002 40.2558L107.08 40.3575V41.2731L106.634 41.4407L106.7 42.0152L107.315 41.9493C107.315 41.9493 107.315 42.6255 107.484 42.3563C107.652 42.087 109.087 42.4221 108.948 43.0983C108.912 43.3676 110.383 44.1156 110.208 45.0252C110.956 45.127 110.787 45.869 110.787 45.869L111.739 45.9708L112.01 45.3963L112.282 45.4621V45.121L111.667 44.9534L111.564 43.1222L111.154 42.853L111.257 42.3802L110.811 42.2126L111.052 41.4706L110.642 40.7285H110.66Z" fill="#009EDB"/>
<path d="M113.149 46.5522L112.703 46.4863L111.678 46.6539L111.1 47.737C111.1 47.737 111.371 47.9046 111.612 48.3115C111.853 48.7185 111.956 51.0523 111.269 51.4593C110.581 51.8662 111.335 51.6268 111.335 51.6268L111.232 52.8775C111.401 53.452 111.678 53.1468 111.847 52.8775C112.016 52.6082 112.191 52.5364 112.426 52.2372C112.667 51.9679 113.005 51.4234 113.041 51.0523C113.107 50.6454 113.384 50.035 113.209 49.8674C113.035 49.6999 113.378 48.886 113.378 48.886C113.378 48.886 113.619 48.4133 113.378 47.9704C113.137 47.4977 113.445 46.989 113.619 46.7855L113.143 46.5462L113.149 46.5522Z" fill="#009EDB"/>
<path d="M113.83 48.8861L113.866 48.4492L114.21 48.4851L114.174 48.9579L113.83 48.8861Z" fill="#009EDB"/>
<path d="M113.801 50.4774L113.493 50.3099L113.662 49.9688L113.969 50.1423L113.801 50.4774Z" fill="#009EDB"/>
<path d="M113.324 45.9417L113.083 45.433C113.083 45.433 113.083 44.9902 113.185 44.7568C113.288 44.5234 112.944 44.314 112.776 44.2481C112.607 44.1823 112.673 43.7395 112.607 43.5061C112.541 43.2727 112.161 43.0991 112.161 43.0991C112.161 43.0991 112.058 42.2554 112.058 42.0818C112.058 41.9083 111.546 41.6749 111.715 41.5073C111.884 41.3398 111.986 41.1004 112.161 40.9987C112.336 40.8969 111.992 40.0831 112.263 40.2566C112.535 40.4302 112.535 40.7294 112.673 40.9328C112.776 41.1722 112.607 41.9502 112.914 42.1177C113.185 42.2853 112.848 42.8598 113.324 42.8598C113.77 42.8598 113.493 43.9429 113.493 43.9429C113.493 43.9429 113.39 44.7568 113.662 44.7867C113.933 44.8525 113.764 46.211 113.764 46.211L113.318 45.9417H113.324Z" fill="#009EDB"/>
<path d="M109.642 36.7017C109.81 36.941 110.154 37.1086 110.154 37.342C110.154 37.5754 110.051 37.7489 110.395 37.7848C110.739 37.8507 110.974 37.719 111.076 38.0242C111.179 38.2935 111.179 38.7662 111.142 39.0056C111.076 39.245 111.209 39.5801 111.486 39.5801C111.763 39.5801 111.83 39.6459 111.83 39.8195C111.83 39.993 112.173 39.1792 112.173 39.1792C111.902 38.9398 111.661 38.4371 111.661 38.4371C111.661 38.4371 111.39 37.6233 111.39 37.5215C111.39 37.4198 110.98 37.2821 110.811 37.2522C110.642 37.1864 110.365 36.6777 110.365 36.6777L109.648 36.7136L109.642 36.7017Z" fill="#009EDB"/>
<path d="M110.184 36.1579C110.016 35.9186 109.841 35.751 109.606 35.6493C109.371 35.5475 109.196 35.4099 108.991 35.4099C108.75 35.4099 108.545 35.1705 108.647 34.9012C108.75 34.6319 108.479 34.4943 108.479 34.2609C108.479 34.0275 108.647 34.0216 108.925 34.1951C109.202 34.3686 109.166 34.4345 109.371 34.7038C109.612 34.9731 109.714 35.2783 109.949 35.2124C110.184 35.1466 110.359 35.7211 110.564 35.5535C110.805 35.386 110.733 35.9605 110.733 35.9605L110.184 36.1639V36.1579Z" fill="#009EDB"/>
<path d="M103.565 42.6257C103.873 42.9309 101.859 42.8651 101.859 42.6257C101.859 42.3863 102.028 41.6084 102.54 41.7819C103.053 41.9554 103.119 40.7646 103.119 40.7646C103.119 40.7646 102.673 40.8304 103.053 40.597C103.463 40.3576 103.053 40.0225 102.884 39.855C102.715 39.6874 102.54 39.3822 102.54 39.3822H103.324C103.668 39.1428 103.77 38.0597 103.77 38.0597C104.451 38.2991 104.795 37.8203 104.795 37.8203C104.795 37.8203 104.897 38.1614 105.138 38.4606C105.379 38.7299 104.56 38.8676 104.867 39.0351C105.138 39.2027 105.277 39.7113 105.138 39.8789C105.036 40.0465 104.391 39.9447 104.391 39.7113C104.391 39.478 104.15 39.9806 104.391 40.2858C104.632 40.5551 104.12 40.9621 103.981 40.9621C103.879 40.9621 103.131 41.0638 103.74 41.4348C104.355 41.7759 105.036 41.6024 105.036 41.6024C105.036 41.6024 105.548 41.5365 105.717 41.8417C105.886 42.111 105.651 42.1829 105.373 42.1829C105.096 42.1829 103.734 42.0811 103.734 42.0811C103.734 42.0811 103.39 42.4521 103.565 42.6257Z" fill="#009EDB"/>
<path d="M99.9187 43.1351C100.19 43.0692 100.871 43.0333 101.01 43.2009C101.112 43.3684 100.6 43.6078 100.6 43.6078L99.9187 43.7095C99.7137 43.4402 99.6474 43.2009 99.9187 43.1351Z" fill="#009EDB"/>
<path d="M107.248 38.3591C107.694 38.1198 108.683 38.1198 108.61 37.7846C108.538 37.4495 109.189 37.3418 109.189 37.3418L109.358 38.018L109.87 38.3591L109.936 38.9994C109.936 38.9994 110.105 38.8977 109.49 39.0653C108.876 39.2328 109.249 39.5081 109.249 39.5081L107.887 39.5739L107.718 38.9994L107.242 38.3591H107.248Z" fill="#009EDB"/>
<path d="M105.036 35.2418C105.38 35.2418 104.934 36.5644 105.82 36.4267C106.742 36.325 105.886 36.8337 106.567 36.8696C107.249 36.9354 107.08 36.3609 107.315 35.954C107.556 35.547 107.417 35.3137 107.044 35.2119C106.77 35.1441 106.6 34.9526 106.531 34.6374C106.429 34.1946 105.953 34.0629 105.953 34.0629L105.784 33.3867L105.036 33.8296L104.289 34.811C104.289 35.6248 104.699 35.2538 105.036 35.2538V35.2418Z" fill="#009EDB"/>
<path d="M106.537 40.0832L106.706 39.748L107.013 39.8857L106.845 40.2567L106.537 40.0832Z" fill="#009EDB"/>
<path d="M106.303 39.5449H105.959V39.9519H106.303V39.5449Z" fill="#009EDB"/>
<path d="M106.229 31.9258L106.296 32.4344L105.958 32.4704L105.886 31.9617L106.229 31.9258Z" fill="#009EDB"/>
<path d="M105.615 37.2402H105.271V37.5095H105.615V37.2402Z" fill="#009EDB"/>
<path d="M104.355 37.2402L104.319 36.905L104.898 36.8691L104.934 37.2102L104.355 37.2402Z" fill="#009EDB"/>
<path d="M99.6844 42.7573L99.377 42.6257L99.5457 42.2188L99.8531 42.3564L99.6844 42.7573Z" fill="#009EDB"/>
<path d="M97.9061 41.7116L97.876 41.3705L98.4546 41.3047L98.4908 41.6458L97.9061 41.7116Z" fill="#009EDB"/>
<path d="M88.0869 41.6094L86.8271 41.6453L86.8573 41.9804L88.0869 41.9505V41.6094Z" fill="#009EDB"/>
<path d="M86.0078 42.0823L85.8691 41.5736L86.2127 41.5078L86.3152 42.0165L86.0078 42.0823Z" fill="#009EDB"/>
<path d="M85.7665 42.4531L85.6641 42.1179L85.8389 42.082L85.9413 42.3872L85.7665 42.4531Z" fill="#009EDB"/>
<path d="M88.5995 41.4719L88.5332 41.8789L89.148 41.9447C89.148 41.9447 89.4192 42.1841 89.4192 42.3516C89.4192 42.5192 89.8291 42.6927 90.0341 42.6927C90.2752 42.6927 90.8839 42.22 90.8839 42.22C90.8839 42.22 91.1552 41.4061 90.9502 41.4779C90.7091 41.5437 90.2691 41.8848 90.2028 41.5437C90.1365 41.2026 89.4554 41.3762 89.4554 41.3762L88.6055 41.4779L88.5995 41.4719Z" fill="#009EDB"/>
<path d="M91.4264 40.8669C91.4264 41.0345 91.3239 41.2739 91.6675 41.3397C92.0111 41.4055 92.6199 41.1003 92.6922 41.4414C92.7645 41.7825 92.7585 42.0159 93.2045 42.1835C93.6506 42.351 93.9519 42.4229 94.2955 42.4229C94.6391 42.4229 95.3865 42.3211 95.3865 42.3211C95.3865 42.3211 96.2062 42.4588 96.3388 42.5904C96.9537 43.2307 97.3635 43.4043 97.5323 43.0991C97.7011 42.8298 97.466 42.1835 97.4298 41.9501C97.3635 41.7107 96.5799 40.6276 96.3027 40.8669C96.0314 41.1063 95.9591 40.8669 95.4528 41.0345C94.9465 41.2021 93.8495 41.1003 93.8133 40.8669C93.747 40.6276 92.9634 40.5258 92.9634 40.2924C92.9634 40.0591 92.3848 39.7838 92.4511 40.1249C92.5174 40.466 92.0412 40.6336 91.9388 40.5318C91.77 40.3942 91.4264 40.8729 91.4264 40.8729V40.8669Z" fill="#009EDB"/>
<path d="M104.458 33.5542L104.868 32.3035C104.289 32.2018 104.422 31.5615 104.422 31.5615C104.356 31.0528 103.572 30.4783 103.295 30.6459C103.017 30.8134 103.126 29.461 103.126 29.461C103.126 29.461 103.638 29.1199 103.873 29.2934C104.108 29.467 101.932 26.4509 101.486 26.7202C101.04 26.9895 100.022 26.4509 100.052 25.9063C100.118 25.3976 98.0086 23.6742 98.0086 23.6742C98.0086 23.6742 97.3275 23.2313 97.225 23.5724C97.1225 23.9135 96.8814 24.1469 97.225 24.3145C97.5686 24.4821 97.4962 24.0452 97.9061 24.4162C98.316 24.8232 99.0332 25.3318 98.756 25.6669C98.4787 26.0021 98.1412 26.1397 98.1412 26.1397L98.551 26.6125H99.1658L99.2683 27.5939C99.2683 27.5939 99.9494 27.935 100.118 28.3359C100.287 28.7429 100.287 28.9762 100.118 29.1797C99.9494 29.4191 99.6059 29.82 99.6722 30.197C99.7385 30.604 100.185 30.7715 100.185 30.7715L100.631 30.8374L100.974 31.0049V31.747C101.42 31.6452 102.168 32.2556 102.101 32.6626C102.035 33.0695 102.204 32.8301 102.782 33.2371C103.361 33.644 103.192 33.7098 103.566 33.9791C103.94 34.2185 104.283 34.0449 104.452 33.5363L104.458 33.5542Z" fill="#009EDB"/>
<path d="M95.109 25.7628C95.0427 25.5235 94.9402 24.7455 95.2778 24.7814C95.6213 24.8472 95.3802 24.7814 95.7901 24.949C96.2 25.1165 96.2361 24.6797 96.2361 24.6797H96.8509L97.6345 25.32L97.532 25.8287L96.9534 25.8945C96.6822 25.4517 96.1035 25.6252 96.206 25.9962C96.3085 26.4032 95.9347 27.1452 95.6936 27.1811C95.4525 27.2469 94.7413 27.2469 94.7714 26.9118C94.8739 26.5707 95.115 25.7628 95.115 25.7628H95.109Z" fill="#009EDB"/>
<path d="M94.6688 24.2427V23.7999C94.6688 23.7999 94.6025 23.357 94.3253 23.357C94.048 23.357 93.5417 23.0159 93.6441 22.7825C93.7466 22.5492 92.6918 22.3098 92.6918 22.3098C92.6918 22.3098 91.7394 21.3942 92.077 21.4959C92.4206 21.5977 92.2458 21.089 92.2458 21.089C92.2458 21.089 91.5647 21.1907 91.3959 21.1548C91.2271 21.089 91.2934 20.5803 91.2934 20.5803C91.2934 20.5803 90.6123 20.4128 90.6123 20.5803C90.6123 20.7479 90.8534 20.7479 90.9559 21.089C91.0583 21.4301 91.0222 22.0046 91.5345 22.1063C92.0469 22.2081 92.1493 22.3457 92.2156 22.5791C92.2819 22.8185 92.8967 22.8484 92.8967 22.8484L93.3428 23.0877L94.6749 24.2367L94.6688 24.2427Z" fill="#009EDB"/>
<path d="M88.5328 18.4203L88.358 17.9416L87.918 17.8398V18.3485L88.5328 18.4203Z" fill="#009EDB"/>
<path d="M88.358 16.0147C87.7794 15.5718 89.1416 16.3558 89.1416 16.3558C89.5876 16.3558 89.889 16.6969 89.889 16.8644C89.889 17.032 90.5038 16.9662 90.5038 16.9662L90.5701 16.5592L90.1241 15.9848L89.7142 15.7155C89.7142 15.7155 89.0994 15.6496 89.0994 15.4761C89.0994 15.3385 88.5871 16.1882 88.352 16.0207L88.358 16.0147Z" fill="#009EDB"/>
<path d="M98.7919 16.3556C98.6231 16.8643 98.5508 17.5405 98.2795 17.5405C98.0083 17.5405 98.1108 18.2826 98.1108 18.2826C98.1108 18.2826 98.8582 18.2826 99.0631 18.3484C99.3042 18.4142 99.3042 18.9887 99.3042 18.9887C100.154 18.9229 100.498 20.0719 100.395 20.3771C100.293 20.6464 100.739 20.6464 100.739 20.6464C100.739 20.6464 100.739 21.5619 100.636 21.7953C100.534 22.0287 101.384 22.2023 101.589 22.5374C101.83 22.8785 101.486 24.0275 101.317 24.0933C101.149 24.1591 101.763 24.3327 101.727 24.602C101.661 24.8713 101.896 24.602 101.968 25.0747C102.035 25.5176 102.137 26.499 102.137 26.499L102.921 26.5648C103.023 25.8228 104.488 25.7869 104.729 25.8886C105.681 26.2297 106.435 27.7198 106.435 28.0549C106.435 28.39 105.82 28.4618 105.82 28.4618L105.922 30.1195C106.875 30.3888 107.695 31.7771 107.562 32.0165C107.459 32.2559 108.243 32.184 108.243 32.184C108.346 31.1667 109.334 31.5078 109.37 31.8429C109.436 32.184 109.611 32.9261 109.611 32.9261L109.883 33.4348L110.292 33.8417L110.907 33.7759L111.076 34.117L111.823 34.2187C111.823 34.2187 112.438 34.8949 112.504 35.0625C112.571 35.23 113.427 35.1642 113.632 35.23C113.873 35.2959 114.21 35.4694 114.246 35.7387C114.313 36.008 114.656 36.4808 114.656 36.4808C114.656 36.4808 115.337 36.6483 115.404 36.8877C115.47 37.1271 115.747 37.6297 115.747 37.6297L116.326 38.1025L116.392 38.6112L117.007 38.677L117.176 39.3532L118.201 39.2874L118.779 38.8805C119.527 38.4735 120.039 37.9649 120.075 37.7315C120.141 37.4921 120.244 36.6483 120.822 36.8159C121.401 36.9834 120.991 35.5652 120.991 35.5652C120.991 35.5652 120.208 34.9907 120.244 34.7214C120.31 34.4521 119.46 33.8776 119.496 33.6382C119.563 33.3989 118.749 32.962 118.815 32.7226C118.882 32.4833 118.405 31.8789 118.405 31.8789L117.556 31.065L117.453 30.5563L116.772 30.4905L115.41 28.8329L115.476 28.3601L115.066 28.2943V27.6539L114.656 27.4146L114.042 27.3488L112.782 25.9963L112.679 25.356H112.064L112.167 24.1711C112.577 23.6624 112.336 22.681 112.336 22.681C112.336 22.681 111.552 23.0879 111.142 22.9204C110.732 22.7528 111.311 22.3459 111.311 22.3459V21.9031L110.967 21.562C110.967 21.562 110.015 21.6637 109.943 21.4961C109.87 21.3286 109.702 20.5805 109.702 20.5805L109.635 19.5991L109.226 19.4315L109.159 19.0904L108.544 19.1563V18.48L108.201 18.3783L107.857 18.2108L107.791 17.5345L106.531 17.4687L106.121 16.8942L105.675 16.218L104.241 16.1163L103.897 15.7752L103.319 15.6734L102.909 15.5059L102.74 15.7752L101.649 15.841L101.583 16.1821C101.106 16.4215 98.8522 16.1821 98.7859 16.3496L98.7919 16.3556Z" fill="#009EDB"/>
<path d="M104.759 14.8654C104.657 14.4226 105.886 14.0216 106.194 14.3567C106.465 14.6978 107.285 14.7637 107.387 16.4572C107.423 17.0676 106.362 15.8169 106.362 15.8169L105.512 15.5476C105.036 15.4459 104.795 15.1766 104.765 14.8714L104.759 14.8654Z" fill="#009EDB"/>
<path d="M88.1228 15.5708L87.8154 15.4391L88.0505 14.8945L88.3579 15.0681L88.1228 15.5708Z" fill="#009EDB"/>
<path d="M85.1877 9.95232L84.4403 9.21027V8.56995L84.1992 8.33058L83.9581 7.51672L83.2107 7.27734L82.4633 7.54664L81.6797 8.0553L80.8298 8.15703L80.3838 8.6657L82.192 8.83326L82.5356 9.40775L83.8315 9.50948L84.6814 10.3533C85.465 10.6944 85.6338 10.3533 85.1937 9.94633L85.1877 9.95232Z" fill="#009EDB"/>
<path d="M85.0854 7.14606C84.9467 6.6374 84.2355 7.78638 84.9829 7.98985C85.7303 8.22922 86.4476 7.98985 86.4476 7.98985L86.6164 7.64874L89.4493 7.71457C89.6904 7.4752 89.7929 7.14008 89.7929 7.14008C89.7929 7.14008 90.474 6.90071 90.7452 7.03835C91.0165 7.14008 90.8115 6.22448 90.5041 6.36212C90.2329 6.46386 89.6542 6.42795 89.6542 6.42795H88.6296C88.5633 6.02102 87.6772 6.18858 87.6049 6.42795C87.5687 6.63141 87.2312 6.69724 87.2312 6.69724L85.9353 6.79897C85.7966 7.14008 85.1517 7.37347 85.0854 7.14008V7.14606Z" fill="#009EDB"/>
<path d="M79.4612 16.7912C80.3472 17.0605 80.6546 16.857 80.7209 16.6236C80.7872 16.3902 80.8234 16.3543 81.167 16.2825C81.5106 16.2107 81.1007 15.5405 80.7571 15.6063C80.4135 15.6721 80.076 15.5046 80.0097 15.1994C79.9434 14.9301 79.3949 14.182 79.3286 14.7565C79.2623 15.331 78.9187 15.331 78.985 15.738C79.0875 16.109 79.2563 16.7194 79.4612 16.7852V16.7912Z" fill="#009EDB"/>
<path d="M72.9461 17.4386C72.91 17.2351 74.0733 17.1992 74.2421 17.3727C74.4108 17.5463 74.3084 17.8455 74.8207 17.8455C75.333 17.8455 75.0919 18.1866 75.0618 18.3542C74.9955 18.5217 74.447 18.4559 74.3807 18.2883C74.3144 18.1208 73.4585 18.049 73.4585 18.049C73.4585 18.049 73.0124 17.7079 72.9461 17.4386Z" fill="#009EDB"/>
<path d="M91.6315 5.88974L91.7702 6.02738L91.8726 5.92564L92.4513 5.45289L92.2162 5.18359L91.7702 5.55462L91.4989 5.24942L91.2578 5.51871L91.6315 5.88974Z" fill="#009EDB"/>
<path d="M89.112 4.57225L89.1783 4.50044L89.8293 4.0995L89.6243 3.82422L89.112 4.16532L88.7323 3.92595L88.5635 4.23115L89.0095 4.50044L89.112 4.57225Z" fill="#009EDB"/>
<path d="M87.0621 16.2167L87.4358 16.7912L87.7131 16.5878L87.3394 15.9774L87.2671 15.9115H87.2007L86.6221 15.8457L86.5859 16.1808L87.0621 16.2167Z" fill="#009EDB"/>
<path d="M68.516 31.8243L68.5823 32.4647H69.4322C69.7758 32.4647 69.161 32.0577 69.161 32.0577C69.161 32.0577 68.4799 32.1236 68.516 31.8184V31.8243Z" fill="#009EDB"/>
<path d="M69.6064 31.8612L69.8114 31.5859L70.1489 31.8612L69.944 32.1305L69.6064 31.8612Z" fill="#009EDB"/>
<path d="M59.2695 21.1612L59.5106 20.9219L59.8542 21.263L59.6131 21.5024L59.2695 21.1612Z" fill="#009EDB"/>
<path d="M75.2665 95.001L75.5016 95.2404L75.7788 94.9651L75.9476 94.7976L75.7427 94.6599L75.164 94.3906L75.0254 94.6958L75.369 94.8634L75.2665 95.001Z" fill="#009EDB"/>
<path d="M70.7998 90.8714L71.2097 91.1407L71.4086 90.8714L71.1735 90.6978L71.3423 90.5662L71.1373 90.2969L70.7998 90.5961L70.625 90.7337L70.7998 90.8714Z" fill="#009EDB"/>
<path d="M113.523 79.7292C113.457 79.424 113.113 79.3223 113.077 79.3223L112.975 79.6634C113.011 79.6634 113.041 79.6993 113.077 79.7292L113.143 80.0344C113.107 80.0703 113.077 80.1002 113.077 80.1361L113.318 80.3755C113.487 80.1062 113.559 79.9327 113.523 79.7352V79.7292Z" fill="#009EDB"/>
<path d="M114.036 78.646L113.493 78.6161L113.523 78.1074L114.072 78.1732L114.036 78.646Z" fill="#009EDB"/>
<path d="M127.163 74.211C127.404 74.0734 127.711 73.7682 127.675 74.4145C127.639 75.0548 127.368 74.8573 127.163 75.0548C126.958 75.2583 126.819 74.4145 127.163 74.211Z" fill="#009EDB"/>
<path d="M130.062 71.7767V71.7109C130.062 71.6091 130.026 71.4715 129.96 71.3398L129.652 71.5074C129.689 71.5732 129.689 71.675 129.719 71.7468C129.719 71.8485 129.755 71.9502 129.821 72.0161C129.887 72.052 129.96 72.0819 130.062 72.052L129.996 71.7109C129.996 71.7468 130.032 71.7468 130.062 71.7767Z" fill="#009EDB"/>
<path d="M129.315 72.0451C129.418 72.3862 129.52 72.7213 129.52 72.7572L129.828 72.6196C129.828 72.6196 129.689 72.2785 129.623 71.9434L129.315 72.0451Z" fill="#009EDB"/>
<path d="M128.055 73.3972L127.712 73.3613C127.676 73.6306 127.748 73.9717 128.019 74.0017L128.085 73.6605C128.085 73.6605 128.049 73.5229 128.049 73.3913L128.055 73.3972Z" fill="#009EDB"/>
<path d="M126.585 66.5929C126.549 66.4912 126.519 66.3894 126.416 66.3535C126.175 66.2518 125.735 66.4193 125.53 66.557L125.735 66.8263C125.94 66.6886 126.248 66.6228 126.284 66.6587V66.6228L126.591 66.5869L126.585 66.5929Z" fill="#009EDB"/>
<path d="M110.865 48.348C110.624 48.5874 110.118 48.6891 110.118 48.6891L109.949 49.3295L109.678 49.5688C109.678 49.5688 109.744 49.7364 109.678 50.1433C109.611 50.5503 109.099 50.7836 109.099 50.7836L108.858 51.0529C108.858 51.0529 107.496 51.1188 107.321 51.0529C106.809 50.8136 107.152 50.1373 107.49 50.2092C107.827 50.281 107.423 49.2277 107.423 49.2277L107.869 49.1619C107.869 49.1619 107.936 48.1446 108.111 48.1446C108.285 48.1446 108.044 47.8035 107.839 47.6359C107.598 47.4684 107.327 46.8939 107.092 46.9597C106.857 47.0255 105.965 46.9597 105.965 46.9597L105.796 47.3008L105.181 47.4025C105.181 47.4025 105.248 47.8454 105.115 47.977C104.771 48.3839 103.475 49.2277 104.024 47.8095L104.193 47.4684V46.9597L103.168 46.8939C103.168 46.8939 102.656 46.7263 102.656 46.4869C102.656 46.2476 102.589 45.9783 102.589 45.9783L101.396 44.6557L99.9614 44.4882L99.8589 44.2189L99.009 44.1172C97.9844 43.6085 97.0682 44.0513 97.2369 44.931C97.4057 45.7748 97.683 46.1159 97.1345 46.1159C96.5558 46.1159 96.4534 45.6731 96.4534 45.6731C96.4534 45.6731 96.0073 45.5055 96.0073 45.7389C96.0073 45.9723 95.8386 46.4151 96.0073 46.6545C96.1761 46.8939 95.7662 47.229 95.5975 47.0614C95.4287 46.8939 94.9826 46.3852 95.0851 46.2176C95.1876 46.0501 94.3015 44.9669 95.1876 44.7934C96.1098 44.6258 95.1213 44.1172 95.4588 43.9795L95.9049 43.7401H96.3509L96.6221 43.5008L95.8747 43.399L95.4287 43.3332L94.5788 43.2674C93.7289 43.8419 93.5541 44.5181 93.5541 44.5181C93.1081 45.3619 92.0171 44.177 92.427 43.7042C92.8368 43.2315 91.1672 43.6384 90.89 43.8718C90.6127 44.1052 89.7628 43.9735 89.7628 43.9735C89.594 44.4822 88.8105 43.9077 89.0154 43.5666C89.2565 43.2255 89.2565 42.9921 89.2565 42.9921L88.9853 42.9263L88.6417 43.5666C87.8581 43.5666 87.617 44.0094 87.7918 44.3087C87.9606 44.5779 87.5507 44.2428 87.4482 44.6498C87.3458 45.0567 87.5145 45.0567 87.8581 45.2242C88.2017 45.3918 87.6893 45.3918 87.9244 45.6671C88.1655 45.9364 88.8466 45.6671 88.4368 46.074C88.0269 46.4809 87.2433 46.3134 87.2433 46.3134C87.177 46.8221 86.1162 46.7203 85.9836 46.5528C85.8811 46.3852 85.0312 45.3679 85.0312 45.3679L83.9402 45.302C83.8378 44.4882 84.4526 44.8951 84.6876 44.2847C84.9287 43.6444 85.0312 42.6271 85.0312 42.6271C85.0312 42.6271 84.109 42.5612 84.0789 42.8664C84.0126 43.1357 83.4641 43.3392 83.4641 43.3392C83.4641 43.3392 83.018 43.5068 83.1928 43.7461C83.3676 43.9855 82.8492 44.0872 82.8492 44.0872C82.8492 44.0872 82.9517 44.4583 82.7829 44.5959C82.3369 45.0687 81.1796 44.6617 81.0108 44.4942L80.3297 44.2249L79.6486 43.782L78.8651 44.1231L78.624 44.3625H77.7741L77.7078 45.0387L79.2448 45.2063L79.3473 46.6306L78.7324 46.4271H78.3226L78.1538 46.086L77.8102 46.0202V47.2709L78.1538 47.5402L78.425 47.8095L79.0037 47.8753L79.1062 48.5515L80.5407 48.6173L80.7095 48.8866L81.5594 48.9525L83.1988 50.6101L83.0964 51.1188L82.8251 51.2863C82.9276 51.6933 82.0777 51.4539 82.0777 51.4539V51.795L82.4876 51.8608L82.8975 52.1002L83.4761 51.1188C84.0909 50.7118 84.3983 51.2863 84.4285 51.6274C84.4948 51.9685 84.1572 51.8967 84.1572 51.8967V52.7106L84.5008 52.8123C85.0794 53.4885 84.2597 53.8955 84.2597 53.8955L84.0909 54.47C83.9221 54.9786 83.3073 54.8769 83.3073 54.8769L83.0662 55.218L82.3851 55.3856L83.7172 55.5531C83.8558 55.0804 84.1934 54.9786 84.3622 55.212C84.5309 55.4454 84.5309 55.8523 84.5309 55.8523L84.8745 55.9182L84.8082 56.5585L85.1518 56.6602V58.4914L85.5616 58.9342C86.2427 58.6649 86.2427 59.1018 85.9052 59.3412C85.5677 59.5805 85.8027 60.5919 85.8027 60.5919L85.5315 60.8612V61.3339L85.1879 61.5733V62.2136C84.6093 61.9443 83.9282 62.0461 83.7534 62.2136C83.241 61.8725 82.1501 61.9742 82.1501 62.2794C82.4936 62.7223 81.7402 62.8539 81.7402 62.8539L81.3303 63.2968C81.6015 63.8713 81.0591 63.9371 81.0591 63.9371V65.0203L80.378 65.6606L80.4443 67.1507C80.4443 67.5576 81.2941 67.5935 81.4689 67.39C81.6377 67.1507 82.3188 67.8628 82.3188 67.8628H82.8312L82.9336 66.8455L82.5901 66.6779V65.0203L83.1687 64.3799C83.8498 64.1406 83.6147 65.87 83.6147 66.0376C83.681 66.6779 83.9583 66.6121 84.2296 66.4804C84.8082 66.241 84.332 67.1207 83.886 67.0549C83.4399 66.9891 83.7172 67.6294 83.7172 67.6294L83.9884 67.7311L83.4761 68.1381L83.0301 68.6467L82.4514 68.4792L81.7703 68.4133L81.5292 68.0064L81.1193 67.9406L81.053 68.7544L80.7818 69.0955L80.1007 69.7718C81.0229 69.7718 79.9982 70.4121 79.7571 70.4121C80.2695 70.5796 79.6908 71.0883 78.3949 70.6814V71.0883L77.9489 71.1541L78.3587 71.597L78.8048 71.6628L78.636 72.6442C78.636 73.3863 76.7614 72.8836 76.5927 72.71L76.5264 73.7274L76.1828 73.7932L76.2491 74.4694L76.1828 75.4509L76.7976 75.3491V75.756L78.3346 75.8219L80.5528 73.488L81.8487 73.2187C81.9511 72.6442 82.5298 73.3204 82.5298 73.3204C83.1084 73.2546 83.2109 73.6615 83.2109 73.6615L83.9583 73.7633C84.5731 73.9308 84.1994 74.0027 84.2296 74.236C84.2959 74.5771 84.5731 74.4754 84.5731 74.4754L84.6756 73.7334L85.0192 73.7992L84.6756 73.3923L84.0608 73.123L83.3797 72.8537C82.9336 72.2134 83.4821 72.345 83.9583 72.4108H84.7057C84.7057 72.4108 85.5556 73.5598 85.5556 73.8351C85.5556 74.1104 85.9655 74.1762 85.9655 74.1762L86.4778 74.1104L86.6466 74.5173H87.1589L87.3277 74.8584H88.3524L88.4187 74.3497L87.4663 74.1822L87.4 73.6077L86.7189 73.4401C86.4778 72.4587 86.8877 72.1894 87.165 72.6263L87.5085 72.6921L87.4061 71.8483L87.8159 71.7466L87.7135 70.5617L87.3699 70.46V70.053L88.8044 70.1189C88.702 69.3768 88.8707 69.0357 88.8707 69.0357H89.2806L89.3469 69.305L91.0889 69.4726L92.3185 68.0842C92.2522 67.9825 92.4571 67.9166 92.3185 67.779C92.1497 67.6114 91.9086 67.779 91.6374 67.6114C91.3661 67.4439 91.6374 66.4625 91.5711 66.259C91.5048 66.0196 92.5234 65.6845 92.3547 66.1932C92.1859 66.7018 92.3547 66.9352 92.3547 66.9352C93.1021 66.259 93.7169 67.001 93.6506 67.1746C93.5843 67.3481 94.0604 67.5157 94.3317 67.3421C94.6029 67.1686 94.9465 67.8508 94.844 68.1859C94.7416 68.5211 93.7169 68.4552 93.6506 68.1201C93.5843 67.785 93.4095 67.8807 93.307 68.0543C93.2045 68.2278 92.6922 68.3236 92.3848 68.156C92.3185 68.1201 92.3185 68.0902 92.2823 68.0543L91.0527 69.4426H91.119C91.8001 69.8496 91.4626 70.3582 91.2215 70.46C90.9804 70.5617 90.6067 70.5617 90.6067 70.5617L90.5042 70.8011L89.0395 70.9028L88.937 71.4773C88.1896 71.3756 87.9124 72.1535 88.0872 72.5604C88.262 72.9674 88.0872 73.3025 88.0872 73.3025L88.702 73.5718L89.4856 73.3324C89.588 72.7579 90.1004 72.6562 90.5765 72.3151C91.0226 71.974 91.77 72.9554 91.5289 73.3982C91.2878 73.8411 91.2878 74.0386 91.2878 74.0386L91.3541 74.5472L90.7754 74.7866L90.3294 75.026L90.2631 75.2953H88.7261L88.4548 75.5645L87.7074 75.6304L87.4663 75.9715L86.954 76.0373C86.954 76.0373 86.1041 76.4442 86.4417 76.8811C86.7852 77.3539 85.0071 77.288 84.6334 76.6417C84.5309 77.2162 83.886 76.7075 83.886 76.7075L83.2712 76.54L83.2049 75.6962C83.1024 75.1217 82.0114 75.1217 82.0777 75.5286C82.144 75.9356 80.0344 75.6962 80.0344 75.6962L79.3533 76.0373L78.7385 76.4083L78.6722 76.6776L77.6475 76.7794L77.2015 77.0187L77.0327 76.6776H76.5867L76.1406 77.3179C74.9472 77.3838 73.82 78.06 73.9225 78.3353C74.025 78.6105 73.4765 78.9098 73.4765 78.9098L72.9641 79.0773L72.6205 79.586L71.9394 79.8254L71.837 81.0102L71.4934 81.2496V81.7583L71.0835 81.86V82.1293L70.5049 82.1951L70.8485 83.0389L71.2945 83.2783C72.0781 83.38 71.7405 84.3614 71.7405 84.3614L72.1866 84.4273L72.4277 85.0676L72.8737 85.9832C73.0425 86.6594 73.5548 86.4919 73.7959 86.4559C74.037 86.3901 74.2419 87.1322 74.2419 87.1322L76.4902 87.198C76.4902 87.198 76.3877 87.4374 76.7614 87.5391C77.1713 87.6408 79.7632 87.7785 79.8656 87.6049C79.7632 87.0963 81.3002 86.9646 81.909 87.4374C82.5238 87.8802 83.3736 87.6049 83.3736 87.6049L84.2235 88.6223L84.8022 89.873L85.7545 90.1423L86.4356 90.3098L86.6767 91.2912L87.1891 91.3571L87.3578 91.9974C87.9726 92.4402 87.1891 93.4216 87.1891 93.4216V94.6724L87.6351 94.9117L87.5688 95.3845L88.3162 96.1265L89.1661 96.1924L91.3119 98.4604L93.0177 98.9691L93.2889 99.8847L93.7349 99.8188L94.0785 99.5496L95.4407 99.4837L96.1219 98.8434L96.8693 98.7417L103.18 93.4276L102.601 93.0865V91.8358C103.626 91.0938 103.692 89.7712 102.704 89.6695C101.987 89.5678 102.294 88.8257 102.975 88.6881L103.385 88.5205V88.0119L104.681 86.827V85.9114L101.848 83.5775C100.588 83.1347 101.848 80.3939 102.698 80.4298C103.548 80.4956 102.632 76.1989 102.632 76.1989L102.186 75.9595L102.288 74.5712H101.673L100.649 75.8937L100.377 76.8093C100.275 77.9942 96.7608 77.7907 96.592 77.6231C96.4232 77.4556 95.2298 76.9469 95.2298 76.9469C95.2298 76.9469 94.3076 76.2049 94.1388 76.4383C93.97 76.6716 93.1865 76.169 93.1865 76.3365C93.1865 76.5041 92.439 75.9296 92.439 75.9296L91.3119 75.5227L92.1618 75.3551L91.993 74.6789L93.4577 75.4209C93.6265 75.6603 94.3799 75.5885 94.3799 75.5885L94.621 75.8578C94.621 75.8578 95.067 75.792 95.3684 76.1271C95.6397 76.4682 97.1405 76.1929 97.1405 76.1929L97.5504 76.534L98.1652 76.7734L99.9373 76.8392L100.004 75.756L100.347 75.4149L100.281 74.7387L100.691 74.3976V73.8231L101.034 73.7214L101.101 72.4707L101.372 72.4049V69.6641L100.522 68.8502C100.456 69.1195 99.5696 69.1195 99.5696 69.1195C99.5696 69.1195 99.3285 69.5264 99.1597 69.5264C98.9909 69.5264 99.4008 70.0351 99.2622 70.3702C99.1597 70.7113 98.6835 70.7113 98.6835 70.7113L97.8337 70.9507L97.5926 71.22H96.6704L96.5679 70.4779L97.5926 70.2086L98.1712 69.9393L98.4425 69.3648C98.5088 68.7903 99.1899 68.8562 99.1899 68.8562C99.1899 68.8562 100.486 67.773 100.552 67.2644C100.618 66.7557 101.064 65.3374 101.848 65.3374H103.313C103.891 65.098 103.723 64.356 103.723 64.356L104.47 64.2543L104.572 64.6612C104.572 64.6612 105.597 64.7629 105.7 64.5954C105.802 64.4278 106.043 64.0209 106.314 64.1884C106.586 64.356 107.508 63.7815 107.508 63.7815C107.574 63.3746 108.973 63.5421 108.973 63.5421L109.141 63.0335C109.141 63.0335 108.189 61.7109 108.014 61.7109C107.839 61.7109 106.923 60.8971 106.821 61.2023C105.898 60.9629 105.971 59.7122 105.971 59.7122L105.627 58.8983C105.627 58.4256 104.777 57.4741 104.603 57.5758C103.753 56.9355 104.361 56.2234 104.603 56.1515C104.844 56.0797 105.386 55.3078 105.386 55.3078L105.657 54.4939L106.61 54.2246L106.712 53.4826L106.2 53.4167C106.2 53.4167 106.779 52.3994 107.05 52.3994C107.321 52.3994 109.196 52.3994 109.37 52.2977C109.545 52.1959 109.883 51.2803 109.883 51.1128C109.883 50.9452 110.329 50.8734 110.497 50.8435C110.666 50.7777 111.076 50.3348 111.179 50.1014C111.486 49.5269 111.112 48.1027 110.871 48.3421L110.865 48.348Z" fill="#009EDB"/>
<path d="M79.4617 68.9339C79.528 68.8681 79.6305 69.2032 79.8053 69.1374C79.9741 69.1015 80.0464 69.4426 79.8716 69.4426C79.6968 69.4426 79.7028 69.646 79.7028 69.7478C79.7028 69.8495 79.7028 70.053 79.5642 70.1906C79.4255 70.3283 79.3231 70.2265 79.1543 70.1547C78.9855 70.053 78.9132 70.053 78.6781 70.053C78.4732 70.053 78.642 70.3941 78.642 70.3941C78.642 70.3941 77.7559 70.3582 77.9247 70.2265C78.0935 70.0949 78.2683 70.059 78.1296 69.9572C77.991 69.8555 78.1296 69.7897 78.1296 69.6161C78.1296 69.4426 78.5395 69.5144 78.437 69.4127C78.2984 69.275 78.437 68.8023 78.642 69.0716L78.7806 68.7664C78.642 68.6287 78.7444 68.5988 78.4732 68.4971C78.2321 68.3953 78.437 67.8867 78.437 67.8867L78.4732 67.5456C78.5395 67.1027 79.3954 67.0728 79.4617 67.4438C79.4979 67.8149 79.4617 68.0841 79.4617 68.0841L79.7028 68.1859C79.7028 68.1859 79.6667 68.4552 79.4617 68.4552C79.2568 68.4552 79.4617 68.5928 79.3231 68.7245L79.4617 68.9279V68.9339Z" fill="#009EDB"/>
<path d="M76.665 69.3701C76.8037 69.1008 77.0749 68.0176 77.4124 68.3528C77.75 68.6879 77.961 68.3528 77.961 68.3528C77.961 68.3528 78.1297 68.5203 78.0273 68.8614C77.961 69.2025 77.8585 69.5377 77.6536 69.6035C77.4486 69.6394 77.2798 69.771 77.0086 69.8069C76.8037 69.8429 76.665 69.3641 76.665 69.3641V69.3701Z" fill="#009EDB"/>
</g>
<defs>
<clipPath id="clip0_1136_7421">
<rect width="159" height="134" fill="white"/>
</clipPath>
</defs>
</svg>
